<svg xmlns="http://www.w3.org/2000/svg" xmlns:xlink="http://www.w3.org/1999/xlink" viewBox="0 0 4680 3120"><defs><style>.cls-1{fill:none;}.cls-2{isolation:isolate;}.cls-3,.cls-49,.cls-6{fill:#fff;}.cls-3{opacity:0;}.cls-4{fill:#2b878f;}.cls-5{fill:#89c5c0;}.cls-7{fill:#d0e8e6;}.cls-62,.cls-8{mix-blend-mode:multiply;}.cls-9{opacity:0.6;}.cls-10{fill:#fae8c1;}.cls-11,.cls-66{fill:#0b212f;}.cls-12,.cls-61{fill:#f65c2c;}.cls-13{fill:#0e2c3e;}.cls-14,.cls-67{fill:#ff8f6a;}.cls-15,.cls-59{fill:#5f1113;}.cls-16{fill:#a1d1cd;}.cls-17,.cls-46{fill:#dd6668;}.cls-18{clip-path:url(#clip-path);}.cls-19{fill:#ffae78;}.cls-20{fill:#ffad78;}.cls-21{fill:#ffac78;}.cls-22{fill:#ffab79;}.cls-23{fill:#ffaa79;}.cls-24{fill:#ffa979;}.cls-25{fill:#ffa879;}.cls-26{fill:#ffa779;}.cls-27{fill:#ffa679;}.cls-28{fill:#ffa57a;}.cls-29{fill:#ffa47a;}.cls-30{fill:#ffa37a;}.cls-31{fill:#ffa27a;}.cls-32{fill:#ffa07a;}.cls-33{fill:#ff9f7a;}.cls-34{fill:#ff9e7b;}.cls-35{fill:#ff9d7b;}.cls-36{fill:#ff9c7b;}.cls-37{fill:#ff9b7b;}.cls-38{fill:#ff9a7b;}.cls-39{fill:#ff997b;}.cls-40{fill:#ff987c;}.cls-41{fill:#ff977c;}.cls-42{fill:#ff967c;}.cls-43{fill:#ff957c;}.cls-44{clip-path:url(#clip-path-2);}.cls-45{clip-path:url(#clip-path-3);}.cls-46,.cls-47,.cls-48,.cls-49,.cls-50,.cls-51,.cls-56,.cls-57,.cls-58,.cls-59,.cls-61,.cls-66,.cls-67,.cls-74{fill-rule:evenodd;}.cls-47,.cls-55{fill:#f0ecec;}.cls-48,.cls-52{fill:#f73b4f;}.cls-50{fill:#b92c3b;}.cls-51,.cls-54{fill:#ab1827;}.cls-53,.cls-57{fill:#470d0e;}.cls-56,.cls-65{fill:#ffaa3c;}.cls-58,.cls-60{fill:#30090a;}.cls-62{opacity:0.5;}.cls-63{fill:#07161f;}.cls-64,.cls-74{fill:#e9932a;}.cls-68{fill:#255559;}.cls-69{fill:#559fa5;}.cls-70{fill:#29536e;}.cls-71{fill:#376e92;}.cls-72{fill:#133a53;}.cls-73{fill:#240707;}.cls-75{fill:#420f2e;}.cls-76{fill:#f6d897;}</style><clipPath id="clip-path"><path class="cls-1" d="M2360.07,1149.29s.95-17.22.33-22.74-.91-24.83.09-28.69a6.38,6.38,0,0,1,6.39,1.36c3,2.73,5.08,18.59,1.92,27.08,0,0,.62,10,2.6,16.56Z"/></clipPath><clipPath id="clip-path-2"><path class="cls-1" d="M2367.4,1231.36s9.94-26.87,8.83-33.6-14.14-13.64-18.4-20.42c-2.91-4.63-3-27.44-2.69-29.14s9.34-6.84,12.9-9,8.38-6.23,9.83-5.48,1.78,10.43-3.92,15.12c-5.28,4.33-8.85,5-8.85,5l.19,7.64s6.61-.12,11.59,3.08,13.18,2.41,18.72,1.07,9.31-13.12,9.31-13.12.86,22.65-3.73,33.26c0,0-4.31,8-7.37,9.71,0,0,.71,47.45-7.34,77.67Z"/></clipPath><clipPath id="clip-path-3"><path class="cls-1" d="M2375.87,1138a21.64,21.64,0,0,1,8.19,1.55l.75,2.85s7.28-.92,9.89.9l.56,2.11a16.24,16.24,0,0,1,8.26,1.82s-.22,9.59-4.07,14a11.27,11.27,0,0,1-6.75-.84l-1.41,2.41s-5.48,2.46-7-2l.17-7s-1.65,3.34-2.53,4-5.23.54-6.29-2.52S2375.87,1138,2375.87,1138Z"/></clipPath></defs><title>08</title><g class="cls-2"><g id="_08" data-name="08"><rect id="_08-2" data-name="08" class="cls-3" width="4680" height="3120"/><path class="cls-4" d="M2519.34,2512.69c-34.08,21.54-69,52-106.8,87.81,114.6,53.91,232.68,83,331.83,79.16,21.54-43.12,41.73-67.48,82.35-101.91C2732.32,2579,2627.4,2550.26,2519.34,2512.69Z"/><path class="cls-5" d="M2420.19,2527.23c101.83,96.23,211.31,149.17,308.17,144.13,11.45-74,52.16-117.21,97.52-176.7-91.77.52-188.58-51.51-286.89-119.06C2502.19,2412.67,2463.08,2465.27,2420.19,2527.23Z"/><path class="cls-6" d="M2460.69,2526.76c66.55,62.94,156.77,108,222.61,117.71a509,509,0,0,1,37.54-81.44c-62.44-14.45-147.4-56.2-213.92-100.29C2492.07,2482.05,2476.68,2503.54,2460.69,2526.76Z"/><path class="cls-6" d="M2515.22,2452.08c65.81,43.68,150.12,85.12,212,100a533.9,533.9,0,0,1,33.26-49.78c-60.18-11.6-142.24-52.41-205.48-95.88C2542.1,2419.41,2528.91,2434.78,2515.22,2452.08Z"/><path class="cls-6" d="M2774.11,2503.1a563.7,563.7,0,0,0-33.78,50.54c8.45,1.6,16.87,2.8,25.17,3.53,10.15-16.93,21.73-33.51,36-52.27a192,192,0,0,1-27.41-1.86Z"/><path class="cls-7" d="M2380.59,480c-914.88,0-1659.9,182.46-1688.43,410.24h-3.51V2406.77h5.59a110.38,110.38,0,0,1-2.93-25.14c0-234.05,756.32-423.79,1689.28-423.79,878.15,0,1599.79,168.1,1681.57,383V944.56a114,114,0,0,0,7.71-40.77C4069.87,669.74,3313.56,480,2380.59,480Z"/><g class="cls-8"><path class="cls-7" d="M648.94,1282.79v92.85c161.83-167.73,387.64-249.45,626.55-284.49V981C1039.59,1014.09,807.24,1100,648.94,1282.79Z"/><path class="cls-7" d="M648.94,1742.22c184.19-143.13,379.81-207.57,626.55-241.2v-48.39C1028.24,1490.27,834.6,1555,648.94,1697.84Z"/><path class="cls-7" d="M1183.05,1294.87c1,27.07,1.92,36.63,1.83,54.72,36.3-9.26,54.49-13.32,90.61-13.35V1281C1239.44,1280.66,1220.44,1285,1183.05,1294.87Z"/><path class="cls-7" d="M821.07,1416.11c.12,23.85.28,32.93.15,51.2,106.57-62.61,226.86-78.53,343.69-112.36.14-18-1-27.53-2.4-54.38C1046.56,1335.36,926.82,1353.64,821.07,1416.11Z"/><path class="cls-7" d="M783.18,1439.56c-61.08,38.65-101.2,61.92-134.24,86.18v53.34c33.6-25,72.85-48.85,134.44-88.38C783.09,1473.05,783.18,1463.36,783.18,1439.56Z"/><path class="cls-7" d="M664.86,1808.51C778,1733.28,870.18,1688,1001.57,1651.06c2.68-25,4-36.75,6.71-56.2-136.23,32.44-228.61,76.64-344.59,153.61C664.15,1766.91,664.39,1779.93,664.86,1808.51Z"/><path class="cls-7" d="M1041.75,1635.43c87-33,136.46-44.89,233.74-50.27V1537c-93.29,0-145.33,14.55-233.61,46.34C1041.83,1601.65,1041.81,1612.52,1041.75,1635.43Z"/><path class="cls-7" d="M1052.18,1278.73c77.75-20.6,147.94-41.94,223.31-55.39v-85c-110.56,18-155,39.64-227.17,62.68C1049.86,1232.13,1050.68,1248.58,1052.18,1278.73Z"/><path class="cls-7" d="M648.94,1433v49.11c104.36-94.1,243.34-165.16,368.92-195.23-.87-29.58-1.38-45.7-2.32-76.18C872.49,1251.78,749.26,1329.76,648.94,1433Z"/><path class="cls-7" d="M648.94,1604.35v42c32.47-24.83,68.07-46.5,114.74-75.55-1.12-15.89-1.66-23.83-2.78-40.21C712.84,1561.14,678.77,1582.2,648.94,1604.35Z"/><path class="cls-7" d="M798.81,1549.39c141-73.83,318.49-121.2,476.68-137.1v-48.47c-157.3,20.18-339.36,60.46-476.4,142.72C799,1524,798.92,1532.46,798.81,1549.39Z"/><path class="cls-7" d="M1178.83,1698c37-9.12,56.18-12.88,96.66-20.15v-52c-38.93,4.29-57.93,7.21-94.86,14.92C1179.91,1663.58,1179.55,1675.32,1178.83,1698Z"/><path class="cls-7" d="M818.72,1853.33c111.63-54.37,220.08-115.34,340-150.2.7-22.92,1-34.81,1.75-57.94-118,31.35-227.63,84.24-341.29,127.76C819,1805,818.89,1822,818.72,1853.33Z"/><path class="cls-7" d="M648.94,1964.38c38.43-29.38,86.17-60.53,137.19-91.6,0-32.18.06-49.75.08-82.63-48.83,28.7-90.13,56.17-137.27,95.68Z"/><path class="cls-7" d="M648.94,2064.51c.39.45.77.91,1.16,1.37,24-28.39,43.43-29.31,119.78-77.52.08-18.49.13-31.65.21-60.68-62.73,38.56-82.44,49.18-121.15,79.7Z"/><path class="cls-7" d="M799,1969.54c153.5-98.74,301-166.65,476.52-213.75v-48c-175.07,43.32-320.53,111.42-476.72,201.91C798.85,1938.27,798.88,1951.27,799,1969.54Z"/></g><g class="cls-9"><path class="cls-5" d="M1636.67,1588.82q39.52-11,79.28-20.86V784.07q-39.75,9.39-79.28,20Z"/><path class="cls-5" d="M1890.24,1530.8q40.17-7.21,80.47-13.22V874.84q-40.29,5.67-80.47,12.52Z"/><path class="cls-5" d="M2029.53,1509.46q40.4-5.14,80.88-9.09V741.78q-40.48,3.51-80.88,8.23Z"/><path class="cls-5" d="M2154.75,1496.42q40.52-3.26,81.11-5.36V967.25q-40.58,1.8-81.11,4.79Z"/><path class="cls-5" d="M2277.39,1489.25q40.59-1.47,81.21-1.74V857.82q-40.6-.09-81.21,1Z"/><path class="cls-5" d="M2523.61,1491.37q40.56,2.18,81,5.53V753q-40.48-3.78-81-6.36Z"/><path class="cls-5" d="M2892.37,1536.26q40,7.65,79.88,16.51V1358.4q-39.86-9-79.88-16.7Z"/><path class="cls-5" d="M2767.42,1515.35q40.26,5.79,80.41,12.78V980.52q-40.12-7.29-80.41-13.39Z"/><path class="cls-5" d="M3008.43,1561.05q39.77,9.39,79.29,20V1207.77q-39.54-10.83-79.29-20.42Z"/><path class="cls-5" d="M2640.71,1500.15q40.44,3.88,80.8,9v-485q-40.35-5.37-80.8-9.55Z"/><path class="cls-5" d="M2405.49,1487.6q40.61.42,81.2,2v-514q-40.58-1.78-81.2-2.35Z"/><path class="cls-5" d="M1754.67,1558.69q39.87-9.26,79.91-17.29V992.64q-40,7.83-79.91,16.86Z"/></g><path class="cls-10" d="M969.29,1688c0,69.38,193.46,318,468.86,265.67v-8.82c81-8.76,169.48-15,262.93-18.13-1.92-73.18-12.45-416.16-12.59-416.15C1279.61,1525.7,969.29,1599.4,969.29,1688Z"/><polygon class="cls-11" points="3221.95 2487.38 3228.43 2487.58 3236.77 2417.44 3222.89 2425.85 3221.95 2487.38"/><path class="cls-12" d="M3226,2368.14c.06-18.8,7.05-300.76-2.17-342.35s-15.76-46.58-15.61-96.07-82-41-82-41,6.93,96.22,18.07,125,43.15,404.85,33.69,435.5a95.21,95.21,0,0,1-7.87,18.19c-10.32,18.67-12.66,22.48,1.17,22.53,17.78.06,33.35-3.52,36.8-11.22,6-13.29,11.23-59.09,23.4-59.05,0,0,8.31-17.07,6.24-26.06C3234.59,2380,3225.89,2387,3226,2368.14Z"/><path class="cls-13" d="M3227.18,2377.76c-5.46,34.4-23.72,93.7-36.29,99.26-20.81,4.61-20.92,2.32-20.79-9.7-10.32,18.67-22,28.22-8.18,28.27,17.78.06,45.51,1.3,49-6.4,6-13.29,9.36-63.66,21.52-63.61l-4,62,6.46.2s9.83-85.36,7.76-93.89C3239.81,2382.19,3230.61,2379.86,3227.18,2377.76Z"/><polygon class="cls-11" points="3278.49 2487.38 3284.96 2487.58 3293.3 2417.44 3279.42 2425.85 3278.49 2487.38"/><path class="cls-14" d="M3282.48,2368.14c.06-18.8,7.05-300.76-2.17-342.35s-15.76-46.58-15.61-96.07-82-41-82-41,6.93,96.22,18.07,125,43.15,404.85,33.7,435.5a95.85,95.85,0,0,1-7.88,18.19c-10.32,18.67-12.66,22.48,1.18,22.53,17.77.06,33.34-3.52,36.8-11.22,6-13.29,11.23-59.09,23.39-59.05,0,0,8.31-17.07,6.24-26.06C3291.12,2380,3282.43,2387,3282.48,2368.14Z"/><path class="cls-13" d="M3283.72,2377.76c-5.47,34.4-23.73,93.7-36.3,99.26-20.8,4.61-20.91,2.32-20.79-9.7-10.32,18.67-22,28.22-8.17,28.27,17.77.06,45.5,1.3,49-6.4,6-13.29,9.35-63.66,21.52-63.61l-4,62,6.46.2s9.84-85.36,7.76-93.89C3296.34,2382.19,3287.14,2379.86,3283.72,2377.76Z"/><path class="cls-15" d="M3319.29,1644c-16.74-15.27-66.59-64.72-66.59-64.72l-91.62,81.87-15.47,100.32h-.52l-26.24,195.46s24.79,2,135.21,2c47.78-57.42,74.31-184.66,77.56-193.45C3334.79,1757.77,3355.18,1676.74,3319.29,1644Z"/><rect class="cls-16" x="2648.47" y="2212.95" width="148.45" height="6"/><path class="cls-16" d="M2845.93,1900.72H2600.31c-5.43,0-9.83,3.09-9.83,6.91s4.4,6.91,9.83,6.91h245.62c5.42,0,9.82-3.1,9.82-6.91S2851.35,1900.72,2845.93,1900.72Z"/><rect class="cls-16" x="2596.62" y="1912.81" width="245.62" height="6.91"/><polygon class="cls-16" points="2618.45 2263.49 2629.83 2263.49 2824.95 1919.31 2813.57 1919.31 2618.45 2263.49"/><polygon class="cls-16" points="2622.13 1919.31 2817.25 2263.49 2828.63 2263.49 2633.51 1919.31 2622.13 1919.31"/><rect class="cls-16" x="2720.37" y="1919.31" width="11.38" height="344.18"/><path class="cls-17" d="M2378,1141.13l-18.65,9.78,3.14,11.86,20.24,9.54,13.31-4.69,5.35-3.76s3.52-9.62,3.55-11.38-1.39-5.28-1.39-5.28Z"/><g class="cls-18"><polygon class="cls-19" points="2359.49 1149.3 2371.96 1149.3 2371.96 1145.33 2359.49 1148.63 2359.49 1149.3"/><polygon class="cls-19" points="2359.49 1148.63 2371.96 1145.33 2371.96 1143.31 2359.49 1146.6 2359.49 1148.63"/><polygon class="cls-20" points="2359.49 1146.6 2371.96 1143.31 2371.96 1141.29 2359.49 1144.58 2359.49 1146.6"/><polygon class="cls-21" points="2359.49 1144.58 2371.96 1141.29 2371.96 1139.27 2359.49 1142.56 2359.49 1144.58"/><polygon class="cls-22" points="2359.49 1142.56 2371.96 1139.27 2371.96 1137.24 2359.49 1140.54 2359.49 1142.56"/><polygon class="cls-23" points="2359.49 1140.54 2371.96 1137.24 2371.96 1135.22 2359.49 1138.52 2359.49 1140.54"/><polygon class="cls-24" points="2359.49 1138.52 2371.96 1135.22 2371.96 1133.2 2359.49 1136.5 2359.49 1138.52"/><polygon class="cls-25" points="2359.49 1136.5 2371.96 1133.2 2371.96 1131.18 2359.49 1134.48 2359.49 1136.5"/><polygon class="cls-26" points="2359.49 1134.48 2371.96 1131.18 2371.96 1129.16 2359.49 1132.46 2359.49 1134.48"/><polygon class="cls-27" points="2359.49 1132.46 2371.96 1129.16 2371.96 1127.14 2359.49 1130.44 2359.49 1132.46"/><polygon class="cls-28" points="2359.49 1130.44 2371.96 1127.14 2371.96 1125.12 2359.49 1128.42 2359.49 1130.44"/><polygon class="cls-29" points="2359.49 1128.42 2371.96 1125.12 2371.96 1123.1 2359.49 1126.4 2359.49 1128.42"/><polygon class="cls-30" points="2359.49 1126.4 2371.96 1123.1 2371.96 1121.08 2359.49 1124.38 2359.49 1126.4"/><polygon class="cls-31" points="2359.49 1124.38 2371.96 1121.08 2371.96 1119.06 2359.49 1122.36 2359.49 1124.38"/><polygon class="cls-32" points="2359.49 1122.36 2371.96 1119.06 2371.96 1117.04 2359.49 1120.33 2359.49 1122.36"/><polygon class="cls-33" points="2359.49 1120.33 2371.96 1117.04 2371.96 1115.02 2359.49 1118.31 2359.49 1120.33"/><polygon class="cls-34" points="2359.49 1118.31 2371.96 1115.02 2371.96 1112.99 2359.49 1116.29 2359.49 1118.31"/><polygon class="cls-35" points="2359.49 1116.29 2371.96 1112.99 2371.96 1110.97 2359.49 1114.27 2359.49 1116.29"/><polygon class="cls-36" points="2359.49 1114.27 2371.96 1110.97 2371.96 1108.95 2359.49 1112.25 2359.49 1114.27"/><polygon class="cls-37" points="2359.49 1112.25 2371.96 1108.95 2371.96 1106.93 2359.49 1110.23 2359.49 1112.25"/><polygon class="cls-38" points="2359.49 1110.23 2371.96 1106.93 2371.96 1104.91 2359.49 1108.21 2359.49 1110.23"/><polygon class="cls-39" points="2359.49 1108.21 2371.96 1104.91 2371.96 1102.89 2359.49 1106.19 2359.49 1108.21"/><polygon class="cls-40" points="2359.49 1104.17 2359.49 1106.19 2371.96 1102.89 2371.96 1101.94 2371.7 1100.94 2359.49 1104.17"/><polygon class="cls-41" points="2359.49 1102.15 2359.49 1104.17 2371.7 1100.94 2371.2 1099.05 2359.49 1102.15"/><polygon class="cls-42" points="2359.49 1100.13 2359.49 1102.15 2371.2 1099.05 2370.7 1097.16 2359.49 1100.13"/><polygon class="cls-43" points="2365.56 1096.5 2359.49 1098.11 2359.49 1100.13 2370.7 1097.16 2370.52 1096.5 2365.56 1096.5"/><polygon class="cls-43" points="2359.49 1098.11 2365.56 1096.5 2359.49 1096.5 2359.49 1098.11"/></g><g class="cls-44"><polygon class="cls-19" points="2405.77 1273.12 2405.77 1265.74 2377.89 1273.12 2405.77 1273.12"/><polygon class="cls-19" points="2376.34 1273.12 2377.89 1273.12 2405.77 1265.74 2405.77 1260.15 2375.06 1268.28 2376.34 1273.12"/><polygon class="cls-20" points="2375.06 1268.28 2405.77 1260.15 2405.77 1254.57 2373.68 1263.05 2375.06 1268.28"/><polygon class="cls-21" points="2373.68 1263.05 2405.77 1254.57 2405.77 1248.98 2372.29 1257.83 2373.68 1263.05"/><polygon class="cls-22" points="2372.29 1257.83 2405.77 1248.98 2405.77 1243.39 2370.91 1252.61 2372.29 1257.83"/><polygon class="cls-23" points="2370.91 1252.61 2405.77 1243.39 2405.77 1237.8 2369.53 1247.39 2370.91 1252.61"/><polygon class="cls-24" points="2369.53 1247.39 2405.77 1237.8 2405.77 1232.21 2368.15 1242.16 2369.53 1247.39"/><polygon class="cls-25" points="2368.15 1242.16 2405.77 1232.21 2405.77 1226.62 2366.77 1236.94 2368.15 1242.16"/><polygon class="cls-26" points="2366.77 1236.94 2405.77 1226.62 2405.77 1221.04 2365.39 1231.72 2366.77 1236.94"/><polygon class="cls-27" points="2365.39 1231.72 2405.77 1221.04 2405.77 1215.45 2364 1226.49 2365.39 1231.72"/><polygon class="cls-28" points="2364 1226.49 2405.77 1215.45 2405.77 1209.86 2362.62 1221.27 2364 1226.49"/><polygon class="cls-29" points="2362.62 1221.27 2405.77 1209.86 2405.77 1204.27 2361.24 1216.05 2362.62 1221.27"/><polygon class="cls-30" points="2361.24 1216.05 2405.77 1204.27 2405.77 1198.68 2359.86 1210.83 2361.24 1216.05"/><polygon class="cls-31" points="2359.86 1210.83 2405.77 1198.68 2405.77 1193.09 2358.48 1205.6 2359.86 1210.83"/><polygon class="cls-32" points="2358.48 1205.6 2405.77 1193.09 2405.77 1187.51 2357.1 1200.38 2358.48 1205.6"/><polygon class="cls-33" points="2357.1 1200.38 2405.77 1187.51 2405.77 1181.92 2355.72 1195.16 2357.1 1200.38"/><polygon class="cls-34" points="2354.84 1191.83 2355.72 1195.16 2405.77 1181.92 2405.77 1176.33 2354.84 1189.8 2354.84 1191.83"/><polygon class="cls-35" points="2354.84 1189.8 2405.77 1176.33 2405.77 1170.74 2354.84 1184.21 2354.84 1189.8"/><polygon class="cls-36" points="2354.84 1184.21 2405.77 1170.74 2405.77 1165.15 2354.84 1178.62 2354.84 1184.21"/><polygon class="cls-37" points="2354.84 1178.62 2405.77 1165.15 2405.77 1159.56 2354.84 1173.04 2354.84 1178.62"/><polygon class="cls-38" points="2354.84 1173.04 2405.77 1159.56 2405.77 1153.97 2354.84 1167.45 2354.84 1173.04"/><polygon class="cls-39" points="2354.84 1167.45 2405.77 1153.97 2405.77 1148.39 2354.84 1161.86 2354.84 1167.45"/><polygon class="cls-40" points="2354.84 1156.27 2354.84 1161.86 2405.77 1148.39 2405.77 1147.74 2404.54 1143.12 2354.84 1156.27"/><polygon class="cls-41" points="2354.84 1150.68 2354.84 1156.27 2404.54 1143.12 2403.16 1137.9 2354.84 1150.68"/><polygon class="cls-42" points="2400.81 1132.93 2354.84 1145.09 2354.84 1150.68 2403.16 1137.9 2401.85 1132.93 2400.81 1132.93"/><polygon class="cls-43" points="2354.84 1139.51 2354.84 1145.09 2400.81 1132.93 2379.68 1132.93 2354.84 1139.51"/><polygon class="cls-43" points="2354.84 1139.51 2379.68 1132.93 2354.84 1132.93 2354.84 1139.51"/></g><g class="cls-45"><polygon class="cls-19" points="2403.52 1165.22 2403.52 1159.64 2382.44 1165.22 2403.52 1165.22"/><polygon class="cls-19" points="2382.44 1165.22 2403.52 1159.64 2403.52 1158.48 2378.06 1165.22 2382.44 1165.22"/><polygon class="cls-20" points="2375.95 1165.22 2378.06 1165.22 2403.52 1158.48 2403.52 1157.33 2375.8 1164.66 2375.95 1165.22"/><polygon class="cls-21" points="2375.8 1164.66 2403.52 1157.33 2403.52 1156.17 2375.51 1163.58 2375.8 1164.66"/><polygon class="cls-22" points="2375.51 1163.58 2403.52 1156.17 2403.52 1155.01 2375.22 1162.49 2375.51 1163.58"/><polygon class="cls-23" points="2375.22 1162.49 2403.52 1155.01 2403.52 1153.85 2374.94 1161.41 2375.22 1162.49"/><polygon class="cls-24" points="2374.94 1161.41 2403.52 1153.85 2403.52 1152.69 2374.65 1160.32 2374.94 1161.41"/><polygon class="cls-25" points="2374.61 1160.18 2374.65 1160.32 2403.52 1152.69 2403.52 1151.53 2374.61 1159.17 2374.61 1160.18"/><polygon class="cls-26" points="2374.61 1159.17 2403.52 1151.53 2403.52 1150.37 2374.61 1158.01 2374.61 1159.17"/><polygon class="cls-27" points="2374.61 1158.01 2403.52 1150.37 2403.52 1149.21 2374.61 1156.85 2374.61 1158.01"/><polygon class="cls-28" points="2374.61 1156.85 2403.52 1149.21 2403.52 1148.05 2374.61 1155.69 2374.61 1156.85"/><polygon class="cls-29" points="2374.61 1155.69 2403.52 1148.05 2403.52 1146.89 2374.61 1154.53 2374.61 1155.69"/><polygon class="cls-30" points="2374.61 1154.53 2403.52 1146.89 2403.52 1145.73 2374.61 1153.38 2374.61 1154.53"/><polygon class="cls-31" points="2374.61 1153.38 2403.52 1145.73 2403.52 1144.57 2374.61 1152.21 2374.61 1153.38"/><polygon class="cls-32" points="2374.61 1152.21 2403.52 1144.57 2403.52 1143.41 2374.61 1151.06 2374.61 1152.21"/><polygon class="cls-33" points="2374.61 1151.06 2403.52 1143.41 2403.52 1142.25 2374.61 1149.9 2374.61 1151.06"/><polygon class="cls-34" points="2374.61 1149.9 2403.52 1142.25 2403.52 1141.09 2374.61 1148.74 2374.61 1149.9"/><polygon class="cls-35" points="2374.61 1148.74 2403.52 1141.09 2403.52 1139.93 2374.61 1147.58 2374.61 1148.74"/><polygon class="cls-36" points="2374.61 1146.42 2374.61 1147.58 2403.52 1139.93 2403.52 1139.24 2403.4 1138.8 2374.61 1146.42"/><polygon class="cls-37" points="2402.91 1137.77 2374.61 1145.26 2374.61 1146.42 2403.4 1138.8 2403.13 1137.77 2402.91 1137.77"/><polygon class="cls-38" points="2374.61 1144.1 2374.61 1145.26 2402.91 1137.77 2398.53 1137.77 2374.61 1144.1"/><polygon class="cls-39" points="2374.61 1142.94 2374.61 1144.1 2398.53 1137.77 2394.15 1137.77 2374.61 1142.94"/><polygon class="cls-40" points="2374.61 1141.78 2374.61 1142.94 2394.15 1137.77 2389.76 1137.77 2374.61 1141.78"/><polygon class="cls-41" points="2374.61 1140.62 2374.61 1141.78 2389.76 1137.77 2385.38 1137.77 2374.61 1140.62"/><polygon class="cls-42" points="2374.61 1139.46 2374.61 1140.62 2385.38 1137.77 2380.99 1137.77 2374.61 1139.46"/><polygon class="cls-43" points="2374.61 1138.3 2374.61 1139.46 2380.99 1137.77 2376.61 1137.77 2374.61 1138.3"/><polygon class="cls-43" points="2374.61 1138.3 2376.61 1137.77 2374.61 1137.77 2374.61 1138.3"/></g><path class="cls-46" d="M2384.06,1139.52s.56,8.62.43,14.26l1.39-11.52-1.07.11Z"/><path class="cls-46" d="M2394.7,1143.27a152.3,152.3,0,0,1-2,17.08,139.81,139.81,0,0,0,4-15h-1.44Z"/><path class="cls-47" d="M2390.46,1238.24a19.1,19.1,0,0,0,11.67,5.38c.54-7.6-8.4-26.26-8.4-26.26Z"/><path class="cls-48" d="M2402.44,1273.32s-20.69-7-39.43-43.06l.72-2.85-4.44,3.27v.09c0,.65-.16,5.66-2.39,16-.41,1.89-.89,4-1.46,6.2-2.71,10.72-12.38,28.54-18.36,38.55-2.63,4.39-4.57,7.29-4.9,7.39-.93.09-41.28-62.91-45.86-74.82-2.8-7.3-5.7-17.89-7.71-25.26l-.12-.45a67.79,67.79,0,0,0-2.42-8c-.92-1.25-5.89-2.9-5.89-2.9s-20.71,8.07-25.46,47.33a91.55,91.55,0,0,0,7.35,48.23,80.12,80.12,0,0,0,10.57,17.91l7.22-8s28.31,30,31.42,36.41,6.88,19.11,21.07,34.59,40,22.39,43.27,21.35,25.61-56.4,26.78-84l13-25.85s-2.57-13.35-6.77-21.28C2399.33,1255.89,2402.88,1265.16,2402.44,1273.32Z"/><path class="cls-49" d="M2401.38,1241.29c-15.47-.83-33.92-33.41-33.92-33.41l-5.24,20.64c11.11,27,33.69,41.33,33.43,41.16s8.25-25.34,8.25-25.34c-1.63-9.3-9.18-24.34-9.18-24.34Z"/><path class="cls-50" d="M2402.44,1273.32s-20.69-7-39.43-43.06l.72-2.85-4.44,3.27a66.46,66.46,0,0,0,11.06,23.23c17.91,71.73-23.93,97.11-23.93,97.11s-10.85-6.67-12.46-27.71c-.77-9.64,1-21.66,3.12-31.84-2.63,4.39-4.57,7.29-4.9,7.39-6.13,9.45-16.28,22.52-16.28,22.52s-35.76-35.94-40.23-48.74,10.65-48.6,10.65-48.6l-7.71-25.26-.12-.45-.25-.78c-31.29,14.44-27.5,72-26.17,85.47a80.12,80.12,0,0,0,10.57,17.91l7.22-8s28.31,30,31.42,36.41,6.88,19.11,21.07,34.59,40,22.39,43.27,21.35,25.61-56.4,26.78-84l13-25.85s-1.55-10.54-5.75-18.47A39.43,39.43,0,0,1,2402.44,1273.32Z"/><path class="cls-51" d="M2337.08,1291.47l-4.9,7.39s-17.81,21-17.18,30.94c.78,12.27,14.43,26.65,14.43,26.65s-5.47-23.53-3-34.32S2337.08,1291.47,2337.08,1291.47Z"/><polygon class="cls-52" points="2240.4 1410 2245.56 1515.93 2294.43 1523.11 2266.96 1396.35 2240.4 1410"/><path class="cls-14" d="M2173.7,2327.27c-7.61-23.33-23.64-312.52-14.67-334.4s14.54-95.1,14.54-95.1-66.11-6.41-66,31.25-5.13,41.45-12.56,73.11,40,249.19,40,263.5-7,9-9.47,19.32c-1.67,6.84,5,19.83,5,19.83,9.79,0,14,34.83,18.83,44.95,2.78,5.86,15.31,8.58,29.62,8.53,11.14,0,9.26-2.93.95-17.14A71.15,71.15,0,0,1,2173.7,2327.27Z"/><path class="cls-12" d="M2391,2337.93c-7.6-20.06-12.22-50.18-21.89-90.82s-49.37-226.12-49.52-268.8,3.78-42.9-2.84-71-31.4-80.74-31.4-80.74l-79.4-5.48s53.41,101.78,50,131.92-14.69,54.49-5,95.63S2337.19,2239,2339,2266.29c.77,11.5-2.74,12.58-2.74,12.58.16,19.82,6.34,41.05,10.46,45.15,5.29,5.25,11.25,31.37,16.27,31.36s47.46,4.52,47.46,4.52C2411.57,2350.22,2398.58,2358,2391,2337.93Z"/><path class="cls-12" d="M2285.33,1826.57l-79.4-5.48s53.41,101.78,50,131.92c-.44,3.84-1,7.58-1.63,11.28,27-4.35,50.57-9.12,65.75-12.38.72-18.38,1.54-24-3.32-44.6C2310.11,1879.21,2285.33,1826.57,2285.33,1826.57Z"/><path class="cls-12" d="M2107.59,1929c.07,21.69-1.64,32.15-4.53,43.16,17.44,2.88,38.58,3.31,61,2.24,6-30,9.56-76.65,9.56-76.65S2107.46,1891.36,2107.59,1929Z"/><path class="cls-53" d="M2268,1470.05l-105-7.24s-44.45,72.65-54.62,112.57-5.35,350.52-5.35,350.52c43.19,15.06,222.17,0,222.17,0s-33.87-244.19-40.91-278.34S2268,1470.05,2268,1470.05Z"/><path class="cls-15" d="M2262.73,1487.59c-.66-9.57-1-15.4-1-15.4l-98.66-9.38s-69.5,80.06-79.67,120,19.7,343.1,19.7,343.1c20.53,7.16,71.76,7.51,119.85,5.91-3-57.77-16.87-340.69-3.53-375.23C2234.25,1518.09,2262.72,1487.6,2262.73,1487.59Z"/><polygon class="cls-54" points="2169.16 1162.48 2165.43 1204.23 2242.68 1196.19 2223.45 1158.55 2169.16 1162.48"/><path class="cls-6" d="M2272.15,1243.2c-17.07-27.62-27.72-61.82-27.72-61.82s-24.7-18.88-108.48,0c-2.28.52-4.39,91.27-4.39,91.27s38.87,152.16,31.47,190.13c0,0,44.44,37.5,110.72,4.86,0,0-8.61-119.49-2.58-146.11S2289.22,1270.81,2272.15,1243.2Z"/><path class="cls-55" d="M2136,1181.41c-2.28.52-4.39,91.27-4.39,91.27s38.87,152.16,31.47,190.13c0,0,27.27,23,70.95,17.29V1305l-60.6-130.17A369.62,369.62,0,0,0,2136,1181.41Z"/><path class="cls-47" d="M2254.19,1316.22a112.27,112.27,0,0,1-15.89,3.81.55.55,0,0,0-.18,0c-1.15.18-1.78.26-1.78.26l-1,0a3.32,3.32,0,0,0-.43,0h-.2c-3.31.12-11.62.42-21.17.59l-.26,0c-16,.3-35.43.32-41.24-1.19-6.94-1.82-25.73-21.59-37.39-34.43,2,8,4.64,19.26,7.61,32.35,1.51,2.92,3,5.88,4.31,8.83v0c7.49,16.21,12.51,32.15,12.07,39.35-.17,2.86-1.39,7.74-3.45,14.08,5.92,32.19,10.13,63.24,8.28,79.53h36.34s-.48-.22-1.35-.57l-32.5-13.7s4.68-18,4.35-31.21,2.22-75.26,2.22-75.26c5.68-3.19,42.31-7.93,44.6-8.23-11.46,3.37-27.74,10.12-28.73,10.54,1.63-.38,38.82-9,50.87-9.89a.25.25,0,0,1,.12,0c.46,0,.9-.06,1.33-.08l.89,0a120.13,120.13,0,0,1,17.65.13,35.08,35.08,0,0,0,3.7-3.39c9.6-10.06,13.45-24.71,13.06-27.37C2273.5,1308.22,2263.52,1313.2,2254.19,1316.22Z"/><polygon class="cls-52" points="2135.95 1181.41 2112.85 1290.62 2158.69 1365.91 2148.33 1487.5 2093.19 1535.04 2216.55 1530.19 2216.55 1304.98 2169.16 1169.29 2135.95 1181.41"/><path class="cls-51" d="M2167.55,1179.36l-20.33,6.53s13.39,21.32,26.33,29.62c0,0-15.5,14.79-19.26,21.1,0,0,34.69,41.38,44.44,53.27a141.24,141.24,0,0,1,15.12,22.38l-20.89-72.5Z"/><path class="cls-56" d="M2177.35,1174.07c-.57-4,1.45-9.82,1.45-9.82l1.74-.71-3.15-2.77s-17.84,14.76-30.26,19.31a327.12,327.12,0,0,0,29.87,29.83s-16.76,9.5-23.15,19.32c0,0,27.21,30.42,40.71,50.47s17.74,28.66,18.21,30.57,3.78,14.2,3.78,14.2,1.91-30.57-4.29-54.18S2177.92,1178,2177.35,1174.07Z"/><path class="cls-51" d="M2284.39,1269.82c2.87-16.9-3.46-33.67-3.46-33.67-6.48-8.06-11.25-14.6-18.09-18.57l-5.26-11.77a146.48,146.48,0,0,1,9.67-16.5l-12.44-.37-5.17-.88-4.18-9.35-22-13.36,28.68,56.33,5.64,16,5.6,23.21,8.37,262.25,28.42,11.93L2271,1402.51Z"/><path class="cls-56" d="M2247.82,1203s4.71-12.34,17.55-17.27c0,0-27-16.22-36.24-22.81s-17.38-11.54-17.38-11.54l-7.16,4.64,20.54,9.07s28.74,66.23,30.95,78.9,9.31,73.26,9.31,73.26,13.68-60.85,9.34-100.21C2274.73,1217,2257.58,1206.23,2247.82,1203Z"/><path class="cls-52" d="M2136,1181.41c-35.14-2.36-130.28,161.36-130.28,161.36s76.57,101.55,102.74,134.86c6.33-4.18,22.92-21,29.35-27.41-25.71-33.39-65.28-110.58-65.28-110.58s55.39-56.29,63.47-74C2144.27,1247.45,2136,1181.41,2136,1181.41Z"/><path class="cls-51" d="M2213.33,1321c-16,.3-35.43.32-41.24-1.19-10.13-2.66-45.52-43.56-47.1-45.34a.15.15,0,0,1,0-.06l-.49-1.91c-.05.5-.12,1-.22,1.53-.05.32-.13.64-.18,1a8.7,8.7,0,0,1-.23,1.13c-1,4.61-9,17.82-9,17.82l21.67,35.6h0l22.16,36.4-10.36,121.59L2093.19,1535l65.41-2.57c1.53-9.72,2.94-15.78,2.94-15.78l41.62-3.31c-33.55,1-49.72-3.18-49.72-3.18l9.5-41.37,18.69-8.36h34.92v-.14c-5.18-.32-17.36-1.1-18-1.38L2185,1446.2s4.68-18.06,4.35-31.21-16.77-76.21-16.77-76.21c5.39-3,38.62-7.45,44-8.15v-9.73c-1,0-2,0-3,.06Z"/><path class="cls-54" d="M2070.32,1329.51l-22.41,14.72,18.34.39,23.28,27-17.05-32s55.39-56.29,63.47-74c8.32-18.19,0-84.23,0-84.23C2134.37,1295.24,2070.32,1329.51,2070.32,1329.51Z"/><path class="cls-54" d="M2163.3,2348.49c-10.12-4.22-24.82-49.36-29.22-75.54-2.75,1.61-10.16,3.37-12.45,12.28-1.67,6.5,6.25,71.46,6.25,71.46l5.2-.16-3.2-47.18c9.8,0,12.53,38.29,17.32,48.41,2.79,5.86,25.11,4.92,39.42,4.87,11.13,0,1.73-7.3-6.58-21.51C2180.14,2350.27,2180.05,2352,2163.3,2348.49Z"/><path class="cls-54" d="M2396.17,2347.15c-41.53,7.52-43.29-36.81-59.89-68.28-4.06,3.35-9.73,8.91-5.68,22.1,5.07,16.56,8.84,59.23,8.84,59.23l5.41,0s-3.4-41.42,1.89-36.16,9.67,36.12,14.69,36.1,60,2.16,60,2.16C2422.27,2354.52,2407.83,2354.36,2396.17,2347.15Z"/><path class="cls-54" d="M2204.18,1365.74a5.91,5.91,0,1,0,5.91,5.91A5.91,5.91,0,0,0,2204.18,1365.74Z"/><path class="cls-54" d="M2204.18,1400.38a5.91,5.91,0,1,0,5.91,5.91A5.91,5.91,0,0,0,2204.18,1400.38Z"/><path class="cls-54" d="M2204.18,1428.17a5.92,5.92,0,1,0,5.91,5.92A5.91,5.91,0,0,0,2204.18,1428.17Z"/><path class="cls-14" d="M2187.77,1088.54l-6.3,93.94s9.63,8.44,22.7,9.47,22.36-8.14,22.36-8.14L2213.87,1106S2208.9,1081.36,2187.77,1088.54Z"/><path class="cls-12" d="M2199.94,1085.45c-10.44-.31-9.11,7.27-9.11,7.27s16.13,28.93,25.79,30.19l-2.85-20.8S2210.38,1085.76,2199.94,1085.45Z"/><path class="cls-57" d="M2176,1086.19l-.35-1.82c-2.3-11.7-4.09-22.92-3.78-32.15,1-28.15-9-47.11-9-47.11l-11-1.8s-12.08-4.42-20.17,1.8c-6.57,5-7.74,29.17,0,68.3,7,35.59-1,73.84-2.9,90.77a.56.56,0,0,0,0,.12c-.18,1.63-.3,3.07-.34,4.29-.2,5.76,2.67,15.89,6.08,25.71,4.41,12.74,9.73,25,10.41,26.48-.36-1-2.33-7.38.06-18,2.65-11.71,29.57-30.9,37-53.33,1.54-4.61,2-10.25,1.7-16.53C2183.2,1119.14,2179.21,1102.28,2176,1086.19Z"/><path class="cls-58" d="M2176,1086.19l-.35-1.82-14.08-69.29h-14.14s-11.44,9.42-9.79,57.25c1.64,46.46-8.19,89.42-8.77,91.85a.56.56,0,0,0,0,.12s11.7-27.07,15-54.13c3.11-25.36,8.56-40,9.24-41.7-.38,1.51-2.93,13.55.05,56.78,3.25,46.59-15.51,59.8-18.58,69v0c4.41,12.74,9.73,25,10.41,26.48-.36-1-2.33-7.38.06-18,2.65-11.71,29.57-30.9,37-53.33,1.54-4.61,2-10.25,1.7-16.53Z"/><path class="cls-58" d="M2248.32,979.45C2234,973.8,2226,959.76,2226,959.76l-2.24,7.23-4.74,5.73,21.35,39s14.13,28.08,19.46,24.42,16.59-17.78,14.1-32.23S2262.61,985.1,2248.32,979.45Z"/><path class="cls-59" d="M2242.37,976.43s1.77,3.31,12.38,11.74c12.33,9.8,17,44.35-3.21,53.16,0,0,19-4.44,24.52-24.75C2281.05,998.1,2261.56,991,2242.37,976.43Z"/><path class="cls-14" d="M2260,1044.4c-1.34-7.29,2.49-24.74,0-38.37s-21.92-32.28-41-33.3c-41.27-2.25-57.4,53.73-57.4,53.73s-.18,41.66,13.39,63.77c1.6,2.67,43.11,22.63,51.74,22.14s11-3.33,14-6,18.12-14.11,22.77-27.9c4.33-12.82-.66-24.61-3.08-32.4A14.55,14.55,0,0,1,2260,1044.4Z"/><path class="cls-60" d="M2228,1089.69c6.85,3,17.23-10.27,17.23-10.27l-27-4.49S2221.18,1086.65,2228,1089.69Z"/><path class="cls-6" d="M2229.69,1080.81a15.11,15.11,0,0,0,9.61-2.38l-15.42-2.56S2224.41,1080.14,2229.69,1080.81Z"/><path class="cls-54" d="M2236.5,1074.68c-8.11-1.57-18.23.25-18.23.25l27,4.49S2244.61,1076.25,2236.5,1074.68Z"/><path class="cls-54" d="M2228,1089.27c-4.19-1.24-8.37-10.22-8.37-10.22.38,8.43,6.72,14.54,11.72,13.37s11.4-10.14,11.4-10.14S2232.22,1090.51,2228,1089.27Z"/><path class="cls-12" d="M2233.06,1050l.13-.62s-2.61,11-2.22,13.73,6.32,7.08,7.71,7-.74-1.54-2.35-6.89S2233.06,1050,2233.06,1050Z"/><path class="cls-14" d="M2164.65,1051.83s-3.06-5.1-12.36-7.09c0,0-6.64-1-8.47,6.81,0,0-.83,14.29,5.48,22.76s17.45,9,20.1,8.31,2.49-6.75,2.49-6.75S2167.76,1055.75,2164.65,1051.83Z"/><path class="cls-59" d="M2249.05,999.42c-4.92,3.68-8.41,11.15-8.41,11.15s5.3-3.8,9-4.54,5.43,2.74,5.43,2.74a8.94,8.94,0,0,0,0-7.11S2252.6,996.78,2249.05,999.42Z"/><path class="cls-59" d="M2205.42,998.9c-8.61,3.68-14.71,11.15-14.71,11.15s9.26-3.8,15.8-4.54,9.5,2.74,9.5,2.74a5.59,5.59,0,0,0,0-7.11S2211.62,996.26,2205.42,998.9Z"/><path class="cls-59" d="M2217.55,951.85c-9.93,0-16,9.66-25.22,14.89s-35.39,15.2-41.7,23.51-11.3,35.83,0,54.51c0,0,10.39.28,16.83,13.59,0,0-3.71-17.76-1.21-28.56,0,0,10.42-2.09,20.56-17.28s15.49-35.72,22-38.21,15.95-.83,20.93,4.15v-1.66S2228.66,951.85,2217.55,951.85Z"/><path class="cls-58" d="M2210.63,953.77c-8.28,4.94-15.28,51.68-34.61,70.74a71.56,71.56,0,0,0,22.79-30.86c5.59-14.75,8.81-18.93,16.43-20.49s16.8,7.29,16.8,7.29,4.27-3.6,10.33,1.57c0,0-4.49-5.71-6.33-17.1S2218.91,948.84,2210.63,953.77Z"/><path class="cls-61" d="M2150.63,1052.6a14.59,14.59,0,0,0-3.16,9.83s1.36-6,3.91-7.39a10.81,10.81,0,0,1,2.29.92c2.44,1.19,7,3.89,14.52,9.93C2168.19,1065.89,2159.27,1054.3,2150.63,1052.6Z"/><path class="cls-61" d="M2160.18,1059.24s-6.35-.33-7.78,0-2.31,8.3,0,11.39,5.25,1.09,9.19.9a17.94,17.94,0,0,1,6.6.81s1.76-4.34,0-6.45S2160.18,1059.24,2160.18,1059.24Z"/><path class="cls-58" d="M2169,1005.1c-15.26,12.48-21.52,10-21.52,10s10.74,21.52,27.06,10.55,25.76-57.75,34.27-70C2208.78,955.6,2184.24,992.62,2169,1005.1Z"/><path class="cls-58" d="M2189,975c-11.54,9.67-38.89,16.07-38.89,16.07a14.71,14.71,0,0,0-2.16,4.18s20.49,0,36-11.94S2205,957.09,2205,957.09l-1.79,1.42S2200.5,965.3,2189,975Z"/><path class="cls-59" d="M2176,1021c-16.52,11.67-25.05-.55-25.05-.55s9.3,13.68,23.54,5.21,20.22-34.93,27.74-55.79c4.39-12.16,8.86-16.26,11.82-17.56C2193.66,957.56,2192.28,1009.5,2176,1021Z"/><path class="cls-59" d="M2214.07,952.29a13.66,13.66,0,0,1,3.48-.44A5,5,0,0,0,2214.07,952.29Z"/><path class="cls-59" d="M2226.94,953.76c-12.35-4.21-19,3.54-21.36,16.55s-5.76,20.72-5.76,20.72a128.7,128.7,0,0,0,7.71-21c3.73-13.16,15.08-17.15,22.18-11.79s6.95,18.24,6.95,18.24S2239.28,958,2226.94,953.76Z"/><path class="cls-58" d="M2136.37,1093.25c-3-39.83-14.32-56.94-4.58-88.14,0,0-12.52,10.45-2.92,70.87s-13.69,82.67-14.79,105.45,20.94,34.2,20.94,34.2l1-3.73s-18.06-7.51-17-30.47S2139.39,1133.08,2136.37,1093.25Z"/><path class="cls-60" d="M2195.8,1026.1c-4.06.81-6.49,5.79-5.43,11.12s5.21,9,9.27,8.2,6.49-5.78,5.43-11.12S2199.86,1025.3,2195.8,1026.1Z"/><path class="cls-60" d="M2213,1033.16a12,12,0,0,0-.88-2.28c-.18-.41-.45-.8-.69-1.23s-.58-.82-.9-1.24a12.58,12.58,0,0,0-2.45-2.23,11,11,0,0,0-1.54-.91l-.83-.41-.8-.29-.86-.29-.89-.21a13.69,13.69,0,0,0-1.81-.31c-.61-.09-1.23,0-1.84-.07s-1.21.08-1.81.12a16.65,16.65,0,0,0-3.42.87,12.43,12.43,0,0,0-1.55.68l-.67.37-.37.2-.33.21a14.76,14.76,0,0,0-2.29,1.78,13.1,13.1,0,0,0-1.63,1.81,11.84,11.84,0,0,0-1,1.56,10.83,10.83,0,0,0-.52,1.06l-.17.38.27-.32c.18-.2.42-.53.76-.89s.76-.8,1.27-1.26a19.53,19.53,0,0,1,1.8-1.42,19.28,19.28,0,0,1,2.31-1.36l.31-.16.32-.13.71-.3a13.92,13.92,0,0,1,1.41-.49c.46-.16,1-.24,1.49-.37s1-.14,1.56-.23,1.06-.08,1.6-.07a14.35,14.35,0,0,1,1.61.09,14.18,14.18,0,0,1,1.59.24l.78.17.76.24.8.26.68.3a8.51,8.51,0,0,1,1.34.69,13.6,13.6,0,0,1,2.3,1.74,15.32,15.32,0,0,1,1.7,2,11.92,11.92,0,0,1,.64,1,9.35,9.35,0,0,1,.53,1c.3.61.54,1.17.72,1.63a15.25,15.25,0,0,1,.49,1.51,9.21,9.21,0,0,0-.09-1.61A13,13,0,0,0,2213,1033.16Z"/><path class="cls-60" d="M2246.41,1028.12c-3.15.63-5,4.49-4.21,8.63s4,7,7.19,6.36,5-4.49,4.21-8.63S2249.56,1027.5,2246.41,1028.12Z"/><path class="cls-60" d="M2256.4,1028.12a8.2,8.2,0,0,0-2-1.71c-.4-.22-.84-.44-1.26-.64l-.6-.23-.3-.11-.15,0-.08,0-.09,0h0a7.13,7.13,0,0,0-3-.21,7.84,7.84,0,0,0-1.46.39c-.43.2-.89.37-1.27.59-.83.41-1.5.89-2.21,1.31a8,8,0,0,0-1.11.8,12,12,0,0,0-.85.94,14.59,14.59,0,0,0-1.23,1.82,23.83,23.83,0,0,0-1.42,2.89c-.29.72-.43,1.14-.43,1.14l.79-.93c.49-.58,1.18-1.44,2-2.41.43-.47.9-1,1.41-1.47a10.13,10.13,0,0,1,.8-.67c.3-.16.49-.33.9-.52l2.22-1.11c.37-.2.72-.31,1.09-.47a5.92,5.92,0,0,1,1.07-.25,5.27,5.27,0,0,1,2.16.09l1.16.34,1,.42a9.12,9.12,0,0,1,1.74,1.17l.36.34.32.37a6.37,6.37,0,0,1,.57.74,8.83,8.83,0,0,1,.76,1.5,8.42,8.42,0,0,1,.41,1.28,7.08,7.08,0,0,1,.22,1.18,5.45,5.45,0,0,0,.19-1.22,7.63,7.63,0,0,0-.52-3.28A7,7,0,0,0,2256.4,1028.12Z"/><g class="cls-62"><path class="cls-51" d="M2216.55,1335v-4.23c-11.42,3.43-27.13,9.94-28.1,10.35C2189.42,1340.86,2203.12,1337.68,2216.55,1335Z"/></g><path class="cls-14" d="M2178,1490.24a94.62,94.62,0,0,1-17-10.28c-9.68-7.16-16.22-15.42-18.95-16.28l-9.19-8.59-14.84,14.4,17.68,7s-1,8.69-.52,9.74,11.27,19.15,22.33,25.3l-2.05,9.42s-.76-1.57-6.07-.92l7.7,7.34,5.65-.09,1-.81a19.25,19.25,0,0,0,9-1.05l0-2a23.86,23.86,0,0,0,9.37-.94l-.66-3.94c3-1,9.56-3.57,12.78-6.54C2194.27,1511.92,2183.61,1500.63,2178,1490.24Zm2.59,22.9-1.21-7.32,4.82,4.34S2182.22,1511.64,2180.61,1513.14Z"/><path class="cls-12" d="M2173.2,1493s3.81,3.9,3.87,4.46a85,85,0,0,0,.18,11.31c.57,4.85,4.9,13.6,4.9,13.6l-4-25.49Z"/><path class="cls-12" d="M2169.88,1497.83l1.77,4.5s-4.71,16.13,1.16,23c0,0-1.33-19.76.52-24.09Z"/><path class="cls-12" d="M2165.45,1507.91s-5.22,15.29-2.67,19.32l4.55-19.35-3.23-3.85Z"/><path class="cls-12" d="M2144.93,1487.21a10.83,10.83,0,0,0-9.71-1c6.31,15.8,22.33,25.3,22.33,25.3l-2.05,9.42c-3.56-1.93-6.07-.92-6.07-.92l7.7,7.34,8.32-19.41S2149.73,1490.39,2144.93,1487.21Z"/><path class="cls-53" d="M2897.89,2289.63c-53.26-25.11-85.65-50.51-85.65-50.51l-16.82,8.65,5.68,35.4,26.08,12.26-1.66-10.84c97.64,64.7,132.27,60.41,132.27,60.41S2951.14,2314.75,2897.89,2289.63Z"/><path class="cls-53" d="M2478.37,2293.15c-53.25,25.13-59.9,55.37-59.9,55.37s34.63,4.29,132.28-60.41l-1.67,10.84,26.08-12.26,5.68-35.39-16.81-8.66S2531.64,2268,2478.37,2293.15Z"/><path class="cls-63" d="M2815.12,1801.25l-187.45-11.61c-177.83,32.67-176.69,75.65-174.37,101.72s74.5,365,74.5,365c36.74,7.9,58.69-1.45,58.69-1.45s-10-222-21.39-262.23c-6.82-24-20.85-77.62,10-85.61,11.89-3.08,107.9-29.31,114.41-23.67s74,34.76,82.25,44.32,8.25,75.59,9.12,89.92,6.58,227.33,6.58,227.33c36.93,14.33,49.24,2.89,49.24,2.89s18.37-220.28,19.24-237.22,12.7-102.47,12.26-133.32S2815.12,1801.25,2815.12,1801.25Z"/><polygon class="cls-64" points="1756.79 2531.62 1777.47 2531.62 1789.04 1938.05 1746.91 1938.05 1756.79 2531.62"/><polygon class="cls-64" points="2072.03 2435.51 2092.72 2435.51 2104.29 1934.18 2062.16 1934.18 2072.03 2435.51"/><polygon class="cls-64" points="3007.39 2531.62 3028.08 2531.62 3037.95 1938.05 2995.82 1938.05 3007.39 2531.62"/><polygon class="cls-64" points="2692.15 2435.51 2712.84 2435.51 2722.7 1934.18 2680.58 1934.18 2692.15 2435.51"/><ellipse class="cls-64" cx="2366.94" cy="1877.11" rx="792.01" ry="117.43"/><path class="cls-65" d="M2366.94,1738c-437.42,0-792,52.57-792,117.42s354.59,117.43,792,117.43,792-52.58,792-117.43S2804.36,1738,2366.94,1738Z"/><path d="M2596.22,1674.43a13.36,13.36,0,0,0-1.18-1,12.81,12.81,0,0,0-1.3-.91,9.71,9.71,0,0,0-1.22-.68,7.47,7.47,0,0,0-1.33-.5,7.73,7.73,0,0,0,.79,1.18,11.7,11.7,0,0,0,.93,1,14.26,14.26,0,0,0,2.48,2,11,11,0,0,0,1.22.67,6.61,6.61,0,0,0,1.33.5,7.73,7.73,0,0,0-.79-1.18A10.45,10.45,0,0,0,2596.22,1674.43Z"/><path d="M2600.29,1693.56a14.7,14.7,0,0,0-2.47-2,10.22,10.22,0,0,0-1.23-.67,6.43,6.43,0,0,0-1.32-.5,6.88,6.88,0,0,0,.78,1.17,10.77,10.77,0,0,0,.94,1,13.45,13.45,0,0,0,1.18,1.06,11.69,11.69,0,0,0,1.29.91,9.12,9.12,0,0,0,1.23.68,7.24,7.24,0,0,0,1.32.5,6.71,6.71,0,0,0-.78-1.18A10.64,10.64,0,0,0,2600.29,1693.56Z"/><path d="M2607.83,1709.64c-.44-.35-.93-.71-1.44-1s-1-.63-1.54-.89-1-.48-1.43-.65a.82.82,0,1,0-.47.73c.33.32.73.68,1.17,1s.94.72,1.44,1,1,.63,1.54.89a14.17,14.17,0,0,0,1.43.65,9,9,0,0,0,1.51.46,8.75,8.75,0,0,0-1-1.19A12.75,12.75,0,0,0,2607.83,1709.64Z"/><path class="cls-14" d="M2751.07,1388.7l-45.8,10s-10.37,19.07-15.61,26.2-15.27,52.45-5.17,61.11,48.57,16.61,63-8.76,18.8-52.4,13.06-59.51S2751.07,1394.3,2751.07,1388.7Z"/><path class="cls-14" d="M2699.82,1432.74c17.7,25.69,46.38-2.47,46.38-2.47l10-85.52-54.45,26.57Z"/><path class="cls-12" d="M2763.07,1235.84c-15.6-13.31-54-14.08-63.71-.77s-9.46,43.25-11.77,49.89-10.49,14.59-12.8,23.54c-2.11,8.29.12,54.19,9.5,65.88a1.09,1.09,0,0,1,.2.22,7.8,7.8,0,0,0,2.33,2c11.53,5.89,42.22,4.35,58.85-10.23a70.39,70.39,0,0,0,14.83-19,.12.12,0,0,1,0-.08c6-11,9.46-22.43,12.78-30.33,5.37-12.78,9.78-34.19,8.69-46.57C2781,1258.87,2778.69,1249.15,2763.07,1235.84Z"/><path class="cls-12" d="M2701,1395.06c14.07.76,32.88-3,44.65-13.35a62.62,62.62,0,0,0,7.09-7.42l3.46-29.54-54.45,26.57Z"/><path class="cls-14" d="M2746.92,1241.29c-9.82-8.39-28.69-11.79-43.74-9.84a16.16,16.16,0,0,0-3.82,3.62c-9.72,13.31-9.46,43.25-11.77,49.89s-10.49,14.59-12.8,23.54c-2.11,8.29.12,54.19,9.5,65.88a1.09,1.09,0,0,1,.2.22,7.8,7.8,0,0,0,2.33,2c6.69,3.42,19.85,4.33,33,1.64a45.44,45.44,0,0,0,9.74-6.43,70.24,70.24,0,0,0,14.83-19,.22.22,0,0,1,0-.08c6-11,9.46-22.42,12.79-30.32,5.36-12.79,9.78-34.2,8.69-46.58C2764.85,1264.32,2762.54,1254.6,2746.92,1241.29Z"/><path class="cls-15" d="M2774.6,1243.26s12.86,4.11,19,10.25a15,15,0,0,0-5.75-9c-4.76-3.26-8.77-1.23-15.7-4s-16.32-26.09-27.45-34.92-36.66-7.09-44.91,0a21,21,0,0,0-4.88,6.3h0v0s0,.06,0,.1a33.81,33.81,0,0,0-3.5,13.51s-4.8,19.67,0,33.16a59.55,59.55,0,0,1,7.29-22.4,51.17,51.17,0,0,0,18.62,11.5s-5.35-5-7.84-8.79a85.28,85.28,0,0,0,17.62,10.15s-2.88-4.42-2.88-6.34,7.3-10.35,15.74-10.17,24.58,5.75,32.64,21.11,0,16.77-4.46,20.78c0,0,2.21,19,1.72,35a78.73,78.73,0,0,1-1.31,12.84c-.12.59-.27,1.13-.41,1.66l11.53-10.53s.1-7,4.54-17.12c.48-1.16,1.05-2.35,1.68-3.59l.06-.1c.24-.48.5-1,.77-1.48,2.75-5.14,11.23-14.77,10-24.57C2795.47,1257.33,2778.69,1249.41,2774.6,1243.26Z"/><path class="cls-60" d="M2729.94,1258.87s-4,2.11-3.61,8.35c0,0,5.15,1.82,13.62,4.13a28,28,0,0,1,15.64,11.32s-1-6.18-7-12.44C2744.24,1265.72,2735.83,1261.18,2729.94,1258.87Z"/><path class="cls-60" d="M2734,1279.75c-9.31-4-12.54,9-12.54,9h0c1.1-3.22,3.28-6.45,7.36-6.87a10.89,10.89,0,0,1,6.66,1.59,16.63,16.63,0,0,1,6.76,7.71,10.28,10.28,0,0,1,.9,3.92h0S2743.28,1283.78,2734,1279.75Z"/><path class="cls-53" d="M2728.29,1282.7c-2.16-.31-4.25,1.9-4.68,4.92s1,5.73,3.11,6,4.24-1.9,4.68-4.93S2730.43,1283,2728.29,1282.7Z"/><path class="cls-60" d="M2694.09,1273.46c-3.94-.75-5.79,8.39-5.79,8.39l.07.06c1.13-3.46,3.19-6.14,5.3-5.37a4.8,4.8,0,0,1,2.39,2.55,18.58,18.58,0,0,1,1,2.43,47.73,47.73,0,0,1,1.74,8.93C2698.78,1289.21,2698.59,1274.32,2694.09,1273.46Z"/><path class="cls-53" d="M2692.58,1277.81c-1.33-.32-2.79,1-3.27,3s.22,3.87,1.54,4.19,2.79-1,3.26-3S2693.9,1278.13,2692.58,1277.81Z"/><path class="cls-60" d="M2693,1250.19s-5.77,3.5-2.24,11c0,0,3.7-.43,6.9,6.1,0,0-.51-7.68-1.66-14.21Z"/><path class="cls-15" d="M2710,1331.18c-9.6,2.94-17.8,1.13-20.78-2.2a15.77,15.77,0,0,0,8.72,4.74c5.63,1,14.15-.31,18.17-3.39,4.41-3.39,5.31-6.4,5.31-6.4l-1.35-.9S2719.54,1328.23,2710,1331.18Z"/><path class="cls-14" d="M2769.24,1320.22c-9.57,7.7-6.93,26.55-6.93,26.55,1.92,8.34,11.23,10.21,19.87,3.2,10-8.07,16.31-26.76,7.32-35.24C2781.92,1307.59,2769.24,1320.22,2769.24,1320.22Z"/><path class="cls-12" d="M2783.19,1325.61c-6.16-2.25-13.63,6.5-13.63,6.5s-3.18,10.77-.38,15,9.87-1.36,9.94-7.41-2.06-6.23-2.06-6.23,2.45-5.17,6.45-4.09,4.07,8.26,4.07,8.26S2789.35,1327.86,2783.19,1325.61Z"/><path class="cls-60" d="M2784.77,1252.23c-2.7-3-10.17-9-10.17-9l-11.73-1.38s13.08,13.35,12.9,20.75-7.74,11.84-7.74,11.84a28.94,28.94,0,0,0,8.69,4.62,27.47,27.47,0,0,0,12.29,1.15l1.13,5.28s8.27-6.31,7.88-16.09S2784.77,1252.23,2784.77,1252.23Z"/><path class="cls-60" d="M2717,1207.7s-9.46,4.35-7.08,13.3,14.16,21.75,14.16,21.75-9.12-14.21-9.77-22.77S2717,1207.7,2717,1207.7Z"/><path class="cls-60" d="M2737.51,1219c-11.26-.25-14.54,20.48-13.4,23.8,0,0,.33-8.21,14.31-8.61s22.34,6.11,22.34,6.11S2748.77,1219.21,2737.51,1219Z"/><path class="cls-60" d="M2689.46,1237.38s-.89,2.32,6.77,3.46l2.36-4.61s-6.17-7.89-7.29-10.76A90.65,90.65,0,0,0,2689.46,1237.38Z"/><path class="cls-54" d="M2756.68,1286.35a3.14,3.14,0,0,1,.22.41,10.22,10.22,0,0,0-1.66-2.51c-4.59-5.08-16.32-8.87-25.72-9.92-6-.75-11.13-.43-13.11,1.32h0c-.61-.15-1.2-.28-1.77-.4a32,32,0,0,0-11.21-.85c-.62.06-1.11.13-1.47.19a2.18,2.18,0,0,0-.61-1.17c-1.87-1.34-7-2.39-11.43-2.33h-.12a22.87,22.87,0,0,0-4,.29l-.07,0h0c-1.84.34-3.29,1-3.92,2-2.3,3.8-1,27.24,3.39,30.31a7.05,7.05,0,0,0,4.11,1,8.31,8.31,0,0,0,7.19-3.59c4.41-5.86,6.14-17.85,5.8-24a13.89,13.89,0,0,1,12.39,1.57l0-.09a22.74,22.74,0,0,0-.85,3c-.22,1-.31,1.63-.31,1.63-1.12,6.91-.63,16.25,2.2,20.57a17.8,17.8,0,0,0,14,8.4,34.73,34.73,0,0,0,11.34-.61c9.47-1.87,17.51-12.57,16.78-21.14,2.31-.24,5.28,1.32,5.28,1.32l20.14,21.3a5.22,5.22,0,0,1,2.78-.53l-22.48-24Zm-75.14-5.48a77.81,77.81,0,0,0,.7,11.6A57.16,57.16,0,0,1,2681.54,1280.87Zm12.79,19.76c-.24.22-.48.42-.72.61a8.29,8.29,0,0,1-4.45,1.56h-.35a4.36,4.36,0,0,1-1.34-.35,7.07,7.07,0,0,1-3-3.91c-2.09-5.8-3.49-20.73-.42-24.11,1.26-1.4,3.82-2.05,6.55-2.11,3.65.07,7.4,1.16,8.57,2.93C2701.74,1279.12,2698.27,1297,2694.33,1300.63Zm49.69,8a20.78,20.78,0,0,1-5.2,1.82,27.37,27.37,0,0,1-7.76.33c-6.41-.84-12.08-4.07-14.14-9.77-3.16-8.74-1.82-20.28,1.26-23.53,1.36-1.43,6.17-1.78,11.93-1.16,10.33,1.25,23.26,5.51,24.71,12.16C2756.75,1297.32,2749.86,1305.32,2744,1308.64Zm12.95-21.71h0Z"/><path class="cls-12" d="M2731.08,1371c-21,8.37-45.11,5.76-46.59,3.65a7.8,7.8,0,0,0,2.33,2c11.53,5.89,42.22,4.35,58.85-10.23a70.39,70.39,0,0,0,14.83-19A62.64,62.64,0,0,1,2731.08,1371Z"/><polygon class="cls-14" points="2697.32 1313.87 2701.3 1290.08 2682.13 1308.95 2697.32 1313.87"/><path class="cls-12" d="M2695.39,1311.46c-4.07.25-9.45-1.59-12.25-2.27-.51-.12,12.74-14,12.74-14l-14.56,14.26s10.36,12.67,13.56,11.51C2694.88,1320.92,2701.54,1311.07,2695.39,1311.46Z"/><path class="cls-13" d="M2576.28,1525.92s-8,53.76-26,79.79c0,0-8.55-2.09-11.53,0s-2.94,8-2.94,8-29.55-11.24-36.64-20.71c0,0-.6-8.87-4.15-14.19,0,0-3.26-1-6.2,4.4l-5.78,1.06s-6.46,22.42-21.64,24.9l8.2,15.46s30.14,70.33,78,93.7c0,0,21.88-10.35,34.29-43.44,10.18-27.13,22.52-58.8,31.21-75.37v0a67.66,67.66,0,0,1,5.14-8.55l18.34-89-52.49-32.52A287.12,287.12,0,0,0,2576.28,1525.92Z"/><path class="cls-13" d="M2797.33,1443.53c-7.76-3-17.34-10.92-20.92-14-.92-.81-1.45-1.31-1.45-1.31l-17.95-19c-4.11,6.13-13.55,12.62-22.66,17.94a241.18,241.18,0,0,1-22.2,11.28c-11.56,9.75-11.89,40.79-11.89,40.79s-9.32-9.76-8.43-17.74,3.72-33.26,3.72-33.26-.39.18-1.13.46c-5.79,2.34-33.2,13.19-61.54,19.5-31.92,7.1-48.8,21.28-48.8,21.28,24.4,27.49,28,54.51,28,54.51-8.44,58.52,19.5,201.73,19.5,201.73a40.12,40.12,0,0,0,0,8c.43,4.86,12.42,14.65,12.42,14.65s2.2,9.29,49.65,8.86a177.23,177.23,0,0,0,59.51-11.2A136.31,136.31,0,0,0,2775,1735.9a49.64,49.64,0,0,0,5.35-11.31l.07-.25c-3.65-7.09-5.42-7.09-5.42-7.09,3.33-34.54,17.94-95,17.94-95,6.81-10,14.15-21,21.6-32.16,32.24-48.45,66.17-101.29,66.17-101.29C2846.1,1450.87,2797.33,1443.53,2797.33,1443.53Z"/><path class="cls-13" d="M2896.8,1719.94c-1.17-5.64-.79-29.36-1.48-56.74-.79-31.58-5-60.68-4.89-80,.08-12.27-6.21-82.25-9.76-94.45,0,0-62.66,14.89-71.46,89.33a221.25,221.25,0,0,1,10.68,26.39l.39,1.1c7.41,22,6.31,52.36,6.27,90.84,0,0-1.13,1.78-2.44,4.19-1.63,2.94-3.51,6.84-3.83,9.47-.57,4.33-18.37-8-17,0a15.07,15.07,0,0,1,.25,2c.32,8.3-91.22,31.35-95,38s-9.11,8.86-9.11,13.72,9.11,10.22,9.11,10.22v7.09s13.52,18.16,31.68,14.4c0,0,3.58-11.28,7.13-17.52,3.05-5.35,139.35-3.14,147.12-40.7a148.07,148.07,0,0,0,2.52-16,1.49,1.49,0,0,1-.07-.28C2896.91,1720.61,2896.83,1720.26,2896.8,1719.94Z"/><path class="cls-66" d="M2612,1524s-9.75-23-15.07-26.81l8.05,27.28s-8.05,48.9-15.15,69.43-12.41,28.34-12.41,28.34-21.92-11.88-27.17-16.45c.46.85,8.2,14.4,10.32,34.72,0,0-12.27-26.21-21.88-34.76l-2.94,8s14,27.84,13.19,56c0,0-50-17.06-66-47.45,0,0,15.53-25.36,12-43.41,0,0-3.26-1-6.2,4.4l-5.78,1.06s-6.46,22.42-21.64,24.9l8.2,15.46s30.14,70.33,78,93.7c0,0,21.88-10.35,34.29-43.44,10.18-27.13,22.52-58.8,31.21-75.37v0C2612.91,1597.84,2608.13,1549.64,2612,1524Z"/><path class="cls-66" d="M2852,1754.47c-9.71-4.68-39-32.73-48.66-44.4a15.07,15.07,0,0,1,.25,2c.32,8.3-91.22,31.35-95,38s-9.11,8.86-9.11,13.72,9.11,10.22,9.11,10.22v7.09s13.52,18.16,31.68,14.4c0,0,3.58-11.28,7.13-17.52,3.05-5.35,139.35-3.14,147.12-40.7C2888,1754.2,2867.14,1761.84,2852,1754.47Z"/><path class="cls-66" d="M2756.34,1610.69c-4.85,13.83-.41,31,0,45.29.52,16.74,2.17,38.19-2.47,54.47-6,21.16-55.42,1.89-68.58-5.44.45-25-.35-50-.86-75-.45-22-3.21-46.39.55-68.11,2.09-12.1,13-53.2,13-53.2s31.95-5.61,55.29-24.51,23.12-54.72,23.12-54.72l-42.06-2.38a241.18,241.18,0,0,1-22.2,11.28c-11.56,9.75-11.89,40.79-11.89,40.79s-9.32-9.76-8.43-17.74,3.72-33.26,3.72-33.26-.39.18-1.13.46c-6.35,7-18.84,24-16.57,48.55,0,0,6.6,17.06,13.69,26.21,2.76,3.56-4.73,27.21-5.5,31.89-3,18-6,36-5.81,54.32.39,36.26.33,71.18-2.38,107.4-17.53-5.7-35.21-15.29-46.68-30,12.13,17.31,28.92,31.29,46.87,42.21.4,14.49.28,32.91,9.95,44.54-18.9-5-39.48-9.82-56.36-20,6.39,9.62,12.53,17.65,23.79,20.22,31.77,7.27,70,3.75,100.35-8.11,10.05-3.93,30.91-15.85,19.22-28.61,1.91-24.38,7.51-48.79,12.74-72.64,1.48-6.74,2.24-14.84,4.79-21.24,4.32-10.81,15.16-22.87,21.95-33.43l.09-.14c-6.2-9.83-11.68-20.84-17.23-30.88C2809.43,1580.89,2762.23,1593.91,2756.34,1610.69Zm-60.93,140.71s-9.51-6.2-10.39-13.3-1.46-21.56-1.46-21.56,23.94,8.87,45.22,7.66a84.36,84.36,0,0,0,22.5-4.32l9.38,15.16A190.4,190.4,0,0,1,2695.41,1751.4Z"/><path class="cls-6" d="M2755.78,1409.21c-2,4.16-29.72,22.4-45.78,27.88,0,0-9.33,11.31-9.1,32.36,0,0,2.15-22.16,13.27-27.7,0,0,13.56,12.44,20.44,47,0,0,33.53-25.17,41.81-59.26,0,0-11.14-25.87-17.83-32.52C2758.59,1397,2757.8,1405,2755.78,1409.21Z"/><path class="cls-6" d="M2679.41,1437.64s-4.21,22.28-1.55,39.57c0,0,1.45-29.48,12.8-39,0,0,0,11.55,1.25,26.17l6.09-53.47S2686.72,1418.67,2679.41,1437.64Z"/><path class="cls-66" d="M2806.67,1575.88s27.15,48.66,55.26,73.39c0,0-40.31-67.66-49.33-93.52Z"/><path class="cls-67" d="M2470.43,1574c-2.68-6.85-5.35-27.77-7.24-32.33s-10.28-8-14.05-10.25-13.72-1.13-17.13-4.56-15.6-16-20.16-14.09-.73,16.37,6.08,22.08,17.52,2.65,17.52,2.65l3.77,6.48,0,0c-.79.61-13.56,10.31-29.32,13.26-6.32,1.19-11.19,1.85-15.81,2.52v0a152.45,152.45,0,0,0-24.64,5.45,104.66,104.66,0,0,0-24.57,11.07s0,0-.06,0c-3.07,1.89-4.78,3.19-4.78,3.19a4.75,4.75,0,0,0-2.67,4.2c-.25,3.28,5,3.53,8.24,3.53,0,0-1.89,3.43.15,6.36s9,1.76,9,1.76.88,2.17,7.11,2c7.62-.16,27.63-4.43,45.11-5s38.78,0,44.62,3.32,16.46,16.72,16.46,16.72,15.2-19,15.32-25.24C2483.32,1587.27,2473.08,1580.82,2470.43,1574Z"/><path class="cls-61" d="M2439.22,1544l0,0c-.79.61-13.56,10.31-29.32,13.26-6.32,1.19-11.19,1.85-15.81,2.52v0a24.83,24.83,0,0,1-3.74,8.34c-19.47-1.55-42.67,7.11-45.29,8.12,20.23-7.06,45.17-6.6,45.17-6.6a9.51,9.51,0,0,1-3,8.12c-26-.24-40.67,8.91-41.55,9.46,22.32-10.74,41.55-6.54,41.55-6.54a10.48,10.48,0,0,1-1.77,5s-14.72,0-22.2,3.19c-7,3-8.34,6-8.46,6.42,7.15-8.21,29.14-7.45,29.14-7.45l11.89-1.56s16.49-10.85,29.41-16.93,28.38,0,28.38,0-5.05-5.33-8.36-9.65S2439.22,1544,2439.22,1544Z"/><path class="cls-61" d="M2459.68,1602.92l5.09,5.7c17.36-5.85,18.55-21.35,18.55-21.35C2475.14,1601.13,2459.68,1602.92,2459.68,1602.92Z"/><path class="cls-6" d="M2688.54,1671.69a4.3,4.3,0,1,0,4.17,4.42A4.3,4.3,0,0,0,2688.54,1671.69Z"/><path class="cls-6" d="M2687.61,1607.56a4.3,4.3,0,1,0,4.17,4.42A4.3,4.3,0,0,0,2687.61,1607.56Z"/><path class="cls-6" d="M2687.62,1548a4.3,4.3,0,1,0,4.17,4.42A4.3,4.3,0,0,0,2687.62,1548Z"/><path class="cls-68" d="M2742.31,1657.49H2471.82a6.53,6.53,0,0,0-6.53,6.53l52.8,189.9a6.53,6.53,0,0,0,6.53,6.53H2795.1a6.53,6.53,0,0,0,6.53-6.53L2748.84,1664A6.53,6.53,0,0,0,2742.31,1657.49Z"/><path class="cls-69" d="M2733.36,1657.49H2462.87a6.53,6.53,0,0,0-6.53,6.53l52.79,189.9a6.54,6.54,0,0,0,6.53,6.53h270.49a6.54,6.54,0,0,0,6.53-6.53l-52.8-189.9A6.52,6.52,0,0,0,2733.36,1657.49Z"/><rect class="cls-68" x="2508.57" y="1848.51" width="390.99" height="20.89" rx="6.53"/><path class="cls-61" d="M2901.73,1755.89c-10.85,0-42.68.2-42.68.2s-6.16-2.16-7.67-1.55-3.66,4-2.17,5.6,17.12,8.73,21,8.66,10.62-1.78,15.25-2.81,15.78-.86,15.78-.86c8.3-.19,21.88,6.32,21.88,6.32l1.45-4.69-.75-2.94S2912.58,1755.85,2901.73,1755.89Z"/><path class="cls-67" d="M2930.44,1741.47a74.76,74.76,0,0,1-13.4,6.69c-6.72,2.37-32.45,6.33-39.5,6.15s-19.55-2.42-21.72-2.17-2.8,3.41-1.33,5.44c0,0,9,5.51,17,6.34,0,0,13-2.22,25.29-3.84s26.33,6,26.33,6a34.73,34.73,0,0,1-6.05,11.34s-7.32,1.91-9.43,4.25-3,7.81-2,13.56a6.18,6.18,0,0,0,6-1.51s6-10,10.19-12.44,15.26-7.78,17.88-11.89-.22-15.39-.22-15.39l3.74-4.44S2935.55,1742.14,2930.44,1741.47Z"/><path class="cls-61" d="M2920.14,1746.92c10.16,2.15,20.4,12.65,20.4,12.65l6.11-6.87a62.93,62.93,0,0,0-17.08-12.46C2928.2,1742.19,2920.14,1746.92,2920.14,1746.92Z"/><path class="cls-49" d="M3045.67,1455.13c-13.65-11.37-20.18-19.48-20.18-19.48s-4.82,22-6,54.47S2991.76,1598,2991.76,1598s-7.61-1.26-9.13.06c-.63.6-.52,2.34-.2,4.17v0a45.25,45.25,0,0,0,1.31,4.89s-35.67,90.36-50.2,104-25.14,17.11-25.14,17.11.21,9.71,3.47,13.75c0,0-1.45-6.85.06-11.46a98.32,98.32,0,0,1,27.48,16.4c14.24,11.84,21.4,29.51,21.4,29.51s-10,.41-23.12-4.32c0,0,4.89,5.13,28.44,8.48l.5-6.91,0,0c1.56-1.56,57.72-105,73.22-154.14,0,0,12.86-38.45,16.65-60.8a185.51,185.51,0,0,1,8.83-33.24c1-2.53,1.58-3.89,1.58-3.89S3059.32,1466.51,3045.67,1455.13Z"/><path class="cls-47" d="M3032.85,1593.29s-29.29,1.09-41.09,4.67c0,0,24.39,4,34.13,14.56,0,0-25.79-11-43.46-10.33v0l1.31,4.89s19.08-.52,36.73,14.71c0,0-31.11,124.44-50.63,140,0,0-22.16-24.08-40.47-29.38,1.62.93,27.63,16.42,37.26,41.18l0,0c1.56-1.56,57.72-105,73.22-154.14,0,0,12.86-38.45,16.65-60.8a185.51,185.51,0,0,1,8.83-33.24l-8.48-22.88S3036.68,1575.19,3032.85,1593.29Z"/><path class="cls-52" d="M3208.34,1512.12c-7.66-26-13.94-73.36-12.08-84.34s-21.67-28.17-21.67-28.17l-57.8-17-54.74,11.69s-35.73,23.49-33.88,45.91c5.16,29.38,8.65,86.49,56.52,106.35,74.2,30.79,68.83,139.68,83.08,149.51,105.25,13.09,101.85-101.56,102.07-107.44C3247.77,1583.43,3215.42,1537.13,3208.34,1512.12Z"/><path class="cls-6" d="M2755.78,1409.21c-2,4.16-29.72,22.4-45.78,27.88,0,0-9.33,11.31-9.1,32.36,0,0,2.15-22.16,13.27-27.7,0,0,13.56,12.44,20.44,47,0,0,33.53-25.17,41.81-59.26,0,0-11.14-25.87-17.83-32.52C2758.59,1397,2757.8,1405,2755.78,1409.21Z"/><path class="cls-6" d="M2679.41,1437.64s-4.21,22.28-1.55,39.57c0,0,1.45-29.48,12.8-39,0,0,0,11.55,1.25,26.17l6.09-53.47S2686.72,1418.67,2679.41,1437.64Z"/><path class="cls-50" d="M3208.34,1512.12c-2.17-7.35-4.23-16.43-6-25.9l-.16-.25s-15,32-18.72,37.1c-3.36,4.68-20.43,26.75-34.47,40.68l39.22-37.24-7.37,26.24,15.56-12.88,4.24-4.46-4.41,35.71,9-18.15,17.86,31.55-14.35,64.1,14.35-48.24,12.16,37.27c-.58-2.75,2.23-42.31,2.23-46.43s32.37-2.58,32.37-2.58C3247.77,1583.43,3215.42,1537.13,3208.34,1512.12Z"/><path class="cls-6" d="M3078.28,1443.35l-19.6-43.74s-5.11,11.07-2.11,28.92c0,0,6.88,19,16.76,31,0,0-12.26-23.25-7.88-35.71C3065.45,1423.86,3070.7,1432.71,3078.28,1443.35Z"/><path class="cls-12" d="M2996.52,1241.34s-37.53,35.58-40.6,65.19,23.8,92.41,40.6,100.94c18.47,6.87,49.27-13.16,49.27-13.16l26.32,35.28s27.43-58.91,28.54-62.27S3044.67,1254.21,2996.52,1241.34Z"/><path class="cls-60" d="M3099.83,1294c-.59-5.26,19-75.34-43-83s-72.61,16.24-83.76,21.94c-14.08-2-37,27.93-18.69,76.34,6.74-23.44,21.3-42,36-56.26,17.54,23.86,55,45.31,55,45.31l52.52,78.81,59.19,17.18,17.54,5.3S3104.57,1336,3099.83,1294Z"/><path class="cls-6" d="M3091,1366.3s3.05,6.54,3.39,10.65-12.6,30.65-22.43,42.14c0,0-2,12.89,7.71,28.93,0,0-8.41-18-2.4-27.26,0,0,16,3.39,37,26.76,0,0,14.29-34.5,5.17-64.38C3119.38,1383.14,3099.11,1368.37,3091,1366.3Z"/><path class="cls-15" d="M3124.59,1385.72l32.46,8.59-48.69-64.92C3108.36,1364.72,3124.59,1385.72,3124.59,1385.72Z"/><path class="cls-15" d="M2951.61,1299.06c1.91-20.56,23.87-47.83,23.87-47.83C2965,1249,2942.07,1267.13,2951.61,1299.06Z"/><path class="cls-15" d="M3056.8,1211c-24.82-6.67-90.7,15.3-80.2,30.56,14.32,15.28,73.52,49.66,73.52,49.66s-8.59-5.73-33.42-42c41.06,40.09,66.84,42,66.84,42C3095.94,1256.83,3081.63,1217.7,3056.8,1211Z"/><path class="cls-14" d="M3069.15,1313.5c-6-.69-11.84,6.76-13,16.62s-.16,20.59,5.87,21.28,17-10.15,18.1-20S3075.18,1314.19,3069.15,1313.5Z"/><path class="cls-14" d="M2992,1258.14s-13.44,12.87-34.16,49.27c-13.46,61.17,24.71,96.48,38.64,100.06,51.5-9.66,65.53-80.47,65.53-80.47C3028.49,1306.29,2992,1258.14,2992,1258.14Z"/><path class="cls-60" d="M2959.14,1301.22c9.1-8.33,19,0,19,0C2974.76,1291.33,2961.25,1291.6,2959.14,1301.22Z"/><path class="cls-60" d="M3006.62,1301.51c16.72-6.79,25.16,3,25.16,3C3025.55,1291.68,3006.62,1293.14,3006.62,1301.51Z"/><path class="cls-60" d="M2964,1312.57c10.08-2.26,14.93,9.9,14.93,9.9C2980.44,1313,2970.19,1307,2964,1312.57Z"/><path class="cls-60" d="M3011,1312.57c10.8,0,20.75,11.58,20.75,11.58C3031.78,1310.71,3016.28,1307.18,3011,1312.57Z"/><path class="cls-60" d="M3023.05,1314.51c-3.9,0-7.07,3.5-7.07,7.81s3.17,7.83,7.07,7.83,7.07-3.5,7.07-7.83S3027,1314.51,3023.05,1314.51Z"/><path class="cls-60" d="M2973.22,1313.38c-3.91,0-7.07,3.51-7.07,7.82s3.16,7.83,7.07,7.83,7.06-3.52,7.06-7.83S2977.12,1313.38,2973.22,1313.38Z"/><path class="cls-60" d="M2986.56,1363.8c-5.62,1.07,0,16,0,16s5.13-1.91,16.09-1.48C3003.31,1378.37,2992.17,1362.76,2986.56,1363.8Z"/><path class="cls-12" d="M2974.77,1345.06c0,3.82,7.33,9.32,7.33,9.32s8.89,1.24,16.24-3.36C2998.34,1351,2974.78,1341.22,2974.77,1345.06Z"/><path class="cls-47" d="M3030.26,1764.9s-5.1,10,.38,17c4,5.11,15.37,15.55,21.45,21h5.61a30.42,30.42,0,0,1,14,3.42c2.42.27,4.83.55,7.25.85-.6-6-2.83-18.6-11.24-28.44C3056.22,1765.33,3030.26,1764.9,3030.26,1764.9Z"/><path class="cls-12" d="M3030.52,1796.14c-3.62-.91-7.43-.41-11.13-.83-7.46-.83-14.72-5.33-22-3.5-2.47.61-5.06,2.54-4.81,5.07.28,2.72,3.49,4,6.21,4.35,6.13.82,12.34,0,18.52-.46,1.56-.11,3.13-.18,4.71-.2a39.77,39.77,0,0,1,8.44.7,20.34,20.34,0,0,1,4.05,1.15,7.11,7.11,0,0,1,1.15.71,4.58,4.58,0,0,0,1.78.6,4.53,4.53,0,0,0-.34-2.32C3036.08,1798.68,3033.26,1796.83,3030.52,1796.14Z"/><path class="cls-14" d="M3065.49,1789.11c-2.93-2.09-6.51-3-10-4a81.13,81.13,0,0,1-13.43-5.5c-4.22-2.17-8-5.28-12.46-7a5.55,5.55,0,0,0-4.8.34c-1.54.71-2.71,2.3-4.45,1.54-1.93-.84-2.74-3.1-5.08-3.54-2-.36-2.41.94-3.92,1.43-1.67.54-1.93-.69-3.27-1.52-3.45-2.13-7.35,1-9.7,3.39-2.52-3.79-6.91-.48-9.21,1.7a104.88,104.88,0,0,0-8.36,8.51c-2.6,3.11-3.78,7-4.54,10.94-.36,1.84-2,7.35.09,8.68,3,1.93,7.69-6.29,8.94-8.11a21.53,21.53,0,0,0,1.06,5.62c2.59,6.08,5.55-1.92,6.34-4.66a10.87,10.87,0,0,0,1,5.19c.74,2,2.44,3.18,3.95.77,0,0,0-.06.06-.09,1.41-1.28,2-4.56,2.76-6.31a22.34,22.34,0,0,1,3.93-6.45,8.29,8.29,0,0,1,3.65-2.22c.77-.26,3.34-.64,3.71-1.57-1.42,3.69-2.49,7-1.93,11,.17,1.25,1.21,7.34,3.13,7.35,0,0,0,0,.06,0,.87.37,3.06-1.39,3.24-2.31.9-3.92,2.13-7.75,3.28-11.61a11.4,11.4,0,0,0,1.7,1.45c.61.5,1.2,1,1.82,1.45,1.23,1,2.5,1.89,3.76,2.78a9,9,0,0,1,2,2.16,12,12,0,0,0,2.59,2.59c6.89,5.78,15.45,9.68,24.49,6.93,5.59-1.7,11.83-4.25,12.87-10.75A8.14,8.14,0,0,0,3065.49,1789.11Z"/><path class="cls-12" d="M3061.79,1793.35c-3.56-.83-7.1.14-10.35-1.95-3.58-2.32-7.22-4.51-11-6.58-4.59-2.54-15.07-10.33-18.86-3.06-3.17,6.08-4.68,12.27-6.55,18.77-.42,1.47-1.41,2.79-1.81,4.12a3.57,3.57,0,0,0,3-2.29c.9-3.92,2.13-7.75,3.28-11.61,0,1.16,5.6,4.77,6.56,5.6,2.36,2.05,4.71,4.12,7.2,6,8.54,6.56,19.56,9.78,29.19,3.22,2.07-1.41,5-4.14,5.23-6.93a3.89,3.89,0,0,0-.75-2.59C3065.87,1794.43,3063.62,1793.78,3061.79,1793.35Z"/><path class="cls-12" d="M3013.35,1779.33a25.06,25.06,0,0,0-10.43,7.84,24.46,24.46,0,0,0-2.81,4.66,25.67,25.67,0,0,0-2.35,9.32,7.49,7.49,0,0,0,0,1.64c1.3-2.1,1.79-4.63,3.12-6.76a51.94,51.94,0,0,1,4.6-7c1.05-1.17,6-2,6.33-2.84-.37,1-.77,1.86-1.14,2.72a57.75,57.75,0,0,1,6.88-11.3,11.36,11.36,0,0,0-1.39.59C3015.27,1778.71,3014.28,1778.93,3013.35,1779.33Z"/><path class="cls-12" d="M2992.05,1794.64a24.9,24.9,0,0,0-.29,4.12A16.59,16.59,0,0,0,2992.05,1794.64Z"/><path class="cls-12" d="M2993.13,1784.88c-1.79,2.83-1.2,6.32-1.08,9.76,1.18-8,6-15.84,13.27-19.28A45.2,45.2,0,0,0,2996,1782,13.55,13.55,0,0,0,2993.13,1784.88Z"/><path class="cls-12" d="M2980.32,1800.41a3.15,3.15,0,0,0,0,1.67,25.57,25.57,0,0,0,5.12-6.33c.34-3.12.5-6.23.56-9.38-.86,1.63-1.66,3.27-2.41,5A53.36,53.36,0,0,0,2980.32,1800.41Z"/><path class="cls-49" d="M3194.43,1414.16c-13.65-11.37-20.28-15.5-20.28-15.5s-15.88,16.93-17.1,49.43-46.89,183.6-46.89,183.6-7.61-1.26-9.13.06c-.63.6-.51,2.34-.19,4.17v0a42.76,42.76,0,0,0,1.31,4.89s-35.67,90.36-50.2,104-25.15,17.11-25.15,17.11.21,9.71,3.47,13.75c0,0-1.44-6.85.06-11.45a98,98,0,0,1,27.49,16.4c10.61,8.81,17.29,20.87,20,26.45q3.59.44,7.17,1l0-.64,0,0c1.56-1.57,57.73-105,73.23-154.15,0,0,12.86-38.45,16.65-60.8,2.65-15.56,36.92-98.19,39.09-104,1-2.52,1.58-3.88,1.58-3.88S3208.08,1425.54,3194.43,1414.16Z"/><path class="cls-47" d="M3151.26,1627s-29.3,1.09-41.1,4.67c0,0,24.39,4,34.14,14.56,0,0-25.79-11-43.46-10.33v0l1.31,4.89s19.08-.52,36.73,14.71c0,0-31.12,124.44-50.63,140,0,0-22.17-24.08-40.48-29.38,1.62.93,27.64,16.42,37.26,41.19l0,0c1.56-1.57,57.73-105,73.23-154.15,0,0,12.86-38.45,16.65-60.8,2.65-15.56,38.49-102.07,40.67-107.85l-5.44-28.57S3155.09,1608.92,3151.26,1627Z"/><path class="cls-70" d="M2395.83,1802.49c-19.95,0-36.11,3.76-36.11,8.38s16.16,8.39,36.11,8.39,36.1-3.76,36.1-8.39S2415.77,1802.49,2395.83,1802.49Z"/><path class="cls-71" d="M2395.83,1796.69c-19.95,0-36.11,3.75-36.11,8.38s16.16,8.38,36.11,8.38,36.1-3.75,36.1-8.38S2415.77,1796.69,2395.83,1796.69Z"/><polygon class="cls-72" points="2363.8 1529.43 2511.48 1691.09 2392.07 1804.52 2394.74 1807.33 2516.9 1691.28 2366.65 1526.82 2363.8 1529.43"/><polygon class="cls-72" points="2502.82 1689.82 2501.48 1691.1 2502.73 1692.45 2502.82 1689.82"/><path class="cls-72" d="M2486.92,1669.5l-18.65-20.35c-12.42-13.59-24.95-27.07-37.43-40.6l-18.81-20.2-18.87-20.16-19-20.07-9.5-10-9.54-10,9.07,10.41,9.13,10.36,18.27,20.7L2410,1590.2l18.43,20.55c12.35,13.65,24.65,27.35,37.06,40.94l18.58,20.41,17.41,19,1.34-1.28-.09,2.63-1.25-1.35-13.72,13.1-15,14.42q-15,14.42-30,28.93l-14.93,14.52c-5,4.85-9.95,9.69-14.88,14.57l-14.85,14.62c-4.95,4.85-9.87,9.76-14.78,14.67q7.72-7,15.41-14l15.35-14.07q7.7-7,15.31-14.12l15.27-14.16q15.22-14.2,30.43-28.45l15.17-14.25,15.14-14.31,1.34-1.27-1.25-1.37Z"/><path class="cls-72" d="M2336.23,1518.72l-1,.9a21,21,0,0,0-1.6,30.51,23,23,0,0,0,31.66,1.55l1-.9a21.05,21.05,0,0,0,1.61-30.51A23,23,0,0,0,2336.23,1518.72Z"/><path class="cls-70" d="M2342.88,1521.2a47.62,47.62,0,0,0-53.67,5.78l-21.83,19,62,66.12,21.83-19a43.41,43.41,0,0,0,3.31-62.93A45.41,45.41,0,0,0,2342.88,1521.2Z"/><path class="cls-71" d="M2289.21,1527l-21.83,19,42.27,45.09,21.84-19a43.86,43.86,0,0,0,15.19-30.8,43.06,43.06,0,0,0-3.8-20.06A47.62,47.62,0,0,0,2289.21,1527Z"/><path class="cls-72" d="M2310.86,1568.49a129.83,129.83,0,0,0-11.06-10.17c-13.94-11.29-27.21-16.46-32.4-11.8-6.6,5.9,2.21,25.3,19.63,43.34s36.89,27.87,43.48,22c5-4.46,1.17-16.65-8.54-30.12A120.42,120.42,0,0,0,2310.86,1568.49Z"/><path class="cls-65" d="M2298.56,1559.56a15.68,15.68,0,0,0,1.59,26.77,17,17,0,0,0,20.58-3.36,120.42,120.42,0,0,0-11.11-13.24A128.34,128.34,0,0,0,2298.56,1559.56Z"/><path class="cls-55" d="M2175.9,1757l-223.64,1.32c12.77,36.24,18.61,32.08,17.88,74.79l225,18,61.9-11.61c-15-33.21-17.73-34.07-19.49-53.38Z"/><polygon class="cls-6" points="2181.81 1828.6 2255.89 1825.87 2180.74 1819.51 2181.81 1828.6"/><path class="cls-6" d="M2174.57,1756.86l-222.31-.22c12.77,36.24,22.12,52.39,17.81,77l225.74,17.58c-7.19-12.58-16.23-45.39-19.14-61.36A154.16,154.16,0,0,1,2174.57,1756.86Z"/><polygon class="cls-55" points="1974.59 1819.96 1994.99 1813.6 1951.51 1814.5 1974.59 1819.96"/><polygon class="cls-6" points="2234.18 1790.27 2249.45 1790.71 2217.82 1779.31 2234.18 1790.27"/><polygon class="cls-55" points="2115.48 1813.87 2180.74 1807.12 2073.72 1810.39 2115.48 1813.87"/><polygon class="cls-55" points="2003.04 1764.96 2110.82 1767.43 1961.58 1759.49 2003.04 1764.96"/><polygon class="cls-55" points="2004.52 1778.58 2082.62 1779.92 2048.67 1774.5 2004.52 1778.58"/><polygon class="cls-6" points="2181.95 1805.08 2245.15 1811.32 2243.01 1807.23 2181.95 1805.08"/><path class="cls-14" d="M1951.54,1777.34a112.61,112.61,0,0,1-23.35,3.29c-14.29.69-20.26,3.6-26.34,1.73l-12.37-26-31,14.83,36.58,35s12.81,4.93,14,5.54,24.76,3.26,39.58.61l5.18,10.22s-1.88-.88-6.27,3.7l12.59,1,5.14-4.33.32-1.5a22.85,22.85,0,0,0,7.52-7.75l-1.56-1.85a28.35,28.35,0,0,0,7.92-7.9l-3.56-3.14c2-3.18,6.11-10.46,6.84-15.62C1982.79,1785.08,1964.5,1782.7,1951.54,1777.34Zm19.6,19.13-6.62-5.82,7.69.36S1971.49,1793.88,1971.14,1796.47Z"/><path class="cls-12" d="M1949.21,1783.53s6.43.72,6.91,1.2,4.48,6.24,8.65,10.27,14.74,8.84,14.74,8.84l-22.86-20.44Z"/><path class="cls-12" d="M1949.76,1790.44l5,2.81s7.77,18.39,18.38,20.34c0,0-16.08-17.19-17.62-22.57Z"/><path class="cls-12" d="M1949.1,1800.49l4.16,2.56s6.67,18,12,19.79L1955,1801.61Z"/><path class="cls-12" d="M1918.81,1799.42c-6.81.68-14.22,10.41-14.22,10.41,17.69,9.81,44.08,2.44,44.08,2.44l5.18,10.22c-4.73.89-6.27,3.7-6.27,3.7l12.59,1-6.91-24.12S1925.62,1798.73,1918.81,1799.42Z"/><path class="cls-71" d="M1844.8,1465.74l-93,95.21c53,148.85,103.32,219,103.32,219s26.6-5.8,42.41-7.5C1834,1628.2,1844.8,1465.74,1844.8,1465.74Z"/><polygon class="cls-70" points="1873.95 1775.09 1897.5 1772.42 1858.48 1647.9 1873.95 1775.09"/><path class="cls-14" d="M1874.61,1308.59l-5.37-17.29c-.56.54-8.34,7.23-8.93,7.8-2,1.82-4.13,3.77-6.48,5.78v0c-17.55,21.11-43.5,41.58-43.5,41.58,3.27,19.47,37.89,59.22,37.89,59.22,2.68-4.42,19.23-41.47,22.82-45.6,6.34-7.24,12.52-13,13.1-13.53l0,0L1883,1316Z"/><path class="cls-61" d="M1869.6,1290.8c-1.95,1.81-2.61,2.41-5,4.43l-5.8,5.18c0,.89-26.46,84.23-10.63,105.29,1.84-2.39,24.81-47.63,24.81-47.63l11.11-11.5,0,0-9.57-37.94Z"/><path class="cls-14" d="M1468.81,2421.28s3.18,13.21-19,31.36c17,35.6,52.67,40.35,52.67,40.35s-.14-30.8,5-49S1468.81,2421.28,1468.81,2421.28Z"/><path class="cls-73" d="M1474.69,2478.63s-28.09.91-38.17,13.63,19.55,23.92,19.55,23.92l5.21-2.9,20.35,17.28,44.66,3.55,28.56-7.09C1506.78,2521.83,1474.69,2478.63,1474.69,2478.63Z"/><path class="cls-53" d="M1529.15,2507.24l-17.94-28.61v-18.91l-5.91-1.49s0,24.42-8.15,20.4-17-11.52-18.54-20.4-16.6-19.08-27.29-11.83-16.9,49.48-16.9,49.48c16.28-8.12,40.27,12.55,40.27,12.55v-7.3s35.77,25.15,42.43,30.33,93.45,1.47,97.15,0-3.7-11.84-3.7-11.84Z"/><path class="cls-14" d="M1673.17,2459l-4.46,37.74s48.81,35.5,67.32-5.92c-20.7-40.69-22.19-44.39-22.19-44.39Z"/><path class="cls-53" d="M1855.5,2527.75c-5.91-.73-47.74-5.17-47.74-5.17l-67.7-38.46L1728.89,2468l-5.32,2.41,5.07,15.25s-16.2,17.75-21.05,17-20.37-17.75-31.48-19.21-11.63,7.1-11.63,7.1.17,45.38,0,55c13.12,5.92,51.57,2.94,55.27,0l-.74-10.37s34,7.4,39.2,8.89c29.58-.75,98,2.95,101.72,0S1861.41,2528.49,1855.5,2527.75Z"/><path class="cls-14" d="M2303.64,1659.77c-5.8.65-26.14-1.93-34.21-6.78s-36.5-43-32.4-46c30,10.24,52.73-1.11,41.11-8.88-19.9,2.17-39.68-5.93-39.68-5.93s-20.36-17.93-25.19-17-14.59,17-14.59,17l-19.35,3.43s4.61,29,5.93,28.68c.71-.16,5-1.33,8.6-2.35a7.83,7.83,0,0,1,8.66,3.29l13.5,20.85a9.47,9.47,0,0,0,4.84,3.83l23.23,8.26,13.39,8.39s15.18,6.45,29.05,5.82c15.17,0,25.17-3.24,25.17-3.24S2311.39,1661.06,2303.64,1659.77Z"/><path class="cls-6" d="M2180.87,1591.93l-44.26,15.19,20.5,26.75,39.24-8.5C2199.91,1607.05,2180.87,1591.93,2180.87,1591.93Z"/><path class="cls-6" d="M1805,1342.3l-15,12.65s9,10,62.77,90.42C1870.25,1388.42,1805,1342.3,1805,1342.3Z"/><path class="cls-11" d="M1504.78,2127.64c-32.27,50.7-56.86,311.11-56.86,311.11s13.83-4.6,61.47,15.38c13.84-30.74,63-298.84,63-300.37s44.1-202.18,44.1-202.18l-137.85-176.13S1506.31,2047.73,1504.78,2127.64Z"/><path class="cls-73" d="M1463.14,2446.4c-10-3.26-16.6,5.86-24.58,32.23,13.89-.31,28.28,9.61,28.28,9.61S1473.17,2449.67,1463.14,2446.4Z"/><path class="cls-73" d="M1664.48,2490.5l.55,41c8.89,1.47,37.34,0,37.34,0C1686.48,2473.76,1664.48,2490.5,1664.48,2490.5Z"/><path class="cls-13" d="M1707.59,1818.46,1536.68,1773l23,146.77,104.81,214s-4.71,288.09,0,341.87c32.35,9.21,64.41-7.69,64.41-7.69s23.27-317.27,20.19-366.45S1707.59,1818.46,1707.59,1818.46Z"/><path class="cls-11" d="M1478.64,1775.45c2.1,12.42,108.26,191.39,108.26,191.39l2-32.09-21.18-132.59S1476.56,1763,1478.64,1775.45Z"/><path class="cls-6" d="M1478.64,1703.22s-8.91,28.17,0,72.23c107.57,69.13,228.95,43,228.95,43l-6.15-43Z"/><path class="cls-70" d="M1792.53,1346.48c-26.14,13.83-35.34,31.26-35.34,31.26l93.52,102.94S1869.34,1390.49,1792.53,1346.48Z"/><path class="cls-71" d="M1470.88,1725.7c61.47,64.54,110.71,62,110.71,62l52.25-21.51C1726,1591.06,1881,1455.46,1881,1455.46s-74.53-73.69-134.46-89.58C1642.09,1393,1492.4,1662.71,1470.88,1725.7Z"/><path class="cls-70" d="M1581.59,1787.72c38.41,16.91,138.29,14.44,138.29,14.44s-3.09-12.57-19.76-99.67c70.68-41.49,161.74-125.67,161.74-125.67,31.73-34.92,33.19-107.15,13.21-128.39C1779.81,1487.11,1633.84,1654.05,1581.59,1787.72Z"/><path class="cls-71" d="M2014.68,1603.9l-113.48-83.29s3.07-27.88-16.91-35.57-36.88,29.19-36.88,29.19-15.37,23-16.89,52.25c55.31,66.06,176.42,109,176.42,109l173.89-42.93s1.54-20-15.36-37.37C2107,1604.16,2014.68,1603.9,2014.68,1603.9Z"/><path class="cls-14" d="M1966.55,1280.57c.58-6.16,9.61-18.77,12-35.79s-4.4-43.93-4.4-43.93c-.84-3.65-28.16-13.95-53.14-14.24-10.06-.12-19.77,1.38-27.19,5.57-4.75,2.71-8.3,7.29-10.88,13-9.68,21.3-6.22,58-4.91,69a38.77,38.77,0,0,0-17.2-26.2c-5.8-.56-17.23,3.42-22.29,10.38s-5.91,36.36,2.26,46.25S1858,1313,1858,1313c9.36,22.52,20.5,37.3,31,47,0,0,0,0,0,0,19.33,17.87,36.51,18.55,36.51,18.55,9.22-2.37,23-21.64,23-21.64.26-3.74-2.31-4.39-2.31-4.39l6.2-10.72,5.81.23c3.58-4,6.3-12.38,6.3-12.38,11.57,1.12,19.8-7.77,19.8-7.77-.06-5.31-13.64-27.59-17.07-37.6A10.61,10.61,0,0,1,1966.55,1280.57Z"/><path class="cls-56" d="M2001.15,1175.53c-4.94-1.92-27,3.31-37.35,4.28-.93.09-1.77.14-2.48.15h-.08c-7.33,0-21.87-5.63-46.13-7.67-4.5-.37-9.33-.61-14.52-.68-33.27-.43-72.78,34.18-72.78,34.18-2.83,11.61.18,29.33,2.83,40.92,1.51,6.68,12.85,6.55,12.94,6.84h0l.07-.06a17.93,17.93,0,0,1,6.64-3.53,50.12,50.12,0,0,1,10.55-2l0,0a15.34,15.34,0,0,1,3.67,2.66c5.28,5,9.94,14.08,13,21h0l.3.69c2.11,4.9,3.36,8.55,3.36,8.55a77.51,77.51,0,0,1,12.85-25.33c9.6-12.48,26.36-23.92,26.36-23.92s-7.83-17.65,3.87-25.83,49.89-5,49.89-5a.14.14,0,0,0,0,.06c2.24,10.71,4.56,28.75,4.71,29.9v0h0c26.34-9.8,21.68-41.14,21.68-41.14,4.4,4.28-.69,17.28-.69,17.28C2010.71,1198.34,2006.53,1177.67,2001.15,1175.53Z"/><path class="cls-74" d="M1949.57,1243.92c-10,1.74-15.51,6.22-15.51,6.22a98.83,98.83,0,0,1,15.33-1.67c7.76-.14,20.84,3.11,20.84,3.11,6.79-4.4,7-9.06,7-9.06S1961.28,1241.88,1949.57,1243.92Z"/><path class="cls-57" d="M1938.6,1279.94s8.29-8.59,21-7.67l.29,1.93a10.29,10.29,0,0,0,4-4S1947.7,1264.69,1938.6,1279.94Z"/><path class="cls-12" d="M1955.3,1319.58s5.6,7.75,9.27,10.12a22.17,22.17,0,0,0,19.8-7.76A86.8,86.8,0,0,1,1955.3,1319.58Z"/><path class="cls-75" d="M1966.32,1326l.07-1.82c-2.31-1.92-9.41-2.4-9.41-2.4C1958.65,1324,1966.32,1326,1966.32,1326Z"/><path class="cls-57" d="M1938.24,1330l-1.59,1.3a29.73,29.73,0,0,0,9.61,21.26l6.21-10.72C1945.24,1338.84,1938.24,1330,1938.24,1330Z"/><path class="cls-12" d="M1859.22,1280l14.43,14.93s-10.74-31.65-20.41-36.53c0,0-12.43,1.9-17,13.6,0,0,3.73-7.3,14.72-8.48,0,0,3.64,3,6.36,12,0,0-5.34,1.28-8.31,11.29-2.11,7.1,7.67,13.41,13.47,13.64C1862.51,1300.44,1846.1,1291.81,1859.22,1280Z"/><path class="cls-74" d="M1986.25,1194.63c-4.4-1.74-14.45-2-26.17-1.06-15.72,1.32-34.47,4.94-46.73,10.46-3.61,1.62-7.76,3.24-12.2,4.78-6.81,2.36-14.31,4.54-21.59,6.31-16.12,3.91-31.2,5.78-35.52,3a171.06,171.06,0,0,1-16.23-12.32c-2.83,11.61.18,29.33,2.83,40.92,1.51,6.68,4.61,22,4.7,22.27l8.24-15.42.55-.07a15.82,15.82,0,0,1,6.16-3.52,50.12,50.12,0,0,1,10.55-2l0,0a15.34,15.34,0,0,1,3.67,2.66c5.28,5,9.94,14.08,13,21h0l.3.69c2.11,4.9,3.36,8.55,3.36,8.55a77.51,77.51,0,0,1,12.85-25.33c9.6-12.48,26.36-23.92,26.36-23.92s-7.83-17.65,3.87-25.83,49.89-5,49.89-5a.14.14,0,0,0,0,.06c2.24,10.71,4.56,28.75,4.71,29.9v0h0C1987.33,1224.46,1996.59,1198.68,1986.25,1194.63Z"/><path class="cls-61" d="M1962.26,1327.77l-5.17,12.66a18.06,18.06,0,0,1-15-6.2s1.52,4.57,10.41,7.63l5.8.23a22.74,22.74,0,0,0,6.3-12.39s9.82,3.24,19.8-7.76A30.52,30.52,0,0,1,1962.26,1327.77Z"/><path class="cls-61" d="M1924.69,1374c-6.43-.48-47.07-24.4-59.73-46.25,0,0,17.88,43.35,60.63,50.83,0,0,12.59-5,23-21.64C1948.57,1357,1931.13,1374.51,1924.69,1374Z"/><path class="cls-56" d="M1961.24,1180c-7.33,0-21.87-5.63-46.13-7.67-4.5-.37-9.33-.61-14.52-.68-33.27-.43-72.78,34.18-72.78,34.18-2.83,11.61.18,29.33,2.83,40.92,12.08-7.14,34.62-19,47.74-26.06q11.13-6,22.77-11.84,20.07-10.12,41.57-19.81,4.56-2.05,9.18-4.07,5.2-2.28,10.49-4.53l1.41-.59c-.93.09-1.77.14-2.48.15Z"/><path class="cls-76" d="M969.29,1688v452.42c0,69.38,190.16,129.59,468.86,159.72V1847.76C1159.45,1817.63,969.29,1757.42,969.29,1688Z"/><path class="cls-6" d="M1389.45,1940.24c-224.36-24.26-369.33-73.12-369.33-124.49a1.92,1.92,0,1,0-3.84,0c0,54.28,142.83,103.45,372.75,128.31h.22a1.92,1.92,0,0,0,.2-3.83Z"/><path class="cls-6" d="M1145.94,2187.58c-35.66-8.31-66.58-17.46-91.9-27.2a1.93,1.93,0,0,0-2.48,1.11,1.91,1.91,0,0,0,1.1,2.47c25.48,9.81,56.58,19,92.41,27.35a1.65,1.65,0,0,0,.44.05,1.92,1.92,0,0,0,.43-3.78Z"/><path class="cls-6" d="M1408.31,2238.28c-49-5.3-94.9-11.81-136.49-19.37a1.92,1.92,0,0,0-.69,3.77c41.69,7.58,87.7,14.11,136.76,19.42h.22a1.92,1.92,0,0,0,.2-3.83Z"/><polygon class="cls-71" points="999.09 2103.8 1037.03 2115.96 1037.03 2025.58 999.09 2010.99 999.09 2103.8"/><path class="cls-71" d="M997.71,2104.81l40.69,13V1991.3l-40.69-15.64Zm2.75-125.15,35.19,13.53v120.88l-35.19-11.27Z"/><polygon class="cls-71" points="1055.14 2119.7 1090.34 2130.97 1090.34 2079.38 1055.14 2065.86 1055.14 2119.7"/><path class="cls-71" d="M1052.39,2121.7l40.69,13v-96l-40.69-15.64Zm2.75-94.58,35.2,13.52V2131l-35.2-11.27Z"/><path class="cls-71" d="M1104,2138.17l40.69,13v-55.35L1104,2080.21Zm2.75-54,35.19,13.53v49.7l-35.19-11.27Z"/><path class="cls-54" d="M1438.2,2037.24a4.69,4.69,0,0,0,6.56.92l71.46-53.93L1517,1972l-77.84,58.74A4.68,4.68,0,0,0,1438.2,2037.24Z"/><path class="cls-54" d="M1451.31,2032.55l-87.7-69.86-72.82,66.55-61.36-65a5.38,5.38,0,0,0-7.82,7.39l68.63,72.67,73.85-67.49L1444.6,2041a5.38,5.38,0,0,0,6.71-8.42Z"/><path class="cls-52" d="M1225.75,1949.91a18,18,0,1,0,17.81,18.27A18,18,0,0,0,1225.75,1949.91Z"/><path class="cls-52" d="M1515.26,1959.78a18,18,0,1,0,17.81,18.28A18,18,0,0,0,1515.26,1959.78Z"/><path class="cls-52" d="M1364.09,1951.72a18,18,0,1,0,17.8,18.28A18,18,0,0,0,1364.09,1951.72Z"/><path class="cls-52" d="M1290.78,2016.65a18,18,0,1,0,17.8,18.28A18.05,18.05,0,0,0,1290.78,2016.65Z"/><path class="cls-52" d="M1448.19,2018.72A18,18,0,1,0,1466,2037,18,18,0,0,0,1448.19,2018.72Z"/><path class="cls-10" d="M3131.22,776.19c-1.48-.12-2.31,343.52-2.22,447.13,107.35,8.69,205.51,21.14,290.69,36.57,203.91-51.35,335.22-233.69,335.22-294.42C3754.91,879.53,3496.55,806,3131.22,776.19Z"/><path class="cls-76" d="M3377.78,1125.46c-5.5.9-4.26,511.49,2.21,510.44,228.38-37.28,374.92-94.93,374.92-159.64V965.47C3754.91,1030.39,3607.43,1088.2,3377.78,1125.46Z"/><path class="cls-6" d="M3716.28,1394.8c-25.94,16-66.61,30.73-120.87,43.62a2.16,2.16,0,0,0,.5,4.27,1.75,1.75,0,0,0,.5-.06c54.71-13,95.81-27.85,122.15-44.14a2.17,2.17,0,0,0-2.28-3.69Z"/><path class="cls-6" d="M3716.28,1465.7c-25.28,15.65-64.91,30-117.77,42.51a2.16,2.16,0,0,0,.5,4.27,2.14,2.14,0,0,0,.5-.06c53.32-12.67,93.37-27.15,119-43a2.17,2.17,0,0,0-2.28-3.69Z"/><rect class="cls-52" x="3261" y="1263.86" width="35.15" height="50.45"/><path class="cls-52" d="M3258.84,1516h39.48v-254.3h-39.48Zm4.33-250H3294v245.63h-30.82Z"/><path class="cls-52" d="M3325.87,1516h39.48V1194h-39.48Zm4.33-168.92H3361v164.58H3330.2Z"/><path class="cls-52" d="M3465.19,1516h39.48V1194h-39.48Zm4.33-139.91h30.82v135.57h-30.82Z"/><path class="cls-52" d="M3530.28,1516h39.49V1153.11h-39.49Zm4.33-238.89h30.82v234.56h-30.82Z"/><rect class="cls-52" x="3399.66" y="1289.9" width="35.14" height="101.79"/><path class="cls-52" d="M3397.49,1516H3437V1287.73h-39.48Zm4.34-223.92h30.81v219.59h-30.81Z"/><g class="cls-9"><path class="cls-5" d="M4028.2,903.82c-28.9,76-137.78,146.11-305.26,205V2586.69c197.06-69.33,313-154.16,313-245.8a113.87,113.87,0,0,0-7.72-40.77Z"/></g><g class="cls-9"><path class="cls-5" d="M651.18,849.66V2246a113.87,113.87,0,0,0-7.72,40.77c0,91.63,115.92,176.47,313,245.79V1054.68C789,995.76,680.09,925.64,651.18,849.66Z"/></g></g></g></svg>