<?xml version="1.0" encoding="utf-8"?>
<!-- Generator: Adobe Illustrator 25.3.1, SVG Export Plug-In . SVG Version: 6.00 Build 0)  -->
<svg version="1.1" id="Layer_1" xmlns="http://www.w3.org/2000/svg" xmlns:xlink="http://www.w3.org/1999/xlink" x="0px" y="0px"
	 viewBox="0 0 1159 771" style="enable-background:new 0 0 1159 771;" xml:space="preserve">
<style type="text/css">
	.st0{fill:#FFFFFF;}
	.st1{fill:#FFF9ED;}
	.st2{fill:#1A2E4F;}
	.st3{fill:#F3E5D8;}
	.st4{fill:#D9CDC1;}
	.st5{fill:#C67B68;}
	.st6{fill:#FFA580;}
	.st7{fill:#F74157;}
	.st8{fill:#5C94B9;}
	.st9{clip-path:url(#SVGID_2_);}
	.st10{clip-path:url(#SVGID_4_);}
</style>
<g id="Rectangle">
	<g>
		<rect class="st0" width="1159" height="771"/>
	</g>
</g>
<g>
	<path class="st1" d="M260.9,622.1c0,0-59.6-11.4-38.3-93.2c21.3-81.7,61.7-105.6,24.5-153.6c-37.2-48.1-72.2-146.1,6.4-196.4
		c78.6-50.2,109.9-99.1,208.9-76.8S644.9,31.4,721,71.3c69.4,36.5,37.8,73.2,100.8,111.5c57.6,35.1,103.7,101.4,105.9,151.2
		c2.5,55.5-40.1,138.9-22.3,187.8c22.4,61.6,0,102,0,102L260.9,622.1z"/>
</g>
<g id="background_00000071526151413975048570000012630424618282045604_">
	<g>
		<path class="st2" d="M977.7,623.8H736.8c-0.6,0-1-0.4-1-1c0-0.6,0.4-1,1-1h240.9c0.6,0,1,0.4,1,1
			C978.7,623.4,978.2,623.8,977.7,623.8z"/>
	</g>
	<g>
		<path class="st2" d="M724.6,623.8H357.1c-0.6,0-1-0.4-1-1c0-0.6,0.4-1,1-1h367.5c0.6,0,1,0.4,1,1
			C725.6,623.4,725.2,623.8,724.6,623.8z"/>
	</g>
	<g>
		<path class="st2" d="M338.4,623.8H174.1c-0.6,0-1-0.4-1-1c0-0.6,0.4-1,1-1h164.3c0.6,0,1,0.4,1,1
			C339.4,623.4,338.9,623.8,338.4,623.8z"/>
	</g>
</g>
<g id="man_in_video_00000150787164473299290040000005210432588760981161_">
	<g>
		<g>
			<path class="st0" d="M435.4,162.8c-15.3,0-27.8,12.4-27.8,27.8V384c0,15.3,12.4,27.8,27.8,27.8H744c15.3,0,27.8-12.4,27.8-27.8
				V190.6c0-15.3-12.5-27.8-27.8-27.8H435.4z"/>
		</g>
	</g>
	<g>
		<g>
			<path class="st2" d="M404.7,384V190.6c0-16.9,13.8-30.7,30.7-30.7H744c16.9,0,30.7,13.8,30.7,30.7V384
				c0,16.9-13.8,30.7-30.7,30.7H435.4C418.5,414.7,404.7,401,404.7,384z M435.4,162.8c-15.3,0-27.8,12.4-27.8,27.8V384
				c0,15.3,12.4,27.8,27.8,27.8H744c15.3,0,27.8-12.4,27.8-27.8V190.6c0-15.3-12.5-27.8-27.8-27.8H435.4z"/>
		</g>
	</g>
	<g>
		<g>
			<path class="st2" d="M744,415c16.1,0,29.2-13.2,29.2-29.5V190.4c0-16.2-13-29.4-29.1-29.5H762c16.1,0,29.2,13.2,29.2,29.5v195.1
				c0,16.3-13.1,29.5-29.2,29.5H453.4c0,0-0.1,0-0.1,0H744z"/>
		</g>
	</g>
	<g>
		<path class="st3" d="M720.5,263.9H689c-9.1,0-16.4-7.3-16.4-16.4v-31.6c0-9.1,7.3-16.4,16.4-16.4h31.6c9.1,0,16.4,7.3,16.4,16.4
			v31.6C736.9,256.5,729.6,263.9,720.5,263.9z"/>
	</g>
	<g>
		<path class="st3" d="M720.5,377.8H689c-9.1,0-16.4-7.3-16.4-16.4v-31.6c0-9.1,7.3-16.4,16.4-16.4h31.6c9.1,0,16.4,7.3,16.4,16.4
			v31.6C736.9,370.4,729.6,377.8,720.5,377.8z"/>
	</g>
	<g>
		<path class="st3" d="M493.5,262.9H462c-9.1,0-16.4-7.3-16.4-16.4v-31.6c0-9.1,7.3-16.4,16.4-16.4h31.6c9.1,0,16.4,7.3,16.4,16.4
			v31.6C509.9,255.5,502.6,262.9,493.5,262.9z"/>
	</g>
	<g>
		<path class="st3" d="M493.5,376.7H462c-9.1,0-16.4-7.3-16.4-16.4v-31.6c0-9.1,7.3-16.4,16.4-16.4h31.6c9.1,0,16.4,7.3,16.4,16.4
			v31.6C509.9,369.4,502.6,376.7,493.5,376.7z"/>
	</g>
</g>
<g id="background_00000152979368937032251200000001194167095296790668_">
	<g id="woman_00000161614205523641087530000013044346585863346073_">
		<g>
			<g>
				<g>
					<path class="st4" d="M378.4,348.3c13.7,18.5,27.5,37.1,41.2,55.6c21.6,3.4,43.3,6.9,64.9,10.3l-1,15.4c-26.4,0-52.9,0-79.3,0
						c-14.8-20.9-29.5-41.9-44.3-62.8C366,360.7,372.2,354.5,378.4,348.3z"/>
				</g>
			</g>
		</g>
		<g>
			<g>
				<g>
					<g>
						<path class="st5" d="M477.8,418c5.1-0.2,10.9-0.3,10.9-0.3l11.7,7.1c1.3,0.8,1,2.6-0.3,3.1l0,0c-0.8,0.3-1.6,0.2-2.3-0.2
							l-9.6-5l-12.3,0.7l0,0C473.8,421.5,475,418.1,477.8,418z"/>
					</g>
				</g>
			</g>
			<g>
				<g>
					<g>
						<path class="st5" d="M474.3,418.7c0.6-0.3,18.5-0.7,18.5-0.7l11.7,7.1c1.3,0.8,1,2.6-0.3,3.1l0,0c-0.8,0.3-1.6,0.2-2.3-0.2
							l-9.6-5l-12.3,0.7L474.3,418.7z"/>
					</g>
				</g>
			</g>
			<g>
				<g>
					<g>
						<path class="st5" d="M479.4,417.7c0.6-0.3,18.5-0.7,18.5-0.7l11.7,7.1c1.3,0.8,1,2.6-0.3,3.1l0,0c-0.8,0.3-1.6,0.2-2.3-0.2
							l-9.6-5l-12.3,0.7L479.4,417.7z"/>
					</g>
				</g>
			</g>
			<g>
				<g>
					<g>
						<path class="st6" d="M472.1,427.8c0.6,0.4,1.2,0.8,1.9,1.2c4.7,2.6,9.2,2.8,11.6,2.8c4.5,0.5,12.4,0.9,12.9-1
							c0.3-1.1-1.8-2.9-3.5-3.8c-2-1-3.9-0.9-5.2-1.2l0,0c0,0,0,0,0,0c-0.6-0.1-1.1-0.4-1.4-1c0,0,0-0.1-0.1-0.1
							c-1.4-0.8-3.7-1.8-6.8-2C477.6,422.5,473.4,424.9,472.1,427.8z"/>
					</g>
				</g>
			</g>
			<g>
				<g>
					<g>
						<path class="st6" d="M472.1,415.9l26.1-3c15.1,7.5,17,10.2,16.7,11.2c-0.2,0.9-0.9,1.3-0.9,1.3c-1.2,0.7-2.8-0.3-3.5-0.6
							c-2.4-1.3-7.1-3.4-13.4-6.2c-0.4,0.3-1,0.7-1.8,1.2c-1.1,0.7-2.6,1.7-4.2,2.6c-1.9,1.1-4.2,2.1-8.8,4.1
							c-3.6,1.6-5.4,3-7.5,2.6c-1.4-0.3-2.6-1-2.6-1c-0.9-0.6-1.4-1.3-1.8-1.7c-0.3-0.6-1.7-3.4-0.7-6.7
							C470.3,417.7,471.5,416.4,472.1,415.9z"/>
					</g>
				</g>
			</g>
		</g>
		<g>
			<g>
				<g>
					<g>
						<g>
							<path class="st2" d="M404.9,621.5c-5.8,2.2-14.2,4.1-21,0.4c-6.8-3.7-4.6-8.9-15.7-22.1c-3.2-3.8-4.1-5.7-4.4-7.2
								c0-0.1-0.1-0.7,0-1.3c0.3-4.5,6.5-7.9,8.4-9.1c3.7-2.4,8-7.4,10.3-18.5c6.5,2.1,13,4.1,19.6,6.2c-2,2-10.5,11.2-11.3,23.7
								c-0.3,4.1,0.5,7.9,2.1,15.4c0.4,2,0.9,3.6,2.1,5.2c1.3,1.7,4,3.5,10.3,3.3c0,0,0,0,0,0C406.9,618.4,406.7,620.8,404.9,621.5z
								"/>
						</g>
					</g>
				</g>
			</g>
			<g>
				<g>
					<g>
						<g>
							<path class="st2" d="M404.9,621.5c-5.8,2.2-14.2,4.1-21,0.4c-6.8-3.7-4.6-8.9-15.7-22.1c-4.2-4.9-4.5-6.7-4.4-8.5
								c0.2-3.5,3.5-5.9,5.1-6.9c3.3,7.4,6.4,13.6,8.8,18.5c5.3,10.5,7.7,14.5,10.5,14.3c2-0.1,3.6-2.2,4.6-4.2
								c0.7,0.4,1.4,0.8,2.1,1.1c3.7,1.8,7.2,2.8,10.3,3.3c0,0,0,0,0,0C406.9,618.4,406.7,620.8,404.9,621.5z"/>
						</g>
					</g>
				</g>
			</g>
			<g>
				<g>
					<g>
						<g>
							<path class="st2" d="M369.8,594.6c-2-1.3-4-2.6-6-3.8l-1.4,31.4l2.6,0.8l1.9-12.3c0.3-1.9,1.3-3.6,2.9-4.6
								c2.8-1.7,3.6,0.7,3.6,0.7L369.8,594.6z"/>
						</g>
					</g>
				</g>
			</g>
		</g>
		<g>
			<g>
				<g>
					<path class="st7" d="M448.3,494.6c-14.4,27.4-28.8,54.9-43.2,82.3h-1.7c-9.2-4.6-18.7-10.9-24.2-14.9
						c7.3-18,14.5-36.1,21.8-54.1c-27.5-4.1-54.9-8.2-82.4-12.4c-1.7-3-6.6-12.4-4.1-23.8c3-13.7,15.8-24.5,31.9-26.7l95.8,34
						C448.6,481.3,451.4,488.7,448.3,494.6z"/>
				</g>
			</g>
		</g>
		<g>
			<g>
				<g>
					<path class="st7" d="M374.3,457.3v34.1c0,0-58.6,0-60.6,0c-0.4,0-0.7-1.2-1-3c-1.1-7.7-1.3-27.3-1.3-27.3l4.9-13.9l11.3-32.3
						l45.7,7.6l0.8,29.4L374.3,457.3z"/>
				</g>
			</g>
		</g>
		<g>
			<g>
				<g>
					<g>
						<g>
							<path class="st2" d="M485.2,621.5c-5.8,2.2-14.2,4.1-21,0.4c-6.8-3.7-4.6-8.9-15.7-22.1c-3.2-3.8-4.1-5.7-4.4-7.2
								c-0.1-0.4,0-0.7,0-1.3c0-3.8,1.1-6.7,1.2-7.1c0.7-2.2-0.5-7.6-8.2-21.6c6.2-2.4,12.4-4.8,18.5-7.2
								c6.1,25.8,11,44.5,12.4,49.4c0.5,2,1.7,5.8,5.1,8.2c0.5,0.3,1,0.6,2.1,1.1c3.7,1.8,7.2,2.8,10.3,3.3c0,0,0,0,0,0
								C487.3,618.4,487,620.8,485.2,621.5z"/>
						</g>
					</g>
				</g>
			</g>
			<g>
				<g>
					<g>
						<g>
							<path class="st2" d="M485.2,621.5c-5.8,2.2-14.2,4.1-21,0.4c-6.8-3.7-4.6-8.9-15.7-22.1c-4.2-4.9-4.5-6.7-4.4-8.5
								c0.2-3.5,3.5-5.9,5.1-6.9c0.2-0.3,0.3-0.7,0.5-1.1c3,8.2,6,14.8,8.3,19.6c5.8,12,8.3,14.5,10.5,14.3c2-0.1,3.6-2.2,4.6-4.2
								c0.7,0.4,1.4,0.8,2.1,1.1c3.7,1.8,7.2,2.8,10.3,3.3c0,0,0,0,0,0C487.3,618.4,487,620.8,485.2,621.5z"/>
						</g>
					</g>
				</g>
			</g>
			<g>
				<g>
					<g>
						<g>
							<path class="st2" d="M450.1,594.6c-2-1.3-4-2.6-6-3.8l-1.4,31.4l2.6,0.8l1.9-12.3c0.3-1.9,1.3-3.6,2.9-4.6
								c2.8-1.7,3.6,0.7,3.6,0.7L450.1,594.6z"/>
						</g>
					</g>
				</g>
			</g>
		</g>
		<g>
			<g>
				<g>
					<g>
						<path class="st2" d="M399.3,622.5c-0.4,0-0.8-0.2-1-0.7l-41.1-86.3c-3.9-8.1-12.2-13.4-21.2-13.4h-14.2
							c-9.2,0-17.5,5.4-21.4,13.7l-39,85.4c-0.3,0.6-0.9,0.8-1.5,0.6c-0.6-0.3-0.8-0.9-0.6-1.5l39-85.4c4.2-9.2,13.4-15.1,23.4-15.1
							H336c9.9,0,19,5.8,23.3,14.7l41.1,86.3c0.3,0.6,0,1.2-0.5,1.5C399.7,622.5,399.5,622.5,399.3,622.5z"/>
					</g>
				</g>
			</g>
			<g>
				<g>
					<g>
						<path class="st2" d="M361.9,544.4h-66c-0.6,0-1.1-0.5-1.1-1.1s0.5-1.1,1.1-1.1h66c0.6,0,1.1,0.5,1.1,1.1
							S362.5,544.4,361.9,544.4z"/>
					</g>
				</g>
			</g>
		</g>
		<g>
			<g>
				<g>
					<g>
						<path class="st2" d="M429.2,623c-0.4,0-0.8-0.2-1-0.7L387.1,536c-3.9-8.1-12.2-13.4-21.2-13.4h-14.2
							c-9.2,0-17.5,5.4-21.4,13.7l-39,85.4c-0.3,0.6-0.9,0.8-1.5,0.6c-0.6-0.3-0.8-0.9-0.6-1.5l39-85.4c4.2-9.2,13.4-15.1,23.4-15.1
							h14.2c9.9,0,19,5.8,23.3,14.7l41.1,86.3c0.3,0.6,0,1.2-0.5,1.5C429.6,622.9,429.4,623,429.2,623z"/>
					</g>
				</g>
			</g>
			<g>
				<g>
					<g>
						<path class="st2" d="M391.8,544.8h-66c-0.6,0-1.1-0.5-1.1-1.1c0-0.6,0.5-1.1,1.1-1.1h66c0.6,0,1.1,0.5,1.1,1.1
							C392.9,544.3,392.4,544.8,391.8,544.8z"/>
					</g>
				</g>
			</g>
		</g>
		<g>
			<g>
				<g>
					<path class="st7" d="M464.8,566.9c-4.2,3.7-12.8,9.1-27.4,9.6L393,491.2c-6.6,0.1-13.2,0.1-19.7,0.2
						c-19.8,0.2-39.6,0.4-59.4,0.6c-0.3-0.3-1.1-1.2-2.1-2.5c-1.1-7.7-1.3-27.3-1.3-27.3l4.9-13.9c1.1-0.6,2.3-1.1,3.5-1.6
						c17.1,1.1,35.3,3,54.4,6.2c8.6,1.4,17.4,3.1,26.4,5.1c6.1,1.3,12.1,2.8,18,4.3c4.2,1.1,7.7,4.2,9.5,8.3
						c4.3,10.4,8.7,21,13,31.7C448.7,524.1,456.9,545.7,464.8,566.9z"/>
				</g>
			</g>
		</g>
		<g>
			<g>
				<g>
					<path class="st4" d="M323.8,423.5c1.9-8.5,4.3-17.5,7.2-26.8c7.4-23.3,16.6-43.3,25.7-59.7c7.9,2.7,15.8,5.5,23.7,8.2
						c1.3,6.2,3.5,15.6,7.2,26.8c4,11.9,5.2,12.2,5.1,16.5c0,10.4-7.1,14.5-14.4,33c-1.9,4.8-3.3,8.7-4.1,11.3
						c-5.8,1.4-16.8,3.2-29.9,0C335.1,430.5,328.1,426.5,323.8,423.5z"/>
				</g>
			</g>
		</g>
		<g>
			<g>
				<g>
					<path class="st2" d="M382.9,412.3c-0.1,0-0.3,0-0.4-0.1c-0.5-0.2-0.6-0.8-0.4-1.2c9.9-19.7,9.8-20.4,8.4-28.5
						c-0.1-0.6-0.2-1.1-0.3-1.8c-1.7-9.7-8.9-27.8-9-28c-0.2-0.5,0-1,0.5-1.2c0.5-0.2,1,0,1.2,0.5c0.3,0.7,7.4,18.4,9.1,28.3
						c0.1,0.6,0.2,1.2,0.3,1.8c1.5,8.4,1.7,9.3-8.5,29.6C383.6,412.1,383.3,412.3,382.9,412.3z"/>
				</g>
			</g>
		</g>
		<g>
			<g>
				<g>
					<g>
						<g>
							<path class="st2" d="M313.5,510.1c-3.3-0.1-9.5-0.9-15.5-5.2c-6.7-4.9-9.3-11.3-10.1-13.6c-3.2-13.1-6.6-26.1-10.2-39
								c-0.2-0.7-0.4-1.3-0.5-2c0-0.2-0.1-0.3-0.1-0.5c-0.1-0.4-0.2-0.7-0.3-1.1c-2-7.1-4-14.2-6.1-21.2c-3-9.9-6.1-19.9-9.3-29.8
								c-0.7-2.1-0.3-4.4,1-6.1c2-2.8,4.4-5.1,7.1-7c3.8-2.6,9-0.9,10.5,3.5c3.7,11.1,7.2,22.4,10.5,33.6c2.7,9,5.3,18,7.8,27.1
								c0.1,0.4,0.2,0.7,0.3,1.1c0,0.2,0.1,0.3,0.1,0.5C304,470.1,309,490.1,313.5,510.1z"/>
						</g>
					</g>
				</g>
			</g>
			<g>
				<g>
					<g>
						<path class="st0" d="M313.8,510.1h-0.2v0C313.6,510.1,313.7,510.1,313.8,510.1z"/>
					</g>
				</g>
			</g>
			<g>
				<g>
					<g>
						<path class="st2" d="M397.9,467.3V491c0,7.4-4.3,14.2-11.1,17c-3,1.2-6.3,1.9-9.7,1.9h-59.9c-0.7,0-1.4,0.1-2,0.1
							c-0.4,0-0.8,0-1.4,0h-0.2v0c-3.3-0.1-9.5-0.9-15.5-5.2c-6.7-4.8-9.2-11.1-10.1-13.5c0,0,0,0,0-0.1c-3.4-13.7-6.9-27.4-10.7-41
							c-0.1-0.5-0.3-1-0.4-1.5h102.8c0.1,0,0.2,0,0.2,0C389.9,448.8,397.9,457.2,397.9,467.3z"/>
					</g>
				</g>
			</g>
		</g>
		<g>
			<g>
				<g>
					<g>
						<path class="st6" d="M372.6,312.9c-4,8.3-8.1,16.6-12.1,24.9c1.2,1.5,3.3,3.9,6.8,5.6c5.7,2.8,11.1,2,13,1.6
							c2.7-8.6,5.3-17.2,8-25.8C383.1,317.1,377.9,315,372.6,312.9z"/>
					</g>
				</g>
			</g>
			<g>
				<g>
					<g>
						<path class="st6" d="M382.5,286.5c3.9,2.6,6,5.3,7.2,7.2c3.4,5.7,2,9.6,6.2,13.4c1,0.9,2.8,2.2,2.6,3.6
							c-0.2,1-1.2,1.7-2.1,2.1l1,4.1c-0.5,0.3-1.2,0.8-2.1,1c-1.8,0.6-3.4,0.2-4.1,0l4.1,3.1c0,0,2.1,7.2-5.1,7.2
							c0,0-7.2,1-11.3-3.1c-4.1-4.1-5.1-9.3-5.1-9.3S364.5,286,382.5,286.5z"/>
					</g>
				</g>
			</g>
			<g>
				<g>
					<g>
						<g>
							<path class="st2" d="M395,284.1c-0.4,0-0.8-0.3-0.9-0.7c-0.1-0.5,0.1-1,0.6-1.2l4.6-1.3c0.5-0.1,1,0.1,1.2,0.6
								c0.1,0.5-0.1,1-0.6,1.2l-4.6,1.3C395.2,284.1,395.1,284.1,395,284.1z"/>
						</g>
					</g>
				</g>
				<g>
					<g>
						<g>
							<path class="st2" d="M390.4,278.8c-0.2,0-0.5-0.1-0.7-0.3c-0.4-0.4-0.4-1,0-1.3c0.3-0.3,0.7-0.6,1-1c0.8-0.7,1.7-1.3,2.6-1.8
								c0.5-0.3,1-0.1,1.3,0.4c0.3,0.5,0.1,1-0.4,1.3c-0.8,0.5-1.6,1-2.3,1.6c-0.3,0.3-0.6,0.6-0.9,0.9
								C390.9,278.7,390.6,278.8,390.4,278.8z"/>
						</g>
					</g>
				</g>
			</g>
			<g>
				<g>
					<g>
						<path class="st6" d="M377.9,321.8c-0.9,1.4-2.4,3.4-4.9,4.9c-5.9,3.5-13.6,1.9-18.5-1.8c-4.4-3.3-6.1-7.8-6.5-9.4
							c-1.9-7-0.8-16.6,5.4-23.3c8.4-9,24.8-11.6,31.9-3.8C391.8,295.5,390.5,311.4,377.9,321.8z"/>
					</g>
				</g>
			</g>
			<g>
				<g>
					<g>
						<path class="st2" d="M386.6,307.3c-0.1,0-0.3,0-0.4-0.1c-0.5-0.2-0.7-0.8-0.5-1.2c0.6-1.5,1.6-2.9,2.9-3.9
							c0.6-0.5,1.3-1,2.1-1.3c0.5-0.2,1,0,1.3,0.4c0.2,0.5,0,1-0.4,1.3c-0.6,0.3-1.2,0.7-1.7,1.1c-1,0.9-1.8,1.9-2.3,3.2
							C387.3,307.1,387,307.3,386.6,307.3z"/>
					</g>
				</g>
			</g>
			<g>
				<g>
					<g>
						<path class="st2" d="M395.3,314.1c-0.4,0-0.7-0.2-0.9-0.6c-0.2-0.5,0-1,0.5-1.3c2.5-1.1,2.5-1.8,2.5-1.8
							c0-0.3-0.8-0.8-1.2-1.1c-0.1-0.1-0.3-0.2-0.4-0.2c-2.3-1.6-3.9-4.8-4.9-9.9c-1.4-7.1-6.9-10.5-6.9-10.5
							c-0.5-0.3-0.6-0.9-0.3-1.3c0.3-0.5,0.9-0.6,1.3-0.3c0.3,0.2,6.3,3.8,7.8,11.8c0.9,4.6,2.2,7.4,4.1,8.7
							c0.1,0.1,0.2,0.1,0.3,0.2c0.8,0.5,2,1.3,2.1,2.6c0.1,1.8-2,2.9-3.6,3.6C395.5,314.1,395.4,314.1,395.3,314.1z"/>
					</g>
				</g>
			</g>
			<g>
				<g>
					<g>
						<path class="st2" d="M391.3,304c0.3,1.1-0.2,2.1-1,2.3c-0.8,0.2-1.6-0.5-1.9-1.6c-0.3-1.1,0.2-2.1,1-2.3
							C390.2,302.2,391,302.9,391.3,304z"/>
					</g>
				</g>
			</g>
			<g>
				<g>
					<g>
						<path class="st2" d="M361,286.3c-5,2-7.1,3.3-7.2,4c-1,0.7-2,1.6-2.9,2.6c-2,2.2-3.3,5-5.2,29.1c-0.3,3.8-0.5,6.9-0.7,9.1
							c2.8,2.7,9.7,8.7,20.4,10.2c5,0.7,9.2,0.2,12.3-0.4c2.2-6.3,2.9-11.6,3.2-15.2c1-13.7-0.4-24.8-0.4-24.8
							c-0.2-1.9-0.9-6.2,1.4-10.1c0.8-1.3,1.7-2.3,2.5-3c0.3,0.2,0.7,0.6,1.1,0.9C385.5,288.7,385.4,276.3,361,286.3z"/>
					</g>
				</g>
			</g>
			<g>
				<g>
					<g>
						<path class="st6" d="M372.4,310.4c-2.7-1.8-5.4-2.3-6.8-1.2c-0.4,0.4-0.6,0.9-0.8,1.3c-0.7,1.7-0.4,3.7,0.5,5.1
							c1.3,2,4.1,3.6,5.6,2.7c1-0.6,1.2-2.2,1.4-4.6C372.5,312.4,372.5,311.2,372.4,310.4z"/>
					</g>
				</g>
			</g>
			<g>
				<g>
					<g>
						<path class="st2" d="M369.8,315.9c-0.1,0-0.2,0-0.2,0c-1.9-0.6-3.2-2.1-3-3.5c0.1-0.5,0.4-1,0.8-1.4c1-0.9,2.4-0.7,3.1-0.5
							c0.4,0.1,0.6,0.6,0.5,1c-0.1,0.4-0.6,0.6-1,0.5c0,0-1-0.3-1.6,0.2c-0.2,0.2-0.3,0.3-0.3,0.5c-0.1,0.4,0.6,1.3,1.9,1.8
							c0.4,0.1,0.6,0.6,0.5,1C370.4,315.7,370.1,315.9,369.8,315.9z"/>
					</g>
				</g>
			</g>
			<g>
				<g>
					<g>
						<path class="st2" d="M381.7,283.8c5.5-0.8,7.2,0.8,7.7,1.5c2.7,3.3-0.4,11.7-8.4,20.9c-5.2-6.8-5.8-12.7-5.8-15.5
							c0-2.1,0-6.6,2.4-7.6C379,282.3,380.7,283.2,381.7,283.8z"/>
					</g>
				</g>
			</g>
			<g>
				<g>
					<g>
						<path class="st0" d="M373.7,302.5c-0.2,0-0.4-0.1-0.5-0.2c-0.2-0.3-0.2-0.7,0.1-0.9c1.1-0.8,3-2.7,3.9-5.7
							c0.5-1.7,0.6-3.5,0.3-5.3c-0.1-0.3,0.2-0.7,0.5-0.7c0.3-0.1,0.7,0.2,0.7,0.5c0.4,2,0.2,4-0.3,5.9c-1,3.3-3.1,5.4-4.3,6.3
							C374,302.5,373.9,302.5,373.7,302.5z"/>
					</g>
				</g>
			</g>
			<g>
				<g>
					<g>
						<path class="st0" d="M373.7,306.9c-0.2,0-0.5-0.1-0.6-0.4c-0.1-0.3,0-0.7,0.3-0.8c11.3-4.8,9.1-14.5,9-14.6
							c-0.1-0.3,0.1-0.7,0.5-0.8c0.3-0.1,0.7,0.1,0.8,0.5c0,0.1,2.5,10.9-9.8,16.1C373.9,306.9,373.8,306.9,373.7,306.9z"/>
					</g>
				</g>
			</g>
			<g>
				<g>
					<g>
						<path class="st0" d="M349.7,329.9C349.7,329.9,349.7,329.9,349.7,329.9c-0.4,0-0.6-0.3-0.6-0.6c0.2-10.7,3.1-27.6,3.1-27.8
							c0.1-0.3,0.4-0.6,0.7-0.5c0.3,0.1,0.6,0.4,0.5,0.7c0,0.2-2.9,17-3.1,27.6C350.3,329.6,350,329.9,349.7,329.9z"/>
					</g>
				</g>
			</g>
			<g>
				<g>
					<g>
						<path class="st0" d="M353.3,332.5c-0.3,0-0.6-0.2-0.6-0.6c-0.4-3.1,0.5-9.3,0.5-9.5c0-0.3,0.4-0.6,0.7-0.5
							c0.3,0,0.6,0.4,0.5,0.7c0,0.1-0.9,6.3-0.5,9.2C354,332.2,353.7,332.5,353.3,332.5C353.3,332.5,353.3,332.5,353.3,332.5z"/>
					</g>
				</g>
			</g>
			<g>
				<g>
					<g>
						<path class="st8" d="M372.2,317.9c0,0.9-0.7,1.5-1.5,1.5c-0.9,0-1.5-0.7-1.5-1.5c0-0.9,0.7-1.5,1.5-1.5
							C371.5,316.4,372.2,317.1,372.2,317.9z"/>
					</g>
				</g>
			</g>
			<g>
				<g>
					<g>
						<path class="st2" d="M395.4,321.5c-0.2,0-0.4,0-0.6,0c-2.7-0.3-4.3-2.6-4.8-3.6c-0.2-0.3-0.2-0.7,0.1-1.1
							c0.2-0.3,0.6-0.4,1-0.4c3.7,0.9,5.5,0.1,5.5,0.1c0.5-0.2,1,0,1.3,0.4c0.2,0.5,0,1-0.4,1.3c-0.1,0-1.5,0.7-4.2,0.5
							c0.5,0.4,1.1,0.7,1.8,0.8c0.3,0,0.5,0,0.8,0c0.5-0.1,1,0.3,1.1,0.8c0.1,0.5-0.3,1-0.8,1.1
							C395.8,321.5,395.6,321.5,395.4,321.5z"/>
					</g>
				</g>
			</g>
		</g>
		<g>
			<g>
				<g>
					<g>
						<g>
							<path class="st6" d="M459.4,374.3l-17.3,18.2c0,0,3.5,5.7,11.7,9.5l11.6-15.1L459.4,374.3z"/>
						</g>
					</g>
				</g>
			</g>
			<g>
				<g>
					<g>
						<g>
							<path class="st5" d="M474.1,380.9c-0.2,0.5,19.6,6.2,21.9,4.9c2.1-0.8,1.4-2.9-3.4-3.7c-4.8-0.8-7.6-1.5-7.6-1.4
								c-3.4-1.1-6.6-2.4-9.8-3.8C474.9,378.2,474.5,379.6,474.1,380.9z"/>
						</g>
					</g>
				</g>
				<g>
					<g>
						<g>
							<path class="st5" d="M471.6,381.2c-0.5,0.7,24.8,10.3,28.2,8.5c2.9-0.9,2-3.7-4.2-4.9c-6.2-1.3-9.8-2.5-9.8-2.5
								c-4.3-1.8-8.3-3.8-12.2-6C473,377.9,472.3,379.6,471.6,381.2z"/>
						</g>
					</g>
				</g>
				<g>
					<g>
						<g>
							<path class="st5" d="M474.5,385.4c-0.5,0.8,25.9,9.6,29.3,7.7c3-1,2-3.8-4.5-4.8c-6.5-1.2-10.2-2.3-10.2-2.2
								c-4.4-1.6-8.7-3.5-12.8-5.6C475.8,382.1,475.2,383.7,474.5,385.4z"/>
						</g>
					</g>
				</g>
				<g>
					<g>
						<g>
							<g>
								<path class="st0" d="M473.2,380.5c0.6,0.4,1,0.9,1.3,1.3c1.7,2.4,1.9,4.2,3.8,9.4c0.7,1.9,1.2,2.7,0.7,3.7
									c-0.4,1-1.6,1.9-2.9,2c-2.3,0.1-4-2.4-7.6-6.6c-5.3-6.4-7.7-7.7-7-9.4c0.9-2,4.8-2.7,7.8-2.2
									C471.4,379.2,472.9,380.3,473.2,380.5z"/>
							</g>
						</g>
					</g>
				</g>
				<g>
					<g>
						<g>
							<path class="st6" d="M502.7,395c-0.3-1.8-4.3-2.6-6.1-3c-3.5-0.8-8.5-2-15.5-4.3c0.4-0.5,0.8-1.4,1.2-2.4
								c0.3-0.8,0.9-2.5,0.6-3.8c-0.3-1.4-1.6-1.8-6.6-4c-1.4-0.7-4.5-2-8.9-3.7c-3.1-1.2-3.8-1.4-4.7-1.2c-2.3,0.4-4.9,2.7-5.1,5.6
								c-0.2,2.8,1.8,4.7,2.2,5c1.5,0.8,2.8,1.6,4.1,2.3c1.1,1.2,2.7,2.9,4.6,5.1c3.6,4.2,5.2,6.7,7.6,6.6c1.3-0.1,2.5-1,2.9-2
								c0.4-0.8,0.1-1.6-0.4-2.9c1.4,0.6,2.4,1,3.3,1.4c0.4,0.1,2.9,1.2,6.4,2.1c2.6,0.7,4,0.9,6.8,1.2c5.2,0.6,6.6,0.2,7.2-0.6
								C502.4,396.1,502.8,395.6,502.7,395z"/>
						</g>
					</g>
				</g>
				<g>
					<g>
						<g>
							<path class="st5" d="M478.9,393.1c-0.2,0-0.5-0.1-0.6-0.3c-1.7-2.1-3.1-4.2-4.2-6.5c-0.4-1-0.8-1.8-1.1-2.6
								c-0.9-2.1-1.5-3.7-3.1-4.8c-0.7-0.5-1.5-0.8-2.3-1.1c-0.4-0.1-0.7-0.6-0.6-1c0.1-0.4,0.6-0.7,1-0.6c1,0.3,2,0.7,2.8,1.3
								c2,1.4,2.7,3.3,3.6,5.5c0.3,0.8,0.7,1.6,1.1,2.6c1,2.2,2.3,4.2,4,6.2c0.3,0.3,0.2,0.8-0.1,1.1
								C479.3,393.1,479.1,393.1,478.9,393.1z"/>
						</g>
					</g>
				</g>
			</g>
		</g>
		<g>
			<g>
				<g>
					<path class="st4" d="M369.1,355.5c14.4,14.4,28.8,28.8,43.3,43.3c7.3-3,15.3-6.7,23.7-11.3c6.8-3.7,13-7.6,18.5-11.3
						c3.1,4.5,6.2,8.9,9.3,13.4c-3.7,6.2-10.2,15.3-20.6,23.7c-9.4,7.5-17.7,14.3-28.8,14.4c-4.4,0-10.9-0.9-36-19.6
						c-10.9-8.1-19.6-15.3-25.7-20.6C358.1,376.8,363.6,366.1,369.1,355.5z"/>
				</g>
			</g>
		</g>
		<g>
			<g>
				<g>
					<path class="st2" d="M412.2,399.9l-17-17.4c-0.4-0.4-0.3-0.9,0-1.3c0.4-0.4,0.9-0.3,1.3,0l16,16.4l42.7-22.3
						c0.4-0.2,1-0.1,1.2,0.4c0.2,0.4,0.1,1-0.4,1.2L412.2,399.9z"/>
				</g>
			</g>
		</g>
		<g>
			<g>
				<g>
					<path class="st2" d="M415.6,428.4c-18,0-55.8-35.7-57.5-37.3c-0.4-0.3-0.4-0.9,0-1.3c0.3-0.4,0.9-0.4,1.3,0
						c0.4,0.4,41.1,38.8,57.5,36.7c16.5-2.2,39.3-26.5,39.6-26.8c0.3-0.4,0.9-0.4,1.3,0c0.4,0.3,0.4,0.9,0,1.3
						c-1,1-23.5,25.1-40.7,27.4C416.7,428.4,416.2,428.4,415.6,428.4z"/>
				</g>
			</g>
		</g>
		<g>
			<g>
				<g>
					<path class="st2" d="M422.1,547.3c-0.3,0-0.6-0.2-0.8-0.5l-25.6-48.2c-0.2-0.4-0.1-1,0.4-1.2c0.4-0.2,1-0.1,1.2,0.4l25.6,48.2
						c0.2,0.4,0.1,1-0.4,1.2C422.4,547.2,422.3,547.3,422.1,547.3z"/>
				</g>
			</g>
		</g>
		<g>
			<g>
				<g>
					<path class="st2" d="M442.7,510.3c-0.4,0-0.7-0.2-0.8-0.6l-17-39.6c-0.2-0.5,0-1,0.5-1.2c0.5-0.2,1,0,1.2,0.5l17,39.6
						c0.2,0.5,0,1-0.5,1.2C443,510.3,442.9,510.3,442.7,510.3z"/>
				</g>
			</g>
		</g>
		<g>
			<g>
				<g>
					<path class="st2" d="M347.5,435.7C347.4,435.7,347.4,435.7,347.5,435.7c-0.6-0.1-1-0.5-0.9-1c1-10.3,13.8-40.5,14.4-41.8
						c0.2-0.5,0.7-0.7,1.2-0.5c0.5,0.2,0.7,0.7,0.5,1.2c-0.1,0.3-13.2,31.2-14.3,41.3C348.3,435.4,347.9,435.7,347.5,435.7z"/>
				</g>
			</g>
		</g>
		<g>
			<g>
				<g>
					<path class="st2" d="M372.2,362.6c-0.5,0-0.9-0.4-0.9-0.9c0-1.6-1-11.8-1.5-16.9c-0.1-0.5,0.3-1,0.8-1c0.5,0,1,0.3,1,0.8
						c0.1,0.6,1.5,15,1.5,17.1C373.1,362.2,372.7,362.6,372.2,362.6z"/>
				</g>
			</g>
		</g>
	</g>
	<g>
		<g>
			<g>
				<path class="st2" d="M776.4,620.6h-14.1l-34.7-85l-17.1-42c-6.1-15-20.2-24.8-35.9-24.8H533.1c-2,0-3.9,0.1-5.8,0.4
					c-13.2,2.1-24.7,11.2-30.1,24.4l-51.8,127h-14.1l22.5-72.9l32.5-105.1h235L776.4,620.6z"/>
			</g>
		</g>
		<g>
			<g>
				<path class="st2" d="M776.4,620.6h-14.1l-34.7-85l-17.1-42c-6.1-15-20.2-24.8-35.9-24.8H533.1c-2,0-3.9,0.1-5.8,0.4
					c-13.2,2.1-24.7,11.2-30.1,24.4l-51.8,127h-14.1l22.5-72.9l32.5-105.1h235L776.4,620.6z"/>
			</g>
		</g>
	</g>
	<g>
		<g>
			<path class="st2" d="M873.2,166.8c-0.5,0-0.9-0.4-0.9-0.9V125l-0.9-0.1c-0.5-0.1-0.8-0.5-0.7-1c0.1-0.5,0.5-0.8,1-0.7l2.4,0.4
				v42.4C874,166.4,873.6,166.8,873.2,166.8z"/>
		</g>
	</g>
	<g>
		<g>
			<path class="st2" d="M809.7,156.5c-0.5,0-0.9-0.4-0.9-0.9V124c0-0.5,0.4-0.9,0.9-0.9s0.9,0.4,0.9,0.9v31.6
				C810.6,156.1,810.2,156.5,809.7,156.5z"/>
		</g>
	</g>
	<g>
		<g>
			<polygon class="st2" points="873.4,181 884.1,181 878.8,171.8 873.4,162.5 868.1,171.8 862.7,181 			"/>
		</g>
	</g>
	<g>
		<g>
			<polygon class="st2" points="809.7,167.7 820.4,167.7 815.1,158.4 809.7,149.2 804.4,158.4 799,167.7 			"/>
		</g>
	</g>
	<g>
		<g>
			<polygon class="st2" points="250.2,278.6 260.9,278.6 255.6,269.4 250.2,260.1 244.9,269.4 239.6,278.6 			"/>
		</g>
	</g>
	<g>
		<g>
			<path class="st2" d="M904.4,124.9h-244c-0.5,0-0.9-0.4-0.9-0.9s0.4-0.9,0.9-0.9h244c0.5,0,0.9,0.4,0.9,0.9
				S904.9,124.9,904.4,124.9z"/>
		</g>
	</g>
	<g>
		<g>
			<path class="st2" d="M368.9,186.3h-145c-0.4,0-0.7-0.3-0.7-0.7c0-0.4,0.3-0.7,0.7-0.7h145c0.4,0,0.7,0.3,0.7,0.7
				C369.6,186,369.3,186.3,368.9,186.3z"/>
		</g>
	</g>
	<g>
		<g>
			<g>
				<path class="st0" d="M753.5,620.6h-14.3l-50.6-126.1c-6.1-15.3-20.2-25.2-35.9-25.2H511.1c-15.6,0-29.7,9.9-35.9,25.2
					l-21.3,53.2l-29.3,72.9h-14.3l54.1-178h235l28.2,93L753.5,620.6z"/>
			</g>
		</g>
		<g>
			<g>
				<path class="st2" d="M754.8,621.6h-16.4l-50.9-126.8c-6-14.9-19.7-24.6-34.9-24.6H511.1c-15.2,0-28.9,9.7-34.9,24.6l-50.9,126.8
					h-16.4l54.7-180h236.5L754.8,621.6z M739.8,619.6h12.3l-53.5-176H465.1l-53.5,176h12.3l50.4-125.5c6.3-15.7,20.8-25.9,36.8-25.9
					h141.5c16.1,0,30.5,10.2,36.8,25.9L739.8,619.6z"/>
			</g>
		</g>
	</g>
	<g>
		<g>
			<g>
				<rect x="383.4" y="433.6" class="st0" width="401" height="13"/>
			</g>
		</g>
		<g>
			<g>
				<path class="st2" d="M785.3,447.5H382.4v-14.9h402.9V447.5z M384.3,445.6h399.1v-11.1H384.3V445.6z"/>
			</g>
		</g>
	</g>
	<g>
		<g>
			<path class="st2" d="M250.5,265.5c-0.5,0-0.9-0.4-0.9-0.9v-79c0-0.4,0.2-0.7,0.6-0.8c0.4-0.1,0.8,0,1,0.3
				c16.9,21.3,34.5,31.6,52.2,30.7c27.7-1.4,46.6-30.4,46.8-30.6c0.3-0.4,0.8-0.5,1.2-0.3c0.4,0.3,0.5,0.8,0.3,1.2
				c-0.2,0.3-19.5,30-48.2,31.5c-17.8,0.9-35.3-9-52.1-29.4v76.5C251.4,265.1,251,265.5,250.5,265.5z"/>
		</g>
	</g>
	<g>
		<g>
			<g>
				<path class="st2" d="M327.2,297.5c0,0,3.6,19-1.8,27.1h-24.7c0,0,4.8-16.2,2.4-25.9L327.2,297.5z"/>
			</g>
		</g>
		<g>
			<g>
				<path class="st8" d="M327.1,298.7c-1,18.6-5.3,25.9-5.3,25.9h-25.3c3.5-8.9,5.5-19.5,6.5-25.9H327.1z"/>
			</g>
		</g>
		<g>
			<g>
				<path class="st8" d="M327.2,298.7h-24.1v-6.5c0-0.9,0.7-1.6,1.6-1.6h21c0.9,0,1.6,0.7,1.6,1.6V298.7z"/>
			</g>
		</g>
		<g>
			<g>
				<path class="st2" d="M327.2,299.3h-24.1c-0.3,0-0.6-0.3-0.6-0.6s0.3-0.6,0.6-0.6h24.1c0.3,0,0.6,0.3,0.6,0.6
					S327.5,299.3,327.2,299.3z"/>
			</g>
		</g>
	</g>
	<g>
		<g>
			<g>
				<path class="st2" d="M896.8,338.9c0,0-3.6,19,1.8,27.1h24.7c0,0-4.8-16.2-2.4-25.9L896.8,338.9z"/>
			</g>
		</g>
		<g>
			<g>
				<path class="st8" d="M896.9,340.1c1,18.6,5.3,25.9,5.3,25.9h25.3c-3.5-8.9-5.5-19.5-6.5-25.9H896.9z"/>
			</g>
		</g>
		<g>
			<g>
				<path class="st8" d="M896.8,340.1h24.1v-6.5c0-0.9-0.7-1.6-1.6-1.6h-21c-0.9,0-1.6,0.7-1.6,1.6V340.1z"/>
			</g>
		</g>
		<g>
			<g>
				<path class="st2" d="M920.9,340.7h-24.1c-0.3,0-0.6-0.3-0.6-0.6s0.3-0.6,0.6-0.6h24.1c0.3,0,0.6,0.3,0.6,0.6
					S921.2,340.7,920.9,340.7z"/>
			</g>
		</g>
	</g>
	<g>
		<g>
			<g>
				<path class="st2" d="M259,347.1c0,0,4.1,15.9-2,22.7h-27.8c0,0,5.4-13.6,2.7-21.7L259,347.1z"/>
			</g>
		</g>
		<g>
			<g>
				<path class="st0" d="M258.8,348.1c-1.1,15.6-6,21.7-6,21.7h-28.5c4-7.5,6.2-16.4,7.3-21.7H258.8z"/>
			</g>
		</g>
		<g>
			<g>
				<path class="st0" d="M259,348.1h-27.1v-5.3c0-0.8,0.7-1.5,1.5-1.5h24.1c0.8,0,1.5,0.7,1.5,1.5V348.1z"/>
			</g>
		</g>
		<g>
			<g>
				<path class="st2" d="M259,348.7h-27.1c-0.3,0-0.6-0.3-0.6-0.6c0-0.3,0.3-0.6,0.6-0.6H259c0.3,0,0.6,0.3,0.6,0.6
					C259.6,348.5,259.3,348.7,259,348.7z"/>
			</g>
		</g>
		<g>
			<g>
				<path class="st2" d="M252.9,370.7h-28.5c-0.3,0-0.6-0.2-0.8-0.4c-0.2-0.3-0.2-0.6,0-0.9c3.8-7.1,6-15.6,7.2-21.5
					c0.1-0.4,0.4-0.7,0.9-0.7h27.1c0.2,0,0.5,0.1,0.6,0.3c0.2,0.2,0.3,0.4,0.2,0.7c-1.1,15.7-5.9,21.9-6.1,22.2
					C253.4,370.6,253.1,370.7,252.9,370.7z M225.8,368.9h26.6c0.9-1.4,4.4-7.4,5.5-19.9h-25.5C231.2,354.6,229.2,362.2,225.8,368.9z
					"/>
			</g>
		</g>
		<g>
			<g>
				<path class="st2" d="M259,349h-27.1c-0.5,0-0.9-0.4-0.9-0.9v-5.3c0-1.3,1.1-2.4,2.4-2.4h24.1c1.3,0,2.4,1.1,2.4,2.4v5.3
					C259.8,348.6,259.5,349,259,349z M232.7,347.2h25.4v-4.4c0-0.3-0.3-0.6-0.6-0.6h-24.1c-0.3,0-0.6,0.3-0.6,0.6V347.2z"/>
			</g>
		</g>
	</g>
</g>
<g>
	<defs>
		<path id="SVGID_1_" d="M666.1,464.9c0,0,13.1,4.9,21.1,17c5.1,7.7,25.7,69.2,56.3,110.2c13,17.4-4.5,42.2-26.2,42.2h-96.6
			c-19,0-37.8-2.8-56-8.4l0,0c-10.7-3.3-17.5-13.8-16-24.9l9.7-75.4l1.8-107.2c0.1-4.6,1.3-9.1,3.6-13.1l0.2-0.3
			c4.7-8.3,13.4-13.5,22.9-13.8l36.2-1.2c3.8-0.1,7.5,0.3,11.2,1.2l8.4,2c16.3,4,27.4,19.2,26.2,35.9L666.1,464.9z"/>
	</defs>
	<clipPath id="SVGID_2_">
		<use xlink:href="#SVGID_1_"  style="overflow:visible;"/>
	</clipPath>
	<g class="st9">
		<g>
			<g>
				<path class="st8" d="M565.7,435.3l3.2,13.1l2.8,11.7l9.2,38.4c2.5,10.1,11.5,17.3,22,17.3h72.9l-16.5-95.3
					c-2.4-14.1-12.7-24.2-24.6-24.2h-44.8C573.1,396.4,561,415.9,565.7,435.3z"/>
			</g>
		</g>
		<g>
			<g>
				<path class="st2" d="M585,460.2v47c4.2,5.4,10.7,8.7,17.8,8.7h107.6c12.5,0,22.6-10.1,22.6-22.6c0-9.1-3.7-17.4-9.7-23.4
					s-14.2-9.7-23.4-9.7H585z"/>
			</g>
		</g>
		<g>
			<g>
				<path class="st2" d="M644.3,623.4c-0.4,0-0.8-0.3-1-0.7l-25.3-78.5c-2.4-7.3-7.3-12-12.7-12h-8.7c-5.4,0-10.5,4.8-12.8,12.4
					l-24,77.6c-0.2,0.5-0.7,0.9-1.3,0.7c-0.5-0.2-0.9-0.7-0.7-1.3l24-77.6c2.6-8.4,8.4-13.8,14.8-13.8h8.7c6.3,0,12,5.3,14.7,13.5
					l25.3,78.5c0.2,0.5-0.1,1.1-0.7,1.3C644.5,623.4,644.4,623.4,644.3,623.4z"/>
			</g>
		</g>
		<g>
			<g>
				<path class="st2" d="M725.6,622.9c-0.4,0-0.8-0.3-1-0.7l-25.3-78.5c-2.4-7.3-7.3-12-12.7-12h-8.7c-5.4,0-10.5,4.8-12.8,12.4
					l-24,77.6c-0.2,0.5-0.7,0.9-1.3,0.7c-0.5-0.2-0.9-0.7-0.7-1.3l24-77.6c2.6-8.4,8.4-13.8,14.8-13.8h8.7c6.3,0,12,5.3,14.7,13.5
					l25.3,78.5c0.2,0.5-0.1,1.1-0.7,1.3C725.8,622.9,725.7,622.9,725.6,622.9z"/>
			</g>
		</g>
		<g>
			<g>
				<path class="st2" d="M702.7,552H580.5c-0.6,0-1-0.5-1-1c0-0.6,0.5-1,1-1h122.3c0.6,0,1,0.5,1,1C703.7,551.5,703.3,552,702.7,552
					z"/>
			</g>
		</g>
		<g>
			<g>
				<path class="st8" d="M571.3,460.2l9.3,38.4c0.8,3.2,2.2,6.1,4.2,8.6c4.2,5.4,10.7,8.7,17.9,8.7h56.7v-22.6
					c0-18.3-14.9-33.1-33.2-33.1H571.3z"/>
			</g>
		</g>
		<g>
			<g>
				<path class="st2" d="M565.7,435.3l3.2,13.1l2.8,11.7l9.2,38.4c2.5,10.1,11.5,17.3,22,17.3h72.9l-16.5-95.3
					c-2.4-14.1-12.7-24.2-24.6-24.2h-44.8C573.1,396.4,561,415.9,565.7,435.3z"/>
			</g>
		</g>
		<g>
			<g>
				
					<rect x="669.8" y="459.8" transform="matrix(0.9858 -0.1681 0.1681 0.9858 -72.4446 119.6834)" class="st0" width="1.9" height="56.1"/>
			</g>
		</g>
	</g>
</g>
<g>
	<g>
		<path class="st0" d="M622,342.9h-64.6c-13.2,0-24-10.7-24-24v-64.6c0-13.2,10.7-24,24-24H622c13.2,0,24,10.7,24,24V319
			C645.9,332.2,635.2,342.9,622,342.9z"/>
	</g>
	<g>
		<path class="st2" d="M622.8,344.1h-66.1c-13.3,0-24.2-10.8-24.2-24.2v-66.1c0-13.3,10.8-24.2,24.2-24.2h66.1
			c13.3,0,24.2,10.8,24.2,24.2v66.1C646.9,333.2,636.1,344.1,622.8,344.1z M556.6,231.6c-12.2,0-22.2,9.9-22.2,22.2v66.1
			c0,12.2,9.9,22.2,22.2,22.2h66.1c12.2,0,22.2-9.9,22.2-22.2v-66.1c0-12.2-9.9-22.2-22.2-22.2H556.6z"/>
	</g>
	<g>
		<g>
			<defs>
				<path id="SVGID_3_" d="M621.8,341.8h-66.1c-12.8,0-23.2-10.4-23.2-23.2v-66.1c0-12.8,10.4-23.2,23.2-23.2h66.1
					c12.8,0,23.2,10.4,23.2,23.2v66.1C645,331.4,634.6,341.8,621.8,341.8z"/>
			</defs>
			<clipPath id="SVGID_4_">
				<use xlink:href="#SVGID_3_"  style="overflow:visible;"/>
			</clipPath>
			<g class="st10">
				<g>
					<g>
						<g>
							<path class="st0" d="M549,349.8c0,0,27.5-19.9,35-18c7.6,1.9,4.7,12.3,0,19.9c-4.7,7.6-31.2,11.6-31.2,11.6
								S546.2,359.3,549,349.8z"/>
						</g>
					</g>
					<g>
						<g>
							<path class="st2" d="M552.8,364.2c-0.2,0-0.3,0-0.5-0.1c-0.1,0-7.2-4.5-4.2-14.5c0.1-0.2,0.2-0.4,0.3-0.5
								c2.8-2.1,28-20.1,35.8-18.1c2.3,0.6,3.9,1.9,4.7,4c1.9,4.7-0.9,12-4.2,17.3c-4.9,7.8-30.7,11.8-31.8,12
								C552.9,364.2,552.9,364.2,552.8,364.2z M549.8,350.4c-2.1,7.5,2.2,11.2,3.3,12c3.1-0.5,26.1-4.4,30.2-11.1
								c2.9-4.7,5.7-11.6,4.1-15.7c-0.6-1.5-1.8-2.4-3.5-2.9C578,331.3,557.5,344.8,549.8,350.4z"/>
						</g>
					</g>
				</g>
				<g>
					<g>
						<path class="st2" d="M583.6,243.6c-3-0.9-7.9-1.7-11.6,0.8c-2.7,1.9-2.5,4-5,10c-4.5,11-10.9,17.8-8.7,21.1
							c0.2,0.3,0.4,1.8,2.4,3.5c1,0.8,1.5,1.7,1.7,2.5c0.7,3.6-11.9,14.2-10.8,19.3c1.8,8.2,43.8,16.1,62.2-4.5
							c8.2-9.1,11.2-23.3,7.9-25.8c-2.1-1.6-7.2,0.7-8.8-1.4c-0.4-0.5-0.2-1.2-0.2-1.4c0.4-3.8-4-10.7-9.8-16.9
							c-6.3-6.8-10.4-11.2-15-10.3C585.9,241,584.5,242.5,583.6,243.6z"/>
					</g>
				</g>
				<g>
					<g>
						<path class="st0" d="M561.8,291.9l-0.6-0.4c1-1.4,2-2.5,2.8-3.5c2.8-3.1,4.5-5,1.5-10.4c-4.3-7.5,0.6-11.4,0.7-11.5l0.5,0.6
							c-0.2,0.1-4.4,3.6-0.5,10.5c3.3,5.8,1.2,8.1-1.6,11.3C563.7,289.5,562.7,290.6,561.8,291.9z"/>
					</g>
				</g>
				<g>
					<g>
						<g>
							<g>
								<path class="st2" d="M561.5,590.2c5.5,2.1,13.4,3.9,19.9,0.3c6.4-3.5,4.3-8.4,14.9-21c3-3.6,3.9-5.4,4.1-6.8
									c0.1-0.6,0-1.1,0-1.2c-0.2-2.9-2.3-4.7-3.2-5.9c-1.5-1.9-1.3-5-0.9-11.4c0.2-3.3,0.7-7.9,1.9-13.3
									c-5.4-0.6-10.7-1.3-16.1-1.9c-1,23.2-2.9,40.3-4.3,45.2c-0.5,1.8-1.6,5.5-4.9,7.7c-0.5,0.3-1,0.6-2,1.1
									c-3.5,1.7-6.8,2.6-9.8,3.1c0,0,0,0,0,0C559.6,587.2,559.8,589.5,561.5,590.2z"/>
							</g>
						</g>
					</g>
					<g>
						<g>
							<g>
								<path class="st2" d="M561.5,590.2c5.5,2.1,13.4,3.9,19.9,0.3c6.4-3.5,4.3-8.4,14.9-21c3.9-4.7,4.3-6.3,4.2-8.1
									c-0.2-3.3-3.3-5.6-4.8-6.6c-0.2-0.3-0.3-0.7-0.5-1.1c-2.9,7.7-5.7,14-7.8,18.5c-5.5,11.4-7.8,13.7-10,13.6
									c-1.9-0.1-3.4-2.1-4.4-4c-0.6,0.4-1.3,0.7-2,1.1c-3.5,1.7-6.8,2.6-9.8,3.1c0,0,0,0,0,0C559.6,587.2,559.8,589.5,561.5,590.2
									z"/>
							</g>
						</g>
					</g>
					<g>
						<g>
							<g>
								<path class="st2" d="M594.8,564.6c1.9-1.2,3.8-2.4,5.7-3.6l1.3,29.7l-2.4,0.8l-1.8-11.7c-0.3-1.8-1.2-3.4-2.8-4.4
									c-2.7-1.6-3.4,0.7-3.4,0.7L594.8,564.6z"/>
							</g>
						</g>
					</g>
				</g>
				<g>
					<g>
						<g>
							<g>
								<path class="st2" d="M662.8,563.5c-1.9-1.2-3.8-2.4-5.7-3.6l-1.3,29.7l2.4,0.8l1.8-11.7c0.3-1.8,1.2-3.4,2.8-4.4
									c2.7-1.6,3.4,0.7,3.4,0.7L662.8,563.5z"/>
							</g>
						</g>
					</g>
					<g>
						<g>
							<path class="st2" d="M647.9,540.4c0,0,7.5,23,8.4,30.5l12.2-1.4c0,0-6.3-28.8-6.9-34.5L647.9,540.4z"/>
						</g>
					</g>
					<g>
						<g>
							<path class="st2" d="M656.2,561.8c-0.1,5.1-0.1,9.2-0.1,11.6c-0.1,10.4,0,12.9,1.9,15.2c2.6,3,6.6,3.5,9.5,3.8
								c0.9,0.1,10.3,1.1,12.3-2.8c1.8-3.7-4.5-8.2-9.5-18.9c-3-6.4-4.2-12.2-4.7-16.1C662.4,556.9,659.3,559.4,656.2,561.8z"/>
						</g>
					</g>
				</g>
				<g>
					<g>
						<path class="st2" d="M575.5,365c-4.5,30.2-5.1,54.5-4.7,71c0.4,20,2.1,30.7,3.8,61.6c1.4,24.8,1.8,45,1.9,57.8
							c2.6,0.8,5.8,1.5,9.5,1.9c6.2,0.6,11.4-0.1,15.2-0.9c1.3-48.9,2.5-97.9,3.8-146.8c4.8,19.7,10.1,39.9,16.1,60.6
							c8.4,29.3,17.3,57.1,26.5,83.4c3.4,0.4,8,0.7,13.3,0c4.6-0.6,8.4-1.7,11.4-2.8c-6.9-25.2-13.5-51.1-19.9-77.7
							c-9-37.3-16.8-73.7-23.7-108.9c-1.9-3.5-3.8-6.9-5.7-10.4c-15.2,0.6-30.3,1.3-45.5,1.9C576.8,358.7,576.2,361.8,575.5,365z"/>
					</g>
				</g>
				<g>
					<g>
						<path class="st7" d="M633.3,362.2c-20.8,9.5-57.8,1.9-62.5,1.9l3.8-72h42.6L633.3,362.2z"/>
					</g>
				</g>
				<g>
					<g>
						<path class="st6" d="M600.7,292.1c-2,12.8-5.2,30.3-5.2,30.3l-11.1-30.3H600.7z"/>
					</g>
				</g>
				<g>
					<g>
						<path class="st7" d="M575,292c0,0-11.1,2.4-12.8,12.5c-1.7,10.1,0.6,51.3,0.6,51.3s7.8,9,15.3-5.3
							C585.7,336.2,575,292,575,292z"/>
					</g>
				</g>
				<g>
					<g>
						<path class="st7" d="M612.5,292.1c2.4-0.3,5.8-0.3,9.5,0.9c8.3,2.8,12.7,10.2,17.1,18.9c5.8,11.6,19.9,39.9,14.2,43.6
							c-3.6,2.3-13-6.5-16.1-9.5C619.8,329.8,614.3,307.6,612.5,292.1z"/>
					</g>
				</g>
				<g>
					<g>
						<path class="st4" d="M591.2,328.1h-34.1c-2.2,0-3.8,2-3.3,4.2l10.2,42.5c0.4,1.5,1.7,2.6,3.3,2.6h34.1c2.2,0,3.8-2,3.3-4.2
							l-10.2-42.5C594.2,329.1,592.8,328.1,591.2,328.1z"/>
					</g>
				</g>
				<g>
					<g>
						<path class="st6" d="M642.4,328.6c-6-4.3-12-8.5-18-12.8c-1,5.8-2.1,11.6-3.1,17.4c4.7,6.7,17.6,24.1,29.9,29.7
							c2.2,1,4,1.4,5.2,0.6c3.5-2.4-0.4-14.6-4.6-22.5C648.5,335.2,644.9,331.1,642.4,328.6z"/>
					</g>
				</g>
				<g>
					<g>
						<path class="st6" d="M599.3,275c0.2,2.6,0.4,5.3,0.8,8.2c0.4,3.1,1,5.9,1.5,8.5c-0.5,0.6-4.2,4.7-9.7,4.3
							c-3.6-0.3-6-2.3-6.8-3.1c0.3-5.7,0.6-11.3,0.9-17C590.5,275.7,594.9,275.3,599.3,275z"/>
					</g>
				</g>
				<g>
					<g>
						<path class="st6" d="M575.9,251.6c-1.2,3-6.2,15.5-2.4,25.7c0.9,2.3,2.4,6.4,6.2,8c2.3,1,4.6,0.7,5.4,0.6
							c3-0.3,5.1-1.7,6.8-2.8c3.1-2,4.8-4.3,5.3-5c2.1-2.9,3-5.9,3.4-7.9C602.8,264.3,601.8,257.8,575.9,251.6z"/>
					</g>
				</g>
				<g>
					<g>
						<path class="st6" d="M575.1,261.9c2.4,9.1,13.8,17.2,21.7,14.2c0.3-0.1,0.6-0.3,0.9-0.4c0,0,0,0,0,0c1.2-0.6,2.2-1.4,3-2.3
							c1.6-1.7,2.5-3.5,2.8-4.2c0.5-1,2.5-5.1,1.4-9.7c-0.3-1.2-0.8-2.3-1.4-3.3c-3.1-5-9.7-7.9-15.3-8c-1.2,0-9.1-0.2-12.4,5.1
							C573.8,256.6,574.8,260.6,575.1,261.9z"/>
					</g>
				</g>
				<g>
					<g>
						<path class="st2" d="M572.8,246.3c1.6,2.6,4.1,6.5,7.4,11.1c5.4,7.5,6.2,7.5,7.7,10.4c4.4,9-1.9,14,2.2,21.8
							c2.7,5.1,8.5,8.1,13.2,8.7c2.8,0.4,5.1-0.1,6.6-0.5c-1.3-1.5-2.9-3.9-2.8-6.8c0.1-2.7,1.6-4.6,2.3-5.5
							c4.2-5.9,3.7-17.1,0-24.9c-4.5-9.3-13.4-12.9-15.9-13.9C584.2,243.5,575.9,245.4,572.8,246.3z"/>
					</g>
				</g>
				<g>
					<g>
						<path class="st2" d="M584.4,265.8c-0.1,1,0.2,1.8,0.8,1.9c0.5,0.1,1.1-0.7,1.2-1.7c0.1-1-0.2-1.8-0.8-1.9
							C585.1,264.1,584.5,264.8,584.4,265.8z"/>
					</g>
				</g>
				<g>
					<g>
						<path class="st2" d="M579.9,274.2c-2.1,0-3.2-0.4-3.5-1.3c-0.3-0.8,0.2-1.4,0.6-2c0.2-0.3,0.5-0.6,0.7-1
							c0.7-1.2,0.9-2.7,0.8-4.5c0-0.4,0.3-0.8,0.7-0.8c0.4,0,0.8,0.3,0.8,0.7c0.2,2.1-0.1,3.8-0.9,5.3c-0.3,0.5-0.5,0.8-0.8,1.2
							c-0.2,0.2-0.4,0.6-0.4,0.7c0,0,0.4,0.3,2.1,0.3c0.2,0,0.4,0,0.6,0c0.4,0,0.8,0.3,0.8,0.7c0,0.4-0.3,0.8-0.7,0.8
							C580.4,274.2,580.2,274.2,579.9,274.2z"/>
					</g>
				</g>
				<g>
					<g>
						<path class="st2" d="M588.8,266.8c-0.2,0-0.4-0.1-0.5-0.3c-0.1-0.2-1.1-1.7-2.8-1.8c-1.2-0.1-2.1,0.5-2.4,0.8
							c-0.3,0.2-0.6,0.2-0.8-0.1c-0.2-0.3-0.2-0.6,0.1-0.8c0.4-0.4,1.6-1.2,3.3-1.1c2.4,0.1,3.7,2.1,3.8,2.4
							c0.2,0.3,0.1,0.7-0.2,0.8C589,266.8,588.9,266.8,588.8,266.8z"/>
					</g>
				</g>
				<g>
					<g>
						<path class="st2" d="M575.7,264.7c-0.1,1,0.2,1.8,0.8,1.9c0.5,0.1,1.1-0.7,1.2-1.7c0.1-1-0.2-1.8-0.8-1.9
							C576.3,263,575.8,263.8,575.7,264.7z"/>
					</g>
				</g>
				<g>
					<g>
						<path class="st2" d="M578.8,265.7c-0.3,0-0.5-0.2-0.6-0.4c0,0-0.4-1.2-1.5-1.5c-0.8-0.2-1.7,0.1-2.2,0.7
							c-0.2,0.3-0.6,0.3-0.8,0.1c-0.3-0.2-0.3-0.6-0.1-0.8c0.8-1,2.2-1.5,3.5-1.1c1.4,0.4,2.1,1.6,2.3,2.3c0.1,0.3-0.1,0.6-0.4,0.7
							C579,265.7,578.9,265.7,578.8,265.7z"/>
					</g>
				</g>
				<g>
					<g>
						<path class="st6" d="M596.8,266.4c0,0,3.9-2.3,5.4-0.9c1.4,1.4,2.4,6.4-2.6,8.1C594.5,275.4,596.8,266.4,596.8,266.4z"/>
					</g>
				</g>
				<g>
					<g>
						<path class="st2" d="M598.9,271.4c-0.3,0-0.5-0.2-0.6-0.5c-0.1-0.3,0.1-0.6,0.5-0.7c1-0.2,1.5-1.1,1.3-1.6
							c-0.1-0.3-0.3-0.5-0.6-0.7c-0.5-0.2-1-0.3-1.5-0.1c-0.3,0.1-0.7,0-0.8-0.3c-0.1-0.3,0-0.7,0.3-0.8c0.8-0.3,1.8-0.3,2.5,0.1
							c0.7,0.3,1.1,0.9,1.2,1.5c0.2,1.1-0.6,2.6-2.3,3C599,271.4,599,271.4,598.9,271.4z"/>
					</g>
				</g>
				<g>
					<g>
						<g>
							<path class="st2" d="M565.1,246c-0.2,0-0.5-0.1-0.6-0.3l-2.2-3c-0.2-0.3-0.2-0.8,0.2-1c0.3-0.2,0.8-0.2,1,0.2l2.2,3
								c0.2,0.3,0.2,0.8-0.2,1C565.4,245.9,565.2,246,565.1,246z"/>
						</g>
					</g>
					<g>
						<g>
							<path class="st2" d="M562.4,250.8c-0.1,0-0.2,0-0.3-0.1c-0.3-0.1-0.6-0.3-1-0.5c-0.7-0.4-1.4-0.9-2-1.4
								c-0.3-0.3-0.3-0.7-0.1-1c0.3-0.3,0.7-0.3,1-0.1c0.6,0.5,1.2,0.9,1.8,1.3c0.3,0.2,0.6,0.3,0.9,0.4c0.4,0.2,0.5,0.6,0.4,1
								C562.9,250.6,562.7,250.8,562.4,250.8z"/>
						</g>
					</g>
				</g>
				<g>
					<g>
						<path class="st2" d="M578.5,278.2c-0.2,0-0.4-0.1-0.5-0.3c-0.2-0.3-0.2-0.7,0.1-0.9c0.1-0.1,0.2-0.2,0.4-0.3
							c0.9-0.5,1.8-0.3,2.6-0.2c0.5,0.1,1,0.2,1.4,0.1c0.5-0.1,1-0.3,1.5-0.8c0.3-0.2,0.7-0.2,0.9,0.1c0.2,0.3,0.2,0.7-0.1,0.9
							c-0.7,0.6-1.5,1-2.2,1.1c-0.7,0.1-1.3,0-1.9-0.1c-0.7-0.1-1.2-0.2-1.7,0.1c-0.1,0.1-0.2,0.1-0.2,0.1
							C578.8,278.2,578.7,278.2,578.5,278.2z"/>
					</g>
				</g>
				<g>
					<g>
						<path class="st2" d="M581.5,280.8c-0.5,0-1-0.1-1.4-0.3c-0.3-0.1-0.4-0.5-0.3-0.8c0.1-0.3,0.5-0.4,0.8-0.3
							c0.3,0.2,0.7,0.2,1,0.2c0.8,0,1.3-0.6,1.5-0.7c0.2-0.3,0.6-0.3,0.9-0.1c0.3,0.2,0.3,0.6,0.1,0.9c-0.3,0.3-1.1,1.1-2.3,1.2
							C581.7,280.8,581.6,280.8,581.5,280.8z"/>
					</g>
				</g>
				<g>
					<g>
						<path class="st0" d="M613.6,280c-1.9,0-3.5-0.9-4.6-2.6c-1.4-2-1.4-3.9-1.4-5.7c0-2.2,0-4.6-2.7-7.6c-3.3-3.9-3.6-4.4-5-7.3
							c-0.7-1.3-1.5-3.2-3.1-6.1c-4.7-8.8-11.4-5.4-11.7-5.3l-0.3-0.7c0.1-0.1,2.9-1.5,6.2-0.5c2.6,0.8,4.8,2.8,6.5,6.1
							c1.6,2.9,2.5,4.8,3.1,6.2c1.4,2.9,1.6,3.4,4.9,7.2c2.8,3.3,2.8,5.8,2.8,8.1c0,1.7,0,3.4,1.2,5.3c1.1,1.6,2.7,2.4,4.5,2.2
							c2.1-0.2,4.3-1.7,5-3.5l0.7,0.3c-0.9,2.1-3.2,3.8-5.6,4C614,279.9,613.8,280,613.6,280z"/>
					</g>
				</g>
				<g>
					<g>
						<path class="st0" d="M598.2,289.7c-0.1-0.2-3-4.7-1.9-13.1l0.7,0.1c-1.1,8.1,1.8,12.5,1.8,12.6L598.2,289.7z"/>
					</g>
				</g>
				<g>
					<g>
						<path class="st0" d="M588.7,258.5c-0.5-0.8-1.1-1.9-1.9-3.2c-4.3-7.2-5.7-9.1-7.7-9.6c-0.7-0.2-1.6-0.1-2.4,0.1l-0.2-0.7
							c1-0.2,1.9-0.3,2.8-0.1c2.4,0.5,3.8,2.5,8.2,9.9c0.8,1.3,1.4,2.4,1.9,3.2L588.7,258.5z"/>
					</g>
				</g>
				<g>
					<g>
						<path class="st6" d="M622.3,333c6.2,8.8,18.1,24,29.2,29c2.1,1,3.5,1.2,4.2,0.7c2.4-1.6-0.1-12.2-4.9-21.2
							c-2.4-4.4-5.4-8.5-9.1-12.1l-16.7-11.9L622.3,333z"/>
					</g>
				</g>
				<g>
					<g>
						<g>
							<path class="st6" d="M613.4,313.2c-1.3,0.2-2.3,0.1-3-0.1c-1-0.2-1.6-0.5-2.5-0.3c-0.2,0-1.2,0.4-1.4,1.1
								c-0.3,1.2,1.8,2.5,2.2,2.7c0.6,0.4,1.9,1,3.9,0.9c2.4-0.1,4.2-0.8,6.4-1.8c1.9-0.9,3.2-1.5,3.1-1.9
								C622.1,313.4,620.4,312.9,613.4,313.2z"/>
						</g>
					</g>
					<g>
						<g>
							<path class="st6" d="M615.2,319.7c0,0-8.6,3.2-8.9,6c-0.2,2.8,2.6,2.1,2.6,2.1s-2.6,2.1,0.4,4.7c0,0,0.3,2.8,2.6,3
								c2.4,0.2,12.5-2.6,12.6-6.3c0.1-3.8-7-14.9-7-14.9L615.2,319.7z"/>
						</g>
					</g>
					<g>
						<g>
							<path class="st6" d="M628.6,323.7l-1,1.5c0,0,0,0,0,0l-0.6,0.9l-2.9,4.3c-7.4,0.5-8.7-8.3-8.8-12.8c-0.1-1.5,0-2.4,0-2.4
								l2.2-0.9l1.6-0.6l0,0c2.4-1,5.2-0.3,6.8,1.8c1,1.3,1.9,3.1,2.4,5.4c0.1,0.4,0.2,0.7,0.2,1.1c0,0.4,0.1,0.7,0.1,1.1
								C628.6,323.3,628.6,323.6,628.6,323.7z"/>
						</g>
					</g>
					<g>
						<g>
							<path class="st8" d="M624.2,308.4l-2.9,3l-2.2,2.3l-3.8,4l-8.9,9.2l-6.2,6.4c-1.4,0.3-2.7,0.7-4.1,1c0.4-1.2,0.8-2.5,1.3-3.7
								l24-24.8c0.6-0.6,1.4-0.7,2.1-0.5c0.2,0.1,0.5,0.2,0.7,0.4C625,306.4,625,307.7,624.2,308.4z"/>
						</g>
					</g>
					<g>
						<g>
							<path class="st5" d="M609.8,333.3c-0.4,0-0.8-0.3-0.9-0.8c-0.1-0.5,0.3-0.9,0.8-1c0.9-0.1,1.7-0.4,2.6-0.7
								c0.7-0.3,1.4-0.6,2.1-1.1c0.4-0.3,1-0.1,1.2,0.3c0.3,0.4,0.2,1-0.3,1.2c-0.8,0.5-1.6,0.9-2.4,1.2c-0.9,0.4-1.9,0.6-3,0.8
								C609.9,333.3,609.8,333.3,609.8,333.3z"/>
						</g>
					</g>
					<g>
						<g>
							<path class="st5" d="M608.4,328.8c-0.5,0-0.9-0.3-0.9-0.8c0-0.5,0.3-0.9,0.8-1c0.4,0,2.5-0.7,4.1-1.7c0.4-0.3,1-0.1,1.2,0.3
								c0.3,0.4,0.1,1-0.3,1.2C611.5,328,609.1,328.7,608.4,328.8C608.5,328.8,608.4,328.8,608.4,328.8z"/>
						</g>
					</g>
					<g>
						<g>
							<path class="st2" d="M604.3,329.5c-0.1,0-0.2,0-0.3-0.1c-0.2-0.2-0.2-0.5,0-0.7l5.7-5.9c0.2-0.2,0.5-0.2,0.7,0
								c0.2,0.2,0.2,0.5,0,0.7l-5.7,5.9C604.6,329.5,604.4,329.5,604.3,329.5z"/>
						</g>
					</g>
					<g>
						<g>
							<path class="st6" d="M605,321.7c-2.4,1-6.5,2.7-6.4,4.9c0,0.1,0,0.6,0.3,0.9c0.8,1,4.4,0.7,17-6.1l2.5-6.6
								C612.7,318.1,608.2,320.3,605,321.7z"/>
						</g>
					</g>
				</g>
				<g>
					<g>
						<g>
							<path class="st4" d="M602,377.3c-0.2,0-0.3,0-0.5,0h-34.1c-1.6,0-2.9-1.1-3.3-2.6l-10.2-42.5c-0.1-0.4-0.1-0.9-0.1-1.3
								c0.2-1.6,1.6-2.9,3.3-2.9h34.1c1.6,0,2.9,1.1,3.3,2.6l10.2,42.5C605.2,375.1,603.9,377,602,377.3z"/>
						</g>
					</g>
					<g>
						<g>
							<path class="st2" d="M601.5,378.2h-34.1c-2,0-3.7-1.3-4.2-3.3L553,332.4c-0.1-0.6-0.2-1.1-0.1-1.6l0.1-0.6l0.6-0.1
								c0.2,0,0.4-0.1,0.7-0.1h34.1c2,0,3.7,1.3,4.2,3.3l10.2,42.5c0.1,0.6,0.2,1.1,0.1,1.6l-0.1,0.6l-0.6,0.1
								C601.9,378.2,601.7,378.2,601.5,378.2z M602,377.3L602,377.3L602,377.3z M554.7,331.8c0,0.1,0,0.2,0,0.2l10.2,42.5
								c0.3,1.1,1.3,1.9,2.4,1.9h33.7c0-0.1,0-0.2,0-0.2l-10.2-42.5c-0.3-1.1-1.3-1.9-2.4-1.9H554.7z"/>
						</g>
					</g>
					<g>
						<g>
							<g>
								<path class="st0" d="M548.9,355.7c-0.9-3.8,1.8-7.5,5.6-7.9c6.8-0.8,17-1.6,17.9-0.2c1.4,2.2-4.4,2.8-4.4,2.8l-10.3,2.2
									c0,0,16-2.7,17.4-0.5c1.4,2.2-0.9,2.4-0.9,2.4s1.4,2.2-0.8,3.6s-12.6,2.4-12.6,2.4c2.3-0.4,9.6-1.6,10.5,0.2
									c0.3,0.6,0.1,1.2,0.1,1.2c-0.3,0.9-1.5,1.2-2.2,1.4c-6.3,1.5-9.3,1.4-12.4,1.5c-2.5,0.1-4.9-1.3-6-3.5
									C550.1,359.6,549.4,357.8,548.9,355.7z"/>
							</g>
						</g>
						<g>
							<g>
								<path class="st2" d="M556.6,365.5c-2.8,0-5.3-1.6-6.6-4c-0.9-1.8-1.6-3.6-2-5.5c-0.5-2-0.1-4.2,1.1-5.9
									c1.2-1.7,3.1-2.9,5.2-3.1c17.4-1.9,18.3-0.5,18.8,0.2c0.4,0.6,0.5,1.3,0.2,1.9c-0.3,0.5-0.8,0.9-1.4,1.2
									c2,0.1,3.5,0.5,4,1.2c0.6,1,0.7,1.8,0.4,2.6c-0.2,0.4-0.5,0.7-0.9,0.9c0.1,0.2,0.1,0.4,0.1,0.6c0.1,1.3-0.5,2.4-1.7,3.1
									c-0.5,0.3-1.2,0.6-2.1,0.8c0.2,0.2,0.3,0.4,0.4,0.6c0.4,0.9,0.2,1.7,0.2,1.8c-0.5,1.4-2.1,1.8-2.8,2
									c-5.5,1.3-8.6,1.4-11.3,1.5c-0.4,0-0.9,0-1.3,0C556.8,365.5,556.7,365.5,556.6,365.5z M567.9,347.8c-2.5,0-6.6,0.2-13.3,1
									c-1.6,0.2-3,1-4,2.3c-0.9,1.3-1.2,2.9-0.9,4.4l0,0c0.4,1.7,1,3.5,1.9,5.1c1,1.9,3,3.1,5.2,3c0.4,0,0.9,0,1.4,0
									c2.6-0.1,5.6-0.1,10.9-1.4c0.9-0.2,1.5-0.5,1.6-0.8c0,0,0,0,0,0c0,0,0.1-0.2-0.1-0.5c-0.1-0.2-1.1-0.5-3.4-0.4
									c-2.9,0.4-5.6,0.7-6.2,0.8c-0.5,0-0.9-0.3-1-0.8c-0.1-0.5,0.3-0.9,0.7-1c2.6-0.5,4.6-0.7,6.2-0.8c2.7-0.4,5.2-1,6.1-1.5
									c1.4-0.9,0.7-2.1,0.5-2.3c-0.2-0.3-0.2-0.6,0-0.9c0.1-0.3,0.4-0.5,0.7-0.5c0.2,0,0.5-0.1,0.5-0.2c0-0.1,0-0.3-0.3-0.8
									c-1-0.9-9.3-0.3-16.5,0.9c-0.5,0.1-0.9-0.2-1-0.7c-0.1-0.5,0.2-0.9,0.7-1l10.3-2.2c2-0.2,3.8-0.8,3.9-1.2l0,0
									c0,0,0-0.1-0.1-0.2C571.6,348.1,571,347.8,567.9,347.8z"/>
							</g>
						</g>
					</g>
				</g>
			</g>
		</g>
	</g>
</g>
<g id="man_00000060722343552814950880000004465911396870227887_">
	<g>
		<g>
			<g>
				<path class="st5" d="M718.3,416.6c-4.7-0.3-10.1-0.6-10.1-0.6l-11,6.3c-1.2,0.7-1,2.4,0.2,2.9l0,0c0.7,0.3,1.5,0.2,2.2-0.1
					l9-4.4l11.3,0.9l0,0C721.9,420,720.9,416.7,718.3,416.6z"/>
			</g>
		</g>
		<g>
			<g>
				<path class="st5" d="M721.5,417.3c-0.6-0.3-17.1-1.2-17.1-1.2l-11,6.3c-1.2,0.7-1,2.4,0.2,2.9l0,0c0.7,0.3,1.5,0.2,2.2-0.1
					l9-4.4l11.3,0.9L721.5,417.3z"/>
			</g>
		</g>
		<g>
			<g>
				<path class="st5" d="M716.9,416.3c-0.6-0.3-17.1-1.2-17.1-1.2l-11,6.3c-1.2,0.7-1,2.4,0.2,2.9v0c0.7,0.3,1.5,0.2,2.2-0.1l9-4.4
					l11.3,0.9L716.9,416.3z"/>
			</g>
		</g>
		<g>
			<g>
				<path class="st6" d="M723.3,425.9c-0.6,0.4-1.2,0.7-1.8,1.1c-4.4,2.2-8.6,2.4-10.9,2.3c-4.2,0.4-11.5,0.5-11.9-1.3
					c-0.3-1,1.7-2.7,3.3-3.4c1.9-0.9,3.6-0.7,4.8-1l0,0c0,0,0,0,0,0c0.6-0.1,1.1-0.4,1.4-0.8c0,0,0-0.1,0.1-0.1
					c1.3-0.7,3.5-1.6,6.4-1.7C718.4,420.8,722.2,423.1,723.3,425.9z"/>
			</g>
		</g>
		<g>
			<g>
				<path class="st6" d="M723.6,414.8l-24.1-3.4c-14.2,6.6-16,9-15.8,10c0.2,0.8,0.8,1.2,0.8,1.2c1.1,0.6,2.6-0.2,3.2-0.5
					c2.3-1.2,6.6-3,12.6-5.4c0.4,0.3,0.9,0.7,1.6,1.1c1,0.7,2.4,1.6,3.8,2.6c1.7,1.1,3.9,2,8.1,4c3.3,1.5,4.9,2.9,6.8,2.6
					c1.3-0.2,2.4-0.9,2.4-0.9c0.8-0.5,1.4-1.2,1.7-1.6c0.3-0.6,1.7-3.1,0.9-6.1C725.3,416.5,724.2,415.3,723.6,414.8z"/>
			</g>
		</g>
	</g>
	<g>
		<g>
			<path class="st0" d="M800.1,355.3c-2.1,1-5.2,2.6-8.2,5.4c-6.2,5.7-8.1,12.2-10.8,20.1c-2.1,6.3-5.3,15.6-10,27.5
				c-17.6,1-35.3,2.1-52.9,3.1c1.1,2.9,2.7,6.5,5.3,10.3c1.8,2.7,3.7,4.9,5.4,6.6c21.6,0.9,43.2,1.8,64.8,2.8
				C793.7,431.1,822.8,362.3,800.1,355.3z"/>
		</g>
	</g>
	<g>
		<g>
			<path class="st2" d="M793.4,430.8l-64.8-2.8c-0.2,0-0.4-0.1-0.6-0.3c-2-2.1-3.9-4.4-5.5-6.8c-2.2-3.3-4-6.8-5.4-10.5
				c-0.1-0.3-0.1-0.6,0.1-0.8c0.2-0.2,0.4-0.4,0.7-0.4l52.3-3.1c3.6-9.2,6.9-18.3,9.8-26.9l0.4-1.2c2.5-7.4,4.6-13.8,10.6-19.3
				c2.5-2.2,5.3-4.1,8.4-5.5c0.2-0.1,0.4-0.1,0.6,0c3.2,1,5.6,3.2,7.2,6.5c8.7,18.7-12.2,68.4-13.1,70.6
				C794.1,430.6,793.8,430.8,793.4,430.8C793.4,430.8,793.4,430.8,793.4,430.8z M792.3,360.1c-5.7,5.2-7.7,11.1-10.1,18.5l-0.4,1.2
				c-2.9,8.8-6.3,18.1-10.1,27.6c-0.1,0.3-0.4,0.5-0.8,0.6l-51.7,3.1c1.3,3.2,2.8,6.2,4.7,9c1.5,2.2,3.2,4.3,5,6.3l63.8,2.7
				c2.3-5.7,20.7-51.6,12.8-68.5c-1.3-2.8-3.2-4.6-5.7-5.5C797.1,356.3,794.6,358,792.3,360.1z"/>
		</g>
	</g>
	<g>
		<g>
			<path class="st2" d="M791.8,623c0.4,0,0.8-0.2,1-0.6l39.6-83.2c3.7-7.8,11.7-12.9,20.4-12.9h13.6c8.8,0,16.9,5.2,20.6,13.2
				l37.5,82.3c0.3,0.6,0.9,0.8,1.5,0.5c0.6-0.3,0.8-0.9,0.5-1.5L889,538.6c-4-8.8-12.9-14.5-22.6-14.5h-13.6
				c-9.5,0-18.3,5.6-22.4,14.2l-39.6,83.2c-0.3,0.5,0,1.2,0.5,1.5C791.5,623,791.6,623,791.8,623z"/>
		</g>
	</g>
	<g>
		<g>
			<path class="st2" d="M715.9,622.9c0.4,0,0.8-0.2,1-0.6l39.6-83.2c3.7-7.8,11.7-12.9,20.4-12.9h13.6c8.8,0,16.9,5.2,20.6,13.2
				l37.5,82.3c0.3,0.6,0.9,0.8,1.5,0.5c0.6-0.3,0.8-0.9,0.5-1.5l-37.5-82.3c-4-8.8-12.9-14.5-22.6-14.5h-13.6
				c-9.5,0-18.3,5.6-22.4,14.2l-39.6,83.2c-0.3,0.5,0,1.2,0.5,1.5C715.5,622.9,715.7,622.9,715.9,622.9z"/>
		</g>
	</g>
	<g>
		<g>
			<path class="st2" d="M751.6,547.7h139.8c0.6,0,1.1-0.5,1.1-1.1c0-0.6-0.5-1.1-1.1-1.1H751.6c-0.6,0-1.1,0.5-1.1,1.1
				C750.5,547.2,751,547.7,751.6,547.7z"/>
		</g>
	</g>
	<g>
		<g>
			
				<rect x="787.2" y="466.8" transform="matrix(0.1707 -0.9853 0.9853 0.1707 207.8405 1182.4889)" class="st0" width="38.4" height="2"/>
		</g>
	</g>
	<g>
		<g>
			<path class="st4" d="M896.7,448.8v49.8c-4.4,5.7-11.3,9.2-18.9,9.2h-114c-13.2,0-24-10.7-24-24c0-9.7,3.9-18.5,10.3-24.8
				s15.1-10.3,24.8-10.3H896.7z"/>
		</g>
	</g>
	<g>
		<g>
			<path class="st2" d="M738.8,487c-0.1-1-0.2-2-0.2-3.1c0-9.7,3.8-18.8,10.6-25.6c6.8-6.8,15.9-10.6,25.6-10.6h123V499l-0.2,0.3
				c-4.8,6.1-12,9.7-19.8,9.7h-114C751,509,740.3,499.5,738.8,487z M895.6,449.9H774.8c-9.1,0-17.6,3.5-24,10c-6.4,6.4-10,15-10,24
				c0,0.9,0.1,1.9,0.2,2.8c1.4,11.5,11.1,20.1,22.7,20.1h114c7,0,13.4-3.1,17.8-8.5V449.9z"/>
		</g>
	</g>
	<g>
		<g>
			<path class="st4" d="M917.1,422.5l-3.3,13.9l-3,12.4l-9.8,40.8c-2.6,10.7-12.2,18.3-23.3,18.3h-77.3l17.5-101
				c2.6-14.9,13.5-25.6,26.1-25.6h47.6C909.3,381.3,922.1,401.9,917.1,422.5z"/>
		</g>
	</g>
	<g>
		<g>
			<path class="st2" d="M816.9,406.7c2.7-15.4,14.1-26.5,27.1-26.5h47.6c7.7,0,14.8,3.7,20.1,10.4c6.8,8.7,9.3,20.7,6.5,32.2
				l-16.1,67.1c-2.7,11.3-12.8,19.2-24.4,19.2h-78.6L816.9,406.7z M916.1,422.2c2.6-10.8,0.3-22.2-6.1-30.3
				c-4.8-6.1-11.4-9.5-18.4-9.5H844c-12,0-22.5,10.4-25,24.7l-17.3,99.7h76c10.6,0,19.7-7.2,22.2-17.5L916.1,422.2L916.1,422.2z"/>
		</g>
	</g>
	<g>
		<g>
			<path class="st0" d="M741.1,490.6c1.4,11.4,11.3,20.2,23.2,20.2h52.8l0.5-20.4h-76.5L741.1,490.6z"/>
		</g>
	</g>
	<g>
		<g>
			<path class="st2" d="M740.4,491.5h78.2c0.6,0,1.1-0.5,1.1-1.1c0-0.6-0.5-1.1-1.1-1.1h-78.2c-0.6,0-1.1,0.5-1.1,1.1
				C739.3,491,739.7,491.5,740.4,491.5z"/>
		</g>
	</g>
	<g>
		<g>
			<g>
				<g>
					<path class="st6" d="M746,573.8l12.9,42.5c3.3,2.8,7.8,3.4,11,1.6c4.3-2.5,5.9-9,2.5-14.3c-3.3-15.4-6.6-30.8-9.9-46.2
						L746,573.8z"/>
				</g>
			</g>
		</g>
		<g>
			<g>
				<path class="st8" d="M755.1,599.8c-2.1-0.7-4.4,2.3-7.4,4.6c-2,1.6-5.2,3.5-10.2,4.6c-6.6,1.4-13.2,2.7-19.8,4.1
					c-0.5,0.2-2,0.8-3.1,2.3c-0.7,1-1.2,2.3-1.2,3.7v2.9h66.7l-6.6-19.6c-1.6-0.3-2.8-0.1-3.6,0.1c-3.8,1.2-4.2,5.3-8.3,6.5
					c-0.9,0.3-2,0.6-2.8,0c-1.5-1.1,0.1-4.2-1.9-7.4C756.5,600.8,756,600,755.1,599.8z"/>
			</g>
		</g>
		<g>
			<g>
				<path class="st2" d="M713.7,623.8h66.1c0.7,0,1.2-0.6,1.2-1.2v-1.2c0-0.7-0.6-1.2-1.2-1.2h-66.1c-0.7,0-1.2,0.6-1.2,1.2v1.2
					C712.5,623.3,713.1,623.8,713.7,623.8z"/>
			</g>
		</g>
		<g>
			<g>
				<path class="st0" d="M713.9,620.6h65.6c0.3,0,0.5-0.2,0.5-0.5c0-0.3-0.2-0.5-0.5-0.5h-65.6c-0.3,0-0.5,0.2-0.5,0.5
					C713.4,620.4,713.6,620.6,713.9,620.6z"/>
			</g>
		</g>
		<g>
			<g>
				<path class="st2" d="M743.8,607.1c-0.4-0.4-8.8-8.7-8.1-14.1c0.2-1.4,0.9-2.5,2.2-3.3c1.6-0.9,2.7-0.6,3.4-0.2
					c4,2.4,3.8,15.4,3.8,16.9c0,0.3-0.2,0.6-0.5,0.8c-0.1,0-0.2,0.1-0.3,0.1C744.2,607.3,744,607.3,743.8,607.1z M738.9,591.2
					c-0.8,0.5-1.3,1.1-1.4,2c-0.4,3.1,3.5,8.3,6.2,11.2c-0.1-5.2-0.9-12.1-3-13.4c-0.2-0.1-0.4-0.2-0.6-0.2
					C739.7,590.9,739.3,591,738.9,591.2z"/>
			</g>
		</g>
		<g>
			<g>
				<path class="st2" d="M744,608.7c-0.5-0.1-12.3-1.4-15.1-6c-0.7-1.2-0.8-2.5-0.3-3.9c0.7-1.7,1.8-2.1,2.6-2.3
					c4.7-0.6,12.6,9.7,13.5,10.9c0.2,0.3,0.2,0.6,0.1,0.9C744.6,608.5,744.4,608.7,744,608.7C744,608.7,744,608.7,744,608.7z
					 M731.5,598.1c-0.4,0-0.9,0.2-1.3,1.2c-0.4,0.9-0.3,1.7,0.1,2.5c1.6,2.7,7.9,4.3,11.8,4.9c-3.2-3.9-7.9-8.6-10.4-8.6
					C731.6,598.1,731.6,598.1,731.5,598.1z"/>
			</g>
		</g>
	</g>
	<g>
		<g>
			<g>
				<g>
					<path class="st6" d="M776.6,573.8l12.9,42.5c3.3,2.8,7.8,3.4,11,1.6c4.3-2.5,5.9-9,2.5-14.3c-3.3-15.4-6.6-30.8-9.9-46.2
						L776.6,573.8z"/>
				</g>
			</g>
		</g>
		<g>
			<g>
				<path class="st8" d="M785.7,599.8c-2.1-0.7-4.4,2.3-7.4,4.6c-2,1.6-5.2,3.5-10.2,4.6c-6.6,1.4-13.2,2.7-19.8,4.1
					c-0.5,0.2-2,0.8-3.1,2.3c-0.7,1-1.2,2.3-1.2,3.7v2.9h66.7l-6.6-19.6c-1.6-0.3-2.8-0.1-3.6,0.1c-3.8,1.2-4.2,5.3-8.3,6.5
					c-0.9,0.3-2,0.6-2.8,0c-1.5-1.1,0.1-4.2-1.9-7.4C787.1,600.8,786.6,600,785.7,599.8z"/>
			</g>
		</g>
		<g>
			<g>
				<path class="st2" d="M744.3,623.8h66.1c0.7,0,1.2-0.6,1.2-1.2v-1.2c0-0.7-0.6-1.2-1.2-1.2h-66.1c-0.7,0-1.2,0.6-1.2,1.2v1.2
					C743.1,623.3,743.6,623.8,744.3,623.8z"/>
			</g>
		</g>
		<g>
			<g>
				<path class="st0" d="M744.5,620.6h65.6c0.3,0,0.5-0.2,0.5-0.5c0-0.3-0.2-0.5-0.5-0.5h-65.6c-0.3,0-0.5,0.2-0.5,0.5
					C744,620.4,744.2,620.6,744.5,620.6z"/>
			</g>
		</g>
		<g>
			<g>
				<path class="st2" d="M774.4,607.1c-0.4-0.4-8.8-8.7-8.1-14.1c0.2-1.4,0.9-2.5,2.2-3.3c1.6-0.9,2.7-0.6,3.4-0.2
					c4,2.4,3.8,15.4,3.8,16.9c0,0.3-0.2,0.6-0.5,0.8c-0.1,0-0.2,0.1-0.3,0.1C774.8,607.3,774.6,607.3,774.4,607.1z M769.4,591.2
					c-0.8,0.5-1.3,1.1-1.4,2c-0.4,3.1,3.5,8.3,6.2,11.2c-0.1-5.2-0.9-12.1-3-13.4c-0.2-0.1-0.4-0.2-0.6-0.2
					C770.3,590.9,769.9,591,769.4,591.2z"/>
			</g>
		</g>
		<g>
			<g>
				<path class="st2" d="M774.5,608.7c-0.5-0.1-12.3-1.4-15.1-6c-0.7-1.2-0.8-2.5-0.3-3.9c0.7-1.7,1.8-2.1,2.6-2.3
					c4.6-0.6,12.6,9.7,13.5,10.9c0.2,0.3,0.2,0.6,0.1,0.9C775.2,608.5,774.9,608.7,774.5,608.7C774.6,608.7,774.6,608.7,774.5,608.7
					z M762.1,598.1c-0.4,0-0.9,0.2-1.3,1.2c-0.4,0.9-0.3,1.7,0.1,2.5c1.6,2.7,7.9,4.3,11.8,4.9c-3.2-3.9-7.9-8.6-10.4-8.6
					C762.2,598.1,762.1,598.1,762.1,598.1z"/>
			</g>
		</g>
		<g>
			<g>
				<path class="st2" d="M744,621.9c0.1,0,0.1,0,0.2,0c0.4-0.1,0.7-0.6,0.6-1c0,0-0.5-2.3,0.9-4.5c1.2-1.9,3.5-3.1,6.8-3.7
					c1.8-0.3,3.5-0.6,5.2-0.8c8.4-1.2,16.4-2.4,25.3-10.3c0.3-0.3,0.4-0.8,0.1-1.2c-0.3-0.3-0.8-0.4-1.2-0.1
					c-8.6,7.6-16.3,8.7-24.5,9.9c-1.7,0.3-3.5,0.5-5.3,0.8c-3.8,0.7-6.4,2.2-7.9,4.5c-1.8,2.8-1.1,5.7-1.1,5.8
					C743.3,621.7,743.6,621.9,744,621.9z"/>
			</g>
		</g>
	</g>
	<g>
		<g>
			<path class="st2" d="M842.8,501.7c-23.8,1.2-47.6,2.5-71.3,3.7l11.1,83.4c-10.5,0.6-21,1.2-31.5,1.9l-22.2-97.3
				c-2-8.6,3.4-17.2,12-19.2l105.7-24.4c10,2.7,18.1,9.7,20.2,18.5C869.9,481.3,860.3,497.3,842.8,501.7z"/>
		</g>
	</g>
	<g>
		<g>
			<path class="st2" d="M864.1,501.7c-23.8,1.2-47.6,2.5-71.3,3.7l11.1,83.4c-10.5,0.6-21,1.2-31.5,1.9l-22.2-97.3
				c-2-8.6,3.4-17.2,12-19.2l105.7-24.4c12.3,2.2,21.7,11.5,23,22.2C892.6,485.8,881,500.4,864.1,501.7z"/>
		</g>
	</g>
	<g>
		<g>
			<path class="st0" d="M768.7,588.8c0.1,0,0.1,0,0.2,0c0.5-0.1,0.8-0.6,0.7-1.1l-18.5-94.5c-0.1-0.4-1.9-7.3,2.6-12.2
				c2-2.1,4.4-3,6-3.4l64.9-16.7c0.5-0.1,0.8-0.6,0.7-1.1c-0.1-0.5-0.6-0.8-1.1-0.7l-64.9,16.7c-1.9,0.4-4.7,1.5-6.9,4
				c-5.1,5.5-3.2,13-3,13.8l18.5,94.4C767.8,588.5,768.2,588.8,768.7,588.8z"/>
		</g>
	</g>
	<g>
		<g>
			<path class="st0" d="M791.9,410.9c2.9,11.2,6.7,27.3,10.2,47.2c6.6,1.7,13.9,3.1,21.9,4c25.6,2.9,47.5-0.7,63.2-5
				c-2.8-10.2-6.9-25.9-11.1-45.4c-7.9-36.9-7.7-48.1-18.4-56.5c-0.5-0.4-0.9-0.7-1.4-1c-14.7-10.3-35.1-5.8-41.2-4.5
				c-4.5,1-10.2,2.2-15.6,4.6c-0.4,0.3-0.8,0.6-1.3,0.9C786.5,364.9,788.7,384.9,791.9,410.9z"/>
		</g>
		<g>
			<g>
				
					<ellipse transform="matrix(0.9999 -1.324212e-02 1.324212e-02 0.9999 -5.091 10.9134)" class="st7" cx="821.6" cy="389.9" rx="23" ry="15.3"/>
			</g>
		</g>
		<g>
			<g>
				<path class="st2" d="M803,386.6c-0.1,0-0.2,0-0.4-0.1c-0.5-0.2-0.8-0.8-0.6-1.3c3.7-9.6,23.5-8.2,24.3-8.1c0.5,0,0.9,0.5,0.9,1
					c0,0.5-0.5,0.9-1,0.9c-0.2,0-19.2-1.4-22.4,6.9C803.8,386.4,803.4,386.6,803,386.6z"/>
			</g>
		</g>
	</g>
	<g>
		<g>
			<path class="st2" d="M823.8,463c-7.3-0.8-14.7-2.2-22-4.1l-0.5-0.1l-0.1-0.5c-4.8-15.6-8.3-31.5-10.2-47.4l0,0
				c-3-24.8-5.7-46.3,6.6-56.4c0.5-0.4,0.9-0.7,1.3-1c4-2.8,8.2-3.5,15.9-4.8l0.6-0.1c7.5-1.3,27.6-4.7,41.2,4.8
				c0.5,0.4,1,0.7,1.4,1.1c8.7,6.8,10.4,15.5,14.5,36.7c1.2,5.8,2.5,12.5,4.2,20.3c3.3,15.2,7,30.5,11.1,45.3l0.2,0.8l-0.8,0.2
				c-14.9,4-29.9,6-44.8,6C836.3,464.1,830,463.8,823.8,463z M875.2,412c-1.7-7.9-3-14.5-4.2-20.4c-4.2-21.3-5.8-29.2-13.9-35.7
				c-0.4-0.3-0.8-0.6-1.4-1c-13.1-9-32.6-5.7-40-4.5l-0.6,0.1c-7.4,1.3-11.5,1.9-15.2,4.5c-0.4,0.3-0.8,0.5-1.2,0.9
				c-11.6,9.5-9,30.5-6,54.8l0,0c1.9,15.6,5.3,31.3,10,46.6c7,1.8,14.2,3.1,21.3,3.9c20.5,2.4,41.4,0.8,62.1-4.7
				C882.1,442,878.4,427,875.2,412z M802,458.2L802,458.2L802,458.2z"/>
		</g>
	</g>
	<g>
		<g>
			<path class="st4" d="M911.2,448.8l-9.8,40.8c-0.8,3.4-2.4,6.5-4.4,9.1c-4.5,5.7-11.4,9.2-19,9.2h-60.2v-24
				c0-19.4,15.8-35.1,35.2-35.1H911.2z"/>
		</g>
	</g>
	<g>
		<g>
			<path class="st2" d="M816.7,483.9c0-20,16.3-36.2,36.3-36.2h59.6l-10.1,42.1c-0.9,3.5-2.4,6.7-4.6,9.5
				c-4.8,6.1-12.1,9.7-19.9,9.7h-61.3V483.9z M853.1,449.9c-18.8,0-34.1,15.2-34.1,34v22.9H878c7.1,0,13.7-3.2,18.1-8.8
				c2-2.6,3.4-5.5,4.2-8.7l9.5-39.4H853.1z"/>
		</g>
	</g>
	<g>
		<g>
			<g>
				<g>
					<g>
						<g>
							<g>
								<g>
									<polygon class="st2" points="788.3,425.5 785.9,422.7 776.2,422.7 774.9,425.6 									"/>
								</g>
							</g>
						</g>
					</g>
				</g>
			</g>
			<g>
				<g>
					<g>
						<g>
							<g>
								<g>
									<polygon class="st2" points="776.4,425.5 774.1,422.8 764.4,422.8 763,425.6 									"/>
								</g>
							</g>
						</g>
					</g>
				</g>
			</g>
			<g>
				<g>
					<g>
						<g>
							<g>
								<g>
									<polygon class="st2" points="764,425.5 761.6,422.8 751.9,422.8 750.6,425.6 									"/>
								</g>
							</g>
						</g>
					</g>
				</g>
			</g>
			<g>
				<g>
					<g>
						<g>
							<g>
								<g>
									<polygon class="st2" points="751.9,425.5 749.6,422.8 739.9,422.8 738.5,425.6 									"/>
								</g>
							</g>
						</g>
					</g>
				</g>
			</g>
		</g>
		<g>
			<g>
				<g>
					<path class="st8" d="M642.6,376.9l20.4,45.6c1.3,2.9,4.2,4.8,7.4,4.8H750c5.9,0,9.8-6.1,7.3-11.5l-21.3-46
						c-1.3-2.9-4.2-4.7-7.4-4.7l-78.6,0.4C644.1,365.5,640.2,371.5,642.6,376.9z"/>
				</g>
			</g>
		</g>
		<g>
			<g>
				<path class="st2" d="M753.8,414.5l-20.4-45.2c-1.2-2.7-3.7-4.4-6.3-4.4l3.4-0.2c2.7-0.1,5.3,1.6,6.6,4.4l20.4,45.2
					c2.4,5.3-0.8,11.5-5.9,11.8l-3.7,0.2C753,426,756.1,419.8,753.8,414.5z"/>
			</g>
		</g>
		<g>
			<g>
				<g>
					<g>
						<g>
							<g>
								<path class="st8" d="M669.6,433.3h118.9c2.6,0,4.7-2.1,4.7-4.7v-0.1c0-2.6-2.1-4.7-4.7-4.7H669.6c-2.6,0-4.7,2.1-4.7,4.7
									v0.1C665,431.2,667.1,433.3,669.6,433.3z"/>
							</g>
						</g>
					</g>
				</g>
			</g>
		</g>
		<g>
			<g>
				<path class="st2" d="M664,425.8c0.1,0,0.3,0,0.4-0.1c0.6-0.2,0.8-0.9,0.6-1.4l-21.3-48.4c-0.8-1.9-0.8-4,0-5.7
					c0.3-0.6,0.6-1.1,1.1-1.6c1.2-1.4,3.1-2.2,5.1-2.2h37.7c0.6,0,1.1-0.5,1.1-1.1c0-0.6-0.5-1.1-1.1-1.1H650
					c-2.6,0-5.1,1.1-6.8,2.9c-0.5,0.6-1,1.3-1.3,2c-1.2,2.4-1.2,5.1-0.1,7.7l21.3,48.4C663.2,425.6,663.6,425.8,664,425.8z"/>
			</g>
		</g>
		<g>
			<g>
				<path class="st2" d="M664,425.2h92.1c0.5,0,0.9-0.4,0.9-0.9c0-0.5-0.4-0.9-0.9-0.9H664c-0.5,0-0.9,0.4-0.9,0.9
					C663.2,424.8,663.6,425.2,664,425.2z"/>
			</g>
		</g>
		<g>
			<g>
				<path class="st2" d="M787.5,434.1h1.6c2.2,0,4.1-1.8,4.1-4.1v-3.2c0-2.2-1.8-4.1-4.1-4.1c-0.5,0-0.9,0.4-0.9,0.9
					c0,0.5,0.4,0.9,0.9,0.9c1.3,0,2.3,1,2.3,2.3v3.2c0,1.3-1,2.3-2.3,2.3h-1.6c-0.5,0-0.9,0.4-0.9,0.9
					C786.6,433.7,787,434.1,787.5,434.1z"/>
			</g>
		</g>
	</g>
	<g>
		<g>
			<g>
				<path class="st0" d="M854.9,357.2c-9,17.9-17.9,35.8-26.9,53.7c-16.7,2.2-33.4,4.3-50,6.5c-0.6,4.9-1.2,9.9-1.9,14.8
					c25.2,0,50.3,0,75.5,0c5.7-11.1,11.5-22.2,17.2-33.4c0.5-5.9,0.6-17.5-5.6-29.6C860.6,364.1,857.6,360.1,854.9,357.2z"/>
			</g>
		</g>
		<g>
			<g>
				<path class="st2" d="M852.1,433.1c0.3,0,0.7-0.2,0.8-0.5l13-26.9c0.2-0.4,0-1-0.4-1.2c-0.4-0.2-1,0-1.2,0.4l-13,26.9
					c-0.2,0.4,0,1,0.4,1.2C851.8,433.1,851.9,433.1,852.1,433.1z"/>
			</g>
		</g>
		<g>
			<g>
				<path class="st2" d="M778.9,418.3c0,0,0.1,0,0.1,0l49.1-6.5c0.3,0,0.6-0.2,0.7-0.5l18.6-37.3c0.2-0.4,0-1-0.4-1.2
					c-0.4-0.2-1,0-1.2,0.4l-18.4,36.9l-48.6,6.4c-0.5,0.1-0.8,0.5-0.8,1C778.1,418,778.4,418.3,778.9,418.3z"/>
			</g>
		</g>
		<g>
			<g>
				<path class="st2" d="M839.1,420.2c0.1,0,0.3,0,0.4-0.1c0.4-0.2,0.6-0.8,0.3-1.2c-4.8-8.7-11.6-8.8-11.9-8.8
					c-0.5,0-0.9,0.4-0.9,0.9c0,0.5,0.4,0.9,0.9,0.9c0.3,0,6,0.2,10.3,7.9C838.5,420,838.8,420.2,839.1,420.2z"/>
			</g>
		</g>
	</g>
	<g>
		<g>
			<g>
				<path class="st6" d="M780.7,421.1c0,0,11,1.4,9.8,11.4c-7.2-0.1-14.5-0.2-21.7-0.3l-27.3,0.3c-1,0-1.9-0.7-2.1-1.6
					c-0.4-1.2,0.4-2.5,1.7-2.8l25.7-5.2C771.4,422.3,776.1,421.7,780.7,421.1z"/>
			</g>
		</g>
		<g>
			<g>
				<path class="st5" d="M747.9,433.3c0.2,0,0.3,0,0.5-0.1c0.4-0.3,0.6-0.8,0.3-1.2l0,0c-0.2-0.4-0.8-1.5-0.5-2.2
					c0.1-0.2,0.2-0.4,0.5-0.5c1.6-0.7,15.5-1.5,23.9-1.9c0.5,0,0.9-0.4,0.9-0.9c0-0.5-0.5-0.9-0.9-0.9c-2.3,0.1-22.1,1-24.5,2
					c-0.8,0.3-1.3,0.9-1.6,1.6c-0.5,1.6,0.6,3.5,0.7,3.7C747.3,433.1,747.6,433.3,747.9,433.3z"/>
			</g>
		</g>
	</g>
	<g>
		<g>
			<path class="st2" d="M773.2,418.3c0.4,0,0.7-0.2,0.8-0.6c2-5.1-2.7-10.9-2.9-11.1c-0.3-0.4-0.9-0.4-1.3-0.1
				c-0.4,0.3-0.4,0.9-0.1,1.3c0,0.1,4.3,5.2,2.6,9.3c-0.2,0.5,0,1,0.5,1.2C773,418.3,773.1,418.3,773.2,418.3z"/>
		</g>
	</g>
	<g>
		<g>
			<path class="st0" d="M793,511c0.3,0,0.6-0.1,0.8-0.4c0.3-0.4,0.2-1-0.3-1.3l-13.9-9.3c-0.4-0.3-1-0.2-1.3,0.3
				c-0.3,0.4-0.2,1,0.3,1.3l13.9,9.3C792.6,511,792.8,511,793,511z"/>
		</g>
	</g>
	<g>
		<g>
			<g>
				<path class="st6" d="M833.9,350.7c1.7,0,3.5,0.2,5.3,0.4c-0.3,1.4-0.7,2.8-1.3,4c-2.1,3.9-7.3,6.4-11.3,6.8
					c-5.8,0.6-11.1-0.6-16.1-6.6c-0.5-0.6-0.9-1.1-1.3-1.6C819.3,350.4,829.5,350.6,833.9,350.7z"/>
			</g>
			<g>
				<path class="st6" d="M808.9,328.2c0.5,5.1,1.2,10.3,1.9,15.6c0.5,3.8,1,7.5,1.6,11.1c1,1.2,3.1,3.5,6.5,4.3
					c5.2,1.3,11.2-1.2,15-6.4l-7.6-26.3L808.9,328.2z"/>
			</g>
			<g>
				<path class="st5" d="M826.3,326.6l5.3,18.4c-3.8,4.6-9.4,6.8-14.3,5.5c-3-0.8-5-2.6-6.1-3.9c-0.1-0.9-0.3-1.9-0.4-2.8
					c-0.7-5.3-1.3-10.5-1.9-15.6L826.3,326.6z"/>
			</g>
		</g>
	</g>
	<g>
		<g>
			<path class="st6" d="M804.8,300.4c-1.4,3.8-2.9,8.9-3.7,15.1c-0.2,1.5-0.3,2.9-0.4,4.2c-0.3,4.6-0.1,8.4,0.2,10.8
				c0.1,0.6,0.1,1.2,0.2,1.7c0,0,0,0,0,0c1.5,10.3,4.6,12.2,5.5,12.7c0.6,0.3,1.3,0.6,2,0.7c2.9,0.1,6.1-0.3,9.8-1.2
				c5.1-1.3,6.4-2.1,7.2-2.8c2.2-1.7,2.9-2.1,4.7-6.3c3-6.9,3.3-7.2,4.6-11.1c0.5-1.5,3.2-10.6-1.5-18.8c-0.5-0.8-1.5-2.5-3.1-4
				C822.1,293.8,806,300,804.8,300.4z"/>
		</g>
	</g>
	<g>
		<g>
			<path class="st6" d="M803.6,313.2c2.7,11.4,16.7,21.7,26.5,18.2c0.4-0.1,0.8-0.3,1.2-0.5c0,0,0,0,0,0c1.5-0.7,2.8-1.7,3.8-2.8
				c2-2,3.2-4.3,3.6-5.1c0.7-1.3,3.3-6.3,2-12.1c-0.3-1.5-0.9-2.9-1.7-4.2c-3.7-6.3-11.9-10.1-18.8-10.4c-1.5-0.1-11.3-0.5-15.5,6
				C802,306.6,803.2,311.5,803.6,313.2z"/>
		</g>
	</g>
	<g>
		<g>
			<path class="st2" d="M801.2,314c-0.1,0-0.2,0-0.3,0c-0.5-0.2-0.8-0.7-0.7-1.2l2.7-9.1c0.2-0.5,0.7-0.8,1.2-0.7
				c0.5,0.2,0.8,0.7,0.7,1.2l-2.7,9.1C802,313.8,801.6,314,801.2,314z"/>
		</g>
	</g>
	<g>
		<g>
			<path class="st2" d="M814.4,320.1c-0.2,1.2,0.2,2.3,0.9,2.4c0.7,0.1,1.4-0.8,1.6-2s-0.2-2.3-0.9-2.4
				C815.3,317.9,814.6,318.8,814.4,320.1z"/>
		</g>
	</g>
	<g>
		<g>
			<path class="st2" d="M801.7,318.2c-0.2,1.2,0.2,2.3,0.9,2.4c0.7,0.1,1.4-0.8,1.6-2c0.2-1.2-0.2-2.3-0.9-2.4
				C802.5,316.1,801.8,317,801.7,318.2z"/>
		</g>
	</g>
	<g>
		<g>
			<path class="st2" d="M808.4,329.8c-3.1,0-4.3-0.4-4.5-1.4c-0.2-0.8,0.5-1.3,1-1.7c0.5-0.4,1.2-0.9,1.8-1.8c0.6-1,0.7-1.9,0.9-3.1
				c0.2-1.3,0.2-2.6,0-4c-0.1-0.5,0.3-1,0.8-1.1c0.5-0.1,1,0.3,1.1,0.8c0.2,1.5,0.3,3.1,0,4.5c-0.2,1.3-0.4,2.5-1.1,3.7
				c-0.6,1-1.4,1.7-1.9,2.1c0.7,0.1,1.8,0.1,3.8,0.1c0.5,0,0.9,0.4,1,0.9c0,0.5-0.4,0.9-0.9,1C809.6,329.8,809,329.8,808.4,329.8z"
				/>
		</g>
	</g>
	<g>
		<g>
			<path class="st2" d="M843.4,309.8c-0.4-1.6-1-3.1-1.7-4.5c-1.4-0.7-9-4.2-16.1-0.6c-1.6,0.8-2.9,1.9-4,2.9
				c1.6,0.7,3.7,1.9,5.4,3.8c-0.1,0.1-0.1,0.1-0.2,0.2c0,1.3-0.1,2.6-0.2,4c-0.2,2.6-0.5,5.1-0.8,7.4c0.6,0.2,1.9,0.8,2.5-0.1
				c0.2-0.3,1.1-1.7,2.1-3.5c0.1,0.5,0.1,0.9,0.3,1.5c0.5,2.6,3.1,6.8,1.2,11.1c1.1-0.1,1.4-0.4,1.4-0.4c0.1-0.1,1.8-1.3,4.1-3.1
				c2.1-2.2,3.4-4.7,3.9-5.6C841.9,321.6,844.8,316.1,843.4,309.8z"/>
		</g>
	</g>
	<g>
		<g>
			<path class="st2" d="M826.5,311.5c-10.4,4.1-20.8,2.3-25.7-4c-2.5-3.2-5.1-9.5-2.1-14.6c3.5-6,12-5.5,12.8-5.5
				c7.8,0.6,12,7,12.5,7.8c3.5-0.1,6.2,0.6,7.9,1.2c4.5,1.6,10.9,5.7,10.7,10.4c0,0.1,0,0.2,0,0.2
				C841.5,310.8,831.9,311.4,826.5,311.5z"/>
		</g>
	</g>
	<g>
		<g>
			<path class="st6" d="M830.4,319.4c0,0,4.9-2.8,6.7-1c1.7,1.8,2.8,8-3.5,10C827.2,330.5,830.4,319.4,830.4,319.4z"/>
		</g>
	</g>
	<g>
		<g>
			<path class="st2" d="M832.9,325.7c-0.3,0-0.7-0.2-0.7-0.6c-0.1-0.4,0.2-0.8,0.6-0.9c1.2-0.2,1.8-1.3,1.7-1.9
				c-0.1-0.3-0.4-0.7-0.8-0.9c-0.6-0.3-1.3-0.4-1.9-0.1c-0.4,0.1-0.8-0.1-1-0.4c-0.1-0.4,0.1-0.8,0.4-1c1.1-0.4,2.2-0.3,3.1,0.2
				c0.8,0.5,1.3,1.2,1.5,1.9c0.3,1.4-0.9,3.3-2.9,3.7C833,325.7,832.9,325.7,832.9,325.7z"/>
		</g>
	</g>
	<g>
		<g>
			<path class="st0" d="M839.2,311c-0.2,0-0.4-0.1-0.4-0.4c-2-11.6-12-11.1-12.1-11.1c-0.3,0-0.4-0.2-0.5-0.4c0-0.2,0.2-0.4,0.4-0.5
				c0.1,0,10.8-0.5,13,11.8C839.7,310.7,839.5,310.9,839.2,311C839.3,311,839.2,311,839.2,311z"/>
		</g>
	</g>
	<g>
		<g>
			<g>
				<path class="st2" d="M788.1,293.6c-0.2,0-0.4,0-0.5-0.1c-0.4-0.2-0.8-0.5-1.2-0.8c-0.9-0.7-1.7-1.4-2.4-2.2
					c-0.4-0.4-0.3-1,0.1-1.4c0.4-0.4,1-0.3,1.4,0.1c0.6,0.7,1.4,1.4,2.1,2c0.4,0.3,0.7,0.5,1.1,0.7c0.5,0.3,0.6,0.9,0.3,1.3
					C788.8,293.5,788.5,293.6,788.1,293.6z"/>
			</g>
		</g>
		<g>
			<g>
				<path class="st2" d="M787.8,301.4C787.8,301.4,787.8,301.4,787.8,301.4c-0.5,0-1,0-1.5-0.1c-1.1-0.1-2.2-0.4-3.2-0.7
					c-0.5-0.2-0.8-0.7-0.6-1.2c0.2-0.5,0.7-0.8,1.2-0.6c0.9,0.3,1.9,0.5,2.8,0.6c0.5,0.1,0.9,0.1,1.3,0.1c0.5,0,1,0.5,1,1
					C788.7,301,788.3,301.4,787.8,301.4z"/>
			</g>
		</g>
	</g>
	<g>
		<g>
			<path class="st8" d="M801.9,326.7c-2.1,0-4.7-0.7-6.4-2.5c-1.1-1.2-2.3-3.4-1.5-7l0,0c0.5-2.3,2.7-3.8,5-3.6
				c4.1,0.4,6.8,1,7.9,1.7c1.5,1,1.5,3.4,1.1,5.4c-0.5,2.4-2.1,5.4-4.9,5.9C802.8,326.6,802.4,326.7,801.9,326.7z M795.8,317.5
				c-0.5,2.3-0.2,4.1,1,5.4c1.5,1.6,4.2,2.2,6.1,1.9c1.7-0.3,3-2.5,3.4-4.5c0.4-1.8,0.1-3.3-0.4-3.6c-0.4-0.3-1.9-0.9-7.1-1.4
				C797.5,315.2,796.1,316.1,795.8,317.5L795.8,317.5z"/>
		</g>
	</g>
	<g>
		<g>
			<path class="st8" d="M818,328.6c-2,0-4.5-0.7-6.1-2.4c-1.1-1.2-2.2-3.3-1.4-6.7v0c0.5-2.2,2.6-3.6,4.8-3.4
				c3.9,0.4,6.4,0.9,7.5,1.6c1.4,0.9,1.5,3.3,1.1,5.2c-0.5,2.3-2,5.2-4.6,5.6C818.8,328.5,818.4,328.6,818,328.6z M812.2,319.9
				c-0.5,2.1-0.2,3.9,1,5.1c1.4,1.5,4,2,5.7,1.7c1.6-0.3,2.8-2.3,3.2-4.2c0.4-1.9,0.1-3.1-0.3-3.3c-0.4-0.2-1.8-0.9-6.7-1.3
				C813.8,317.7,812.5,318.6,812.2,319.9L812.2,319.9z"/>
		</g>
	</g>
	<g>
		<g>
			<path class="st8" d="M811.4,318.5c-0.8-0.5-2.8-0.7-3.9-0.7l0-1.8c0.3,0,3.4,0,4.9,1L811.4,318.5z"/>
		</g>
	</g>
	<g>
		<g>
			<path class="st2" d="M809.5,338.7c-0.1,0-0.1,0-0.2,0c-1.2-0.2-1.8-1.8-2-2.5c-0.2-0.6-0.6-2.8,0.6-3.7l0,0
				c0.5-0.4,1.2-0.5,1.9-0.3c0.9,0.2,1.8,0.8,2.2,1.5c0.6,1,0.5,2.3-0.3,3.5C811.2,337.9,810.4,338.7,809.5,338.7z M809.7,336.9
				L809.7,336.9L809.7,336.9z M809.1,333.9c0,0.1-0.2,0.4-0.1,1.1c0.1,0.9,0.4,1.6,0.6,1.8c0.2-0.1,0.6-0.5,0.8-1.1
				c0.1-0.3,0.2-0.8,0-1.1C810.1,334,809.3,333.8,809.1,333.9z"/>
		</g>
	</g>
	<g>
		<g>
			<path class="st2" d="M823.3,363.6c10.7,0.2,16.6-10.7,16.8-11.2c0.2-0.4,0.1-0.9-0.4-1.2c-0.4-0.2-0.9-0.1-1.2,0.4
				c-0.1,0.1-6.1,11.2-16.5,10.2c-10.3-1-11.5-7.5-11.5-7.6c-0.1-0.5-0.5-0.8-1-0.7c-0.5,0.1-0.8,0.5-0.7,1c0.1,0.3,1.4,7.9,13,9
				C822.4,363.6,822.9,363.6,823.3,363.6z"/>
		</g>
	</g>
</g>
</svg>
