<svg id="_01" data-name="01" xmlns="http://www.w3.org/2000/svg" viewBox="0 0 4680 3120"><defs><style>.cls-1{fill:#fff;}.cls-2{fill:#fff7f0;}.cls-3{fill:#fff1e1;}.cls-4{fill:#ffdebd;}.cls-5{opacity:0.31;}.cls-6{fill:#ffd2cc;}.cls-7{opacity:0.49;}.cls-8{opacity:0.76;}.cls-9{opacity:0.83;}.cls-10{fill:#bf3636;}.cls-11{fill:#ff9676;}.cls-12{fill:#ffb294;}.cls-13{opacity:0.88;}.cls-14{fill:#ce4646;}.cls-15{fill:#f27270;}.cls-16{fill:#fff5f0;}.cls-17{fill:#ffe4c7;}.cls-18{fill:#ffc688;}.cls-19{fill:#ffd6a1;}.cls-20{fill:#ffe1c0;}.cls-21{opacity:0.74;}.cls-22{fill:#ffbc5a;}.cls-23{fill:#fc9034;}.cls-24{fill:#721919;}.cls-25{fill:#892121;}.cls-26{fill:#ba3636;}.cls-27{fill:#aa2e2e;}.cls-28{fill:#eda340;}.cls-29{fill:#7f1d1d;}.cls-30{fill:#b23939;}.cls-31{fill:#ffd6ae;}.cls-32{fill:#bf7f40;}.cls-33{fill:#d39a5b;}.cls-34{fill:#db8f35;}.cls-35{opacity:0.33;}.cls-36{fill:#12123a;}.cls-37{fill:#03030f;}.cls-38{fill:#4b495e;}.cls-39{fill:#413f54;}.cls-40{fill:#353147;}.cls-41{fill:#30235b;}.cls-42{fill:#2e2656;}.cls-43{fill:#1a1333;}.cls-44{fill:#06011e;}.cls-45{fill:#433275;}.cls-46{fill:#4b3f82;}.cls-47{opacity:0.42;}.cls-48{fill:#e58d51;}.cls-49{fill:#505cd4;}.cls-50{fill:#5d6cd8;}.cls-51{fill:#0f2e8f;}.cls-52{fill:#1b3f9b;}.cls-53{opacity:0.43;}.cls-54{fill:#ed987e;}.cls-55{fill:#dd8773;}.cls-56{fill:#281c47;}.cls-57{fill:#6b443f;}.cls-58{fill:#2b1614;}.cls-59{opacity:0.21;}.cls-60{fill:#e5846a;}.cls-61{fill:#e29076;}.cls-62{opacity:0.36;}.cls-63{fill:#433164;}.cls-64{fill:#3a2b5e;}.cls-65{fill:#3594ba;}.cls-66{fill:#2b89a5;}.cls-67{fill:#4e62c6;}.cls-68{fill:#0a225b;}.cls-69{fill:#a58c8b;}.cls-70{fill:#846361;}.cls-71{fill:#472926;}.cls-72{opacity:0.67;}.cls-73{fill:#d86e59;}</style></defs><title>01</title><rect id="_01-2" data-name="01" class="cls-1" width="4680" height="3120"/><path class="cls-2" d="M1636.33,2053.08,1873,2036.82l221.42-15.2,97.95-6.73c26.82-1.84,53.37,2.65,78.41,7.64q78.3,15.6,156.63,31.16t156.66,31.07q78.33,15.52,156.68,31l156.69,31q78.35,15.49,156.7,31c93.6,18.5,186.94,36.65,280,56.47,14.34,3.06,29.81,5.62,45.33,8.42C3492.34,2066.92,3555,1859.88,3555,1648.13c0-900.51-1084.36-1414.58-1776.72-841.44-339.13,280.73-488.83,744.16-354.83,1167.84a971.36,971.36,0,0,0,34.36,92.11c11.64-1.68,22.84-3,34.78-3.69C1540.55,2060.13,1588.43,2056.37,1636.33,2053.08Z"/><path class="cls-3" d="M3080.87,2413.41q-78,14.34-156,28.83c-113.21,21.12-227.25,48-342.84,63.32-59.38,7.84-103.64-13.85-153.77-29.69l-57.75-18.24-66-20.85-72.67-23-77.65-24.52-81-25.58-82.62-26.09-82.62-26.1-81-25.57-77.64-24.53-72.68-22.95-66-20.86-57.76-18.24-31.62-10c198.47,327,576.79,536.3,960.17,539.5,240.65,2,482.51-73.42,681.73-240.21a1075.25,1075.25,0,0,0,114.82-111.78c-13.68,2.51-27.37,5-41,7.59Q3159,2399.18,3080.87,2413.41Z"/><path class="cls-4" d="M3334.19,2234.18c-93.09-19.82-186.43-38-280-56.47q-78.35-15.48-156.7-31l-156.69-31q-78.34-15.5-156.68-31t-156.66-31.07q-78.33-15.56-156.63-31.16c-25-5-51.59-9.48-78.41-7.64l-97.95,6.73L1873,2036.82l-236.69,16.26c-47.9,3.29-95.78,7.05-143.77,9.87-11.94.7-23.14,2-34.78,3.69a1000.24,1000.24,0,0,0,63.42,122.75l31.62,10,57.76,18.24,66,20.86,72.68,22.95,77.64,24.53,81,25.57,82.62,26.1,82.62,26.09,81,25.58,77.65,24.52,72.67,23,66,20.85,57.75,18.24c50.13,15.84,94.39,37.53,153.77,29.69,115.59-15.28,229.63-42.2,342.84-63.32q78-14.59,156-28.83t156-28.92c13.65-2.58,27.34-5.08,41-7.59a1095.06,1095.06,0,0,0,101.6-134.3C3364,2239.8,3348.53,2237.24,3334.19,2234.18Z"/><g class="cls-5"><rect class="cls-6" x="1327.19" y="1302.83" width="271.78" height="806.56" rx="31.74"/></g><g class="cls-7"><rect class="cls-6" x="1642.8" y="1223.93" width="271.78" height="806.56" rx="31.74"/></g><g class="cls-8"><rect class="cls-6" x="1967.18" y="1092.43" width="271.78" height="929.3" rx="31.74"/></g><g class="cls-9"><rect class="cls-6" x="2300.32" y="469.97" width="271.78" height="1560.51" rx="31.74"/></g><path class="cls-10" d="M3410.82,1946.22c9.19-4.81,15.8-10.79,17.91-18.39,1.31-4.75,1.47-9.64,1.62-14.49l.35-11.2c.13-4.21.13-8.77-3.22-12.14-2.44-2.47-6.3-3.89-10.17-4.88-20-5.09-41.67-.65-62.54,1.59-24.05,2.58-48.47,2.15-72.76,2a154.5,154.5,0,0,0-22.89,1.47c-6.91,1-15.78-2.31-22.6-3.74l-32.78-6.9-34.18-7.19-35.42-7.45-36.54-7.68-37.51-7.89-38.34-8.06-39-8.21-39.58-8.33-40-8.41-40.27-8.47-40.4-8.5-40.4-8.49-40.25-8.47-40-8.4-39.54-8.32-39-8.2-38.26-8-37.42-7.87-36.44-7.67-35.31-7.42-34-7.16-32.64-6.87-31.1-6.54q-84.07-17.68-168.08-35.48c-25-5.3-51.59-10.07-78.41-8.11l-2.64.19-15.93,1.16-28.64,2.09-39.46,2.88-48.33,3.53-55.3,4-60.34,4.41-63.46,4.63L1752.9,1690l-63.93,4.66-61.28,4.48-56.72,4.14-50.22,3.66-41.82,3-31.48,2.3-11.26.82c-1.46.11-2.94.28-4.41.33-6,.2-10.81-2.85-14.77-5.86-2.14-1.63-3.45-3-6.37-3.83a34,34,0,0,0-10.14-1.32c-4.57.14-9.15,1.43-12.33,3.91a20,20,0,0,0-3.77,4.07c-2,2.74-2.6,4.3-2.58,7.36s0,6.29,0,9.44c0,5.68-.61,11.6.33,17.21,1.85,11.08,11.62,19,25.1,23.29l8,2.54,22.94,7.24,36.2,11.44,47.81,15.1,57.75,18.24,66,20.86,72.67,23,77.65,24.53,81,25.57,82.62,26.1,82.62,26.09,81,25.58,77.65,24.52,72.67,23,66,20.86,57.75,18.24c50.13,15.84,94.39,37.53,153.77,29.69,115.59-15.28,229.63-42.2,342.83-63.32q78-14.59,156-28.83t156-28.92c36.16-6.82,72.5-13.12,108.49-20.43C3337.65,1964,3384.66,1959.92,3410.82,1946.22Z"/><path class="cls-11" d="M3431.83,1894c.09-1.74,1.39-6.49.11-7.93a3.11,3.11,0,0,0-1.19-.7,93.9,93.9,0,0,0-13.86-4.2c-13.12-3.2-26-7.16-39-10.79-27.07-7.56-55.56-11.82-83.8-17.41q-528.87-104.65-1057.71-209.42c-25-5-51.59-9.48-78.41-7.63l-97.95,6.72-221.42,15.21-236.69,16.25c-47.9,3.29-95.78,7.06-143.77,9.87-13.18.77-25.46,2.29-38.42,4.23-4.46.67-8.92,1.34-13.3,2.26a32.56,32.56,0,0,0-6.11,1.56c-1.68.75-2.94,1.43-5.06,1.24-.9-.08-1.77-.3-2.67-.39a22.77,22.77,0,0,0-2.74,0,9.76,9.76,0,0,0-6.65,2.72,7.76,7.76,0,0,0-3,6.82c0,5.88.19,12.47,7,16.36,3.59,2.07,8.12,3.48,12.58,4.86,49.47,15.34,98.92,30.74,148.85,45.57l57.75,17.17,66,19.62,72.67,21.6,77.65,23.07,81,24.06,82.62,24.56,82.62,24.55,81,24.06,77.64,23.07,72.67,21.6,66,19.62,57.75,17.16c50.14,14.9,94.4,35.31,153.77,27.93,115.6-14.37,229.63-39.7,342.84-59.57,158-27.82,316.94-54.09,473.8-84,9.32-1.77,18.9-4,27.16-7.81,5.36-2.46,9.39-5.4,10.25-10.28C3431.74,1895.52,3431.78,1894.88,3431.83,1894Z"/><path class="cls-12" d="M3434.86,1877.59c-2.64-6.21-10.85-10.23-18.1-13.13-33.33-13.36-76.87-17.92-113.17-25.65-93.09-19.82-186.43-38-280-56.47l-156.7-31-156.7-31-156.68-31q-78.33-15.53-156.65-31.07t-156.63-31.16c-25-5-51.59-9.48-78.42-7.64l-97.94,6.73-221.42,15.2-236.7,16.26c-47.89,3.28-95.78,7-143.77,9.87-13.17.77-25.45,2.28-38.41,4.23-9.11,1.36-18.48,2.8-26,6.09-12.23,5.37-18.74,17.51-6.65,24.48,3.59,2.07,8.12,3.48,12.58,4.86,49.48,15.34,98.92,30.73,148.85,45.57l57.76,17.16,66,19.63,72.68,21.6,77.65,23.07,81,24.06,82.62,24.55,82.62,24.56,81,24.06,77.65,23.07,72.67,21.6,66,19.62,57.75,17.16c50.13,14.9,94.39,35.31,153.77,27.93,115.6-14.38,229.63-39.7,342.84-59.57,158-27.82,316.94-54.09,473.8-84C3415.49,1894.06,3439,1887.33,3434.86,1877.59Z"/><g class="cls-13"><path class="cls-14" d="M3209.88,1839.44c-11-2.24-22.25-4.08-33.28-6.17-51.63-9.74-102.77-20.55-154.21-30.91q-33.78-6.79-67.61-13.46-16.72-3.32-33.46-6.6l-17.13-3.38c-4.9-1-11.32-3.23-16.36-3.23L2760,1750.43l-127.84-25.27-127.83-25.31q-63.92-12.66-127.82-25.35t-127.79-25.42c-20.43-4.07-42.09-7.73-64-6.23l-79.91,5.48-180.66,12.41L1731.05,1674c-6.16.42-18.18-.92-22.42,3.2a5.91,5.91,0,0,0,.32,8.93c2,1.77,5.07,2.66,8,3.49l202.13,57.18,57.8,16.35,60.8,17.2,62.86,17.78,64,18.1,64.17,18.15,63.43,17.94,61.74,17.47,59.12,16.72,55.57,15.72c45.85,13,91.69,26.61,137.67,40,31.4,9.16,65.4,16.29,99.38,14.17,52.23-3.26,103.39-12.55,153.74-23.15,50.58-10.66,101.7-20,152.65-29.8l15.65-3q77.74-15,155.43-30.19c18.93-3.73,37.23-7.18,54.91-13.64a16.83,16.83,0,0,0,4.84-2.39c1.32-1.08,2.1-2.64,1.48-4-1.35-3-7.55-4.08-10.95-5.08C3225.71,1842.87,3217.84,1841.06,3209.88,1839.44Z"/></g><path class="cls-11" d="M2267.16,1863.91q-20.94-5.87-41.93-11.68c-59.42-16.44-119-32.73-178.87-48.19l-14.31-3.74c-14-3.64-28.5-2.53-42.85-1.66-16.55,1-33.38.88-50,1.32-18.35.48-36.7.55-55,.89-9.45.17-18.89.41-28.32.81-3.24.14-24.11-.6-20.36,4.54a7.41,7.41,0,0,0,3.13,2c10.81,4.59,23.81,7.23,35.31,10.73l142.67,43.44L2081,1882c9.69,3,19.11,6.51,29,9.09a55.35,55.35,0,0,0,18.36,1.41c11.24-.82,22.12-3.22,33.13-5l45.81-7.23,40.88-6.44,18.37-2.9c4.82-.76,5.28-5.79.65-7.07Z"/><rect class="cls-15" x="1844.07" y="1697.28" width="547.26" height="6" transform="translate(-138.53 188.65) rotate(-4.94)"/><rect class="cls-15" x="2078.73" y="1753.06" width="523.22" height="6" transform="translate(-224.73 348.46) rotate(-8.13)"/><rect class="cls-15" x="2368.04" y="1823.46" width="544.35" height="6" transform="translate(-276.18 484.33) rotate(-9.96)"/><rect class="cls-15" x="2573.6" y="1235.54" width="6" height="1071.21" transform="translate(282.52 3895.53) rotate(-77.31)"/><rect class="cls-15" x="2391.86" y="1264.3" width="6" height="1059.7" transform="translate(64.65 3671.51) rotate(-75.7)"/><path class="cls-15" d="M3376.59,559.53l-41.59-15a59.26,59.26,0,0,0-33.52-2L2293.88,776.93c-21.47,5-36.29,23.79-35.39,44.86l31.89,739.71c.88,20.28,16.13,37.32,37,41.29L3370.45,1801.3a59,59,0,0,0,45.3-9.87l22.89-16.41a53.66,53.66,0,0,0,22.78-45.83L3413.08,607.88C3412.15,586.21,3397.8,567.2,3376.59,559.53Z"/><path class="cls-14" d="M2208.94,832.39l31.7,735.42c.87,20.16,16.18,37.1,37.11,41L3363,1812.73c29.52,5.55,56.85-16.58,55.62-45L3367.55,582.6c-1.19-27.59-28.74-47.17-57.16-40.61L2244.51,787.77C2222.94,792.75,2208,811.44,2208.94,832.39Z"/><path class="cls-14" d="M2188.09,832.55l31.64,734c.86,20.12,16.25,37,37.28,40.94l1090.75,203.16c29.67,5.52,57.15-16.57,55.93-45l-51-1182.76c-1.19-27.54-28.87-47.08-57.44-40.53L2223.86,788C2202.17,793,2187.19,811.64,2188.09,832.55Z"/><path class="cls-16" d="M2252.31,871.65l28.27,655.89c.78,18,14.53,33.08,33.32,36.58l974.71,181.55c26.52,4.94,51.07-14.8,50-40.17L3293,648.56c-1.06-24.61-25.8-42.06-51.33-36.21l-957.42,219.5C2264.9,836.29,2251.5,853,2252.31,871.65Z"/><polygon class="cls-17" points="1993.56 970.23 2902.35 1685.11 3148.34 1145.63 1993.56 970.23"/><polygon class="cls-18" points="2234.7 1070.89 2923.75 1612.9 3110.26 1203.88 2234.7 1070.89"/><path class="cls-19" d="M3338.59,1705.5c1.09,25.37-23.46,45.11-50,40.17L2313.9,1564.12c-18.79-3.5-32.54-18.6-33.32-36.58-1-24.46-7.59-54.81-2.22-78.33,8-35,42.72-69.46,72.92-86.14,67.27-37.14,134.41-9.44,182.58,42.9-14.2-15.42,19.46-77.1,28.89-91.57,41.48-63.61,118.47-98.19,193.44-94.69,32.7,1.52,65.35,10.28,93.33,27.56,15.36,9.49,72.21,53.78,65.79,76,28.19-97.86,87-202.55,183.5-249.2,67.82-32.78,185.68-48.92,208,47.14,13.69,59,11.48,121.65,14.89,182.36l10.57,188.32C3336.21,1562.78,3335.52,1634.15,3338.59,1705.5Z"/><path class="cls-20" d="M2875.89,1139.92c-25.27,57.57-19.84,126.89,21,177.2,13.75,16.93,30.69,30.75,48.38,43.33,11.46,8.14,39.73,19.33,39.85,36.59.13,18.24-60.57,35.31-76.16,43.34-27.28,14.06-55.93,26.47-79.55,46.48-39.1,33.12-53.52,86-35,134.27,12.72,33.23,48.36,41.24,79.76,47.2,138.08,26.22,276.27,51.6,414.44,77.34,26.52,4.94,51.07-14.8,50-40.17,0,0-45.46-1054.64-45.56-1056.94-2.24-51.85-65.4-35.44-97-24.41-114.7,40.06-238.14,153.06-155.57,282.38,25.68,40.21,67.52,58.21,102.8,87.56,8.25,6.85,13.35,20.88,1,26.66-3.68,1.73-7.83,2.13-11.87,2.5-25.28,1.42-50.4,5.58-75.68,7-60.77,3.39-117.79,20.93-157.13,70.34A177.87,177.87,0,0,0,2875.89,1139.92Z"/><path class="cls-18" d="M2798.52,1350.32c-36.75,45.55-35.06,113.52-7.33,167.24-25.85-5.3-53.3-6.36-78.11,2.62-66.57,24.1-59.71,92.29,2.87,116,17.35,6.58,35.54,9.38,53.66,12.86,19.35,3.72,38.74,7.28,58.11,10.87q58.5,10.85,117,21.48,58.81,10.72,117.64,21.4T3180,1724.38q29.4,5.46,58.79,11c27.5,5.17,64.74,21.13,88.06-2.06,24.51-24.38,13.48-71,11.71-102.71l-8-142.91-14.82-264.08c-1-18.06-34.48-26.54-48-30.82-62.52-19.85-126.14,1.2-167.66,51.25-33.08,39.9-46.41,95.43-35,146-17.56-78-176.49-100.44-231.9-69A120.91,120.91,0,0,0,2798.52,1350.32Z"/><g class="cls-21"><path class="cls-20" d="M2555.9,1249.11c-49.28-63.75-113.7-118.95-170.2-176.3-2.31-2.34-4.73-4.89-5.27-8.13-1.61-9.63,12-12.89,20.37-17.92,13.29-8,15.31-27.55,8.4-41.42-14.74-29.53-57-52.82-93.11-70.28-12.16-5.87-23.62-11.09-33.1-15.66a647,647,0,0,0-106.27-40.16l2.08-3.73c.72-1.29-1-4.92-3.87-9.6,98.19-100.74,214.13-148.2,306.32-116q-22-22.83-46.73-44.05a717.29,717.29,0,0,0-135.08-91.17c-160.73-83.91-334.8-99.89-476.16-56.7Q1791.06,540,1758,523.75c-99.8-48.94-221.41-89.72-342.14-103.51-75.83-8.66-151.32-6.67-220.83,10.63h0q-2.67.66-5.32,1.36c-.94.24-1.87.49-2.81.75l-3.8,1-2.3.64q-3.09.87-6.15,1.78-3.34,1-6.42,2.14c-1,.38-2,.77-3,1.17a72.81,72.81,0,0,0-17.55,10.05,56.57,56.57,0,0,0-10.58,10.89,61,61,0,0,0-10.69,26.08c-4.38,25,2.86,55,10.9,82.89a682.71,682.71,0,0,0,50.83,126.8q6.6,12.64,13.69,24.95,4.21,7.33,8.6,14.54,2.36,3.9,4.78,7.77c1.28,2,2.55,4.11,3.86,6.15,80,125.2,197.15,223.31,329.42,296.85q4.26,2.37,8.53,4.7c43.06,144.49,157.25,282.76,322,368.76a727.57,727.57,0,0,0,95.16,41.38q15.78,5.55,31.6,10.3c-31.7-74.73-34.94-176.47-7.88-284.44.72-.1,1.42-.22,2.08-.35a14.38,14.38,0,0,0,5.63-2.17c47.32,56.16,110.15,99.25,181.17,116.72,38.35,9.44,32.83-17.91,51-40.21,20.15-24.8,50.27-22.5,78.62-16.19l177.45,39.51c13.09,2.92,26.47,5.85,39.81,4.44C2558.71,1286.5,2572.76,1270.93,2555.9,1249.11Z"/></g><path class="cls-22" d="M2334,910.9c36.12,17.46,78.37,40.75,93.11,70.29,6.91,13.86,4.88,33.44-8.4,41.42-8.37,5-22,8.28-20.37,17.91.54,3.24,3,5.79,5.26,8.13C2460.1,1106,2524.52,1161.2,2573.8,1225c16.86,21.82,2.81,37.4-22.35,40-13.34,1.41-26.72-1.52-39.81-4.44l-177.45-39.51c-28.35-6.31-58.47-8.6-78.62,16.19-18.15,22.3-12.62,49.65-51,40.22-92-22.65-170.31-88.29-218.91-169.65-42.87-71.77-71.57-178.35.67-242,42.47-37.43,107.36-32.56,158.92-22.45a645.37,645.37,0,0,1,155.61,51.91C2310.37,899.81,2321.83,905,2334,910.9Z"/><path class="cls-23" d="M2226.75,920.52c24.52,11.85,53.21,27.67,63.21,47.72,4.7,9.41,3.32,22.7-5.7,28.12-5.68,3.41-14.92,5.62-13.83,12.16.37,2.2,2,3.93,3.58,5.52,38.36,38.93,82.1,76.41,115.55,119.69,11.45,14.82,1.91,25.39-15.17,27.19-9.06,1-18.14-1-27-3l-120.47-26.82c-19.25-4.29-39.7-5.85-53.38,11-12.31,15.13-8.56,33.7-34.6,27.3-62.48-15.38-115.62-59.94-148.62-115.18-29.1-48.72-48.59-121.08.46-164.31,28.83-25.41,72.89-22.11,107.89-15.24a438,438,0,0,1,105.64,35.24C2210.72,913,2218.5,916.53,2226.75,920.52Z"/><path class="cls-24" d="M1827.93,859.89c103.19-197.65,369.12-268,624.49-178.15a717.62,717.62,0,0,0-135.08-91.17C2036,443.7,1713.81,504.93,1597.69,727.34s17.81,521.79,299.14,668.67A728.35,728.35,0,0,0,1992,1437.4C1806.14,1278,1732.38,1042.9,1827.93,859.89Z"/><path class="cls-25" d="M2068.56,1020.15c106-215.44,294.26-342,430.59-294.36q-22-22.83-46.73-44c-255.37-89.86-521.3-19.5-624.49,178.15-95.55,183-21.79,418.11,164.07,577.51q15.78,5.55,31.6,10.29C1978.07,1340.37,1991.22,1177.34,2068.56,1020.15Z"/><path class="cls-14" d="M2166.4,806.1c-12.13-16.42-25.07-32.25-38.59-47.57-29.82-33.76-62.53-65-97-94.08-56.93-48-119-90.54-184-127.42a1727.12,1727.12,0,0,1-114.09,241.63q-14.06,24.71-29.07,49.3a1779.19,1779.19,0,0,1-137.28,194.59,1290.24,1290.24,0,0,0,139.14,66.54c54.81,22.37,111.38,40.78,169.16,53.35,16.49,3.59,141.46,32.41,150.18,16.79l87.09-156,84.79-151.88C2199.33,846.65,2170.1,811.1,2166.4,806.1Z"/><path class="cls-26" d="M1433.72,396.08c-83.31-9.51-166.2-6.18-241.21,16.19-17.83,5.32-29.83,13.74-37.56,24.25-20.51,27.88-10.9,70.47.21,109a688.08,688.08,0,0,0,81.76,180.22c47.84-44.51,92-100.05,128.56-164.51l2.46-4.35C1397.6,503.72,1419.47,449.31,1433.72,396.08Z"/><path class="cls-14" d="M2166.4,806.1c-12.13-16.42-25.07-32.25-38.59-47.57-29.82-33.76-62.53-65-97-94.08-56.93-48-119-90.54-184-127.42a1727.12,1727.12,0,0,1-114.09,241.63q-14.06,24.71-29.07,49.3a1779.19,1779.19,0,0,1-137.28,194.59,1290.24,1290.24,0,0,0,139.14,66.54c54.81,22.37,111.38,40.78,169.16,53.35,16.49,3.59,141.46,32.41,150.18,16.79l87.09-156,84.79-151.88C2199.33,846.65,2170.1,811.1,2166.4,806.1Z"/><path class="cls-26" d="M1433.72,396.08c-83.31-9.51-166.2-6.18-241.21,16.19-17.83,5.32-29.83,13.74-37.56,24.25-20.51,27.88-10.9,70.47.21,109a688.08,688.08,0,0,0,81.76,180.22c47.84-44.51,92-100.05,128.56-164.51l2.46-4.35C1397.6,503.72,1419.47,449.31,1433.72,396.08Z"/><path class="cls-27" d="M1703.62,828a1779.19,1779.19,0,0,1-137.28,194.59,1290.24,1290.24,0,0,0,139.14,66.54c54.81,22.37,111.38,40.78,169.16,53.35,16.49,3.59,141.46,32.41,150.18,16.79l87.09-156c18.47-33.08,36.87-66,51.78-92.75-137.24-20.26-284.46-63.86-431.28-131.34Q1718.49,803.61,1703.62,828Z"/><path class="cls-27" d="M1212.89,406.71q-10.28,2.57-20.38,5.56c-17.83,5.32-29.83,13.74-37.56,24.25-20.51,27.88-10.9,70.47.21,109a688.08,688.08,0,0,0,81.76,180.22c47.84-44.51,92-100.05,128.56-164.51l2.46-4.35c.36-.66.71-1.31,1.08-2C1310.66,507.42,1258.36,457.65,1212.89,406.71Z"/><path class="cls-28" d="M1370.74,551.74c-.93,1.7-1.85,3.41-2.8,5.11l-2.46,4.35c-36.55,64.46-80.72,120-128.56,164.51,79.95,125.19,197.15,223.3,329.42,296.84A1779.19,1779.19,0,0,0,1703.62,828q15-24.59,29.07-49.3c.5-.88,1-1.75,1.47-2.62q-55.87-26-112.15-57C1529.06,667.8,1444.52,611,1370.74,551.74Z"/><path class="cls-22" d="M1841.52,534.06q-32.4-18.18-65.66-34.47c-99.8-48.94-221.41-89.71-342.14-103.51-13.79,51.53-34.75,104.15-63,155.66C1444.52,611,1529.06,667.8,1622,719.05q56.16,31,112.15,57a1725.74,1725.74,0,0,0,112.62-239Z"/><path class="cls-29" d="M2073,888.48c-65.63-45.63-135.67-84.43-212.46-111.62-38.16-13.51-103.48-38-134.84,1.4-16.2,20.35,4,51.28,17.92,67,45.56,51.45,100,94.13,160,127.56,65.4,36.46,136.21,62,207.92,82.91,55.45,16.18,111.55,30.32,167.84,43.25,8.14,1.87,48.17,6.3,30.12-10.78C2233.65,1016.46,2158.16,948.82,2073,888.48Z"/><polygon class="cls-25" points="2264.86 1069.09 2264.96 1069.19 2265 1069.13 2264.86 1069.09"/><path class="cls-25" d="M2064,936.92q-8.37-1.54-16.59-2.77c-7.68-1.15-16.7-1.65-22,4.05-5.76,6.21-3.78,16.1-1,24.08,8.4,23.77,21.2,44.84,36.77,64.53,14.78,18.68,27.24,22.21,50.3,28.94,55.45,16.18,111.55,30.32,167.84,43.25,8.14,1.87,48.17,6.3,30.12-10.78q-29.34-27.77-59.18-55c-18.91-17.19-38.64-39.94-60.87-52.65C2152.32,959.35,2106.91,944.9,2064,936.92Z"/><circle class="cls-14" cx="1547.64" cy="675.78" r="149.91"/><path class="cls-30" d="M1404.79,630.32a149.93,149.93,0,0,0,274.53,117.17c6-11.11,11.37-20.35,5.52-32.37-5.53-11.36-15.94-18.32-26.72-24.25a1308.59,1308.59,0,0,0-137.75-65.5q-35.88-14.57-72.57-27c-13.07-4.42-21.29-11.53-29.37,1.33C1412.53,609.1,1408.15,619.78,1404.79,630.32Z"/><circle class="cls-20" cx="1547.64" cy="675.78" r="124.92"/><path class="cls-31" d="M1427.47,637.57c-5.38,18.64-5.82,39.75-3.45,56,6.85,47,40.48,86.88,85.74,101.28,27.32,8.7,57.35,7.31,84-3.09a125.55,125.55,0,0,0,37.87-22.9c2.48-2.22,27.43-29.74,24.87-31.22-61.41-35.45-120.86-74.18-180.27-112.89L1460,614.12l-12.71-8.28-2.1-1.41c-1,1.57-2.51,2.75-3.59,4.27A97.71,97.71,0,0,0,1427.47,637.57Z"/><g class="cls-21"><path class="cls-1" d="M1449.42,667.71a7,7,0,0,1-3.28-13.19l149-78.9a7,7,0,1,1,6.55,12.37l-149,78.91A7,7,0,0,1,1449.42,667.71Z"/></g><g class="cls-21"><path class="cls-1" d="M1449.42,729.08a7,7,0,0,1-3.28-13.19l149-78.9a7,7,0,1,1,6.55,12.37l-149,78.9A6.92,6.92,0,0,1,1449.42,729.08Z"/></g><g class="cls-21"><path class="cls-1" d="M1510.79,755.38a7,7,0,0,1-3.29-13.19l149-78.9a7,7,0,1,1,6.55,12.37l-149,78.91A7,7,0,0,1,1510.79,755.38Z"/></g><path class="cls-32" d="M2073.38,1512.32a5.35,5.35,0,0,1-1.05-.11c-99.06-21.12-195.39-65.67-278.56-128.81s-152-144-198.93-233.7a5,5,0,0,1,8.86-4.64c46.29,88.45,114.1,168.11,196.11,230.37s177,106.18,274.61,127a5,5,0,0,1-1,9.89Z"/><path class="cls-33" d="M2103.05,1557.07h-.38c-82.55-6.19-163.31-29.61-240-69.6a668.55,668.55,0,0,1-196.05-155.25,5,5,0,1,1,7.58-6.53,658.33,658.33,0,0,0,193.09,152.91c75.52,39.36,155,62.41,236.15,68.5a5,5,0,0,1-.36,10Z"/><path class="cls-32" d="M2548.55,760.82a5,5,0,0,1-4.12-2.17C2466,644.53,2343.7,560.82,2208.93,529a5,5,0,1,1,2.3-9.73c137.15,32.4,261.6,117.6,341.44,233.74a5,5,0,0,1-1.29,7A5,5,0,0,1,2548.55,760.82Z"/><path class="cls-33" d="M2487.8,632.34a5,5,0,0,1-3.55-1.48,535.48,535.48,0,0,0-137.05-99.75c-53.77-27.12-109.72-42.78-161.83-45.29a5,5,0,0,1,.48-10c53.5,2.58,110.85,18.61,165.85,46.35a545.55,545.55,0,0,1,139.65,101.64,5,5,0,0,1-3.55,8.52Z"/><path class="cls-34" d="M1677.25,1628.84c2.2,12.73,2.6,25.69,3,38.6,1.13,36.57,2.26,73.13,2.82,109.71,1.32,87.19-.71,175-18.15,260.45-24.91,8.4-55.2-9.39-60-35.23-1.15-6.2-1-12.54-1.29-18.83-.62-14.55-3.4-28.91-5.46-43.32-15.42-107.89,9.49-219.24-11.88-326.11-3.9-19.51-9.34-38.72-12.59-58.36-1.42-8.53-5.2-22.08-2.85-30.57,2.58-9.33,7.06-6.64,15.6-3.57,29.4,10.59,54.78,31.58,71.49,57.88A135.16,135.16,0,0,1,1677.25,1628.84Z"/><g class="cls-35"><path class="cls-22" d="M2229.19,2462.93c2,2.58,3.09,6.17,2.84,11.11-1,20.29-41.52,26.44-56.71,29.82-31.56,7-63.38,6-95.43,5,4.39.14,3.38,11,2.69,13.51a19.55,19.55,0,0,1-11.41,12.6c-6.26,2.69-13.27,2.87-20.08,3q-57.5,1.25-115,2.28c-35.68.66-73.25,5.87-107.63-4.65-9.27-6-6.26-21.62,2.82-27.92,6.88-4.78,14.3-4.62,22.1-5.74,8.64-1.23,17.1-3.06,25.84-3.93,37.91-3.8,75.86-7.59,114-8.29,17-.3,34-.68,50.76-3,18.26-2.51,36.5-7.63,54.61-11.12q32.11-6.2,64.36-11.6c11-1.85,22-3.57,33.06-5.34C2206.08,2457,2222.59,2454.39,2229.19,2462.93Z"/></g><rect class="cls-36" x="1735.57" y="2100.18" width="56.3" height="386.81" rx="22.5"/><rect class="cls-37" x="1735.57" y="2100.18" width="56.3" height="173.65" rx="22.5"/><rect class="cls-38" x="1577.92" y="2089.13" width="360.34" height="33.16" rx="13.5"/><rect class="cls-39" x="1577.92" y="2089.13" width="143.27" height="33.16" rx="13.5"/><rect class="cls-39" x="1668" y="2453.84" width="191.43" height="33.16" rx="13.5"/><rect class="cls-40" x="1600.44" y="2486.99" width="337.82" height="55.26" rx="22.5"/><path class="cls-22" d="M1632,2091h-13.5c-26.55,0-48.2-23.9-55.3-47.5-5.42-18-5.53-37.06-5.59-55.82q-.78-225.66-.45-451.28c0-27.35,16-30,30-10.35,34.84,49.13,32,113,32.85,170.16,1.18,81.21-.15,162.49,3.81,243.65.83,17,2.06,34.7,10.91,49.31,47.63,78.61,216.32,43.71,293,65.56,6.49,1.84,13.15,4.11,17.89,8.83,8.25,8.23,7,17.16-2.41,23.61s-21.43,3.83-32.49,3.83H1632Z"/><path class="cls-23" d="M1924,2471.92c1.24,5.34,3.76,9.89,8.45,12.68,3.57,2.13,7.91,2.29,12,2.24a174.9,174.9,0,0,0,23.63-1.88c5-.73,16.81-2.4,17.63-9.19.41-3.4-4.34-7-6-10.05A36.79,36.79,0,0,1,1976,2453c-1-8.16.17-16.4,1.12-24.57q1.32-11.42,2.16-22.9c.41-5.63,2.53-14.62-.61-19.83-5.61-9.31-20.14-10-29.51-11.12-13.6-1.64-17.58,2.26-20.08,16.93s-3.24,29.37-4,44.13C1924.66,2445.08,1921.32,2460.37,1924,2471.92Z"/><path class="cls-41" d="M1925.88,2107.1c-.89,14.47-2.37,28.39-2.53,39.47q-1.35,94-5.26,187.95c-.75,17-10,54.07-3.24,69.39,5.63,12.77,21.18,12.83,33.67,16.3,15.17,4.23,30.39,7,45.64,10.64a2.22,2.22,0,0,0,1.37,0c.62-.24.91-1,1.13-1.6,10.41-30.56,16.55-63.47,24.15-94.89,19.3-79.76,33.56-160.68,47.55-241.57,6.58-38.07,21.22-78.55,11.79-117.45-9-37.19-41.06-58.38-73.12-73.16-52-26.64-108.39-47.07-163.21-66.73q-41.47-14.87-83.54-27.89c-24.94-7.76-48.55-5.54-75.34-7.38-5.1-.35-10.29-.69-15.27.48-10.61,2.5-18.66,11.49-24.22,21.12-14.57,25.22-16,58-3.6,84.46,16.35,35,52.56,55.12,88.09,68.11,35.36,12.93,72.83,22.43,109.84,28.83,26.53,4.6,58.57,11.9,75.71,35.83C1927.23,2055.44,1927.42,2082.08,1925.88,2107.1Z"/><path class="cls-42" d="M1930.06,2448.89l11.17,9.66a11.69,11.69,0,0,0,4.7,2.92c2.09.5,4.27-.2,6.26-1,7.75-3.28,14.66-8.86,22.9-10.49,6.58-1.29,13.45.09,19.69,2.62s12,6.16,17.79,9.57a288.36,288.36,0,0,0,39.3,19.19,10.65,10.65,0,0,1,3.62,2c2.24,2.17,2.17,5.77,1.93,8.91-.45,6.09-.84,12.19-1.29,18.28,0,0-26.34-1.82-27.86-1.92l-77.44-5.34c-7.72-.54-23.73,1.47-30.52-2.58-9.75-5.82-2.72-27.22-2.35-36.06.18-4.38-1.4-13.79,1-17.52C1921.79,2442.55,1927.16,2446.38,1930.06,2448.89Z"/><path class="cls-43" d="M1852.69,1211.68c1.7-.34,3.38-.71,5.06-1.1,8.42-2,13.92-4.58,19.45-10.53,6.1-6.56,11.9-14,19.66-19a40.29,40.29,0,0,1,35.29-3.35c11.41,4.42,20.22,14.42,22.72,25.82,1.2,5.43,1,11,.86,16.57-.52,17.12-14.09,29.19-31.61,33.34-7.64,1.81-14.58,3.91-16.71,11.66a133.74,133.74,0,0,0-4.69,32.9c-.11,5.68,0,11.81-3.48,16.43s-10.07,6.66-14.82,10.41c-5.31,4.18-8.17,10.42-11.66,16.06-5.38,8.68-15.27,22.43-26.79,24-4.77.63-9.62-.57-14.1-2.28a60.86,60.86,0,0,1-17.86-10.57c-6.48-5.54-7.15-10.47-7.14-18.12,0-9.91-5-21.55-7.17-31.21-2.77-12.06-10.14-22.82-12.45-35.24-2.37-12.73-1.11-26.53,6.34-37.34a15,15,0,0,1,5.31-5.13C1815.61,1216.52,1834.46,1215.39,1852.69,1211.68Z"/><path class="cls-43" d="M1843.27,1366.58a33.47,33.47,0,0,1-11.93-2.55A62.2,62.2,0,0,1,1813,1353.2c-7.13-6.09-7.67-11.83-7.66-19.26,0-6.46-2.2-13.77-4.34-20.84-1.06-3.51-2.06-6.84-2.8-10-1.27-5.56-3.62-11-5.89-16.26-2.61-6.06-5.31-12.32-6.57-19-2.73-14.69-.39-28.35,6.58-38.47a16.5,16.5,0,0,1,5.87-5.62c12.62-6.42,26.59-8.73,40.09-11,4.63-.77,9.42-1.56,14.09-2.51h0c1.78-.36,3.42-.72,5-1.09,8.8-2.08,13.69-4.72,18.69-10.09,1.26-1.36,2.51-2.76,3.77-4.16,4.85-5.43,9.87-11,16.19-15a41.56,41.56,0,0,1,36.64-3.48c12,4.63,21,14.93,23.64,26.89,1.24,5.65,1.06,11.39.89,16.94-.51,16.78-13.06,30.1-32.76,34.76-7.7,1.82-13.74,3.76-15.62,10.6a132.43,132.43,0,0,0-4.63,32.53l0,1c-.09,5.42-.19,11.57-3.77,16.31-2.39,3.17-5.89,5.13-9.27,7a43.9,43.9,0,0,0-5.81,3.66c-4,3.12-6.47,7.43-9.13,12-.72,1.24-1.44,2.47-2.18,3.68-9.39,15.15-18.77,23.45-27.87,24.67A21.3,21.3,0,0,1,1843.27,1366.58ZM1918,1176.67a38.37,38.37,0,0,0-20.36,5.69c-6,3.78-10.84,9.23-15.56,14.51-1.27,1.42-2.53,2.83-3.8,4.2-6.15,6.62-12.29,9.1-20.2,11-1.62.38-3.29.74-5.11,1.11h0c-4.71,1-9.53,1.76-14.19,2.53-13.28,2.19-27,4.47-39.22,10.67a13.88,13.88,0,0,0-4.76,4.65c-6.52,9.46-8.68,22.32-6.1,36.22,1.19,6.39,3.83,12.5,6.38,18.4,2.32,5.38,4.72,11,6.06,16.78.71,3.09,1.7,6.37,2.75,9.84,2.19,7.27,4.47,14.8,4.46,21.7s.43,11.7,6.61,17a59.19,59.19,0,0,0,17.43,10.31c5.27,2,9.51,2.71,13.36,2.19,8.06-1.08,17-9.13,25.71-23.28.74-1.19,1.44-2.4,2.15-3.61,2.68-4.6,5.46-9.36,9.86-12.84a46.94,46.94,0,0,1,6.21-3.92c3.25-1.82,6.32-3.54,8.34-6.21,3-4,3.07-9.34,3.16-14.55l0-1a135.58,135.58,0,0,1,4.74-33.27c2.5-9.1,11.35-11.19,17.82-12.72,18.32-4.33,30-16.57,30.45-31.93.17-5.37.34-10.92-.82-16.2-2.38-10.83-10.94-20.54-21.8-24.74A37.66,37.66,0,0,0,1918,1176.67Z"/><path class="cls-44" d="M1863,1234.21c10.11-4.37,22.4-.71,33.27-3.45,10.71-2.7,18.77-11.2,27.64-17.77,6.18-4.57,14-8.57,21.9-8.29,11,.38,10.23,6.06,9.94,15.43-.52,17.12-14.09,29.19-31.61,33.34-7.64,1.81-14.58,3.91-16.71,11.66a133.74,133.74,0,0,0-4.69,32.9c-.11,5.68,0,11.81-3.48,16.43s-10.07,6.66-14.82,10.41c-5.31,4.18-8.17,10.42-11.66,16.06-5.38,8.68-15.27,22.43-26.79,24-4.77.63-9.62-.57-14.1-2.28a61,61,0,0,1-17.86-10.57c-15.62-13.35-1.84-35.26,11.54-44.38,5.65-3.85,12.34-6.59,16.45-12,5.13-6.83,5-16.11,5-24.65,0-6.77.25-13.65,2.28-20.11s6-12.56,12-15.81C1861.8,1234.75,1862.39,1234.46,1863,1234.21Z"/><path class="cls-43" d="M1843.27,1366.58a33.47,33.47,0,0,1-11.93-2.55A62.2,62.2,0,0,1,1813,1353.2a20.2,20.2,0,0,1-7.43-16.94c.65-12,10.36-23.86,19.1-29.82,1.67-1.14,3.45-2.19,5.16-3.2,4.21-2.5,8.2-4.87,10.94-8.52,4.69-6.22,4.68-14.75,4.67-23V1271c0-6.32.18-13.64,2.35-20.56,2.37-7.59,6.87-13.51,12.68-16.67.61-.33,1.24-.64,1.89-.92h0c5.91-2.56,12.5-2.5,18.88-2.44,4.9,0,10,.08,14.61-1.09,7.75-2,14.29-7.26,20.61-12.39,2.12-1.71,4.3-3.49,6.51-5.12,5.53-4.09,14-8.9,22.84-8.59,11.94.42,11.72,7.15,11.44,15.68l0,1.29c-.51,16.78-13.06,30.1-32.76,34.76-7.7,1.82-13.74,3.76-15.62,10.6a132.43,132.43,0,0,0-4.63,32.53l0,1c-.09,5.42-.19,11.57-3.77,16.31-2.39,3.17-5.89,5.13-9.27,7a43.9,43.9,0,0,0-5.81,3.66c-4,3.12-6.47,7.43-9.13,12-.72,1.24-1.44,2.47-2.18,3.68-9.39,15.15-18.77,23.45-27.87,24.67A21.3,21.3,0,0,1,1843.27,1366.58Zm20.31-131c-.56.24-1.11.51-1.64.8-5.12,2.79-9.12,8.09-11.26,14.93-2,6.52-2.21,13.58-2.21,19.67v.75c0,8.33,0,17.77-5.27,24.8-3.1,4.12-7.53,6.75-11.81,9.29-1.67,1-3.4,2-5,3.1-8.41,5.73-17.22,17-17.79,27.5a17.08,17.08,0,0,0,6.38,14.5,59.19,59.19,0,0,0,17.43,10.31c5.27,2,9.51,2.71,13.36,2.19,8.06-1.08,17-9.13,25.71-23.28.74-1.19,1.44-2.4,2.15-3.61,2.68-4.6,5.46-9.36,9.86-12.84a46.94,46.94,0,0,1,6.21-3.92c3.25-1.82,6.32-3.54,8.34-6.21,3-4,3.07-9.34,3.16-14.55l0-1a135.58,135.58,0,0,1,4.74-33.27c2.5-9.1,11.35-11.19,17.82-12.72,18.32-4.33,30-16.57,30.45-31.93l0-1.3c.29-8.68.41-12.27-8.55-12.58-8-.29-15.8,4.19-20.94,8-2.16,1.59-4.32,3.35-6.41,5-6.57,5.34-13.37,10.86-21.76,13-5,1.27-10.28,1.22-15.38,1.18-6.34-.06-12.33-.11-17.66,2.19Z"/><path class="cls-22" d="M2082.77,2472.05c2.64,4.75,6.29,8.34,11.54,9.6,4,.95,8.2-.22,12.14-1.51a180.62,180.62,0,0,0,22.13-8.95c4.55-2.21,15.46-7.4,14.4-14.15-.53-3.39-6.05-5.36-8.44-7.83a35.16,35.16,0,0,1-7-11c-3.14-7.53-4.29-15.77-5.6-23.87q-1.83-11.36-4.15-22.6c-1.13-5.51-1.53-14.77-6-18.81-7.91-7.22-22-3.48-31.29-1.72-13.48,2.55-16.23,7.49-14.65,22.31s4.86,29.11,8.16,43.48C2076.13,2446.14,2077.08,2461.8,2082.77,2472.05Z"/><path class="cls-45" d="M1985.58,2122c3.07,14.12,5.44,27.91,8.29,38.57q24.21,90.45,46,181.66c3.91,16.55,5.09,54.83,15.73,67.46,8.86,10.53,23.77,5.87,36.69,5.42,15.67-.55,31-2.47,46.6-3.63a2.46,2.46,0,0,0,1.33-.38,2.51,2.51,0,0,0,.64-1.88c1.69-32.43-1.37-65.82-2.61-98.23-3.16-82.25-11.46-164.09-20-245.82-4-38.47-1-81.68-20.59-116.09-18.73-32.9-55.17-43.49-89.89-47.94-57.1-9.76-116.61-12.27-174.47-14.49q-43.77-1.68-87.6-1.42c-26,.12-48,9.4-74.18,15.75-5,1.21-10,2.46-14.5,5.09-9.48,5.61-14.76,16.66-17.47,27.56-7.12,28.58.44,60.41,19.47,82,25.15,28.55,65.31,36.88,102.87,38.57,37.39,1.68,75.87-.57,113.06-5.65,26.66-3.64,59.34-6.34,82.25,11.39C1972.85,2072.07,1980.27,2097.54,1985.58,2122Z"/><path class="cls-46" d="M2140.18,2366.24q-.6-23.53-1.65-47-2.15-48.83-5.87-97.56c-4.55-60.73-13.24-120.87-15.94-181.56-1.17-26.21-3.21-52.92-13.27-77.15-17.11-41.2-53.84-56.44-95.72-61.8-57.1-9.76-116.61-12.27-174.47-14.49-53.56-2.06-127.85-9.22-176.29,19.42-16,9.46-26.58,37.81-5.64,47.78,32.47,15.46,86.63,5,121.86,5.08l140.73.18c65.71.08,113.32,19.84,134.38,86.49,5.82,18.42,10.66,37.07,14.84,55.86,13.24,59.64,19.74,120.77,29.21,181.06,2.06,13.15,4.13,26.31,6.08,39.49,1,6.65,1.94,13.31,2.84,20,2.56,18.78,4.41,37.92,8.69,56.5,1.12,4.87,2.05,9.93,3.45,14.78a46.25,46.25,0,0,1,10.84-.38c3.21.16,6.47-.27,9.71-.36a13.51,13.51,0,0,0,4.25-.58,4.59,4.59,0,0,0,3-2.91,2.93,2.93,0,0,1-.48-2v-21C2140.7,2379.43,2140.35,2372.84,2140.18,2366.24Z"/><path class="cls-42" d="M2082.34,2448.15l13.33,5.88a11.27,11.27,0,0,0,5.28,1.36c2.15-.15,4.05-1.48,5.72-2.89,6.54-5.49,11.64-12.93,19.1-17,5.95-3.24,12.9-4,19.56-3.46s13.15,2.28,19.65,3.78a281.47,281.47,0,0,0,42.85,6.49,10.29,10.29,0,0,1,4,.83c2.73,1.41,3.64,4.87,4.27,8,1.22,6,2.51,11.93,3.73,17.9,0,0-25.73,6.24-27.22,6.6L2117,2494c-7.54,1.83-22.33,8.61-29.94,6.78-10.92-2.62-10-25.25-12-33.83-1-4.26-5.09-12.79-3.84-17.08C2072.7,2444.58,2078.88,2446.62,2082.34,2448.15Z"/><path class="cls-1" d="M1864.3,1301.38c2.67,0,5.48,0,7.79,1.25,3.91,2.15,5,7.06,4.74,11.33-.12,2.47-1,5.46-3.55,6s-5.58-1.25-7-3.29a4.84,4.84,0,0,1-1-3.75c.36-1.58,2.2-2.22,3.69-2.75,2.57-.91,5.8-.6,7.61,1.37"/><path d="M1872.25,1321.59a9.44,9.44,0,0,1-7.21-4,6.24,6.24,0,0,1-1.24-5c.54-2.37,3-3.24,4.62-3.81a9.83,9.83,0,0,1,6.39-.1,7.5,7.5,0,0,0-3.44-4.74c-2-1.11-4.7-1.09-7-1.07l0-3c2.59,0,5.8-.05,8.52,1.44,3.8,2.08,5.82,6.72,5.52,12.71-.2,4-2,6.81-4.73,7.42A6.8,6.8,0,0,1,1872.25,1321.59Zm-.44-10.38a7.21,7.21,0,0,0-2.36.39c-1.16.41-2.56.91-2.73,1.67a3.42,3.42,0,0,0,.77,2.56c1.17,1.66,3.53,3.11,5.47,2.69s2.33-3.66,2.38-4.64c0-.39,0-.87,0-1.42A5,5,0,0,0,1871.81,1311.21Z"/><path class="cls-22" d="M1819.35,1359.17l.51-1.68a40.57,40.57,0,0,0,19.24,6.14c3,.17,6.11,0,8.68-1.46,3-1.65,4.73-4.69,6-7.71,5.69-13.38,2.65-27.94,3.16-42,.35-9.72,2.88-22.17,15.78-21.87a9.06,9.06,0,0,1,6.47,2.59c2,2.14,2.23,5.2,3.45,7.78s4.59,4.88,7.06,3.28a6,6,0,0,0,2-3,154.17,154.17,0,0,0,9.94-37c.94-6.79-.25-7.73,6.44-9.31,5.57-1.32,12-1.18,17.76-1.9,1-.13,2.78,91.34,2,99-.59,6.1-1.79,12.72-6.65,16.8-4.38,3.68-10.72,4.41-16.59,4.16-5.16-.22-14.84-2.93-19.12,1.06-4.69,4.37-4,17.16-4.72,23a360.09,360.09,0,0,0-2.43,54.14c.28,9.13.9,18.37-1.12,27.29-1.47,6.47-5.35,16.62-12.25,19.71-5.23,2.34-15.64,0-21.22-.41-16-1.15-28.41-10.28-34.55-24.12a64.79,64.79,0,0,1-5.09-21.47c-.29-3.76.54-6.63,1-10.18.54-4.5-2.36-9.14-3.25-13.48-1.4-6.81.64-13.78,2.65-20.44Z"/><g class="cls-47"><path class="cls-48" d="M1843.81,1497.86c-7.72-.55-9.64-10.09-6.78-16.06,2.6-5.41,7.66-9.14,11.84-13.46,8.8-9.09,14-21.25,16.32-33.68s2.09-25.22,1.24-37.85c-.34-5-.77-10.07-1.55-15.07-.8-5.2-2.74-9.29-4.86-14.09-.81-1.85-1.57-4.18-.27-5.73,1-1.17,2.74-1.3,4.27-1.2,10.67.65,20.21,7.39,30.87,8.19a10.54,10.54,0,0,1,3.12.49,4.19,4.19,0,0,1,2.3,2.86,64,64,0,0,0-8.19-.15,14.63,14.63,0,0,0-3.75.31,7.64,7.64,0,0,0-2.82,1.71c-4.69,4.37-4,17.16-4.72,23a360.09,360.09,0,0,0-2.43,54.14c.28,9.13.9,18.37-1.12,27.29-1.47,6.47-5.35,16.62-12.25,19.71C1859.8,1500.61,1849.39,1498.27,1843.81,1497.86Z"/></g><path class="cls-49" d="M1668.7,1609.23q2.55-11.13,5.46-22.16c14.39-54.46,36.15-101.18,74.22-141.75,10.87-11.58,23.43-20,34.74-30.55,7.48-7,11.29-22.76,22.16-25.6,7.45-2,14.75,3.21,20.84,8.08l32,25.62c12,9.59,24.36,19.7,30.88,33.8,36.59,79.15,37,159.6,33.63,245.21,0,34.55-1.43,68.51,3.55,102.86,2.09,14.43,1.92,49.71,19.13,54.14,2.72.7,5.57.92,8.17,2,4.58,1.95,7.78,6.32,10.74,10.5,3.66,5.17,17.61,17.93,9.27,24-6.9,5-15.39,6.9-23.62,8.64-30.72,6.5-61.46,13-92.43,18-24.05,3.89-48.32,6.88-71.81,13.57-18,5.14-35.41,12.4-52.71,19.81-15.53,6.65-31,13.44-45.85,21.72-11.3,6-21.55,12.85-25.13,25.92-.82,3-1.71,10.1-4.49,12-7.53,5.19-19-3.74-23.41-9-17.11-20.8-9.2-38.23-4.07-61.13a28.4,28.4,0,0,0,.46-6.25C1630.26,1829.52,1644.29,1715.64,1668.7,1609.23Z"/><path class="cls-50" d="M1668.7,1609.23q2.55-11.13,5.46-22.16c14.39-54.46,36.15-101.18,74.22-141.75,10.87-11.58,23.43-20,34.74-30.55,7.48-7,11.29-22.76,22.16-25.6,46.48-12.17,27.59,176.45,25.76,202.12q-8.07,113.28-9.91,226.91c-.23,14.38-.38,28.82,1.57,43.06,3,21.58,9.41,50.59-11.64,66-8.67,6.36-22.17,7.26-32.17,10.38-15.7,4.9-30.89,11.32-46,17.79-15.53,6.65-31,13.44-45.85,21.72-11.3,6-21.55,12.85-25.13,25.92-.82,3-1.71,10.1-4.49,12-7.53,5.19-19-3.74-23.41-9-17.11-20.8-9.2-38.23-4.07-61.13a28.4,28.4,0,0,0,.46-6.25C1630.26,1829.52,1644.29,1715.64,1668.7,1609.23Z"/><path class="cls-22" d="M2177.74,1853.89c8.27,4.82,18.33,5.31,27.83,4.09s18.77-4,28.24-5.46a96.77,96.77,0,0,1,29.23.09c6.71,1.05,15.55,1.73,18.4-4.73a14.47,14.47,0,0,0,.79-6.48,80.55,80.55,0,0,0-10.26-35.78,16.73,16.73,0,0,0-4.89-6c-2.9-1.94-6.6-2-9.88-3.2-3.67-1.3-6.88-4-10.72-4.57-4.09-.66-8.18,1.09-12,2.8l-38.24,17.09c-10,4.46-19,12.3-22.46,23a21.41,21.41,0,0,0-1.2,6.84C2172.67,1846.17,2173.91,1851.66,2177.74,1853.89Z"/><g class="cls-47"><path class="cls-48" d="M2177.74,1853.89c8.27,4.82,18.33,5.31,27.83,4.09,3.26-.42,8.12-.51,11.09-1.91,2.7-1.26,3.62-4.07,4.64-6.9,2.39-6.66,2.84-13.89,2.72-20.91-.1-5.49-.58-11.16-3.16-16a26.15,26.15,0,0,0-4.5-6.06c-2.34-2.34-2.29-2.31-5.37-1-5,2.08-9.84,4.4-14.76,6.59-10,4.46-19,12.3-22.46,23a21.41,21.41,0,0,0-1.2,6.84C2172.67,1846.17,2173.91,1851.66,2177.74,1853.89Z"/></g><path class="cls-51" d="M1939.24,1575.15c50.58,103.74,146.67,165.13,245.2,214.89,8.62,4.35,18.33,10,19.76,19.91.66,4.58-.67,9.23-2,13.69-4.56,15.42-10.68,32.71-25,39-10.56,4.67-22.55,1.87-33.49-1.28C2001,1820.27,1847,1729.35,1796,1577.93c-10.06-29.87-19.64-79.52-6-110.27,14.44-32.53,60.56-32.73,80.46-10.66C1899.81,1489.62,1918.83,1533.28,1939.24,1575.15Z"/><path class="cls-52" d="M1940.88,1574.3c11.09,21.32,22.95,42.19,37.72,61.21,54.68,70.4,127.42,114.92,205.84,154.53,8.62,4.35,18.33,10,19.76,19.91,5.49,38-41.09,24.29-59.5,14.45-77.39-41.33-151.27-93.9-211.32-159.18-22.86-24.85-163.41-199.77-106-223.65,13.25-5.51,34.37,5.9,43,15.43C1901.23,1491.18,1919.67,1533.55,1940.88,1574.3Z"/><path class="cls-43" d="M1927.05,1287.42l.31.11c1,.4,2.53,1.59,1.93,2.83-.45.93-1.79,1.33-2.72,1.5-1.39.25-2.79.34-4.19.51a23.48,23.48,0,0,1-4.06.57,1.6,1.6,0,0,1-.83-.24,1.31,1.31,0,0,1-.5-.83,3.68,3.68,0,0,1,2-3.6A10.68,10.68,0,0,1,1927.05,1287.42Z"/><path class="cls-43" d="M1918.62,1294.45h-.39a3,3,0,0,1-1.59-.5,2.81,2.81,0,0,1-1.12-1.8,5.11,5.11,0,0,1,2.66-5.16,12.12,12.12,0,0,1,9.35-1h0l.38.14a5.1,5.1,0,0,1,2.81,2.57,2.83,2.83,0,0,1-.08,2.3c-.57,1.19-1.85,2-3.8,2.32-1,.19-2,.29-3,.39l-1.29.14c-.45.05-.9.15-1.36.24A12.76,12.76,0,0,1,1918.62,1294.45Zm-.17-3a8.45,8.45,0,0,0,2.14-.28c.52-.1,1.06-.22,1.61-.28l1.35-.15c1-.09,1.86-.18,2.75-.35a3,3,0,0,0,1.6-.62,2.49,2.49,0,0,0-1.08-.83l-.25-.09h0a9.22,9.22,0,0,0-6.88.73A2.34,2.34,0,0,0,1918.45,1291.44Zm-.2,0Z"/><path class="cls-43" d="M1923.12,1300.8a3.57,3.57,0,0,0,1.72,4.67c2.62,1.23,4.54-1.76,4.22-4.12a3.09,3.09,0,0,0-5.07-1.76A3.7,3.7,0,0,0,1923.12,1300.8Z"/><path class="cls-43" d="M1926,1307.25a4.32,4.32,0,0,1-1.83-.42,5.07,5.07,0,0,1-2.46-6.65h0a5.26,5.26,0,0,1,1.22-1.69,4.55,4.55,0,0,1,4.65-.87,4.41,4.41,0,0,1,2.93,3.54,5.83,5.83,0,0,1-2.15,5.31A4,4,0,0,1,1926,1307.25Zm-1.55-5.83a2.07,2.07,0,0,0,1,2.69,1,1,0,0,0,1.15-.06,2.91,2.91,0,0,0,.95-2.5,1.45,1.45,0,0,0-1-1.11,1.59,1.59,0,0,0-1.6.26,2.09,2.09,0,0,0-.51.72Z"/><g class="cls-53"><circle class="cls-48" cx="1903.12" cy="1322.05" r="17.53"/></g><g class="cls-8"><path class="cls-48" d="M1875.09,1307.56a6,6,0,0,1-.64,3.84c-1.1,1.73-3.43,2.23-5.48,2.12a8.48,8.48,0,0,1-3.89-1.06,4.72,4.72,0,0,1-2.28-3.21c-.42-2.93,2-3.69,4.26-4.21,2.72-.62,3.12-1.75,3.27-4.34.12-2.13.47-2.15,2-.29A13.75,13.75,0,0,1,1875.09,1307.56Z"/></g><g class="cls-35"><ellipse class="cls-22" cx="2659.25" cy="2611.35" rx="201.64" ry="39.45"/></g><path class="cls-34" d="M2779.72,2152.63c21.26-3.13,41.93-6.18,46.1-7.18,26.32-6.32,46.79-25.8,47-54.37l3.1-429.71c0-5.7.74-11.45,1.08-17.15.52-8.49.83-17.72-4-24.69-5.46-7.81-15.86-10.42-25.39-10.62-29.28-.61-58.05,11.83-78.45,32.7-39.46,40.4-34.89,110.48-38.47,162.74-6,87.16-1.28,174-1.91,261.2l-.69,95.25C2728.06,2160.21,2754.31,2156.37,2779.72,2152.63Z"/><rect class="cls-36" x="2641.94" y="2186.2" width="55.2" height="379.25" rx="22.5" transform="translate(5321.89 4770.82) rotate(-179.59)"/><rect class="cls-37" x="2642.74" y="2186.2" width="55.2" height="157.77" rx="22.5" transform="translate(5324.28 4549.36) rotate(-179.59)"/><rect class="cls-38" x="2499.74" y="2175.41" width="353.29" height="32.51" rx="13.5" transform="translate(5336.91 4402.56) rotate(-179.59)"/><rect class="cls-39" x="2499.74" y="2174.68" width="150.76" height="32.51" rx="13.5" transform="translate(5134.4 4400.37) rotate(-179.59)"/><rect class="cls-39" x="2574.45" y="2532.94" width="187.68" height="32.51" rx="13.5" transform="translate(5318.14 5117.54) rotate(-179.59)"/><rect class="cls-40" x="2496.85" y="2565.4" width="331.21" height="54.18" rx="22.5" transform="translate(5306.16 5204.1) rotate(-179.59)"/><path class="cls-22" d="M2800.15,2178.11l13.23.09c26,.19,47.43-23.08,54.56-46.17,5.43-17.61,5.67-36.3,5.87-54.69q2.36-221.24,3.63-442.43c.19-26.82-15.51-29.52-29.3-10.36-34.5,47.92-32.2,110.58-33.41,166.58-1.73,79.62-1,159.32-5.46,238.85-.93,16.65-2.26,34-11,48.27-47.26,76.74-212.39,41.33-287.77,62.21-6.36,1.76-12.92,3.93-17.59,8.53-8.15,8-6.94,16.78,2.19,23.16s21,3.91,31.83,4l84.19.6,153.41,1.11Z"/><g class="cls-35"><ellipse class="cls-22" cx="3150.2" cy="2479.85" rx="166.57" ry="39.45"/></g><path class="cls-34" d="M3254.7,2041.46c20.33-3,40.09-5.91,44.08-6.86,25.16-6,44.74-24.67,44.94-52l3-410.87c0-5.45.71-11,1-16.4.49-8.12.79-16.94-3.87-23.61-5.21-7.47-15.17-10-24.28-10.15-28-.58-55.5,11.31-75,31.27-37.74,38.62-33.37,105.63-36.79,155.6-5.7,83.34-1.23,166.37-1.83,249.75l-.65,91.08C3205.3,2048.71,3230.41,2045,3254.7,2041.46Z"/><rect class="cls-36" x="3122.96" y="2073.56" width="52.78" height="362.62" rx="22.5" transform="translate(6282.37 4532.37) rotate(-179.59)"/><rect class="cls-38" x="2987" y="2063.24" width="337.8" height="31.08" rx="13.5" transform="translate(6296.73 4180.25) rotate(-179.59)"/><rect class="cls-40" x="3058.43" y="2405.09" width="179.46" height="31.08" rx="13.5" transform="translate(6278.79 4863.89) rotate(-179.59)"/><rect class="cls-40" x="2984.24" y="2436.13" width="316.69" height="51.8" rx="22.5" transform="translate(6267.33 4946.65) rotate(-179.59)"/><path class="cls-22" d="M3274.23,2065.82l12.65.09c24.9.18,45.36-22.07,52.17-44.14,5.2-16.84,5.43-34.71,5.62-52.3q2.25-211.53,3.46-423c.19-25.64-14.82-28.23-28-9.9-33,45.81-30.79,105.73-31.95,159.28-1.64,76.12-1,152.32-5.21,228.37-.89,15.92-2.17,32.52-10.57,46.16-45.18,73.37-203.07,39.51-275.14,59.47-6.09,1.69-12.35,3.77-16.82,8.16-7.79,7.66-6.64,16,2.09,22.15s20.07,3.73,30.43,3.81l80.51.58,146.67,1.06Z"/><g class="cls-35"><path class="cls-22" d="M2930.91,2587.87c-15.16.49-30.29,1.71-45.41,2.94-19.82,1.6-56.53,1.74-52,32.24a15.61,15.61,0,0,0,3,7.62c3.21,4,8.63,5.22,13.65,6.13,36.76,6.67,76.39,9.5,112.55-.2,55.2-14.82,119.06,14.24,168.87-13.8,9-17.22-67.58-20.29-81.72-23.45A484.87,484.87,0,0,0,2930.91,2587.87Z"/></g><path class="cls-54" d="M2899.63,2007.89c-.59,70.24-.64,142.48,7.17,211.62q17.57,155.58,46.82,309.26c.86,4.55,1.72,9.43.16,13.73-1.85,5.13-6.59,8-10.21,11.8s-6.22,10.41-3,14.63l55.77,1.92c3.7.13,7.9,0,10.4-3,2-2.35,2.28-5.83,2.45-9,.36-6.74.45-13.5.55-20.26l2.47-176,.85-61c.25-17.66.5-35.36-.68-53-3.94-58.64,15.07-122.4,29.77-178.45,15.69-59.8,32.91-120,35.88-182.74,1.48-31.37-7.24-64.55-3.64-94.86,2.4-20.19,4.8-40.56,3.16-60.87-1.22-15-4.38-43.37-20-48.1-14.51-4.39-39.7,2.86-54.73,4-5.94.43-12,.89-17.6,3-53.7,19.7-63.8,60-72.18,111.12-9.43,57.55-12.69,116-13.17,174.21Q2899.79,1991.74,2899.63,2007.89Z"/><path class="cls-55" d="M2906.8,2219.51q6.49,57.49,14.59,114.8,5.63,39.77,12,79.42,3.2,19.82,6.58,39.6,1.7,9.89,3.44,19.77c.79,4.49,1.14,9.3,1.51,13.59,2.49-.72,3.41-2.67,3.46-5.34,0-51.22,1.87-102.51,2.81-153.73.87-47.8-5.89-103.49,6.34-149.66,13.65-51.53,59.64-79.37,86.48-122.37,12.88-20.64,15.62-51.62,20.84-75.57,6.65-30.52,11.73-61.44,13.21-92.67s-7.24-64.55-3.64-94.86c2.4-20.19,4.8-40.56,3.16-60.87-1.22-15-4.38-43.37-20-48.1-14.51-4.39-39.7,2.86-54.73,4-5.94.43-12,.89-17.6,3-53.7,19.7-63.8,60-72.18,111.12-9.43,57.55-12.69,116-13.17,174.21q-.14,16-.29,32.11C2899,2078.13,2899,2150.37,2906.8,2219.51Z"/><path class="cls-56" d="M3006.36,2539.74l-12.34,11c-1.55,1.39-3.19,2.83-5.18,3.32-2.32.58-4.73-.21-6.93-1.16-8.59-3.72-16.24-10-25.37-11.87-7.29-1.46-14.88.12-21.77,3s-13.24,7-19.67,10.91c-13,7.87-64.37,20.85-46,45.55,6.73,9.05,19.37,8,28.76,7.28l85.67-6.23c8.54-.62,26.26,1.64,33.76-3,10.78-6.63,2.94-30.93,2.51-41-.21-5,1.52-15.67-1.1-19.91C3015.49,2532.53,3009.56,2536.88,3006.36,2539.74Z"/><path class="cls-57" d="M3047.59,1102.91a33.2,33.2,0,0,1-18-2.83,60.78,60.78,0,0,0-24.12-5.53c-14.72-.06-28,6.7-38.11,17.15-21.74,22.47-29.94,58.35-25.88,88.71,4.2,31.39,40.09,37.51,53,63.12,18.94,37.56-13.92,86-27.3,120.42-21.17,54.53-25,114.33-22.32,172.76,1.11,24.07,3.32,48.29,10.25,71.37,5.29,17.58,13.44,34.54,25.2,48.73,11.91,14.37,28.94,22,46.87,26.69,16.86,4.42,34.52,4.45,52,4.45,23.94,0,48.68-.15,70.62-9.73,49.57-21.65,86.65-78.54,91.7-131.27,6.76-70.51-31.66-140.9-51.58-206.75-23-76-54.25-149.36-76.6-225.67-6.4-21.84-30.28-37-52.78-33.58C3055.6,1101.7,3051.49,1102.52,3047.59,1102.91Z"/><path class="cls-58" d="M3049,1122.78c-4.78.33-9.6.68-14.18-.13-11.92-2.11-20.86-11.75-31.43-17.65-47.51-26.54-65.75,66.4-61.87,95.41,4.2,31.39,40.09,37.51,53,63.12,18.94,37.56-13.92,86-27.3,120.42-21.17,54.53-25,114.33-22.32,172.76,1.11,24.07,3.32,48.29,10.25,71.37,5.29,17.58,13.44,34.54,25.2,48.73,11.91,14.37,28.94,22,46.87,26.69,16.86,4.42,34.52,4.45,52,4.45,23.94,0,48.68-.15,70.62-9.73,11.86-5.18,30.11-13.63,36.31-25.89,6.75-13.35,3.74-35.57,3.86-50a637.71,637.71,0,0,0-10.47-120.69c-4-21.57-9-42.91-14.1-64.24q-18.42-77.55-37.09-155c-12-49.58-24.5-99.74-48.91-144.54-2.48-4.54-5.23-9.19-9.55-12C3063.75,1121.76,3056.42,1122.25,3049,1122.78Z"/><path class="cls-54" d="M2705.79,1118.34a23,23,0,0,0-3.4,5.12,146.21,146.21,0,0,0-12.83,33.76l4.17-17.15,2.09-8.57c.51-2.13,2.2-5.7,1.52-7.87a3.32,3.32,0,0,0-1.29-1.57c-3.13-2.28-7.7-2.23-11.31-.61a21.7,21.7,0,0,0-8.61,7.73c-8,11.5-9.39,25.9-9.71,39.59a175.58,175.58,0,0,0,.95,25.54,60.75,60.75,0,0,0,4.88,18.65c2.27,4.82,5.89,10.36,10.75,13.2,4.3,2.51,13.59-2.84,18.65-4.07,7.12-1.74,17.51-.67,22.53-6,7.08-7.6,10.2-18.68,14.49-27.78,4.11-8.71,9.77-16.55,14.94-24.68,1.45-2.28,2.87-4.59,4.19-6.94a7.59,7.59,0,0,0,1.3-3.77c-.06-2.67-3-4.62-5.82-4.64s-5.45,1.37-7.79,2.88a54.41,54.41,0,0,0-14.06,13.15c-1,1.35-2.65,2.94-4.16,2.15-.28-.15,7.09-19.09,7.63-20.71,2.28-6.8,4.56-13.64,5.46-20.71.67-5.25-2.67-9.6-8.75-9.16-7.27.53-11.52,6.55-14.18,12.29-4.72,10.19-8.36,20.77-12,31.33l7.69-21L2717,1128c1.23-3.38,4.15-10.83-1.34-12.44a10.23,10.23,0,0,0-9.29,2.28Z"/><path class="cls-51" d="M2797.9,1402.77a78.56,78.56,0,0,1-37.18-15.54c-20.63-15.78-26.88-37.62-28.4-61.76-1.89-30.25-2.44-60,1.37-90.28,1.07-8.45,2.33-17.36-1.11-25.15-5.68-12.86-27.94-13.35-40.88-13.1-16.79.33-26.36,8.32-31.36,23.6-16.52,50.45-23.28,106.7-15.24,158.87,11.8,76.52,70,136.72,154.7,137.26,74.48.47,147.53-23.61,204-72.48,19.47-16.85,40.43-41.81,29.08-68.12-9-20.77-31.79-23.86-53-20.85C2926.3,1362.84,2856,1411.19,2797.9,1402.77Z"/><g class="cls-59"><path class="cls-50" d="M2797.9,1402.77a78.56,78.56,0,0,1-37.18-15.54c-20.63-15.78-26.88-37.62-28.4-61.76-1.89-30.25-2.44-60,1.37-90.28,1.07-8.45,2.33-17.35-1.11-25.15-5-11.44-15.6-14.62-25.62-7-11.84,9-15.22,25.93-17.34,39.76a349.11,349.11,0,0,0,2.08,116.88c7.28,37.54,25.18,80.48,62.5,96.3,34,14.41,73,3.52,107.67-9.08a1195.44,1195.44,0,0,0,113.94-48.18c9.06-4.4,18.31-9.09,25-16.63,20.4-23,.61-29.95-20.93-26.89C2926.3,1362.84,2856,1411.19,2797.9,1402.77Z"/></g><path class="cls-12" d="M3082.81,1239.5a13.19,13.19,0,0,1,.86-1.15c1.7-2.09,3.85-3.94,5.27-6.15,3.4-5.29,6.7-10.83,8.1-17.06s.6-13.34-3.46-18.13-10.93-6.46-17-5.14c-14.44,3.15-28.31-7.22-38.39-17a167,167,0,0,1-18.55-21.94c-4.24-5.9-8.22-14-16-15-12.44-1.5-20.17,24-23.29,33.37-9.27,27.9-14.65,64.36-2.9,92.27,2.74,6.51,6.74,12.77,12.1,17.18,4.66,3.83,9.75,4.61,15.54,5.21,17.55,1.82,6.41,38.22,4,47.37-5.46,20.4-18.85,43-13.23,64.6.78,3,2.33,6.22,5.19,7a9.47,9.47,0,0,0,3.93,0l10.57-1.57a137.83,137.83,0,0,0,18.34-3.57,72.66,72.66,0,0,0,40.29-30.41c8-12.42,15.26-32.1,11.79-47.38-3.76-16.53-3.33-33.71-3.94-50.79q-.42-12-.85-23.91C3081.07,1244,3081.16,1242,3082.81,1239.5Z"/><g class="cls-7"><path class="cls-60" d="M3047.06,1276.68l-.56.17c-6.3,2.12-12.56,4.4-19.05,5.89-6.34,1.45-13.47.52-19.6,2.67.2,3.35,5.29,5.69,6.25,9.24,1.14,4.2.86,8.75.45,13-.83,8.75-3.18,17.21-5.45,25.67-5.46,20.4-18.85,43-13.23,64.6.78,3,2.33,6.22,5.19,7a9.47,9.47,0,0,0,3.93,0l10.57-1.57a137.83,137.83,0,0,0,18.34-3.57c8.92-2.59,23-6.72,22.74-18.31-.18-7-4.78-11.45-8.9-16.66-4.27-5.4-8.56-10.87-11.54-17.12-8.72-18.34-3-36.85,6-53.73,1.46-2.74,10.26-13.62,8.44-16.58C3050,1276.28,3048.41,1276.33,3047.06,1276.68Z"/></g><path class="cls-61" d="M3090.77,1204.92c-2.7-.14-5.55-.25-7.94,1.08-4,2.27-5.3,7.8-5.26,12.65,0,2.82.8,6.24,3.37,7s5.7-1.17,7.24-3.42a6,6,0,0,0,1.17-4.22c-.31-1.81-2.14-2.62-3.63-3.28-2.57-1.14-5.87-.93-7.78,1.22"/><path class="cls-12" d="M3157.87,2165.36c-6.43,23.72-12.93,47.42-16.16,71.87-6,45.69,2.65,91.78,2.6,137.9q-.12,96.47-6.38,192.78c-.9,13.87-3.26,30.06-14.86,36.61-5,2.85-11,3.24-16.66,3.47a491.08,491.08,0,0,1-88.62-4.48c4.13-14.31,19.65-20.46,33.13-25s28.88-11.8,31.65-26.47c3.79-20.07-4.37-44.56-7.7-64.33q-6.36-37.91-13.09-75.75c-11.45-64.46-27.31-128.8-33.31-194q-9.09-98.73-14.53-197.9c-1.56-24.77-28.46-295.08-13-297.21a1111.37,1111.37,0,0,1,130.63-10.24c19.68-.38,46.14-1.25,57.67,18.7,6.42,11.11,8,24.45,9.27,37.36,6.58,68.76,4.31,138-4.3,206.48-5.73,45.55-15,89.94-23.06,134.92C3167.76,2128.75,3162.83,2147.06,3157.87,2165.36Z"/><g class="cls-62"><path class="cls-60" d="M3074.87,2487.69q-6.36-37.91-13.09-75.75c-11.45-64.46-27.31-128.8-33.31-194q-9.09-98.73-14.53-197.9c-1.56-24.77-28.46-295.08-13-297.21a1111.37,1111.37,0,0,1,130.63-10.24c19.68-.38,46.14-1.25,57.67,18.7,6.42,11.11,8,24.45,9.27,37.36,5.59,58.42,14.4,137.55-4.74,193.8-16.43,48.25-48.06,89.07-69.55,134.91-38.17,81.42-57,164.38-49.76,254.49,2.11,26.05,2,52.2,2.78,78.31.41,13.39,1,26.79,2.32,40.13,1.14,11.67,5.54,24.85,4.23,36.55C3077.13,2509.36,3075.53,2491.58,3074.87,2487.69Z"/></g><path class="cls-63" d="M3135.69,2563.42l-13.7,9c-1.73,1.14-3.55,2.31-5.59,2.5-2.37.22-4.65-.93-6.7-2.21-8-5-14.71-12.39-23.49-15.59-7-2.55-14.74-2.13-22-.32s-14.05,4.94-20.94,7.82c-16.82,7-51.19,8.8-51.1,34.88,0,3.82,1.11,7.76,3.65,10.49,4.94,5.31,16.67,3.77,23.21,4.29l85.63,6.83c8.53.68,25.76,5.6,33.81,2.17,11.57-4.93,7.11-30.17,8-40.16.46-5,3.62-15.28,1.6-19.88C3145.7,2557.67,3139.24,2561.08,3135.69,2563.42Z"/><path class="cls-63" d="M3075.66,2098.17c41.09-.46,82.4-3.71,122.52-13,35.79-8.27,23.33-45.37,18.65-72.69-4.38-25.53-9-51-14.22-76.41-10.47-50.57-23.58-100.74-42.59-148.83-11.9-30.12-30.52-72.73-63.41-85.18-21.25-8-44.86,1.13-67.67,2.25-27.4,1.35-66.91-14.21-91,3.38-17.92,13.07-17.89,57.11-22.54,77.63-16.2,71.5-33.56,142-40,215.09l-5.89,67.15c-.55,6.2-.92,13,2.78,18a15.74,15.74,0,0,0,7,5.11,45,45,0,0,0,11.83,2.46C2952.35,2099.54,3014.09,2098.86,3075.66,2098.17Z"/><path class="cls-64" d="M3007.22,2068.67c16.86-40.35,27.14-82.65,45.88-122.52a689.86,689.86,0,0,1,44.27-79.92c13.76-21.34,28.65-40.92,37.33-65,14.84-41.19,5.91-82.46-38.09-99.11-21.25-8-44.86,1.13-67.67,2.25-27.4,1.35-66.91-14.21-91,3.38-17.92,13.07-17.89,57.11-22.54,77.63-16.2,71.5-33.56,142-40,215.09l-5.89,67.15c-.55,6.2-.92,13,2.78,18,4.85,6.52,13.64,6.9,21,7,19.45.16,38.81,2.35,58.22,3.33,9.78.49,19.73,2.22,29.51.74,13-2,17.62-8.95,22.81-20.23C3005,2073.83,3006.14,2071.26,3007.22,2068.67Z"/><path d="M2965.07,1743.89c-5.81,0-11.66-.09-17.45-.39-1.61-.08-3.4-.13-5.3-.19-9.81-.27-22-.61-29.1-5.75l-1-.73.51-1.12c1.8-3.87,1.12-10.5.53-16.35-.24-2.37-.47-4.6-.51-6.49-.1-4.27.21-8.58,3.11-11.19a10.63,10.63,0,0,1,5.15-2.22c15.95-3.29,32-.2,47.59,2.78,6.68,1.27,13.58,2.6,20.35,3.39a179.25,179.25,0,0,0,38.41-.09l2.08-.21c6-.61,12.26-1.25,18.36-.11,3.13.58,10.84,2.58,14.87,8.46a14.11,14.11,0,0,1,1.56,3,40.82,40.82,0,0,1,2,8.83,48.7,48.7,0,0,0,1.38,6.94l.2.67-.38.59c-3.62,5.56-10.83,6.09-14.71,6.38-22.68,1.67-46.14,3.4-69.43,3.64l-5.06.06C2973.89,1743.84,2969.49,1743.89,2965.07,1743.89Zm-49.13-8.12c6.55,4,18,4.31,26.46,4.54,1.93.06,3.74.11,5.37.19,10.11.53,20.43.41,30.42.29l5.06-.06c23.19-.24,46.6-2,69.24-3.63,4.43-.33,9.33-1,12-4.48a58.61,58.61,0,0,1-1.27-6.67,38.34,38.34,0,0,0-1.8-8.18h0a12.26,12.26,0,0,0-1.24-2.4c-2.36-3.43-7.2-6.13-12.95-7.2s-11.69-.45-17.51.15l-2.08.21a182.66,182.66,0,0,1-39.06.08c-6.88-.81-13.83-2.14-20.56-3.43-15.27-2.92-31.06-6-46.42-2.78a7.88,7.88,0,0,0-3.75,1.52c-2,1.79-2.21,5.33-2.13,8.88.05,1.78.27,4,.5,6.25C2916.83,1724.77,2917.49,1731.18,2915.94,1735.77Z"/><path class="cls-65" d="M3156.91,1354.51l-1-.9c-6.3-5.57-14-9.35-21.87-12.27a126.78,126.78,0,0,0-26.5-6.68c-12.61-1.75-25.53-.92-37.31,4.19-11.13,4.83-18.6,15.42-29,21.76-11,6.73-25.88,9.75-36.5,2.42-4-2.73-7.34-6.84-12.09-7.52-7.24-1-12.68,6.23-16.2,12.63a477.22,477.22,0,0,0-34.13,77.92c-4.42,13.17-8.42,26.57-11.53,40.12-2.74,11.94,1.09,23.55,3.93,35.4,5.3,22.06,12.15,44.21,11.83,67.12-.25,18.62-5.33,36.78-9.34,55q-3.87,17.55-6.45,35.36c-1.49,10.27-2.62,21,.55,30.84s11.76,18.74,22.14,19c8.34.21,16.48-4.18,24.63-5.58,8-1.36,15.81-1.2,23.92-1l59.2,1.48c23.18.59,78.81,13.64,99-.25s-1.76-73.83-2.19-96.33c-.4-21.13,1.18-42.2,3.59-63.17,1.93-16.7,4.39-33.34,6.8-49.91,4.23-29,11-57.77,11.44-87.16C3180.23,1402.57,3175.8,1372.12,3156.91,1354.51Z"/><path class="cls-66" d="M3023.28,1417.19c-.56-1.17-1.11-2.34-1.65-3.52-5.16-11.36-10.18-22.79-14.73-34.41-2.72-7-5.47-20-12.85-23.5-7.56-3.53-14.7,7.19-17.56,12.38a477.22,477.22,0,0,0-34.13,77.92c-4.42,13.17-8.42,26.57-11.53,40.12-2.74,11.94,1.09,23.55,3.93,35.4,5.3,22.06,12.15,44.21,11.83,67.12-.25,18.62-5.33,36.78-9.34,55q-3.87,17.55-6.45,35.36c-1.49,10.27-2.62,21,.55,30.84s11.76,18.74,22.14,19c8.34.21,16.48-4.18,24.63-5.58,8-1.36,15.81-1.2,23.92-1l59.2,1.48c23.18.59,78.81,13.64,99-.25s-1.76-73.83-2.19-96.33c-.37-19.46,1-35.56-7.84-53.79a143,143,0,0,0-31-41.29C3083.16,1498.63,3044.84,1462.08,3023.28,1417.19Z"/><path class="cls-67" d="M2870,1975a24.46,24.46,0,0,0,5.52,1c20.28,1.71,43.14,3.22,62.3-5,23.2-9.94,25.72-32.51,26.38-55.31,1.82-62.4,10.85-124.2,15.18-186.41,6.72-96.68,3.58-193.24,4.2-290,.17-26.89,9.68-54,17.74-79.51,2-6.29,5.05-15.2-1.4-18.71-5.84-3.18-15.5,1.28-19.9,5.07-6.73,5.79-9,13.51-13.35,20.84-4.62,7.76-10.49,15-15.32,22.7-10.2,16.23-19.38,33.22-25.55,51.42-6,17.81-9,36.94-7.17,55.73,1.83,18.3,8.72,35.91,11.76,54.15,6.38,38.22,9.73,76.89,5.09,115.52-7.86,65.56-30.16,127.51-47.56,190.75q-14.1,51.22-23.57,103.56c-.7,3.87-1.26,8.28,1.17,11.37A9,9,0,0,0,2870,1975Z"/><path class="cls-50" d="M3186.34,1394.9a157.08,157.08,0,0,1,3.09,23.37c4.17,64.91-12.11,128.64-6.34,194,4.55,51.49,20.21,101.16,29.37,151.88a1056.11,1056.11,0,0,1,15.33,131.51c1.52,28.36,3.63,64.17-26.55,78.57-10.62,5.07-22.5,6.74-34.2,8.07a739.57,739.57,0,0,1-96,4.65c-20-.34-45.88-.88-45.8-26.16.17-60.3.84-120.61.84-180.92.21-43.07,3.56-87.67-1.24-130.33-4.79-42.48-7.43-85.31-5.89-128.06a551,551,0,0,1,5.89-64.25c2.92-18.92,10.25-37.78,16.6-55.94,6.84-19.59,15.07-38.82,26.43-56.24,5.57-8.52,12.53-17,22.32-19.84,30.13-8.59,75.92,22.06,88.78,48.17A94.2,94.2,0,0,1,3186.34,1394.9Z"/><path class="cls-68" d="M3097.4,1391.53q-1,2-2.1,4c-6.22,11.51-14.31,23.23-26.68,27.47-2.46.85-5.09,1.39-7.26,2.83s-3.8,4.15-3,6.63c.5,1.59,1.85,2.73,3,3.91,10.51,10.61,7,27.63,3.72,40.55-12.39,49.27-46.51,87.23-60,136.13-1.29,4.65-2.47,9.58-5.14,13.22-13.24,18-7.22-34.73-6.47-41.5,2.5-22.47,6.88-44.71,11.38-66.85,9.68-47.67,20.09-95.68,37-140.81,6.15-16.42,11.39-34.72,23-48.26,8.38-9.79,21.29-16.71,34-14.47a45.23,45.23,0,0,1,12.28,4.46c2.57,1.29,5.17,2.72,7,5,4.79,6,2.17,14.71-.65,21.82C3111.25,1361.13,3105.06,1376.7,3097.4,1391.53Z"/><path class="cls-68" d="M2956.74,1397.44a43,43,0,0,0,1.12,11c1.63,6.81,5.08,13.22,5.55,20.21.68,9.89-4.65,19.06-7.66,28.51-10.42,32.74,7.59,65.93,12.36,98a195.79,195.79,0,0,1,2.3,31.25c-.07,4.49-1.5,17.89,6.26,17.61,4.36-.16,5.71-5.92,5.78-10.28,1.41-80,.12-159,19.76-237.18,1.11-4.44,2.27-9.22.62-13.5-5.93-15.36-25,3.34-29.81,10.12C2964.56,1365.13,2957.06,1381.85,2956.74,1397.44Z"/><path class="cls-69" d="M3120.32,1786.5c1.76,4.88,3.33,11-.05,14.83-2.51,2.84-6.65,3-10.33,3q-77.83-1.12-155.39-9.16c-3-.31-6.14-.68-8.65-2.44-3.14-2.19-4.72-6.1-6.12-9.79q-23.15-60.6-46.28-121.21c-13.09-34.28-26.27-68.9-32.05-105.36-.25-1.59-.44-3.38.49-4.64,1-1.41,3-1.53,4.66-1.53h125.83c10.14,0,24.91-3,34.54.93,8.54,3.52,10.61,13.11,13.79,21.43q7.88,20.54,15.63,41.11,15.34,40.58,30.42,81.28Q3103.73,1740.64,3120.32,1786.5Z"/><path class="cls-70" d="M3114.81,1792.32c1.77,4.88,3.33,11,0,14.83-2.51,2.84-6.66,3-10.33,2.94q-77.83-1.11-155.39-9.16c-3-.31-6.14-.67-8.66-2.43-3.13-2.19-4.71-6.1-6.12-9.79L2888,1667.5c-13.09-34.28-26.27-68.9-32.05-105.37-.25-1.58-.44-3.37.49-4.63,1-1.41,3-1.53,4.66-1.53h125.82c10.14,0,24.92-3,34.54.93,8.55,3.51,10.62,13.11,13.8,21.42q7.86,20.54,15.63,41.12,15.34,40.57,30.41,81.28Q3098.24,1746.46,3114.81,1792.32Z"/><path class="cls-71" d="M3104.42,1792.37c1.76,4.88,3.33,11-.05,14.83-2.51,2.84-6.65,3-10.33,3q-77.84-1.12-155.39-9.16c-3-.31-6.14-.68-8.65-2.44-3.14-2.19-4.72-6.1-6.12-9.78q-23.15-60.62-46.28-121.21c-13.09-34.29-26.27-68.91-32-105.37-.25-1.58-.44-3.37.49-4.64s3-1.53,4.66-1.53h125.83c10.14,0,24.91-3,34.54.94,8.54,3.51,10.61,13.1,13.79,21.42q7.88,20.53,15.63,41.11,15.35,40.59,30.42,81.28Q3087.83,1746.51,3104.42,1792.37Z"/><path class="cls-57" d="M3102.19,1798.16c1.76,4.89,3.33,11-.05,14.83-2.51,2.85-6.65,3-10.33,3q-77.83-1.12-155.39-9.16c-3-.31-6.14-.68-8.66-2.43-3.13-2.2-4.71-6.11-6.11-9.79q-23.15-60.6-46.28-121.21c-13.09-34.29-26.27-68.91-32-105.37-.25-1.58-.44-3.37.49-4.64s3-1.53,4.66-1.53l83.5,0h42.33c10.14,0,24.91-3,34.54.94,8.54,3.51,10.61,13.11,13.79,21.42q7.88,20.54,15.63,41.11,15.34,40.59,30.42,81.29Q3085.6,1752.3,3102.19,1798.16Z"/><path class="cls-12" d="M2844.66,1655a24.17,24.17,0,0,0,4.85,4.23,153.49,153.49,0,0,0,33.31,18l-17.24-6.7-8.63-3.35c-2.13-.83-5.61-3.07-7.95-2.67a3.39,3.39,0,0,0-1.81,1.13c-2.8,2.94-3.38,7.69-2.2,11.67s3.87,7.28,6.85,10c10.84,9.92,25.61,13.31,39.79,15.53a185,185,0,0,0,26.66,2.53,63.75,63.75,0,0,0,20.05-2.5c5.32-1.7,11.57-4.7,15.19-9.35,3.21-4.12-1.08-14.51-1.66-19.93-.82-7.64,1.72-18.29-3.18-24.24-6.93-8.4-18-13.17-26.86-18.88-8.49-5.46-15.85-12.43-23.59-18.92-2.17-1.82-4.37-3.61-6.63-5.31a8,8,0,0,0-3.74-1.87c-2.78-.3-5.21,2.48-5.62,5.41s.67,5.85,1.92,8.49a57.08,57.08,0,0,0,11.72,16.41c1.27,1.23,2.69,3.16,1.67,4.62-.2.27-18.86-10-20.47-10.78-6.75-3.3-13.55-6.61-20.76-8.52-5.37-1.41-10.34,1.46-10.72,7.83-.46,7.62,5.21,12.87,10.81,16.42,9.93,6.31,20.43,11.55,30.9,16.78l-20.76-10.88-10.38-5.44c-3.34-1.75-10.68-5.8-13.11-.32a10.74,10.74,0,0,0,1.09,10Z"/><path class="cls-51" d="M3152.83,1598.48a82.34,82.34,0,0,1-21.26,36.48c-19.24,19.26-42.8,22.75-68.07,21-31.7-2.19-62.7-5.73-93.61-13.85-8.63-2.27-17.71-4.81-26.28-2.31-14.14,4.14-17.72,27.19-19.24,40.67-2,17.49,5,28.53,20.2,35.82,50.14,24.12,107.64,38.89,162.95,37.71,81.11-1.72,151.68-53.92,163.89-141.81,10.75-77.31-4.21-156.51-47.21-221.89-14.82-22.55-37.87-47.76-66.76-39.58-22.82,6.45-29.17,29.73-29,52.16C3129,1459.6,3169.57,1539.31,3152.83,1598.48Z"/><path class="cls-58" d="M3012.37,1204.43a5.07,5.07,0,0,0-5.49-.84,5.45,5.45,0,0,0-2.87,6.23c.45,2.4,2,4.27,4.44,4.43A5.53,5.53,0,0,0,3012.37,1204.43Z"/><path class="cls-58" d="M3008.84,1215.26l-.46,0c-2.72-.17-4.77-2.17-5.36-5.23a6.47,6.47,0,0,1,3.46-7.34,6.08,6.08,0,0,1,6.56,1,6.53,6.53,0,0,1-4.2,11.58Zm.19-11.13a4.42,4.42,0,0,0-1.75.38,4.48,4.48,0,0,0-2.29,5.12c.32,1.66,1.41,3.48,3.52,3.62a4.5,4.5,0,0,0,4.58-2.77,4.59,4.59,0,0,0-1.38-5.3h0A4,4,0,0,0,3009,1204.13Z"/><path class="cls-58" d="M2978.64,1201.92a5.09,5.09,0,0,0-5.5-.84,5.46,5.46,0,0,0-2.87,6.23c.46,2.4,2,4.27,4.44,4.43A5.53,5.53,0,0,0,2978.64,1201.92Z"/><path class="cls-58" d="M2975.11,1212.75h-.47c-2.71-.18-4.77-2.18-5.35-5.24a6.46,6.46,0,0,1,3.46-7.34,6.07,6.07,0,0,1,6.55,1,6.52,6.52,0,0,1-4.19,11.58Zm.18-11.13a4.42,4.42,0,0,0-1.75.38,4.49,4.49,0,0,0-2.29,5.13c.32,1.65,1.41,3.47,3.52,3.61a4.5,4.5,0,0,0,4.58-2.77,4.6,4.6,0,0,0-1.37-5.3h0A4.06,4.06,0,0,0,2975.29,1201.62Z"/><path class="cls-58" d="M3020.69,1194.69l-.14-.14c-2.91-2.72-7.42-4-11.22-4.25-5.48-.37-11.21,2.15-11.52,8.61a1.34,1.34,0,0,0,.09.69,1.1,1.1,0,0,0,.85.55c1.92.31,4.17-2.19,6-2.81a12.82,12.82,0,0,1,9.62.4c2.19,1.07,3.95,3.41,6.63,2.66C3024.33,1199.47,3022.28,1196.24,3020.69,1194.69Z"/><path class="cls-58" d="M3020,1201.55a7.6,7.6,0,0,1-4.3-1.82,12.33,12.33,0,0,0-1.73-1.09,11.9,11.9,0,0,0-8.85-.36,10.47,10.47,0,0,0-2,1.16c-1.36.92-2.9,2-4.48,1.69a2.08,2.08,0,0,1-1.6-1.1,2.37,2.37,0,0,1-.18-1.17,9.37,9.37,0,0,1,3.07-6.74,13,13,0,0,1,9.51-2.82c4.72.32,9.15,2,11.84,4.52l.16.15c.49.48,2.89,3,2.31,5.23a3.08,3.08,0,0,1-2.42,2.17A5.21,5.21,0,0,1,3020,1201.55Zm-10.76-6a12.8,12.8,0,0,1,5.61,1.25,15,15,0,0,1,2,1.25c1.54,1.09,2.56,1.73,3.91,1.35.61-.17.95-.42,1-.74.19-.71-.57-2.13-1.77-3.3l-.12-.12c-2.37-2.21-6.34-3.7-10.61-4a11,11,0,0,0-8.05,2.31,7.32,7.32,0,0,0-2.4,5.35,1.31,1.31,0,0,0,0,.17l.11,0c.8.13,2-.67,3.05-1.38a11.42,11.42,0,0,1,2.48-1.39A15,15,0,0,1,3009.21,1195.59Z"/><path class="cls-58" d="M2983.3,1197.27a6.32,6.32,0,0,0-.42-1.2c-1.1-2.48-2.84-4.87-5.35-5.57s-5.2.43-7.2,2.2a8.24,8.24,0,0,0-2.79,4.46.77.77,0,0,0,0,.54.7.7,0,0,0,.52.3,6,6,0,0,0,3.21-.88c2.92-1.32,7.29.1,9.72,1.94a1.94,1.94,0,0,0,.9.46c.69.09,1.31-.61,1.42-1.34A2.77,2.77,0,0,0,2983.3,1197.27Z"/><path class="cls-58" d="M2982,1200.53h-.25a2.93,2.93,0,0,1-1.37-.66c-2.29-1.73-6.27-2.93-8.71-1.83l-.36.16a5.79,5.79,0,0,1-3.42.79,1.61,1.61,0,0,1-1.25-.81,1.78,1.78,0,0,1-.12-1.2,9.19,9.19,0,0,1,3.11-5c2.52-2.24,5.56-3.14,8.13-2.42,3.1.88,5,3.82,6,6.13a8,8,0,0,1,.48,1.41h0a3.53,3.53,0,0,1,0,1.25A2.5,2.5,0,0,1,2982,1200.53Zm-8.09-4.92a13.64,13.64,0,0,1,7.68,2.65,1.35,1.35,0,0,0,.42.27.76.76,0,0,0,.3-.5,1.83,1.83,0,0,0,0-.56h0a5.64,5.64,0,0,0-.35-1c-.85-1.92-2.36-4.35-4.71-5-1.91-.54-4.26.2-6.27,2a7.63,7.63,0,0,0-2.39,3.57,5.94,5.94,0,0,0,1.92-.64l.37-.17A7.4,7.4,0,0,1,2974,1195.61Z"/><g class="cls-7"><circle class="cls-60" cx="3027.46" cy="1230.56" r="17.53"/></g><g class="cls-72"><path class="cls-73" d="M2980.71,1225.11c-1.16,1.85-2.55,4.45-.81,6.42a6.09,6.09,0,0,0,4.37,1.55c2.76.12,5.06-.41,5.1-3.44.06-3.87-.08-7.75-.39-11.62-.18-2.24-.85-3.41-2.72-1.64C2983.74,1218.74,2982.5,1222.23,2980.71,1225.11Z"/></g><g class="cls-72"><path class="cls-73" d="M2983.64,1242.23a10.63,10.63,0,0,0,4.59-.8c1.28-.54,3.43-2.23,4.81-1.19,2.71,2.06-1.87,4.28-3.48,4.77-3.86,1.16-8.37,1.19-11.72-1.3a2.88,2.88,0,0,1-1-1.1c-1.65-3.62,4.84-.62,5.6-.5A8.13,8.13,0,0,0,2983.64,1242.23Z"/></g></svg>