<svg xmlns="http://www.w3.org/2000/svg" viewBox="0 0 670.82 157.23"><defs><style>.cls-1{fill:#fff;}</style></defs><title>logo-white</title><g id="Layer_2" data-name="Layer 2"><g id="Layer_1-2" data-name="Layer 1"><polygon class="cls-1" points="195.4 123.22 195.56 91.51 110.95 5.63 105.41 0 73.42 0 73.64 31.69 163.98 123.08 195.4 123.22"/><polygon class="cls-1" points="234.3 87.46 234.46 55.6 179.4 0 147.55 0 147.64 31.69 202.66 87.3 234.3 87.46"/><polygon class="cls-1" points="124.56 157.14 156.14 157.23 156.07 125.29 32.1 0 0 0 0.04 31.74 124.56 157.14"/><path class="cls-1" d="M320.48,114q-22.82,0-36.22-13.79T270.84,61.38q0-24.1,13.45-38.44T320.55,8.61a79.19,79.19,0,0,1,10.89.68,72.89,72.89,0,0,1,9.26,1.91A65.37,65.37,0,0,1,348.26,14q4.1,1.77,6.61,3.06V41.23h-2.59q-1.84-1.63-4.63-3.92a57.89,57.89,0,0,0-6.33-4.46,42.23,42.23,0,0,0-7.8-3.71,26.09,26.09,0,0,0-8.89-1.53,28.61,28.61,0,0,0-10.11,1.73,24.29,24.29,0,0,0-8.75,6,28.9,28.9,0,0,0-6.23,10.49,45.39,45.39,0,0,0-2.42,15.59,43.82,43.82,0,0,0,2.52,15.9,28.8,28.8,0,0,0,6.61,10.38,24.09,24.09,0,0,0,8.82,5.52,29.33,29.33,0,0,0,9.7,1.7,27.77,27.77,0,0,0,9.6-1.67,38.15,38.15,0,0,0,7.7-3.71,53,53,0,0,0,6-4.29q2.58-2.18,4.49-3.88h2.32v23.83c-1.87.86-4,1.85-6.47,3a57.71,57.71,0,0,1-7.56,2.83,82.64,82.64,0,0,1-8.92,2.18A67.8,67.8,0,0,1,320.48,114Z"/><path class="cls-1" d="M451.07,106.18a125.63,125.63,0,0,1-17.33,5.32,89.12,89.12,0,0,1-21,2.58q-23.89,0-38.1-13.79T360.44,61.18q0-23.83,14.19-38.2T413.48,8.61q12.74,0,20.7,2.42a111.61,111.61,0,0,1,16.48,6.57V41.36h-2.32q-1.83-1.43-5.28-4a58.06,58.06,0,0,0-6.7-4.46,44.65,44.65,0,0,0-8.82-3.74A35.11,35.11,0,0,0,417,27.54a33.3,33.3,0,0,0-11.91,2,27,27,0,0,0-9.61,6.27,29,29,0,0,0-6.36,10.35,41.27,41.27,0,0,0-2.35,14.57q0,17.77,8.92,26.21T420,95.43c.9,0,2,0,3.2-.07s2.29-.11,3.2-.21V75.27H406.74v-19h44.33Z"/><path class="cls-1" d="M488.71,114.08a66.84,66.84,0,0,1-16-1.84A59.9,59.9,0,0,1,460.31,108V87.8h2c1.13.86,2.42,1.82,3.88,2.86a33.84,33.84,0,0,0,6.06,3.27,45.73,45.73,0,0,0,7.52,2.69,34.93,34.93,0,0,0,9.09,1.12,23.55,23.55,0,0,0,8.89-1.56c2.56-1.05,3.85-2.71,3.85-5a4.73,4.73,0,0,0-1.78-4q-1.77-1.36-6.87-2.59-2.73-.67-6.88-1.46a63.79,63.79,0,0,1-7.35-1.81q-9-2.79-13.52-8.27t-4.53-14.4A20.71,20.71,0,0,1,463,49,24.6,24.6,0,0,1,469.91,41a35.59,35.59,0,0,1,11.27-5.51,52,52,0,0,1,15.15-2A63.82,63.82,0,0,1,511.11,35a55.37,55.37,0,0,1,11.37,3.84V58.18h-1.91a39.67,39.67,0,0,0-3.88-2.55,51.51,51.51,0,0,0-5.17-2.76,36.91,36.91,0,0,0-6.71-2.25,32.68,32.68,0,0,0-7.59-.88,19.58,19.58,0,0,0-8.75,1.77c-2.39,1.18-3.58,2.74-3.58,4.7a5.07,5.07,0,0,0,1.77,4.08q1.77,1.5,7.7,2.93,3.06.75,7.05,1.46a56.84,56.84,0,0,1,7.66,1.94q8.23,2.66,12.49,7.8t4.26,13.65a22,22,0,0,1-2.52,10.25,23.22,23.22,0,0,1-7.15,8.21,37.42,37.42,0,0,1-11.54,5.58A56.5,56.5,0,0,1,488.71,114.08Z"/><path class="cls-1" d="M604.72,112H580.89v-8.44a64.82,64.82,0,0,1-11.37,7.86,26.33,26.33,0,0,1-12.33,2.69q-11.37,0-17.74-7.18t-6.36-21.62V35.51h24V73.43c0,3.95.1,7.18.3,9.67a19.28,19.28,0,0,0,1.47,6.33A7.44,7.44,0,0,0,562.2,93a13.55,13.55,0,0,0,6.36,1.23,18.13,18.13,0,0,0,6-1.23,25.44,25.44,0,0,0,6.37-3.33V35.51h23.83Z"/><path class="cls-1" d="M670.82,58h-2a18.13,18.13,0,0,0-4-.71c-1.73-.16-3.63-.24-5.72-.24a31.09,31.09,0,0,0-7.87,1.09,77.82,77.82,0,0,0-8,2.59V112H619.48V35.51h23.83v11q1.63-1.5,4.53-3.78a44.15,44.15,0,0,1,5.28-3.64,28.65,28.65,0,0,1,6-2.69,21,21,0,0,1,6.51-1.13c.77,0,1.63,0,2.58.07s1.82.12,2.59.21Z"/><path class="cls-1" d="M277.81,148.27V133.73h-5.54v-1.95h13.27v1.95H280v14.54Z"/><path class="cls-1" d="M294,148.27V131.78h10.31v1.95H296.2v4.52h7.56v1.95H296.2v6.12h8.11v2Z"/><path class="cls-1" d="M320,148.57a7.93,7.93,0,0,1-3-.54,6.28,6.28,0,0,1-2.35-1.62,7.59,7.59,0,0,1-1.53-2.68,11.56,11.56,0,0,1-.54-3.69,11.21,11.21,0,0,1,.53-3.61,7.88,7.88,0,0,1,1.53-2.68,6.75,6.75,0,0,1,2.34-1.69,7.71,7.71,0,0,1,3-.58,9.59,9.59,0,0,1,1.56.12c.48.09.93.19,1.34.31a11.68,11.68,0,0,1,1.1.42c.37.17.74.35,1.1.55v2.65h-.18c-.19-.18-.44-.4-.74-.65a7.37,7.37,0,0,0-1.11-.74,6.67,6.67,0,0,0-1.37-.56,6,6,0,0,0-1.72-.23,4.66,4.66,0,0,0-2,.44,4.58,4.58,0,0,0-1.65,1.27,6,6,0,0,0-1.09,2.12,9.75,9.75,0,0,0-.39,2.86,9.3,9.3,0,0,0,.41,2.92A6.39,6.39,0,0,0,316.4,145a4.48,4.48,0,0,0,1.62,1.23,4.74,4.74,0,0,0,2,.42,6.57,6.57,0,0,0,1.76-.23,7.33,7.33,0,0,0,1.44-.59,9,9,0,0,0,1.75-1.32h.17v2.61l-1,.49a8.67,8.67,0,0,1-1.17.46,12.62,12.62,0,0,1-1.33.35A8.62,8.62,0,0,1,320,148.57Z"/><path class="cls-1" d="M345.76,148.27H343.3L336,134.05v14.22H334V131.78h3.11l6.64,13.06V131.78h2.05Z"/><path class="cls-1" d="M367.57,133.68a7.62,7.62,0,0,1,1.46,2.69,11.76,11.76,0,0,1,.52,3.66,12,12,0,0,1-.51,3.62,7.47,7.47,0,0,1-1.47,2.72,6.23,6.23,0,0,1-2.36,1.7,7.84,7.84,0,0,1-3,.55,7.62,7.62,0,0,1-3-.57,6.25,6.25,0,0,1-2.3-1.68,7.46,7.46,0,0,1-1.47-2.7A12,12,0,0,1,355,140a11.81,11.81,0,0,1,.52-3.65,7.81,7.81,0,0,1,1.47-2.7,6.18,6.18,0,0,1,2.3-1.67,7.57,7.57,0,0,1,3-.57,7.43,7.43,0,0,1,3,.59A6.31,6.31,0,0,1,367.57,133.68Zm-.3,6.35a10.6,10.6,0,0,0-.36-2.9,5.89,5.89,0,0,0-1-2.09,4.13,4.13,0,0,0-1.58-1.28,4.84,4.84,0,0,0-2.08-.43,4.9,4.9,0,0,0-2.09.42A4.25,4.25,0,0,0,358.6,135a6,6,0,0,0-1,2.11,11,11,0,0,0-.34,2.88,7.85,7.85,0,0,0,1.36,5,4.73,4.73,0,0,0,7.3,0A7.85,7.85,0,0,0,367.27,140Z"/><path class="cls-1" d="M388.32,148.27h-9.56V131.78H381v14.54h7.37Z"/><path class="cls-1" d="M408.31,133.68a7.47,7.47,0,0,1,1.46,2.69,11.76,11.76,0,0,1,.52,3.66,12,12,0,0,1-.51,3.62,7.47,7.47,0,0,1-1.47,2.72,6.27,6.27,0,0,1-2.35,1.7,7.92,7.92,0,0,1-3,.55,7.67,7.67,0,0,1-3-.57,6.25,6.25,0,0,1-2.3-1.68,7.45,7.45,0,0,1-1.46-2.7,12,12,0,0,1-.51-3.64,11.83,11.83,0,0,1,.51-3.65,8,8,0,0,1,1.47-2.7A6.26,6.26,0,0,1,400,132a7.62,7.62,0,0,1,3-.57,7.38,7.38,0,0,1,3,.59A6.31,6.31,0,0,1,408.31,133.68ZM408,140a11,11,0,0,0-.35-2.9,6.07,6.07,0,0,0-1-2.09,4.06,4.06,0,0,0-1.58-1.28,4.79,4.79,0,0,0-2.07-.43,4.84,4.84,0,0,0-2.09.42,4.28,4.28,0,0,0-1.58,1.29,5.83,5.83,0,0,0-1,2.11A11,11,0,0,0,398,140a7.85,7.85,0,0,0,1.36,5,4.74,4.74,0,0,0,7.31,0A7.91,7.91,0,0,0,408,140Z"/><path class="cls-1" d="M426.4,148.59a9.11,9.11,0,0,1-3.2-.53,6.42,6.42,0,0,1-2.49-1.61,7.35,7.35,0,0,1-1.6-2.72,11.46,11.46,0,0,1-.55-3.72,10.7,10.7,0,0,1,.56-3.57,7.74,7.74,0,0,1,1.6-2.7,6.75,6.75,0,0,1,2.48-1.67,8.66,8.66,0,0,1,3.22-.59,10.29,10.29,0,0,1,1.6.12,12.48,12.48,0,0,1,1.46.34,10.19,10.19,0,0,1,1.23.46c.46.19.83.36,1.11.5v2.65h-.19a9.16,9.16,0,0,0-.85-.69,7.07,7.07,0,0,0-1.23-.71,8.28,8.28,0,0,0-1.53-.55,7.41,7.41,0,0,0-1.86-.22,4.72,4.72,0,0,0-3.85,1.79,7.31,7.31,0,0,0-1.47,4.77,9.76,9.76,0,0,0,.39,2.91,5.94,5.94,0,0,0,1.12,2.1,4.64,4.64,0,0,0,1.71,1.3,5.45,5.45,0,0,0,2.25.45,12.69,12.69,0,0,0,1.85-.13,6.22,6.22,0,0,0,1.55-.4V141.9H425.9V140h6v7.2l-1.12.47a12.27,12.27,0,0,1-1.31.46,14.63,14.63,0,0,1-1.46.36A9,9,0,0,1,426.4,148.59Z"/><path class="cls-1" d="M447.21,148.27H440.8v-1.68h2.11V133.46H440.8v-1.68h6.41v1.68H445.1v13.13h2.11Zm-.16-22.69-3,4.14h-1.65l2-4.14Z"/><path class="cls-1" d="M454.93,148.27l5.56-16.49h2.7l5.56,16.49h-2.31l-1.5-4.6h-6.3l-1.5,4.6Zm9.4-6.48L461.79,134l-2.54,7.77Z"/><path class="cls-1" d="M504,140a8.93,8.93,0,0,1-.91,4.08,7.26,7.26,0,0,1-2.45,2.84,7.93,7.93,0,0,1-2.55,1,17.36,17.36,0,0,1-3.29.26H491V131.78h3.75a15,15,0,0,1,3.65.35,7.44,7.44,0,0,1,2.26,1,7.17,7.17,0,0,1,2.47,2.79A9.25,9.25,0,0,1,504,140Zm-2.28,0a7.63,7.63,0,0,0-.63-3.25,4.77,4.77,0,0,0-1.87-2.1,6.46,6.46,0,0,0-1.87-.76,10.83,10.83,0,0,0-2.48-.24H493.2v12.73h1.68a12.76,12.76,0,0,0,2.55-.23,5.64,5.64,0,0,0,2-.87,4.82,4.82,0,0,0,1.72-2.06A8,8,0,0,0,501.73,140Z"/><path class="cls-1" d="M519,148.27h-6.4v-1.68h2.1V133.46h-2.1v-1.68H519v1.68h-2.11v13.13H519Z"/><path class="cls-1" d="M540.26,148.27H537.8l-7.29-14.22v14.22h-2V131.78h3.12l6.63,13.06V131.78h2Z"/><path class="cls-1" d="M548.63,148.27l5.56-16.49h2.7l5.56,16.49h-2.32l-1.49-4.6h-6.3l-1.5,4.6Zm9.4-6.48L555.48,134,553,141.79Zm.25-16.21-3,4.14h-1.65l2-4.14Z"/><path class="cls-1" d="M585,148.27h-2.2V134.06l-4.29,9.67h-1.33l-4.27-9.67v14.21h-2V131.78h3l4.11,9.18,4-9.18H585Z"/><path class="cls-1" d="M600.86,148.27h-6.41v-1.68h2.11V133.46h-2.11v-1.68h6.41v1.68h-2.11v13.13h2.11Z"/><path class="cls-1" d="M616.81,148.57a8,8,0,0,1-3-.54,6.32,6.32,0,0,1-2.34-1.62,7.45,7.45,0,0,1-1.53-2.68,11.56,11.56,0,0,1-.54-3.69,11.21,11.21,0,0,1,.53-3.61,7.88,7.88,0,0,1,1.53-2.68,6.75,6.75,0,0,1,2.34-1.69,7.71,7.71,0,0,1,3-.58,9.68,9.68,0,0,1,1.56.12c.48.09.93.19,1.34.31a10.57,10.57,0,0,1,1.09.42c.38.17.74.35,1.11.55v2.65h-.18c-.19-.18-.44-.4-.74-.65a7.91,7.91,0,0,0-1.11-.74,6.67,6.67,0,0,0-1.37-.56,6,6,0,0,0-1.72-.23,4.78,4.78,0,0,0-3.65,1.71,6.13,6.13,0,0,0-1.08,2.12,9.75,9.75,0,0,0-.39,2.86,9.3,9.3,0,0,0,.41,2.92,6.21,6.21,0,0,0,1.12,2.07,4.48,4.48,0,0,0,1.62,1.23,4.71,4.71,0,0,0,2,.42,6.57,6.57,0,0,0,1.76-.23,7.33,7.33,0,0,0,1.44-.59,9,9,0,0,0,1.75-1.32h.17v2.61l-1,.49a8.67,8.67,0,0,1-1.17.46,12.62,12.62,0,0,1-1.33.35A8.7,8.7,0,0,1,616.81,148.57Z"/><path class="cls-1" d="M629,148.27l5.56-16.49h2.7l5.56,16.49h-2.32l-1.49-4.6h-6.3l-1.5,4.6Zm9.4-6.48L635.86,134l-2.53,7.77Z"/></g></g></svg>