<svg width="1006" height="698" viewBox="0 0 1006 698" fill="none" xmlns="http://www.w3.org/2000/svg">
<g clip-path="url(#clip0_101_2)">
<path d="M520.26 697.6L571.3 644.03L527.14 642.83L502.53 697.6H520.26Z" fill="#2F0128"/>
<path d="M687.14 697.6L636.1 644.03L680.25 642.83L704.87 697.6H687.14Z" fill="#2F0128"/>
<path d="M386.45 472.23H892.38C892.38 472.23 934.93 469.87 931.38 504.15L912.47 588.08C912.47 588.08 901.83 619.99 872.27 623.54C842.71 627.09 341.53 623.54 341.53 623.54L386.45 472.23Z" fill="#DBDBDB"/>
<path d="M721 626.9C568.53 626.9 355 625.41 341.52 625.31H339.16L385.16 470.48H892.41C893.23 470.48 914.84 469.38 926.41 481.48C931.87 487.21 934.15 494.89 933.17 504.31V504.52L914.2 588.68C914.09 589 902.85 621.68 872.54 625.34C862.54 626.54 799.96 626.94 721.04 626.94M343.91 621.78C381.3 622.04 844.01 625.14 872.07 621.78C899.45 618.49 910.16 589.3 910.77 587.59L929.64 503.86C930.47 495.57 928.52 488.86 923.83 483.95C913.39 473 892.68 473.95 892.48 474H387.78L343.91 621.78Z" fill="#DBDBDB"/>
<path d="M582.09 578.03L575.41 602.51L567.9 630.04L524.27 628.41L529.39 586.9L531.5 569.77L582.09 578.03Z" fill="#F7B78A"/>
<path d="M492.25 578.48L483.65 605.51L475.7 630.49L430.89 626.5L437.7 594.45L442.84 570.21L492.25 578.48Z" fill="#F7B78A"/>
<path d="M90.94 678.51L141.97 620L97.82 618.71L73.21 678.51H90.94Z" fill="#2F0128"/>
<path d="M257.82 678.51L206.78 621.18L250.93 619.89L275.55 678.51H257.82Z" fill="#2F0128"/>
<path d="M492.25 578.48L483.65 605.51L437.7 594.45L442.84 570.21L492.25 578.48Z" fill="#2F0128"/>
<path d="M582.09 578.03L575.41 602.51L529.39 586.9L531.5 569.77L582.09 578.03Z" fill="#2F0128"/>
<path d="M572.57 630.32L571.66 640.72C571.51 642.436 571.944 644.153 572.891 645.593C573.838 647.032 575.244 648.109 576.88 648.65L622.05 663.65C623.583 664.132 624.921 665.094 625.866 666.394C626.811 667.694 627.314 669.263 627.3 670.87C627.251 671.899 627 672.908 626.561 673.84C626.122 674.772 625.503 675.608 624.74 676.3C623.327 677.693 621.424 678.476 619.44 678.48L520.51 679.23C519.404 679.241 518.308 679.011 517.299 678.558C516.29 678.104 515.391 677.437 514.665 676.602C513.939 675.767 513.402 674.785 513.092 673.723C512.782 672.661 512.707 671.544 512.87 670.45L519.31 626.85C519.588 624.974 520.551 623.268 522.014 622.062C523.477 620.856 525.336 620.235 527.23 620.32L565.23 621.98C566.263 622.025 567.277 622.278 568.21 622.725C569.142 623.172 569.975 623.803 570.657 624.581C571.339 625.358 571.857 626.266 572.179 627.249C572.501 628.232 572.62 629.27 572.53 630.3" fill="#2F0128"/>
<path d="M479.2 630.32L478.29 640.72C478.132 642.44 478.561 644.163 479.507 645.608C480.453 647.054 481.86 648.136 483.5 648.68L528.67 663.68C530.201 664.164 531.537 665.126 532.48 666.426C533.423 667.726 533.925 669.294 533.91 670.9C533.811 672.976 532.894 674.928 531.36 676.33C529.944 677.724 528.037 678.506 526.05 678.51L427.12 679.26C426.014 679.269 424.92 679.039 423.912 678.584C422.904 678.13 422.007 677.463 421.282 676.628C420.557 675.794 420.021 674.812 419.712 673.751C419.402 672.689 419.327 671.573 419.49 670.48L425.93 626.88C426.206 625.005 427.167 623.299 428.628 622.093C430.09 620.886 431.947 620.265 433.84 620.35L471.89 622.01C472.923 622.055 473.937 622.308 474.87 622.755C475.802 623.202 476.635 623.833 477.317 624.611C477.999 625.388 478.517 626.296 478.839 627.279C479.161 628.262 479.28 629.3 479.19 630.33" fill="black"/>
<path d="M464.04 116.84C457.63 147.47 457.39 164.08 430.55 164.84V165.03L430.2 175.17L430.12 177.35L429.7 189.01L387 189.69L396.72 136.69C396.72 136.69 388.72 122.33 387.72 115.36C384.89 96.36 386.1 63.67 415.65 60.18C456 55.41 470.51 86.18 464.09 116.8" fill="#F7B78A"/>
<path d="M963.3 372.35C963.3 372.35 1010.59 374.7 1002.3 421.65L959.75 593.03C959.75 593.03 952.66 618.85 914.83 624.72L858.29 624.31L910.1 372.31L963.3 372.35Z" fill="white"/>
<path d="M914.97 626.49L856.13 626.07L908.67 370.57H963.39C964.28 370.57 985.24 371.82 997.18 386.78C1004.29 395.69 1006.6 407.52 1004.06 421.95V422.06L961.51 593.44C961.2 594.58 953.66 620.49 915.14 626.44L914.97 626.49ZM860.47 622.55L914.71 622.94C950.86 617.28 957.98 592.8 958.05 592.56L1000.58 421.28C1002.92 407.93 1000.84 397.07 994.41 389C983.69 375.56 964.24 374.18 963.25 374.12H911.56L860.47 622.55Z" fill="#2F0128"/>
<path d="M724.53 370.57H910.11C910.11 370.57 960.94 375.3 950.3 428.5L929.89 510.8L754.08 517.15L724.53 370.57Z" fill="#DBDBDB"/>
<path d="M736.35 404.85L698.52 277.19C698.52 277.19 694.97 246.46 664.24 238.19L68.74 237.58L73.2 484.05L746.98 482.05L736.35 404.85Z" fill="white"/>
<path d="M71.46 485.83L66.93 235.83H68.74L664.48 236.45L664.7 236.51C695.03 244.68 699.9 274.32 700.26 276.86L738.09 404.48V404.61L749.02 483.77H747.02L71.46 485.83ZM70.54 239.34L74.95 482.27L744.95 480.27L734.6 405.27L696.78 277.55V277.4C696.64 276.19 692.99 247.89 664.02 239.96L70.54 239.34Z" fill="#2F0128"/>
<path d="M529.48 311.47C529.48 311.47 508.2 327.68 471.2 296.22C468.27 293.74 465.26 290.95 462.14 287.83L439.68 267.73L476.32 244.09L494.05 261.09L505.87 272.44L503.51 194.44L504.02 194.35C499.27 190.72 487.72 181.35 486.7 175.22C485.4 167.48 482.93 152 481.64 146.85C480.86 143.69 484.39 144.39 487.27 148.04C489.1 150.38 491.85 153.93 491.85 158.45C491.85 158.45 495.08 161.68 497.66 160.39L498.95 153.94C497.412 154.27 495.807 154.068 494.399 153.367C492.991 152.665 491.863 151.506 491.2 150.08L496.37 146.21C496.37 146.21 492.01 146.7 490.72 146.7C486.84 146.7 482.18 142.34 482.18 142.34L491.18 139.76C491.18 139.76 477.94 140.27 475.71 134.6L493.1 131.33C495.1 130.96 499.74 131.33 501.21 132.84L502.99 135.39C502.99 135.39 509.14 136.3 507.66 140.85C507.66 140.85 512.66 140.85 512.11 147.2C512.11 147.2 516.69 148.39 515.39 153.56L518.27 192.68L518.55 194.4C524.01 208.68 551.97 285.8 529.48 311.5" fill="#F7B78A"/>
<path d="M494.02 261.11L471.2 296.22C468.27 293.74 465.26 290.95 462.14 287.83L439.68 267.73L476.32 244.09L494.02 261.11Z" fill="#E0E0E0"/>
<path d="M497.57 255.91L463.29 289.01L457.07 284.01L448.84 277.38L448.6 277.18C439.98 315.18 404.78 361.77 404.78 384.18L262.34 391.86C262.34 391.86 314.94 210.4 388.2 178.49C388.2 178.49 398.84 189.13 420.11 187.94C422.374 187.779 424.524 186.886 426.236 185.396C427.948 183.906 429.128 181.9 429.6 179.68C436.846 184.493 443.578 190.039 449.69 196.23C466.85 213.38 497.57 255.92 497.57 255.92" fill="#808184"/>
<path d="M528.3 585.68H589.77L642.88 428.27C644.161 424.484 644.568 420.456 644.071 416.49C643.574 412.524 642.186 408.722 640.011 405.368C637.836 402.015 634.93 399.197 631.511 397.126C628.093 395.055 624.25 393.785 620.27 393.41L368.13 371.16L398.87 452.73L553.39 460.46L528.3 585.68Z" fill="#D87D21"/>
<path d="M651.2 307.88L583.83 327.88C582.695 328.222 581.741 329.001 581.179 330.045C580.616 331.089 580.491 332.314 580.83 333.45V333.58C581.175 334.714 581.953 335.666 582.997 336.228C584.04 336.79 585.264 336.916 586.4 336.58L653.78 316.53C654.343 316.362 654.867 316.084 655.323 315.713C655.778 315.342 656.156 314.884 656.435 314.367C656.714 313.85 656.887 313.282 656.947 312.698C657.006 312.113 656.949 311.523 656.78 310.96V310.83C656.438 309.695 655.659 308.741 654.615 308.179C653.571 307.616 652.346 307.491 651.21 307.83" fill="#2F0128"/>
<path d="M371.8 371.76L528.36 394.09C531.859 394.543 535.218 395.749 538.206 397.624C541.195 399.5 543.741 402 545.671 404.953C547.601 407.907 548.869 411.243 549.386 414.733C549.904 418.223 549.66 421.784 548.67 425.17L499.93 591.62C499.93 591.62 434.93 592.8 434.93 593.99C434.93 595.18 463.3 466.32 463.3 466.32C463.3 466.32 303.72 489.96 267.08 458.05C267.08 458.05 252.3 412.54 268.85 372.35L371.8 371.76Z" fill="#F69220"/>
<path d="M645.43 326.77C645.43 326.77 620.5 342.2 607.5 346.93C599.472 349.818 591.148 351.8 582.68 352.84L473.51 384.46C468.269 385.988 462.713 386.067 457.431 384.69C452.149 383.313 447.338 380.531 443.51 376.64L400.01 332.37L387.01 319.15C389.37 317.97 442.56 295.51 442.56 295.51L443.06 296.51L464.43 337.51H576.73C576.73 337.51 585.59 335.73 591.5 332.19C591.5 332.19 601.65 326.62 603.92 320.96C606.28 315.05 613.37 313.86 613.37 313.86C613.37 313.86 613.37 323.33 609.83 329.23L648.14 318.23C651.91 317.1 648.62 324.55 645.39 326.82" fill="#F7B78A"/>
<path d="M397.09 372.35C397.09 372.35 431.42 381.42 431.4 414.05C431.394 415.129 431.257 416.204 430.99 417.25L391.2 581.97C391.2 581.97 380.56 617.1 351.01 624.13L292.5 622.96L346.28 372.35H397.09Z" fill="white"/>
<path d="M351.2 625.91L290.3 624.68L344.83 370.56L397.55 370.62C397.9 370.72 433.2 380.43 433.17 414.05C433.161 415.267 433.01 416.478 432.72 417.66L392.91 582.39C392.43 583.96 381.6 618.67 351.4 625.85L351.2 625.91ZM294.68 621.23L350.82 622.35C378.89 615.52 389.4 581.8 389.51 581.46L429.29 416.84C429.52 415.927 429.64 414.991 429.65 414.05C429.65 384.43 399.65 374.94 396.87 374.12H347.7L294.68 621.23Z" fill="#2F0128"/>
<path d="M52.52 238.77C52.52 238.77 91.52 229.32 103.35 261.23L125.81 351.07C125.81 351.07 134.08 368.8 149.45 371.17L346.26 370.57C346.26 370.57 380.54 371.76 380.54 413.13L340.35 584.53C340.35 584.53 323.8 622.35 297.8 624.68L53.11 618.77L52.52 238.77Z" fill="#DBDBDB"/>
<path d="M354.854 278.262L353.033 279.762L386.126 319.95L387.948 318.45L354.854 278.262Z" fill="#E0E0E0"/>
<path d="M441.63 297.37C389.41 222.6 389.41 221.51 389.41 221.04H390.59L391.7 220.65C392.7 222.96 423.29 266.99 443.57 296.02L441.63 297.37Z" fill="#E0E0E0"/>
<path d="M393.74 131.38C393.74 131.38 388.45 123.81 386.4 120.07C379.84 108.16 374.76 75.14 390.81 75.5C390.81 75.5 386.05 40.56 429.89 47.89C429.89 47.89 444.06 41.94 445.74 36.15C445.889 38.6581 445.168 41.1409 443.697 43.1782C442.227 45.2154 440.098 46.6821 437.67 47.33C437.67 47.33 485.45 28.79 471.59 58.97C471.59 58.97 500.36 59.89 491.8 86.76C491.8 86.76 485.44 102.52 454.63 96.14C454.63 96.14 466.63 102.14 480.63 99.61C480.63 99.61 467.23 109.76 438.51 93.51C438.51 93.51 434.96 105.75 415.45 99.08L410.21 118.55C410.21 118.55 408.21 106.25 397.86 110.38C395.4 111.38 389.11 115.56 393.7 131.38" fill="#021E35"/>
<path d="M474.5 108.6L473.98 108.55L472.14 108.4L454.47 106.89L452.78 106.75L452.12 106.69L451.84 110.23L448.31 109.92L448.59 106.39H448.07L446.23 106.23L428.56 104.68L426.87 104.54L426.21 104.48L425.92 108.16L399.92 106.83L399.8 109.19L425.8 110.51L425.57 113.39C425.359 116.069 426.113 118.734 427.696 120.906C429.279 123.077 431.585 124.611 434.2 125.23C434.727 125.346 435.262 125.427 435.8 125.47C438.768 125.699 441.706 124.743 443.97 122.811C446.234 120.878 447.64 118.127 447.88 115.16L448.1 112.28L451.63 112.58L451.4 115.58C451.189 118.269 451.953 120.945 453.552 123.117C455.152 125.289 457.479 126.813 460.11 127.41C460.637 127.53 461.172 127.613 461.71 127.66C464.678 127.889 467.616 126.933 469.88 125.001C472.144 123.068 473.55 120.317 473.79 117.35L474.5 108.6ZM436 123.11C433.659 122.921 431.487 121.812 429.962 120.026C428.436 118.24 427.68 115.922 427.86 113.58L428.09 110.63L428.15 109.55L428.35 107.03L446.02 108.54L445.51 114.96C445.321 117.303 444.211 119.476 442.423 121.002C440.634 122.528 438.314 123.282 435.97 123.1M461.88 125.31C459.537 125.121 457.364 124.011 455.838 122.223C454.312 120.434 453.558 118.114 453.74 115.77L454.26 109.24L471.93 110.74L471.42 117.17C471.231 119.513 470.121 121.686 468.333 123.212C466.544 124.738 464.224 125.492 461.88 125.31Z" fill="black"/>
<path d="M457.07 284L448.84 277.37C449.97 266.47 455.61 234.05 449.7 196.22C449.7 196.22 466.24 234.05 457.07 284" fill="#E0E0E0"/>
<path d="M443.1 296.47L400.04 332.37L387.04 319.15C389.4 317.97 442.59 295.51 442.59 295.51L443.1 296.47Z" fill="#E0E0E0"/>
<path d="M501.67 592.51L499.38 591.91C499.65 590.91 525.95 490.7 538.19 458.73C548.1 432.82 549.77 414.36 543.19 403.86C539.58 398.15 533.36 394.86 524.71 394.21L524.9 391.86C534.33 392.6 541.16 396.22 545.19 402.6C552.19 413.76 550.64 432.93 540.44 459.6C528.2 491.42 501.93 591.5 501.67 592.51Z" fill="white"/>
<path d="M430.1 177.35C424.961 175.721 420.239 172.989 416.266 169.344C412.293 165.699 409.165 161.23 407.1 156.25C414.453 160.326 422.369 163.291 430.59 165.05L430.2 175.17L430.1 177.35Z" fill="#2F0128"/>
<path d="M454.42 140.68H434.33C434.33 140.68 448.51 158.41 454.42 140.68Z" fill="#2F0128"/>
<path d="M507.332 140.094L491.367 148.958L491.94 149.99L507.904 141.126L507.332 140.094Z" fill="#2F0128"/>
<path d="M503.309 134.746L482.031 141.841L482.404 142.96L503.682 135.866L503.309 134.746Z" fill="#2F0128"/>
<path d="M511.474 146.6L498.475 153.696L499.041 154.732L512.04 147.636L511.474 146.6Z" fill="#2F0128"/>
<path d="M514.423 151.926L501.424 159.022L501.989 160.058L514.988 152.962L514.423 151.926Z" fill="#2F0128"/>
<path d="M476.42 134.74L476.2 133.58C478.41 133.09 497.9 128.89 501.57 132.58L500.74 133.42C498.02 130.69 482.29 133.42 476.46 134.76" fill="#2F0128"/>
<path d="M13.81 0C13.81 0 36.69 22.88 36.69 73.21C36.69 73.21 34.4 89.21 43.55 112.11C43.55 112.11 75.55 107.53 93.89 112.11C93.89 112.11 66.43 116.68 52.71 130.41C52.71 130.41 79.13 208.2 179.8 221.93C179.8 221.93 226.28 156.03 167.1 75.5C167.1 75.5 132.9 18.91 13.81 0" fill="#F69220"/>
<path d="M235.9 295.14C235.9 295.14 189.98 235.68 231.2 171.59C231.2 171.59 263.2 121.26 336.44 102.95C336.44 102.95 318.14 134.95 322.72 167.02C325.355 186.949 323.795 207.209 318.14 226.5H286.14L313.59 244.81C313.59 244.81 304.59 295.14 235.96 295.14" fill="#F69220"/>
<path d="M2.36999 162.44C2.36999 162.44 20.68 212.78 89.31 244.81C89.31 244.81 153.38 272.26 144.23 340.9C144.23 340.9 139.65 336.33 98.47 327.17C57.29 318.01 48.13 304.29 48.13 304.29L57.28 281.41L38.98 295.14C38.98 295.14 -11.36 244.81 2.36999 162.44" fill="#F69220"/>
<path d="M210.04 501.29L206.53 500.82C216.62 425.12 209.16 330.65 186.53 248.14C167.07 176.97 127.05 80.77 47.14 26.68L49.14 23.74C129.96 78.49 170.35 175.5 190 247.25C212.72 330.25 220.22 425.19 210.06 501.34" fill="#2F0128"/>
<path d="M214.64 514.79H211.09C211.09 363.22 238.53 264.04 261.56 207.53C286.56 146.13 311.24 121.04 312.28 120L314.79 122.51C314.54 122.76 289.47 148.3 264.73 209.15C241.88 265.34 214.64 363.97 214.64 514.79" fill="#2F0128"/>
<path d="M206.52 501.21C197.58 398.43 135.74 311.31 79.27 278.37C24.37 246.37 9.95 195.45 9.81 194.94L13.23 194C13.37 194.5 27.46 244 81.06 275.31C138.32 308.71 201.06 396.92 210.06 500.91L206.52 501.21Z" fill="#2F0128"/>
<path d="M304.89 525.43H131.72L126.99 495.29H309.62L304.89 525.43Z" fill="white"/>
<path d="M305.9 526.61H130.71L125.61 494.1H311L305.9 526.61ZM132.73 524.24H303.88L308.2 496.46H128.37L132.73 524.24Z" fill="#2F0128"/>
<path d="M105.12 676.74L134.68 525.43H144.72L113.4 676.74H105.12Z" fill="#808184"/>
<path d="M274.16 624.13H161.86L140.59 526.02H295.44L274.16 624.13Z" fill="#F69220"/>
<path d="M302.53 525.43H134.67L133.49 536.07H302.53V525.43Z" fill="#808184"/>
<path d="M148.86 676.74L166.59 525.43H176.64L157.13 676.74H148.86Z" fill="#808184"/>
<path d="M342.13 676.74L301.94 525.43H291.89L333.85 676.74H342.13Z" fill="#808184"/>
</g>
<defs>
<clipPath id="clip0_101_2">
<rect width="1005.06" height="697.6" fill="white"/>
</clipPath>
</defs>
</svg>
