<svg id="Layer_1" data-name="Layer 1" xmlns="http://www.w3.org/2000/svg" viewBox="0 0 1005.06 697.6"><title>mono</title><polygon points="520.26 697.6 571.3 644.03 527.14 642.83 502.53 697.6 520.26 697.6" style="fill:#2f0128"/><polygon points="687.14 697.6 636.1 644.03 680.25 642.83 704.87 697.6 687.14 697.6" style="fill:#2f0128"/><path d="M529.25,693.55h505.93s42.55-2.36,39,31.92l-18.91,83.93s-10.64,31.91-40.2,35.46-530.74,0-530.74,0Z" transform="translate(-142.8 -221.32)" style="fill:#dbdbdb"/><path d="M863.8,848.22c-152.47,0-366-1.49-379.48-1.59l-2.36,0,46-154.83h507.25c.82,0,22.43-1.1,34,11,5.46,5.73,7.74,13.41,6.76,22.83l0,.21L1057,810c-.11.32-11.35,33-41.66,36.66-10,1.2-72.58,1.6-151.5,1.6M486.71,843.1c37.39.26,500.1,3.36,528.16,0,27.38-3.29,38.09-32.48,38.7-34.19l18.87-83.73c.83-8.29-1.12-15-5.81-19.91-10.44-10.95-31.15-10-31.35-9.95H530.58Z" transform="translate(-142.8 -221.32)" style="fill:#dbdbdb"/><polygon points="582.09 578.03 575.41 602.51 567.9 630.04 524.27 628.41 529.39 586.9 531.5 569.77 582.09 578.03" style="fill:#f7b78a"/><polygon points="492.25 578.48 483.65 605.51 475.7 630.49 430.89 626.5 437.7 594.45 442.84 570.21 492.25 578.48" style="fill:#f7b78a"/><polygon points="90.94 678.51 141.97 620 97.82 618.71 73.21 678.51 90.94 678.51" style="fill:#2f0128"/><polygon points="257.82 678.51 206.78 621.18 250.93 619.89 275.55 678.51 257.82 678.51" style="fill:#2f0128"/><polygon points="492.25 578.48 483.65 605.51 437.7 594.45 442.84 570.21 492.25 578.48" style="fill:#2f0128"/><polygon points="582.09 578.03 575.41 602.51 529.39 586.9 531.5 569.77 582.09 578.03" style="fill:#2f0128"/><path d="M715.37,851.64l-.91,10.4a7.65,7.65,0,0,0,5.22,7.93l45.17,15a7.5,7.5,0,0,1,5.25,7.22,7.83,7.83,0,0,1-2.56,5.43,7.57,7.57,0,0,1-5.3,2.18l-98.93.75a7.65,7.65,0,0,1-7.64-8.78l6.44-43.6a7.66,7.66,0,0,1,7.92-6.53l38,1.66a7.66,7.66,0,0,1,7.3,8.32" transform="translate(-142.8 -221.32)" style="fill:#15173f"/><path d="M622,851.64l-.91,10.4A7.65,7.65,0,0,0,626.3,870l45.17,15a7.5,7.5,0,0,1,5.24,7.22,7.86,7.86,0,0,1-2.55,5.43,7.59,7.59,0,0,1-5.31,2.18l-98.93.75a7.65,7.65,0,0,1-7.63-8.78l6.44-43.6a7.65,7.65,0,0,1,7.91-6.53l38.05,1.66a7.66,7.66,0,0,1,7.3,8.32" transform="translate(-142.8 -221.32)" style="fill:#2e2e75"/><path d="M606.84,338.16c-6.41,30.63-6.65,47.24-33.49,48v.19L573,396.49l-.08,2.18-.42,11.66-42.7.68,9.72-53s-8-14.36-9-21.33c-2.83-19-1.62-51.69,27.93-55.18,40.35-4.77,54.86,26,48.44,56.62" transform="translate(-142.8 -221.32)" style="fill:#f7b78a"/><path d="M1106.1,593.67s47.29,2.35,39,49.3l-42.55,171.38s-7.09,25.82-44.92,31.69l-56.54-.41,51.81-252Z" transform="translate(-142.8 -221.32)" style="fill:#fff"/><path d="M1057.77,847.81l-58.84-.42,52.54-255.5h54.72c.89,0,21.85,1.25,33.79,16.21,7.11,8.91,9.42,20.74,6.88,35.17l0,.11-42.55,171.38c-.31,1.14-7.85,27.05-46.37,33Zm-54.5-3.94,54.24.39c36.15-5.66,43.27-30.14,43.34-30.38l42.53-171.28c2.34-13.35.26-24.21-6.17-32.28-10.72-13.44-30.17-14.82-31.16-14.88h-51.69Z" transform="translate(-142.8 -221.32)" style="fill:#15173f"/><path d="M867.33,591.89h185.58s50.83,4.73,40.19,57.93l-20.41,82.3-175.81,6.35Z" transform="translate(-142.8 -221.32)" style="fill:#dbdbdb"/><path d="M879.15,626.17,841.32,498.51s-3.55-30.73-34.28-39l-595.5-.61L216,705.37l673.78-2Z" transform="translate(-142.8 -221.32)" style="fill:#fff"/><path d="M214.26,707.15l-4.53-250h1.81l595.74.62.22.06c30.33,8.17,35.2,37.81,35.56,40.35L880.89,625.8v.13l10.93,79.16h-2Zm-.92-246.49,4.41,242.93,670-2-10.35-75L839.58,498.87l0-.15c-.14-1.21-3.79-29.51-32.76-37.44Z" transform="translate(-142.8 -221.32)" style="fill:#15173f"/><path d="M672.28,532.79S651,549,614,517.54c-2.93-2.48-5.94-5.27-9.06-8.39l-22.46-20.1,36.64-23.64,17.73,17,11.82,11.35-2.36-78,.51-.09c-4.75-3.63-16.3-13-17.32-19.13-1.3-7.74-3.77-23.22-5.06-28.37-.78-3.16,2.75-2.46,5.63,1.19,1.83,2.34,4.58,5.89,4.58,10.41,0,0,3.23,3.23,5.81,1.94l1.29-6.45A6.94,6.94,0,0,1,634,371.4l5.17-3.87s-4.36.49-5.65.49c-3.88,0-8.54-4.36-8.54-4.36l9-2.58s-13.24.51-15.47-5.16l17.39-3.27c2-.37,6.64,0,8.11,1.51l1.78,2.55s6.15.91,4.67,5.46c0,0,5,0,4.45,6.35,0,0,4.58,1.19,3.28,6.36L661.07,414l.28,1.72c5.46,14.28,33.42,91.4,10.93,117.1" transform="translate(-142.8 -221.32)" style="fill:#f7b78a"/><path d="M636.82,482.43,614,517.54c-2.93-2.48-5.94-5.27-9.06-8.39l-22.46-20.1,36.64-23.64Z" transform="translate(-142.8 -221.32)" style="fill:#e0e0e0"/><path d="M640.37,477.23l-34.28,33.1-6.22-5-8.23-6.63-.24-.2c-8.62,38-43.82,84.59-43.82,107l-142.44,7.68S457.74,431.72,531,399.81c0,0,10.64,10.64,31.91,9.45A10.46,10.46,0,0,0,572.4,401a126.87,126.87,0,0,1,20.09,16.55c17.16,17.15,47.88,59.69,47.88,59.69" transform="translate(-142.8 -221.32)" style="fill:#808184"/><path d="M671.1,807h61.47l53.11-157.41a26.49,26.49,0,0,0-22.61-34.86L510.93,592.48l30.74,81.57,154.52,7.73Z" transform="translate(-142.8 -221.32)" style="fill:#d87d21"/><path d="M794,529.2l-67.37,20a4.48,4.48,0,0,0-3,5.57l0,.13a4.49,4.49,0,0,0,5.57,3l67.38-20.05a4.47,4.47,0,0,0,3-5.57l0-.13a4.48,4.48,0,0,0-5.57-3" transform="translate(-142.8 -221.32)" style="fill:#2f0128"/><path d="M514.6,593.08l156.56,22.33a24.43,24.43,0,0,1,20.31,31.08L642.73,812.94s-65,1.18-65,2.37,28.37-127.67,28.37-127.67-159.58,23.64-196.22-8.27c0,0-14.78-45.51,1.77-85.7Z" transform="translate(-142.8 -221.32)" style="fill:#f69220"/><path d="M788.23,548.09s-24.93,15.43-37.93,20.16a114.61,114.61,0,0,1-24.82,5.91L616.31,605.78a30.22,30.22,0,0,1-30-7.82l-43.5-44.27-13-13.22c2.36-1.18,55.55-23.64,55.55-23.64l.5,1,21.37,41h112.3s8.86-1.78,14.77-5.32c0,0,10.15-5.57,12.42-11.23,2.36-5.91,9.45-7.1,9.45-7.1s0,9.47-3.54,15.37l38.31-11c3.77-1.13.48,6.32-2.75,8.59" transform="translate(-142.8 -221.32)" style="fill:#f7b78a"/><path d="M539.89,593.67s34.33,9.07,34.31,41.7a13.24,13.24,0,0,1-.41,3.2L534,803.29s-10.64,35.13-40.19,42.16l-58.51-1.17,53.78-250.61Z" transform="translate(-142.8 -221.32)" style="fill:#fff"/><path d="M494,847.23,433.1,846l54.53-254.12,52.72.06c.35.1,35.65,9.81,35.62,43.43a15.63,15.63,0,0,1-.45,3.61L535.71,803.71c-.48,1.57-11.31,36.28-41.51,43.46Zm-56.52-4.68,56.14,1.12c28.07-6.83,38.58-40.55,38.69-40.89l39.78-164.62a11.94,11.94,0,0,0,.36-2.79c0-29.62-30-39.11-32.78-39.93H490.5Z" transform="translate(-142.8 -221.32)" style="fill:#15173f"/><path d="M195.32,460.09s39-9.45,50.83,22.46l22.46,89.84s8.27,17.73,23.64,20.1l196.81-.6s34.28,1.19,34.28,42.56l-40.19,171.4S466.6,843.67,440.6,846l-244.69-5.91Z" transform="translate(-142.8 -221.32)" style="fill:#dbdbdb"/><rect x="512.11" y="494.35" width="2.36" height="52.06" transform="translate(-356.54 223.68) rotate(-39.47)" style="fill:#e0e0e0"/><path d="M584.43,518.69c-52.22-74.77-52.22-75.86-52.22-76.33h1.18l1.11-.39c1,2.31,31.59,46.34,51.87,75.37Z" transform="translate(-142.8 -221.32)" style="fill:#e0e0e0"/><path d="M536.54,352.7s-5.29-7.57-7.34-11.31c-6.56-11.91-11.64-44.93,4.41-44.57,0,0-4.76-34.94,39.08-27.61,0,0,14.17-5.95,15.85-11.74a10.9,10.9,0,0,1-8.07,11.18s47.78-18.54,33.92,11.64c0,0,28.77.92,20.21,27.79,0,0-6.36,15.76-37.17,9.38,0,0,12,6,26,3.47,0,0-13.4,10.15-42.12-6.1,0,0-3.55,12.24-23.06,5.57l-5.24,19.47s-2-12.3-12.35-8.17c-2.46,1-8.75,5.18-4.16,21" transform="translate(-142.8 -221.32)" style="fill:#021e35"/><path d="M617.3,329.92l-.52-.05-1.84-.15-17.67-1.51-1.69-.14-.66-.06-.28,3.54-3.53-.31.28-3.53-.52,0-1.84-.16L571.36,326l-1.69-.14-.66-.06-.29,3.68-26-1.33-.12,2.36,26,1.32-.23,2.88A11.26,11.26,0,0,0,577,346.55a11.86,11.86,0,0,0,1.6.24,11.25,11.25,0,0,0,12.08-10.31l.22-2.88,3.53.3-.23,3a11.23,11.23,0,0,0,8.71,11.83,11.86,11.86,0,0,0,1.6.25,11.25,11.25,0,0,0,12.08-10.31Zm-38.5,14.51a8.88,8.88,0,0,1-8.14-9.53l.23-2.95h0l.06-1.08.2-2.52,17.67,1.51-.51,6.42a8.88,8.88,0,0,1-9.54,8.14m25.91,2.21a8.88,8.88,0,0,1-8.14-9.54l.52-6.53,17.67,1.5-.51,6.43a8.88,8.88,0,0,1-9.54,8.14" transform="translate(-142.8 -221.32)" style="fill:#050044"/><path d="M599.87,505.32l-8.23-6.63c1.13-10.9,6.77-43.32.86-81.15,0,0,16.54,37.83,7.37,87.78" transform="translate(-142.8 -221.32)" style="fill:#e0e0e0"/><path d="M585.9,517.79l-43.06,35.9-13-13.22c2.36-1.18,55.55-23.64,55.55-23.64Z" transform="translate(-142.8 -221.32)" style="fill:#e0e0e0"/><path d="M644.47,813.83l-2.29-.6c.27-1,26.57-101.21,38.81-133.18,9.91-25.91,11.58-44.37,5-54.87-3.61-5.71-9.83-9-18.48-9.65l.19-2.35c9.43.74,16.26,4.36,20.29,10.74,7,11.16,5.45,30.33-4.75,57C671,712.74,644.73,812.82,644.47,813.83" transform="translate(-142.8 -221.32)" style="fill:#fff"/><path d="M572.9,398.67a37,37,0,0,1-23-21.1,85.22,85.22,0,0,0,23.49,8.8L573,396.49Z" transform="translate(-142.8 -221.32)" style="fill:#2f0128"/><path d="M597.22,362H577.13s14.18,17.73,20.09,0" transform="translate(-142.8 -221.32)" style="fill:#2f0128"/><rect x="633.31" y="365.82" width="18.26" height="1.18" transform="translate(-239.9 136.55) rotate(-29.04)" style="fill:#2f0128"/><rect x="624.43" y="359.62" width="22.43" height="1.18" transform="translate(-224.09 -1.8) rotate(-18.44)" style="fill:#2f0128"/><rect x="640.65" y="371.44" width="14.81" height="1.18" transform="translate(-241.82 134.64) rotate(-28.63)" style="fill:#2f0128"/><rect x="643.6" y="376.76" width="14.81" height="1.18" transform="translate(-244.01 136.71) rotate(-28.63)" style="fill:#2f0128"/><path d="M619.22,356.06,619,354.9c2.21-.49,21.7-4.69,25.37-1l-.83.84c-2.72-2.73-18.45,0-24.28,1.34" transform="translate(-142.8 -221.32)" style="fill:#2f0128"/><path d="M156.61,221.32s22.88,22.88,22.88,73.21c0,0-2.29,16,6.86,38.9,0,0,32-4.58,50.34,0,0,0-27.46,4.57-41.18,18.3,0,0,26.42,77.79,127.09,91.52,0,0,46.48-65.9-12.7-146.43,0,0-34.2-56.59-153.29-75.5" transform="translate(-142.8 -221.32)" style="fill:#f69220"/><path d="M378.7,516.46S332.78,457,374,392.91c0,0,32-50.33,105.24-68.64,0,0-18.3,32-13.72,64.07a144.23,144.23,0,0,1-4.58,59.48h-32l27.45,18.31s-9,50.33-77.63,50.33" transform="translate(-142.8 -221.32)" style="fill:#f69220"/><path d="M145.17,383.76s18.31,50.34,86.94,82.37c0,0,64.07,27.45,54.92,96.09,0,0-4.58-4.57-45.76-13.73s-50.34-22.88-50.34-22.88l9.15-22.88-18.3,13.73s-50.34-50.33-36.61-132.7" transform="translate(-142.8 -221.32)" style="fill:#f69220"/><path d="M352.84,722.61l-3.51-.47c10.09-75.7,2.63-170.17-20-252.68C309.87,398.29,269.85,302.09,189.94,248l2-2.94c80.82,54.75,121.21,151.76,140.86,223.51,22.72,83,30.22,177.94,20.06,254.09" transform="translate(-142.8 -221.32)" style="fill:#2f0128"/><path d="M357.44,736.11h-3.55c0-151.57,27.44-250.75,50.47-307.26,25-61.4,49.68-86.49,50.72-87.53l2.51,2.51c-.25.25-25.32,25.79-50.06,86.64-22.85,56.19-50.09,154.82-50.09,305.64" transform="translate(-142.8 -221.32)" style="fill:#2f0128"/><path d="M349.32,722.53c-8.94-102.78-70.78-189.9-127.25-222.84-54.9-32-69.32-82.92-69.46-83.43l3.42-.94c.14.5,14.23,50,67.83,81.31,57.26,33.4,120,121.61,129,225.6Z" transform="translate(-142.8 -221.32)" style="fill:#2f0128"/><polygon points="304.89 525.43 131.72 525.43 126.99 495.29 309.62 495.29 304.89 525.43" style="fill:#fff"/><path d="M448.7,747.93H273.51l-5.1-32.51H453.8Zm-173.17-2.37H446.68L451,717.78H271.17Z" transform="translate(-142.8 -221.32)" style="fill:#15173f"/><polygon points="105.12 676.74 134.68 525.43 144.72 525.43 113.4 676.74 105.12 676.74" style="fill:#808184"/><polygon points="274.16 624.13 161.86 624.13 140.59 526.02 295.44 526.02 274.16 624.13" style="fill:#f69220"/><polygon points="302.53 525.43 134.67 525.43 133.49 536.07 302.53 536.07 302.53 525.43" style="fill:#808184"/><polygon points="148.86 676.74 166.59 525.43 176.64 525.43 157.13 676.74 148.86 676.74" style="fill:#808184"/><polygon points="342.13 676.74 301.94 525.43 291.89 525.43 333.85 676.74 342.13 676.74" style="fill:#808184"/></svg>