<svg width="546" height="525" viewBox="0 0 546 525" fill="none" xmlns="http://www.w3.org/2000/svg">
<path d="M114.871 373.15L168.008 369.499L217.72 366.086L239.712 364.575C245.734 364.162 251.695 365.17 257.316 366.291C269.036 368.626 280.758 370.958 292.483 373.287C304.207 375.616 315.931 377.941 327.656 380.263C339.38 382.586 351.106 384.906 362.833 387.223L398.013 394.183C409.74 396.501 421.468 398.821 433.195 401.143C454.21 405.296 475.166 409.371 496.06 413.821C499.28 414.508 502.753 415.083 506.237 415.712C531.579 376.257 545.647 329.773 545.647 282.231C545.647 80.0505 302.189 -35.3675 146.741 93.3128C70.6006 156.342 36.9902 260.39 67.0756 355.514C69.2964 362.533 71.8712 369.435 74.7901 376.194C77.4035 375.817 79.9181 375.521 82.5988 375.366C93.3667 374.733 104.117 373.888 114.871 373.15Z" fill="#FFF7F0"/>
<path d="M439.196 454.05C427.521 456.197 415.846 458.354 404.171 460.523C378.754 465.265 353.15 471.3 327.198 474.74C313.866 476.5 303.929 471.63 292.674 468.074L279.708 463.979L264.889 459.297L248.574 454.133L231.14 448.628L212.954 442.885L194.404 437.027L175.855 431.168L157.669 425.427L140.237 419.919L123.919 414.766L109.101 410.083L96.1327 405.988L89.0334 403.743C133.594 477.16 218.533 524.152 304.609 524.87C358.639 525.319 412.941 508.386 457.67 470.939C466.875 463.226 475.492 454.837 483.449 445.842C480.377 446.406 477.304 446.965 474.244 447.546C462.573 449.752 450.891 451.92 439.196 454.05Z" fill="#FFF1E1"/>
<path d="M496.071 413.81C475.171 409.36 454.214 405.278 433.206 401.131C421.479 398.814 409.751 396.494 398.024 394.171L362.844 387.211C351.119 384.891 339.393 382.571 327.667 380.251C315.941 377.931 304.217 375.606 292.494 373.275C280.77 370.946 269.048 368.614 257.328 366.279C251.715 365.157 245.745 364.151 239.723 364.564L217.732 366.075L168.008 369.499L114.867 373.15C104.112 373.888 93.3622 374.733 82.5876 375.366C79.9068 375.523 77.3922 375.815 74.7788 376.194C78.8842 385.698 83.6419 394.906 89.0178 403.754L96.117 405.999L109.085 410.094L123.903 414.778L140.221 419.93L157.653 425.438L175.839 431.179L194.389 437.039L212.938 442.896L231.124 448.639L248.558 454.145L264.874 459.309L279.692 463.99L292.658 468.085C303.913 471.641 313.85 476.511 327.182 474.751C353.134 471.32 378.738 465.276 404.156 460.534C415.831 458.351 427.506 456.193 439.181 454.062C450.855 451.93 462.53 449.766 474.205 447.568C477.27 446.989 480.344 446.428 483.411 445.864C491.777 436.414 499.403 426.333 506.222 415.712C502.764 415.072 499.291 414.497 496.071 413.81Z" fill="#FFDEBD"/>
<path d="M99.3567 204.705H52.5896C48.6539 204.705 45.4634 207.896 45.4634 211.831V378.666C45.4634 382.602 48.6539 385.792 52.5896 385.792H99.3567C103.292 385.792 106.483 382.602 106.483 378.666V211.831C106.483 207.896 103.292 204.705 99.3567 204.705Z" fill="#FFCA8C"/>
<path d="M170.217 186.991H123.45C119.514 186.991 116.323 190.181 116.323 194.117V360.952C116.323 364.887 119.514 368.078 123.45 368.078H170.217C174.152 368.078 177.343 364.887 177.343 360.952V194.117C177.343 190.181 174.152 186.991 170.217 186.991Z" fill="#FFCA8C"/>
<path d="M243.046 157.467H196.279C192.343 157.467 189.153 160.657 189.153 164.593V358.985C189.153 362.921 192.343 366.111 196.279 366.111H243.046C246.982 366.111 250.172 362.921 250.172 358.985V164.593C250.172 160.657 246.982 157.467 243.046 157.467Z" fill="#FFCA8C"/>
<path d="M317.842 17.7131H271.075C267.139 17.7131 263.949 20.9036 263.949 24.8393V360.949C263.949 364.885 267.139 368.076 271.075 368.076H317.842C321.778 368.076 324.968 364.885 324.968 360.949V24.8393C324.968 20.9036 321.778 17.7131 317.842 17.7131Z" fill="#FFCA8C"/>
<path d="M513.276 349.158C515.339 348.078 516.823 346.735 517.297 345.029C517.591 343.962 517.627 342.865 517.661 341.776L517.739 339.261C517.769 338.316 517.769 337.292 517.016 336.535C516.469 335.981 515.602 335.662 514.733 335.44C510.243 334.297 505.377 335.294 500.692 335.797C495.292 336.376 489.809 336.279 484.356 336.246C482.637 336.228 480.919 336.339 479.217 336.576C477.665 336.8 475.674 336.057 474.143 335.736L466.783 334.187L459.109 332.573L451.156 330.9L442.953 329.176L434.531 327.404L425.923 325.595L417.167 323.751L408.28 321.881L399.299 319.993L390.258 318.091L381.188 316.183L372.117 314.277L363.08 312.375L354.1 310.489L345.222 308.621L336.466 306.78L327.876 304.984L319.474 303.217L311.293 301.495L303.365 299.829L295.732 298.221L288.403 296.679L281.421 295.211C268.837 292.564 256.258 289.909 243.684 287.245C238.071 286.055 232.101 284.984 226.079 285.424L225.487 285.467L221.91 285.727L215.48 286.196L206.62 286.843L195.769 287.635L183.354 288.533L169.806 289.524L155.558 290.563L141.043 291.632L126.69 292.678L112.931 293.684L100.197 294.613L88.9213 295.435L79.5319 296.109L72.4641 296.625L69.936 296.809C69.6082 296.834 69.276 296.872 68.9459 296.883C67.5988 296.928 66.5189 296.243 65.6298 295.568C65.1493 295.202 64.8552 294.894 64.1996 294.708C63.46 294.495 62.6925 294.395 61.923 294.411C60.8969 294.443 59.8687 294.732 59.1547 295.289C58.8315 295.553 58.5466 295.861 58.3083 296.203C57.8592 296.818 57.7245 297.168 57.729 297.855C57.7335 298.543 57.729 299.268 57.729 299.975C57.729 301.25 57.592 302.579 57.8031 303.839C58.2185 306.327 60.412 308.105 63.4385 309.068L65.2346 309.638L70.3851 311.264L78.5126 313.832L89.2468 317.222L102.213 321.318L117.031 326.001L133.347 331.165L150.78 336.672L168.966 342.413L187.516 348.273L206.066 354.131L224.252 359.874L241.686 365.379L258.001 370.543L272.82 375.227L285.785 379.322C297.041 382.878 306.978 387.748 320.31 385.988C346.262 382.557 371.866 376.513 397.281 371.771C408.956 369.587 420.631 367.43 432.306 365.298C443.981 363.167 455.656 361.003 467.331 358.805C475.449 357.274 483.608 355.86 491.689 354.218C496.848 353.15 507.403 352.234 513.276 349.158Z" fill="#73341A"/>
<path d="M517.993 337.433C518.013 337.043 518.305 335.976 518.018 335.653C517.942 335.581 517.85 335.528 517.751 335.496C516.739 335.102 515.699 334.787 514.639 334.553C511.693 333.834 508.801 332.945 505.883 332.13C499.805 330.433 493.408 329.477 487.068 328.221C407.907 312.558 328.749 296.885 249.593 281.203C243.98 280.08 238.01 279.075 231.989 279.49L209.997 280.999L160.284 284.414L107.143 288.062C96.3887 288.801 85.6387 289.647 74.8641 290.278C71.905 290.451 69.1479 290.792 66.2381 291.228C65.2368 291.378 64.2355 291.529 63.2521 291.735C62.7845 291.807 62.3251 291.924 61.8803 292.085C61.5031 292.254 61.2202 292.406 60.7442 292.364C60.5421 292.346 60.3468 292.296 60.1447 292.276C59.9398 292.264 59.7344 292.264 59.5295 292.276C58.9723 292.282 58.4384 292.501 58.0365 292.887C57.8048 293.065 57.6216 293.299 57.5039 293.566C57.3862 293.834 57.3377 294.127 57.3629 294.418C57.3629 295.738 57.4056 297.218 58.9346 298.091C59.7406 298.556 60.7577 298.873 61.759 299.182C72.8659 302.626 83.9683 306.084 95.1785 309.414L108.144 313.269L122.963 317.674L139.278 322.523L156.712 327.703L174.898 333.105L193.448 338.619L211.997 344.131L230.183 349.533L247.615 354.712L263.931 359.562L278.749 363.967L291.715 367.82C302.972 371.165 312.909 375.747 326.239 374.091C352.193 370.864 377.795 365.177 403.213 360.716C438.687 354.47 474.371 348.572 509.589 341.856C511.682 341.459 513.833 340.958 515.687 340.103C516.891 339.551 517.796 338.891 517.989 337.795C517.973 337.775 517.982 337.631 517.993 337.433Z" fill="#FF9676"/>
<path d="M518.674 333.749C518.081 332.355 516.237 331.452 514.61 330.801C507.127 327.802 497.351 326.778 489.201 325.042C468.301 320.592 447.344 316.511 426.336 312.364L391.154 305.404L355.972 298.444L320.795 291.484C309.07 289.159 297.347 286.834 285.624 284.508C273.901 282.182 262.179 279.85 250.458 277.512C244.845 276.389 238.875 275.383 232.851 275.796L210.862 277.307L161.149 280.72L108.005 284.371C97.2532 285.107 86.501 285.942 75.7264 286.587C72.7695 286.76 70.0124 287.099 67.1026 287.537C65.0573 287.842 62.9535 288.165 61.2652 288.904C58.5193 290.109 57.0577 292.835 59.7721 294.4C60.5782 294.865 61.5952 295.181 62.5966 295.491C73.7057 298.935 84.8059 302.391 96.0161 305.722L108.984 309.575L123.802 313.983L140.12 318.832L157.554 324.012L175.74 329.414L194.29 334.926L212.84 340.44L231.025 345.842L248.459 351.021L264.775 355.871L279.593 360.276L292.559 364.129C303.814 367.474 313.751 372.056 327.083 370.399C353.038 367.171 378.639 361.486 404.057 357.025C439.531 350.779 475.216 344.881 510.434 338.165C514.325 337.447 519.603 335.936 518.674 333.749Z" fill="#DC7600"/>
<path d="M468.161 325.184C465.692 324.681 463.166 324.268 460.689 323.799C449.097 321.612 437.616 319.185 426.066 316.859C421.01 315.842 415.95 314.835 410.887 313.837C408.384 313.34 405.88 312.846 403.374 312.355L399.528 311.596C398.428 311.371 396.987 310.871 395.855 310.871L367.155 305.199L338.453 299.526L309.753 293.843C300.185 291.948 290.619 290.051 281.055 288.152C271.49 286.252 261.927 284.35 252.364 282.445C247.777 281.531 242.914 280.709 237.994 281.046L220.053 282.276L179.492 285.062L136.137 288.04C134.754 288.134 132.056 287.833 131.104 288.758C130.964 288.888 130.855 289.046 130.782 289.222C130.709 289.397 130.675 289.587 130.682 289.777C130.688 289.967 130.736 290.154 130.821 290.324C130.906 290.494 131.027 290.644 131.175 290.763C131.625 291.16 132.314 291.36 132.972 291.547L178.353 304.384L191.331 308.055L204.981 311.917L219.094 315.909L233.464 319.973L247.871 324.048L262.112 328.076L275.974 331.998L289.247 335.752L301.724 339.281C312.018 342.2 322.31 345.256 332.633 348.262C339.683 350.319 347.317 351.919 354.946 351.443C366.672 350.712 378.159 348.626 389.463 346.246C400.819 343.853 412.297 341.755 423.736 339.555L427.25 338.882C438.886 336.636 450.518 334.377 462.146 332.103C466.397 331.266 470.505 330.491 474.475 329.041C474.863 328.922 475.23 328.741 475.561 328.504C475.858 328.262 476.033 327.912 475.894 327.606C475.591 326.933 474.199 326.69 473.435 326.466C471.715 325.954 469.948 325.548 468.161 325.184Z" fill="#F69321"/>
<path d="M256.504 330.678C253.369 329.799 250.231 328.925 247.09 328.055C233.749 324.364 220.372 320.707 206.93 317.236L203.717 316.396C200.574 315.579 197.319 315.828 194.097 316.023C190.381 316.248 186.602 316.221 182.871 316.32C178.751 316.428 174.631 316.443 170.522 316.52C168.401 316.558 166.281 316.612 164.164 316.701C163.437 316.733 158.751 316.567 159.593 317.721C159.785 317.928 160.027 318.082 160.296 318.17C162.723 319.2 165.641 319.793 168.223 320.579L200.255 330.332L214.707 334.739C216.883 335.413 218.998 336.201 221.218 336.78C222.565 337.115 223.959 337.222 225.341 337.097C227.864 336.913 230.307 336.374 232.779 335.974L243.064 334.351L252.242 332.905L256.367 332.254C257.449 332.083 257.552 330.954 256.513 330.666L256.504 330.678Z" fill="#FF9676"/>
<path d="M284.1 287.973L161.687 298.553L161.803 299.895L284.216 289.315L284.1 287.973Z" fill="#F27270"/>
<path d="M331.005 297.455L214.713 314.068L214.904 315.401L331.195 298.788L331.005 297.455Z" fill="#F27270"/>
<path d="M400.317 311.07L279.943 332.209L280.176 333.536L400.55 312.397L400.317 311.07Z" fill="#F27270"/>
<path d="M208.77 282.732L208.474 284.046L443.105 336.88L443.401 335.565L208.77 282.732Z" fill="#F27270"/>
<path d="M170.039 284.947L169.706 286.252L400.256 345.019L400.588 343.713L170.039 284.947Z" fill="#F27270"/>
<path d="M505.591 37.821L496.253 34.4532C493.84 33.581 491.227 33.4251 488.727 34.0041L262.503 86.6312C257.682 87.7537 254.355 91.9724 254.557 96.703L261.717 262.781C261.914 267.334 265.338 271.16 270.024 272.052L504.212 316.621C505.969 316.957 507.776 316.934 509.524 316.554C511.272 316.173 512.925 315.442 514.383 314.405L519.522 310.72C521.164 309.567 522.492 308.021 523.385 306.225C524.278 304.428 524.708 302.436 524.636 300.431L513.783 48.6764C513.575 43.8111 510.353 39.543 505.591 37.821Z" fill="#DC7600"/>
<path d="M243.432 99.0829L250.549 264.198C250.745 268.724 254.182 272.528 258.881 273.403L502.54 319.187C509.167 320.433 515.303 315.464 515.027 309.084L503.561 43.0006C503.294 36.8061 497.108 32.41 490.728 33.8829L251.418 89.0649C246.576 90.183 243.221 94.3793 243.432 99.0829Z" fill="#F69321"/>
<path d="M238.751 99.1188L245.855 263.915C246.048 268.432 249.503 272.222 254.225 273.107L499.118 318.72C505.779 319.959 511.949 315 511.675 308.617L500.225 43.0656C499.958 36.8824 493.743 32.4953 487.328 33.9659L246.782 89.1165C241.912 90.2391 238.549 94.4241 238.751 99.1188Z" fill="#F69321"/>
<path d="M253.17 107.897L259.517 255.157C259.692 259.198 262.779 262.584 266.998 263.369L485.838 304.131C491.792 305.24 497.304 300.808 497.064 295.112L486.823 57.8097C486.585 52.2843 481.031 48.3665 475.299 49.6799L260.341 98.9616C255.996 99.9585 252.988 103.71 253.17 107.897Z" fill="#FFF5F0"/>
<path d="M195.075 130.03L399.115 290.534L454.344 169.411L195.075 130.03Z" fill="#FFE4C7"/>
<path d="M249.216 152.63L403.92 274.321L445.795 182.489L249.216 152.63Z" fill="#FFC688"/>
<path d="M497.059 295.112C497.304 300.808 491.792 305.24 485.833 304.131L266.998 263.369C262.779 262.584 259.692 259.193 259.517 255.157C259.292 249.665 257.813 242.851 259.018 237.57C260.814 229.712 268.61 221.975 275.39 218.23C290.493 209.892 305.568 216.111 316.383 227.862C313.194 224.4 320.752 210.552 322.869 207.303C332.182 193.021 349.468 185.257 366.3 186.043C373.641 186.384 380.972 188.351 387.254 192.231C390.703 194.362 403.466 204.306 402.025 209.294C408.354 187.323 421.558 163.818 443.224 153.344C458.451 145.985 484.913 142.361 489.924 163.928C492.997 177.175 492.501 191.241 493.267 204.871L495.64 247.153C496.525 263.069 496.37 279.092 497.059 295.112Z" fill="#FFD6A1"/>
<path d="M393.174 168.129C387.501 181.054 388.72 196.618 397.889 207.914C400.976 211.715 404.78 214.817 408.751 217.642C411.324 219.469 417.672 221.982 417.699 225.857C417.728 229.952 404.099 233.785 400.599 235.588C394.474 238.744 388.042 241.531 382.739 246.023C373.96 253.459 370.723 265.332 374.881 276.169C377.737 283.63 385.738 285.428 392.788 286.767C423.79 292.653 454.816 298.352 485.837 304.131C491.792 305.24 497.304 300.808 497.063 295.112C497.063 295.112 486.857 58.3262 486.834 57.8098C486.331 46.1685 472.151 49.8529 465.056 52.3293C439.304 61.3235 411.589 86.694 430.128 115.729C435.893 124.757 445.287 128.798 453.208 135.387C455.061 136.925 456.206 140.075 453.433 141.373C452.607 141.762 451.675 141.851 450.768 141.934C445.092 142.253 439.452 143.187 433.776 143.506C420.132 144.267 407.33 148.205 398.498 159.299C396.349 162 394.56 164.968 393.174 168.129Z" fill="#FFE1C0"/>
<path d="M375.804 215.367C367.553 225.594 367.932 240.855 374.158 252.916C368.354 251.726 362.191 251.488 356.621 253.504C341.675 258.915 343.215 274.225 357.265 279.548C361.161 281.026 365.245 281.654 369.313 282.436C373.657 283.271 378.011 284.07 382.36 284.876C391.116 286.5 399.872 288.108 408.628 289.699C417.431 291.303 426.235 292.905 435.041 294.503C443.846 296.102 452.65 297.718 461.453 299.351C465.853 300.168 470.253 300.991 474.652 301.82C480.826 302.981 489.188 306.564 494.423 301.358C499.926 295.884 497.45 285.417 497.052 278.298L495.256 246.212L491.929 186.921C491.704 182.866 484.187 180.962 481.152 180.001C467.115 175.545 452.831 180.271 443.509 191.508C436.082 200.466 433.089 212.934 435.651 224.288C431.709 206.775 396.026 201.737 383.585 208.796C380.6 210.476 377.96 212.706 375.804 215.367Z" fill="#FFC688"/>
<path d="M321.331 192.644C310.267 178.331 295.803 165.938 283.118 153.062C282.599 152.536 282.056 151.964 281.935 151.236C281.573 149.074 284.629 148.342 286.508 147.213C289.492 145.417 289.946 141.027 288.394 137.913C285.085 131.283 275.597 126.054 267.489 122.134C264.759 120.816 262.186 119.644 260.058 118.618C252.384 114.919 244.4 111.902 236.198 109.602L236.665 108.764C236.827 108.475 236.441 107.66 235.796 106.609C257.842 83.9908 283.872 73.3352 304.571 80.5647C301.278 77.1475 297.781 73.8508 294.079 70.6747C284.78 62.7216 274.605 55.8542 263.751 50.2053C227.664 31.366 188.583 27.7782 156.845 37.4752C152.022 34.7825 147.136 32.22 142.188 29.7877C119.781 18.7998 92.4776 9.64393 65.3715 6.54782C48.3463 4.6035 31.3974 5.05029 15.7912 8.93445C15.3916 9.03324 14.9934 9.13502 14.5967 9.2398C14.3857 9.29368 14.1769 9.34981 13.9659 9.40819L13.1127 9.6327L12.5963 9.77639C12.1338 9.90661 11.6735 10.0398 11.2155 10.176C10.7156 10.3257 10.2351 10.4859 9.77411 10.6565C9.54959 10.7418 9.32507 10.8294 9.10055 10.9192C7.68855 11.4844 6.36235 12.2438 5.16028 13.1756C4.26221 13.8802 3.46319 14.7026 2.78486 15.6206C1.53868 17.3583 0.716724 19.3636 0.384775 21.476C-0.598614 27.089 1.0269 33.8245 2.83203 40.0863C5.67473 49.9336 9.49794 59.471 14.2443 68.5552C15.2321 70.4471 16.2567 72.3144 17.3179 74.1569C17.9481 75.2541 18.5917 76.3422 19.2488 77.4214C19.602 78.0052 19.9597 78.5867 20.322 79.1659C20.6093 79.615 20.8945 80.0887 21.1886 80.5467C39.15 108.656 65.4523 130.684 95.1493 147.195C95.787 147.55 96.4253 147.901 97.0645 148.25C106.732 180.691 132.37 211.735 169.359 231.043C176.251 234.645 183.391 237.75 190.724 240.334C193.086 241.165 195.451 241.935 197.819 242.646C190.702 225.868 189.975 203.026 196.05 178.785C196.212 178.762 196.369 178.735 196.517 178.706C196.968 178.635 197.399 178.469 197.781 178.219C208.405 190.828 222.512 200.502 238.457 204.425C247.067 206.544 245.828 200.403 249.907 195.397C254.431 189.829 261.194 190.345 267.559 191.762L307.4 200.632C310.339 201.288 313.343 201.946 316.338 201.629C321.962 201.039 325.116 197.543 321.331 192.644Z" fill="#FFE1C0"/>
<path d="M271.51 116.71C279.62 120.63 289.106 125.859 292.415 132.491C293.967 135.603 293.511 139.999 290.529 141.791C288.65 142.913 285.59 143.65 285.956 145.812C286.077 146.539 286.63 147.112 287.137 147.637C299.822 160.513 314.286 172.907 325.35 187.231C329.135 192.13 325.981 195.628 320.332 196.212C317.337 196.528 314.333 195.87 311.394 195.215L271.553 186.344C265.188 184.927 258.426 184.413 253.902 189.979C249.827 194.986 251.068 201.126 242.451 199.009C221.795 193.924 204.213 179.186 193.302 160.92C183.677 144.806 177.233 120.877 193.452 106.586C202.988 98.1826 217.557 99.276 229.133 101.546C241.227 103.929 252.967 107.845 264.07 113.201C266.205 114.22 268.778 115.385 271.51 116.71Z" fill="#F69321"/>
<path d="M247.431 118.87C252.936 121.53 259.378 125.082 261.623 129.584C262.678 131.696 262.368 134.68 260.343 135.897C259.068 136.663 256.993 137.159 257.238 138.627C257.321 139.121 257.687 139.51 258.042 139.867C266.654 148.607 276.475 157.022 283.985 166.739C286.556 170.067 284.414 172.44 280.579 172.844C278.545 173.068 276.506 172.619 274.517 172.17L247.469 166.149C243.147 165.186 238.556 164.835 235.484 168.618C232.721 172.015 233.563 176.185 227.716 174.748C213.688 171.295 201.757 161.29 194.348 148.888C187.815 137.949 183.439 121.703 194.452 111.997C200.924 106.292 210.817 107.033 218.675 108.576C226.885 110.193 234.856 112.852 242.393 116.488C243.832 117.181 245.579 117.974 247.431 118.87Z" fill="#FC9034"/>
<path d="M157.889 105.257C181.057 60.8812 240.763 45.0863 298.098 65.2593C288.799 57.3067 278.624 50.4393 267.77 44.79C204.604 11.815 132.267 25.5622 106.196 75.4973C80.1246 125.432 110.194 192.649 173.358 225.626C180.25 229.227 187.391 232.333 194.725 234.919C152.996 199.13 136.436 146.346 157.889 105.257Z" fill="#575757"/>
<path d="M211.914 141.238C235.713 92.8682 277.981 64.4532 308.59 75.1493C305.297 71.7321 301.799 68.4392 298.098 65.2705C240.763 45.0953 181.057 60.8924 157.889 105.268C136.436 146.355 152.996 199.142 194.725 234.93C197.087 235.76 199.452 236.531 201.82 237.24C191.598 213.134 194.55 176.53 211.914 141.238Z" fill="#D86E59"/>
<path d="M233.881 93.1803C231.158 89.4938 228.253 85.9396 225.217 82.5C218.522 74.9203 211.178 67.9064 203.439 61.3774C190.657 50.6005 176.721 41.0495 162.128 32.7693C155.003 51.4871 146.439 69.6248 136.512 87.0196C134.408 90.7181 132.232 94.4077 129.986 98.0883C120.699 113.323 110.402 127.919 99.1638 141.777C109.27 147.376 119.702 152.364 130.403 156.717C142.709 161.739 155.41 165.873 168.383 168.695C172.085 169.501 200.143 175.971 202.101 172.464L221.654 137.44L240.691 103.34C241.275 102.285 234.712 94.3029 233.881 93.1803Z" fill="#F69321"/>
<path d="M69.3813 1.12344C50.6767 -1.01172 32.0664 -0.264079 15.2253 4.75839C11.2221 5.95282 8.52791 7.84327 6.79239 10.203C2.18753 16.4625 4.34516 26.0247 6.83956 34.6754C10.9767 48.977 17.1595 62.6055 25.1962 75.138C35.9371 65.1447 45.8518 52.675 54.0602 38.2026L54.6125 37.2259C61.2717 25.2906 66.1819 13.0745 69.3813 1.12344Z" fill="#FF5900"/>
<path d="M233.881 93.1803C231.158 89.4938 228.253 85.9396 225.217 82.5C218.522 74.9203 211.178 67.9064 203.439 61.3774C190.657 50.6005 176.721 41.0495 162.128 32.7693C155.003 51.4871 146.439 69.6248 136.512 87.0196C134.408 90.7181 132.232 94.4077 129.986 98.0883C120.699 113.323 110.402 127.919 99.1638 141.777C109.27 147.376 119.702 152.364 130.403 156.717C142.709 161.739 155.41 165.873 168.383 168.695C172.085 169.501 200.143 175.971 202.101 172.464L221.654 137.44L240.691 103.34C241.275 102.285 234.712 94.3029 233.881 93.1803Z" fill="#F69321"/>
<path d="M69.3813 1.12344C50.6767 -1.01172 32.0664 -0.264079 15.2253 4.75839C11.2221 5.95282 8.52791 7.84327 6.79239 10.203C2.18753 16.4625 4.34516 26.0247 6.83956 34.6754C10.9767 48.977 17.1595 62.6055 25.1962 75.138C35.9371 65.1447 45.8518 52.675 54.0602 38.2026L54.6125 37.2259C61.2717 25.2906 66.1819 13.0745 69.3813 1.12344Z" fill="#DC7600"/>
<path d="M129.979 98.0973C120.692 113.332 110.395 127.928 99.1567 141.786C109.263 147.385 119.694 152.373 130.396 156.726C142.702 161.748 155.403 165.881 168.376 168.704C172.078 169.51 200.136 175.98 202.094 172.473L221.647 137.449C225.794 130.021 229.925 122.63 233.273 116.624C202.46 112.076 169.406 102.287 136.442 87.1363C134.359 90.7929 132.204 94.4466 129.979 98.0973Z" fill="#DC7600"/>
<path d="M19.801 3.51007C18.2623 3.89475 16.7371 4.31085 15.2253 4.75839C11.2221 5.95283 8.52791 7.84327 6.79239 10.203C2.18753 16.4625 4.34516 26.0247 6.83956 34.6754C10.9767 48.977 17.1595 62.6055 25.1962 75.1381C35.9371 65.1448 45.8518 52.675 54.0602 38.2026L54.6125 37.2259C54.6933 37.0778 54.7719 36.9318 54.855 36.7769C41.7521 26.1213 30.0098 14.947 19.801 3.51007Z" fill="#DC7600"/>
<path d="M55.2413 36.0719C55.0325 36.4536 54.8259 36.8375 54.6126 37.2192L54.0603 38.1958C45.8542 52.6683 35.9372 65.138 25.1963 75.1313C43.1465 103.239 69.46 125.266 99.157 141.777C110.395 127.922 120.692 113.329 129.979 98.0972C132.224 94.4166 134.4 90.7271 136.506 87.0285C136.618 86.8309 136.73 86.6356 136.836 86.4403C128.473 82.5486 120.08 78.2828 111.656 73.6427C90.787 62.1295 71.8062 49.3768 55.2413 36.0719Z" fill="#EDA340"/>
<path d="M160.94 32.1024C156.09 29.3813 151.176 26.8015 146.198 24.3633C123.791 13.3754 96.4875 4.22176 69.3815 1.12341C66.2853 12.6928 61.5795 24.507 55.2368 36.0719C71.8062 49.3768 90.787 62.1294 111.654 73.636C120.06 78.276 128.453 82.5419 136.833 86.4335C146.621 69.2193 155.074 51.2802 162.119 32.7737L160.94 32.1024Z" fill="#F69321"/>
<path d="M212.911 111.676C198.176 101.431 182.451 92.72 165.21 86.6154C156.643 83.5821 141.977 78.0837 134.936 86.9297C131.299 91.4986 135.834 98.443 138.959 101.972C149.189 113.524 161.411 123.106 174.882 130.612C189.566 138.798 205.464 144.532 221.564 149.227C234.014 152.859 246.609 156.034 259.247 158.937C261.075 159.357 270.062 160.352 266.01 156.517C248.98 140.41 232.031 125.223 212.911 111.676Z" fill="#575757"/>
<path d="M255.987 152.226L256.009 152.248L256.018 152.235L255.987 152.226Z" fill="#D86E59"/>
<path d="M210.891 122.552C209.638 122.321 208.396 122.114 207.166 121.93C205.442 121.672 203.416 121.559 202.226 122.839C200.933 124.233 201.378 126.454 202.002 128.246C203.888 133.582 206.762 138.313 210.257 142.734C213.576 146.928 216.373 147.72 221.551 149.231C234 152.864 246.596 156.039 259.234 158.942C261.061 159.362 270.049 160.356 265.996 156.521C261.605 152.365 257.176 148.249 252.709 144.173C248.464 140.313 244.034 135.206 239.043 132.352C230.72 127.588 220.525 124.343 210.891 122.552Z" fill="#D86E59"/>
<path d="M94.9585 97.5787C113.547 97.5787 128.616 82.5097 128.616 63.9212C128.616 45.3327 113.547 30.2637 94.9585 30.2637C76.37 30.2637 61.301 45.3327 61.301 63.9212C61.301 82.5097 76.37 97.5787 94.9585 97.5787Z" fill="#F69321"/>
<path d="M62.886 53.7146C60.3505 61.6924 60.8784 70.3287 64.3668 77.9382C67.8552 85.5477 74.0538 91.5845 81.7529 94.8705C89.452 98.1565 98.0992 98.456 106.007 95.7104C113.915 92.9649 120.516 87.3713 124.523 80.0213C125.87 77.5269 127.076 75.4524 125.762 72.7537C124.521 70.2032 122.183 68.6405 119.763 67.3091C109.749 61.81 99.422 56.8997 88.8358 52.6032C83.4653 50.4224 78.0342 48.4017 72.5425 46.5412C69.6081 45.5488 67.7625 43.9525 65.9484 46.8398C64.6238 48.9503 63.6404 51.3481 62.886 53.7146Z" fill="#FF4A0E"/>
<path d="M94.9584 91.9679C110.448 91.9679 123.005 79.4109 123.005 63.9211C123.005 48.4313 110.448 35.8743 94.9584 35.8743C79.4686 35.8743 66.9116 48.4313 66.9116 63.9211C66.9116 79.4109 79.4686 91.9679 94.9584 91.9679Z" fill="#FFE1C0"/>
<path d="M67.9784 55.3423C66.7705 59.5273 66.6717 64.2669 67.2038 67.9153C68.7417 78.4677 76.2923 87.4215 86.454 90.6545C92.5878 92.6078 99.3301 92.2957 105.313 89.9608C108.43 88.7639 111.309 87.023 113.816 84.8193C114.373 84.3209 119.975 78.1421 119.4 77.8098C105.612 69.8507 92.2645 61.1551 78.9259 52.464L75.2819 50.0774L72.4283 48.2184L71.9568 47.9018C71.7323 48.2543 71.3933 48.5192 71.1508 48.8605C69.7428 50.8312 68.6708 53.0214 67.9784 55.3423Z" fill="#FFD6AE"/>
<path d="M72.9062 62.1093C72.555 62.1099 72.2136 61.9927 71.9367 61.7766C71.6598 61.5605 71.4632 61.2578 71.3785 60.917C71.2937 60.5761 71.3256 60.2166 71.469 59.8959C71.6125 59.5753 71.8592 59.3119 72.1698 59.1479L105.623 41.4334C105.806 41.3319 106.007 41.2678 106.215 41.2449C106.423 41.2221 106.633 41.241 106.833 41.3004C107.034 41.3598 107.22 41.4587 107.382 41.5911C107.544 41.7236 107.678 41.8869 107.775 42.0717C107.873 42.2565 107.933 42.4589 107.952 42.6672C107.97 42.8754 107.947 43.0853 107.884 43.2845C107.82 43.4837 107.718 43.6682 107.582 43.8272C107.446 43.9863 107.28 44.1167 107.094 44.2107L73.6404 61.9274C73.4141 62.0469 73.1621 62.1094 72.9062 62.1093Z" fill="white"/>
<path d="M72.9062 75.888C72.555 75.8886 72.2136 75.7714 71.9367 75.5553C71.6598 75.3392 71.4632 75.0365 71.3785 74.6956C71.2937 74.3547 71.3256 73.9953 71.469 73.6746C71.6125 73.354 71.8592 73.0906 72.1698 72.9266L105.623 55.2121C105.806 55.1105 106.007 55.0465 106.215 55.0236C106.423 55.0008 106.633 55.0196 106.833 55.0791C107.034 55.1385 107.22 55.2374 107.382 55.3698C107.544 55.5022 107.678 55.6656 107.775 55.8504C107.873 56.0352 107.933 56.2376 107.952 56.4458C107.97 56.6541 107.947 56.8639 107.884 57.0631C107.82 57.2623 107.718 57.4469 107.582 57.6059C107.446 57.765 107.28 57.8953 107.094 57.9894L73.6404 75.7039C73.4146 75.8248 73.1624 75.8881 72.9062 75.888V75.888Z" fill="white"/>
<path d="M86.6848 81.7928C86.3334 81.7938 85.9917 81.6771 85.7144 81.4611C85.4371 81.2452 85.2402 80.9425 85.1551 80.6015C85.0701 80.2605 85.1018 79.9008 85.2452 79.5799C85.3886 79.259 85.6354 78.9955 85.9462 78.8314L119.399 61.1169C119.582 61.0153 119.783 60.9513 119.991 60.9284C120.199 60.9056 120.409 60.9244 120.61 60.9839C120.81 61.0433 120.997 61.1421 121.158 61.2746C121.32 61.407 121.454 61.5704 121.552 61.7552C121.65 61.9399 121.71 62.1424 121.728 62.3506C121.747 62.5589 121.724 62.7687 121.66 62.9679C121.597 63.1671 121.494 63.3516 121.358 63.5107C121.223 63.6697 121.057 63.8001 120.87 63.8942L87.4168 81.6109C87.1912 81.73 86.94 81.7924 86.6848 81.7928Z" fill="white"/>
<path d="M212.996 251.739C212.917 251.739 212.838 251.731 212.761 251.715C190.52 246.973 168.892 236.971 150.219 222.795C131.546 208.619 116.092 190.464 105.556 170.325C105.417 170.061 105.39 169.753 105.479 169.469C105.567 169.185 105.766 168.947 106.029 168.809C106.293 168.671 106.601 168.643 106.885 168.732C107.169 168.821 107.407 169.019 107.545 169.283C117.938 189.142 133.162 207.027 151.575 221.005C169.988 234.984 191.315 244.845 213.23 249.519C213.5 249.577 213.74 249.732 213.903 249.956C214.066 250.179 214.141 250.455 214.113 250.73C214.085 251.005 213.957 251.26 213.752 251.446C213.548 251.633 213.282 251.737 213.005 251.739H212.996Z" fill="#BF7F40"/>
<path d="M219.658 261.787H219.573C201.039 260.397 182.907 255.139 165.688 246.16C148.954 237.413 134.021 225.588 121.672 211.304C121.575 211.192 121.502 211.062 121.456 210.922C121.41 210.782 121.392 210.634 121.403 210.487C121.413 210.34 121.453 210.197 121.52 210.065C121.586 209.933 121.678 209.816 121.789 209.72C121.901 209.623 122.031 209.55 122.171 209.504C122.311 209.458 122.459 209.44 122.606 209.451C122.753 209.462 122.896 209.501 123.028 209.568C123.16 209.634 123.277 209.726 123.373 209.838C135.536 223.907 150.244 235.554 166.726 244.169C183.681 253.006 201.526 258.181 219.746 259.548C220.043 259.559 220.325 259.687 220.528 259.906C220.73 260.124 220.838 260.413 220.828 260.711C220.817 261.009 220.688 261.29 220.47 261.493C220.252 261.696 219.963 261.804 219.665 261.793L219.658 261.787Z" fill="#D39A5B"/>
<path d="M319.681 83.0141C319.499 83.0141 319.319 82.9697 319.158 82.8848C318.997 82.7999 318.859 82.6771 318.756 82.5269C301.147 56.9049 273.688 38.1105 243.43 30.9664C243.284 30.9348 243.146 30.8745 243.024 30.789C242.901 30.7035 242.797 30.5944 242.718 30.4682C242.638 30.342 242.584 30.2011 242.56 30.0539C242.535 29.9067 242.54 29.7561 242.575 29.6109C242.609 29.4656 242.672 29.3287 242.76 29.2081C242.848 29.0874 242.959 28.9856 243.086 28.9084C243.214 28.8312 243.356 28.7802 243.504 28.7585C243.651 28.7368 243.802 28.7447 243.946 28.7818C274.739 36.0562 302.68 55.1851 320.606 81.2606C320.691 81.3825 320.751 81.5201 320.782 81.6654C320.814 81.8107 320.816 81.9608 320.789 82.107C320.762 82.2532 320.707 82.3926 320.626 82.5171C320.544 82.6416 320.439 82.7487 320.316 82.8323C320.127 82.9553 319.906 83.0186 319.681 83.0141Z" fill="#BF7F40"/>
<path d="M306.041 54.1681C305.893 54.168 305.746 54.1387 305.61 54.0816C305.473 54.0246 305.349 53.941 305.244 53.8358C296.242 44.7842 285.855 37.2243 274.474 31.4401C262.402 25.3512 249.84 21.8352 238.14 21.2717C237.843 21.2574 237.563 21.1254 237.362 20.9048C237.162 20.6841 237.057 20.3929 237.072 20.0952C237.086 19.7975 237.218 19.5176 237.438 19.3172C237.659 19.1168 237.95 19.0122 238.248 19.0265C250.26 19.6058 263.136 23.2048 275.484 29.4329C287.081 35.3264 297.665 43.0296 306.838 52.2529C306.994 52.4103 307.1 52.6103 307.143 52.8278C307.185 53.0453 307.162 53.2704 307.077 53.475C306.992 53.6795 306.848 53.8543 306.664 53.9772C306.479 54.1002 306.263 54.1658 306.041 54.1658V54.1681Z" fill="#D39A5B"/>
<path d="M124.058 277.9C124.552 280.758 124.642 283.668 124.732 286.567C124.985 294.777 125.239 302.986 125.365 311.199C125.661 330.774 125.205 350.489 121.29 369.674C115.697 371.56 108.896 367.566 107.819 361.765C107.56 360.373 107.594 358.949 107.529 357.537C107.39 354.27 106.766 351.046 106.303 347.811C102.841 323.587 108.434 298.587 103.636 274.593C102.76 270.213 101.539 265.9 100.809 261.49C100.49 259.575 99.6417 256.533 100.169 254.627C100.749 252.532 101.754 253.136 103.672 253.825C110.273 256.203 115.971 260.916 119.723 266.82C121.885 270.191 123.358 273.957 124.058 277.9Z" fill="#DB8F35"/>
<path d="M247.979 465.168C248.428 465.748 248.673 466.554 248.616 467.663C248.392 472.218 239.294 473.599 235.884 474.358C228.798 475.93 221.654 475.705 214.458 475.481C215.444 475.512 215.217 477.95 215.062 478.514C214.876 479.148 214.548 479.731 214.105 480.221C213.661 480.711 213.113 481.094 212.5 481.343C211.095 481.947 209.521 481.987 207.992 482.016C199.386 482.203 190.779 482.374 182.173 482.528C174.162 482.676 165.727 483.846 158.008 481.484C155.926 480.137 156.602 476.63 158.641 475.216C160.186 474.142 161.851 474.178 163.603 473.927C165.543 473.651 167.442 473.24 169.404 473.045C177.916 472.191 186.436 471.34 194.999 471.183C198.816 471.116 202.633 471.031 206.396 470.51C210.495 469.946 214.591 468.797 218.657 468.013C223.463 467.085 228.28 466.217 233.107 465.409C235.576 464.993 238.046 464.607 240.529 464.21C242.79 463.837 246.497 463.251 247.979 465.168Z" fill="#F69321"/>
<path d="M144.741 383.725H142.204C139.414 383.725 137.152 385.986 137.152 388.776V465.519C137.152 468.309 139.414 470.57 142.204 470.57H144.741C147.531 470.57 149.792 468.309 149.792 465.519V388.776C149.792 385.986 147.531 383.725 144.741 383.725Z" fill="#12123A"/>
<path d="M144.741 383.725H142.204C139.414 383.725 137.152 385.986 137.152 388.776V417.661C137.152 420.45 139.414 422.712 142.204 422.712H144.741C147.531 422.712 149.792 420.45 149.792 417.661V388.776C149.792 385.986 147.531 383.725 144.741 383.725Z" fill="#03030F"/>
<path d="M179.629 381.244H104.788C103.114 381.244 101.757 382.601 101.757 384.275V385.658C101.757 387.332 103.114 388.689 104.788 388.689H179.629C181.303 388.689 182.66 387.332 182.66 385.658V384.275C182.66 382.601 181.303 381.244 179.629 381.244Z" fill="#4B495E"/>
<path d="M130.893 381.244H104.788C103.114 381.244 101.757 382.601 101.757 384.275V385.658C101.757 387.332 103.114 388.689 104.788 388.689H130.893C132.566 388.689 133.924 387.332 133.924 385.658V384.275C133.924 382.601 132.566 381.244 130.893 381.244Z" fill="#413F54"/>
<path d="M161.93 463.128H125.012C123.338 463.128 121.981 464.485 121.981 466.159V467.542C121.981 469.216 123.338 470.573 125.012 470.573H161.93C163.604 470.573 164.961 469.216 164.961 467.542V466.159C164.961 464.485 163.604 463.128 161.93 463.128Z" fill="#413F54"/>
<path d="M177.608 470.57H111.865C109.075 470.57 106.813 472.832 106.813 475.622V477.926C106.813 480.716 109.075 482.977 111.865 482.977H177.608C180.398 482.977 182.66 480.716 182.66 477.926V475.622C182.66 472.832 180.398 470.57 177.608 470.57Z" fill="#353147"/>
<path d="M113.899 381.663H110.868C104.907 381.663 100.046 376.298 98.4518 370.999C97.2349 366.958 97.2103 362.678 97.1968 358.466C97.08 324.69 97.0464 290.916 97.0958 257.146C97.0958 251.005 100.688 250.41 103.831 254.822C111.654 265.853 111.016 280.193 111.207 293.026C111.472 311.259 111.173 329.508 112.062 347.73C112.248 351.547 112.525 355.521 114.512 358.801C125.205 376.45 163.079 368.614 180.295 373.52C181.753 373.933 183.248 374.443 184.312 375.503C186.164 377.351 185.884 379.355 183.771 380.804C181.658 382.252 178.96 381.663 176.476 381.663H113.899V381.663Z" fill="#F69321"/>
<path d="M179.458 467.187C179.737 468.386 180.302 469.407 181.355 470.034C182.157 470.512 183.131 470.548 184.05 470.537C185.826 470.516 187.598 470.375 189.355 470.115C190.478 469.951 193.129 469.576 193.313 468.051C193.405 467.288 192.339 466.48 191.966 465.795C191.518 464.901 191.236 463.934 191.133 462.939C190.909 461.107 191.171 459.257 191.385 457.423C191.582 455.713 191.744 453.999 191.87 452.281C191.962 451.017 192.438 448.999 191.733 447.829C190.473 445.739 187.211 445.584 185.107 445.332C182.054 444.964 181.16 445.84 180.599 449.133C180.037 452.427 179.871 455.727 179.701 459.041C179.606 461.161 178.856 464.594 179.458 467.187Z" fill="#FC9034"/>
<path d="M179.88 385.278C179.68 388.527 179.348 391.652 179.312 394.14C179.11 408.21 178.716 422.276 178.131 436.338C177.963 440.155 175.886 448.478 177.404 451.918C178.668 454.785 182.159 454.798 184.963 455.577C188.369 456.527 191.786 457.149 195.21 457.966C195.31 457.999 195.418 457.999 195.518 457.966C195.657 457.912 195.722 457.742 195.771 457.607C198.109 450.746 199.487 443.357 201.194 436.302C205.527 418.395 208.728 400.227 211.869 382.066C213.347 373.518 216.634 364.43 214.516 355.696C212.496 347.346 205.298 342.589 198.1 339.27C186.425 333.289 173.764 328.702 161.456 324.288C155.249 322.062 148.997 319.975 142.7 318.026C137.1 316.284 131.8 316.782 125.785 316.369C124.64 316.291 123.474 316.214 122.356 316.477C119.974 317.038 118.167 319.057 116.918 321.219C113.647 326.881 113.326 334.241 116.11 340.182C119.781 348.04 127.911 352.557 135.888 355.474C143.827 358.377 152.24 360.51 160.549 361.946C166.506 362.979 173.699 364.618 177.547 369.991C180.183 373.68 180.226 379.661 179.88 385.278Z" fill="#838386"/>
<path d="M180.819 462.016L183.326 464.185C183.621 464.485 183.983 464.71 184.382 464.841C184.851 464.953 185.34 464.796 185.787 464.616C187.527 463.88 189.079 462.627 190.929 462.261C192.406 461.971 193.948 462.281 195.349 462.849C196.75 463.417 198.044 464.232 199.344 464.998C202.171 466.655 205.121 468.096 208.167 469.306C208.465 469.402 208.741 469.554 208.98 469.755C209.483 470.243 209.467 471.051 209.413 471.756C209.312 473.123 209.225 474.493 209.124 475.86C209.124 475.86 203.21 475.451 202.869 475.429L185.482 474.23C183.749 474.109 180.154 474.56 178.63 473.651C176.441 472.344 178.019 467.539 178.102 465.555C178.142 464.571 177.788 462.459 178.326 461.621C178.962 460.593 180.168 461.453 180.819 462.016Z" fill="#2E2656"/>
<path d="M163.448 184.24C163.829 184.164 164.207 184.081 164.584 183.993C166.474 183.544 167.709 182.965 168.951 181.629C170.32 180.156 171.623 178.486 173.365 177.363C174.541 176.642 175.866 176.199 177.239 176.069C178.613 175.939 179.997 176.124 181.288 176.611C183.85 177.604 185.828 179.849 186.389 182.408C186.658 183.627 186.614 184.878 186.582 186.129C186.465 189.972 183.419 192.682 179.485 193.614C177.77 194.02 176.212 194.492 175.733 196.232C175.077 198.641 174.723 201.122 174.68 203.619C174.656 204.894 174.68 206.27 173.899 207.307C173.118 208.345 171.638 208.803 170.572 209.645C169.38 210.583 168.737 211.984 167.954 213.25C166.746 215.199 164.525 218.286 161.939 218.639C160.868 218.78 159.779 218.511 158.773 218.127C157.311 217.571 155.954 216.769 154.763 215.754C153.309 214.51 153.158 213.403 153.16 211.685C153.16 209.461 152.038 206.847 151.551 204.678C150.929 201.971 149.274 199.555 148.755 196.766C148.223 193.908 148.506 190.81 150.179 188.383C150.474 187.905 150.884 187.51 151.371 187.231C155.123 185.327 159.355 185.073 163.448 184.24Z" fill="#1A1333"/>
<path d="M161.333 219.018C160.412 218.993 159.504 218.799 158.654 218.446C157.152 217.878 155.759 217.055 154.537 216.014C152.936 214.647 152.815 213.358 152.817 211.69C152.817 210.239 152.323 208.598 151.842 207.011C151.604 206.223 151.38 205.475 151.214 204.766C150.929 203.517 150.401 202.296 149.891 201.115C149.305 199.755 148.699 198.349 148.416 196.849C147.803 193.551 148.329 190.484 149.894 188.212C150.221 187.688 150.674 187.254 151.211 186.95C154.045 185.509 157.181 184.99 160.212 184.481C161.252 184.308 162.327 184.13 163.376 183.917C163.776 183.836 164.144 183.755 164.498 183.672C166.474 183.205 167.572 182.613 168.695 181.407C168.978 181.102 169.258 180.787 169.541 180.473C170.63 179.254 171.757 178.003 173.176 177.105C174.395 176.352 175.771 175.89 177.198 175.754C178.625 175.619 180.063 175.814 181.402 176.324C184.097 177.363 186.117 179.676 186.71 182.361C186.988 183.63 186.948 184.918 186.91 186.164C186.795 189.932 183.978 192.922 179.555 193.969C177.826 194.377 176.47 194.813 176.048 196.349C175.399 198.731 175.05 201.184 175.008 203.652V203.877C174.988 205.094 174.966 206.474 174.162 207.539C173.625 208.25 172.839 208.69 172.08 209.11C171.625 209.35 171.189 209.624 170.776 209.932C169.878 210.632 169.323 211.6 168.726 212.626C168.564 212.905 168.403 213.181 168.237 213.452C166.128 216.854 164.022 218.717 161.979 218.991C161.765 219.015 161.549 219.024 161.333 219.018V219.018ZM178.111 176.38C176.498 176.369 174.914 176.812 173.54 177.657C172.193 178.506 171.106 179.73 170.046 180.915C169.761 181.234 169.478 181.551 169.193 181.858C167.812 183.344 166.434 183.901 164.658 184.328C164.294 184.413 163.919 184.494 163.511 184.577C162.453 184.802 161.371 184.972 160.325 185.145C157.343 185.637 154.263 186.149 151.519 187.541C151.083 187.797 150.717 188.155 150.45 188.585C148.987 190.709 148.502 193.596 149.081 196.717C149.348 198.151 149.941 199.523 150.513 200.848C151.034 202.056 151.573 203.318 151.874 204.615C152.033 205.309 152.256 206.046 152.491 206.825C152.983 208.457 153.495 210.147 153.493 211.697C153.49 213.246 153.589 214.323 154.977 215.513C156.138 216.504 157.462 217.287 158.89 217.828C160.073 218.277 161.025 218.437 161.89 218.32C163.699 218.077 165.706 216.27 167.662 213.093C167.828 212.826 167.985 212.554 168.145 212.283C168.746 211.25 169.371 210.181 170.358 209.4C170.799 209.07 171.266 208.776 171.753 208.52C172.482 208.111 173.172 207.725 173.625 207.125C174.299 206.227 174.314 205.028 174.335 203.859V203.634C174.378 201.11 174.736 198.601 175.399 196.164C175.96 194.121 177.947 193.652 179.4 193.309C183.513 192.336 186.135 189.588 186.236 186.14C186.274 184.934 186.313 183.688 186.052 182.503C185.518 180.071 183.596 177.891 181.158 176.948C180.186 176.573 179.153 176.38 178.111 176.38V176.38Z" fill="#1A1333"/>
<path d="M165.762 189.299C168.032 188.318 170.792 189.139 173.232 188.524C175.637 187.918 177.446 186.01 179.438 184.534C180.825 183.508 182.581 182.61 184.355 182.673C186.824 182.758 186.652 184.034 186.586 186.137C186.47 189.981 183.423 192.691 179.489 193.623C177.774 194.029 176.216 194.501 175.738 196.241C175.081 198.65 174.727 201.131 174.685 203.627C174.66 204.903 174.685 206.279 173.903 207.316C173.122 208.354 171.643 208.812 170.576 209.653C169.384 210.592 168.742 211.993 167.958 213.259C166.75 215.208 164.53 218.295 161.943 218.648C160.872 218.789 159.784 218.52 158.778 218.136C157.315 217.58 155.959 216.777 154.768 215.763C151.261 212.765 154.355 207.846 157.359 205.799C158.627 204.934 160.129 204.319 161.052 203.104C162.204 201.571 162.175 199.487 162.175 197.57C162.175 196.05 162.231 194.505 162.687 193.055C163.142 191.604 164.034 190.235 165.381 189.505C165.493 189.42 165.625 189.355 165.762 189.299Z" fill="#838386"/>
<path d="M161.333 219.018C160.412 218.993 159.504 218.799 158.654 218.446C157.152 217.878 155.759 217.055 154.537 216.014C153.976 215.559 153.532 214.976 153.242 214.315C152.951 213.653 152.823 212.932 152.868 212.211C153.014 209.517 155.194 206.854 157.157 205.516C157.532 205.26 157.931 205.024 158.315 204.797C159.26 204.236 160.156 203.704 160.771 202.884C161.824 201.488 161.822 199.573 161.82 197.72V197.559C161.82 196.14 161.86 194.496 162.348 192.943C162.88 191.238 163.89 189.909 165.194 189.2C165.331 189.126 165.473 189.056 165.619 188.993C166.946 188.419 168.425 188.432 169.858 188.446C170.958 188.446 172.103 188.463 173.138 188.201C174.878 187.752 176.346 186.571 177.765 185.419C178.241 185.035 178.731 184.635 179.227 184.269C180.468 183.351 182.37 182.271 184.355 182.341C187.036 182.435 186.986 183.946 186.923 185.861V186.151C186.809 189.918 183.991 192.909 179.568 193.955C177.839 194.364 176.483 194.799 176.061 196.335C175.413 198.717 175.064 201.17 175.022 203.639V203.863C175.001 205.08 174.979 206.461 174.175 207.525C173.639 208.237 172.853 208.677 172.094 209.097C171.638 209.336 171.202 209.611 170.789 209.918C169.891 210.619 169.337 211.587 168.74 212.613C168.578 212.891 168.416 213.167 168.25 213.439C166.142 216.84 164.036 218.704 161.993 218.978C161.774 219.006 161.553 219.02 161.333 219.018V219.018ZM165.893 189.606C165.767 189.66 165.643 189.721 165.524 189.786C164.375 190.412 163.477 191.602 162.996 193.138C162.547 194.602 162.5 196.187 162.5 197.554V197.723C162.5 199.593 162.5 201.712 161.317 203.291C160.621 204.216 159.626 204.806 158.665 205.376C158.291 205.601 157.902 205.825 157.543 206.072C155.655 207.359 153.677 209.889 153.549 212.247C153.507 212.865 153.615 213.484 153.865 214.051C154.114 214.617 154.497 215.116 154.981 215.502C156.143 216.493 157.467 217.276 158.894 217.817C160.078 218.266 161.03 218.425 161.894 218.309C163.704 218.066 165.711 216.259 167.666 213.082C167.833 212.815 167.99 212.543 168.149 212.271C168.751 211.239 169.375 210.17 170.363 209.389C170.804 209.059 171.27 208.765 171.757 208.508C172.487 208.1 173.176 207.714 173.63 207.114C174.303 206.216 174.319 205.017 174.339 203.847V203.623C174.383 201.099 174.74 198.589 175.403 196.153C175.965 194.11 177.952 193.641 179.404 193.297C183.517 192.325 186.14 189.577 186.241 186.128V185.837C186.306 183.888 186.333 183.082 184.321 183.012C182.525 182.947 180.774 183.953 179.62 184.808C179.135 185.165 178.65 185.56 178.181 185.931C176.706 187.13 175.179 188.369 173.295 188.85C172.172 189.135 170.987 189.124 169.842 189.115C168.419 189.101 167.074 189.09 165.877 189.606H165.893Z" fill="#1A1333"/>
<path d="M215.105 467.216C215.697 468.282 216.517 469.088 217.696 469.371C218.594 469.585 219.537 469.322 220.421 469.032C222.12 468.473 223.78 467.802 225.39 467.023C226.411 466.527 228.861 465.362 228.623 463.846C228.504 463.085 227.265 462.643 226.728 462.088C226.055 461.37 225.522 460.532 225.156 459.618C224.451 457.928 224.193 456.078 223.899 454.259C223.625 452.559 223.315 450.867 222.967 449.185C222.714 447.948 222.624 445.869 221.62 444.962C219.844 443.341 216.681 444.18 214.595 444.576C211.568 445.148 210.951 446.257 211.306 449.585C211.661 452.912 212.397 456.12 213.138 459.347C213.614 461.399 213.827 464.915 215.105 467.216Z" fill="#F69321"/>
<path d="M193.284 388.623C193.973 391.794 194.505 394.89 195.145 397.283C198.769 410.822 202.211 424.417 205.473 438.069C206.351 441.785 206.616 450.379 209.005 453.215C210.994 455.579 214.341 454.533 217.242 454.432C220.76 454.309 224.202 453.877 227.705 453.617C227.81 453.618 227.914 453.588 228.003 453.532C228.055 453.475 228.094 453.408 228.119 453.335C228.143 453.263 228.153 453.186 228.147 453.11C228.526 445.828 227.839 438.332 227.561 431.055C226.852 412.589 224.988 394.214 223.071 375.864C222.173 367.227 222.846 357.525 218.448 349.8C214.243 342.413 206.061 340.036 198.266 339.036C185.446 336.845 172.085 336.282 159.094 335.783C152.543 335.532 145.987 335.425 139.426 335.464C133.589 335.491 128.65 337.575 122.772 339.001C121.649 339.272 120.527 339.553 119.516 340.143C117.388 341.403 116.202 343.884 115.594 346.331C113.995 352.748 115.693 359.894 119.965 364.742C125.612 371.152 134.629 373.022 143.061 373.401C151.456 373.778 160.096 373.273 168.445 372.133C174.431 371.315 181.768 370.709 186.912 374.69C190.426 377.413 192.092 383.132 193.284 388.623Z" fill="#838386"/>
<path d="M227.994 443.46C227.904 439.938 227.781 436.42 227.624 432.907C227.302 425.599 226.863 418.297 226.306 411.003C225.284 397.368 223.333 383.866 222.727 370.24C222.464 364.355 222.006 358.358 219.748 352.918C215.906 343.668 207.66 340.247 198.257 339.043C185.437 336.852 172.076 336.288 159.085 335.79C147.06 335.327 130.381 333.72 119.505 340.15C115.913 342.274 113.537 348.639 118.239 350.878C125.529 354.349 137.689 352 145.598 352.018L177.195 352.059C191.948 352.076 202.637 356.513 207.366 371.477C208.672 375.613 209.759 379.8 210.697 384.019C213.67 397.409 215.129 411.134 217.256 424.67C217.718 427.622 218.183 430.577 218.621 433.536C218.845 435.029 219.056 436.524 219.258 438.026C219.833 442.243 220.248 446.54 221.209 450.712C221.461 451.805 221.67 452.941 221.984 454.03C222.789 453.906 223.606 453.878 224.418 453.945C225.138 453.981 225.87 453.884 226.598 453.864C226.921 453.872 227.243 453.828 227.552 453.734C227.708 453.686 227.85 453.602 227.967 453.488C228.085 453.375 228.173 453.235 228.225 453.08C228.136 452.949 228.098 452.789 228.118 452.631V447.916C228.111 446.421 228.032 444.942 227.994 443.46Z" fill="#C0C0C5"/>
<path d="M215.008 461.85L218.001 463.17C218.365 463.367 218.772 463.472 219.186 463.476C219.669 463.442 220.096 463.143 220.471 462.827C221.939 461.594 223.084 459.924 224.759 459.01C226.095 458.282 227.655 458.112 229.151 458.233C230.646 458.354 232.103 458.745 233.562 459.082C236.727 459.814 239.943 460.301 243.183 460.539C243.492 460.54 243.797 460.604 244.081 460.725C244.694 461.042 244.898 461.819 245.04 462.521C245.314 463.868 245.603 465.2 245.877 466.54C245.877 466.54 240.1 467.941 239.766 468.022L222.79 472.144C221.097 472.555 217.777 474.077 216.068 473.666C213.616 473.078 213.823 467.997 213.374 466.071C213.149 465.115 212.231 463.199 212.512 462.236C212.844 461.049 214.231 461.507 215.008 461.85Z" fill="#2E2656"/>
<path d="M166.054 204.38C166.654 204.38 167.285 204.38 167.803 204.66C168.681 205.143 168.926 206.245 168.867 207.204C168.84 207.759 168.643 208.43 168.07 208.551C167.498 208.672 166.818 208.271 166.499 207.813C166.405 207.695 166.337 207.56 166.298 207.415C166.26 207.27 166.252 207.119 166.274 206.971C166.355 206.616 166.768 206.472 167.103 206.353C167.68 206.149 168.405 206.218 168.811 206.661" fill="white"/>
<path d="M167.839 208.917C167.519 208.9 167.207 208.81 166.927 208.654C166.646 208.499 166.405 208.281 166.221 208.019C166.097 207.863 166.008 207.681 165.96 207.488C165.912 207.294 165.906 207.093 165.942 206.896C166.063 206.364 166.616 206.169 166.979 206.041C167.442 205.874 167.947 205.866 168.414 206.019C168.363 205.798 168.269 205.591 168.136 205.408C168.003 205.225 167.835 205.071 167.642 204.954C167.193 204.705 166.587 204.71 166.07 204.714V204.041C166.652 204.041 167.372 204.029 167.983 204.364C168.836 204.831 169.29 205.873 169.222 207.218C169.177 208.116 168.773 208.746 168.16 208.883C168.055 208.906 167.947 208.917 167.839 208.917ZM167.741 206.587C167.56 206.586 167.381 206.616 167.211 206.674C166.95 206.766 166.636 206.878 166.598 207.049C166.587 207.152 166.596 207.255 166.626 207.354C166.655 207.453 166.705 207.545 166.771 207.624C167.033 207.997 167.563 208.322 167.999 208.228C168.434 208.134 168.522 207.406 168.533 207.186C168.533 207.099 168.533 206.991 168.533 206.867C168.315 206.675 168.031 206.574 167.741 206.587V206.587Z" fill="black"/>
<path d="M155.962 217.354L156.077 216.977C157.377 217.794 158.863 218.268 160.397 218.356C161.07 218.394 161.768 218.356 162.345 218.028C163.019 217.658 163.407 216.975 163.692 216.297C164.97 213.293 164.287 210.024 164.402 206.867C164.481 204.685 165.049 201.89 167.945 201.957C168.213 201.953 168.48 202.003 168.729 202.103C168.979 202.202 169.206 202.351 169.397 202.539C169.846 203.019 169.898 203.706 170.172 204.285C170.446 204.865 171.203 205.381 171.757 205.022C171.972 204.849 172.129 204.613 172.206 204.348C173.293 201.683 174.042 198.892 174.438 196.041C174.649 194.517 174.382 194.305 175.884 193.951C177.134 193.654 178.578 193.686 179.871 193.524C180.096 193.495 180.495 214.032 180.32 215.751C180.188 217.121 179.918 218.607 178.827 219.523C177.844 220.35 176.42 220.513 175.102 220.457C173.944 220.408 171.771 219.799 170.81 220.695C169.757 221.676 169.912 224.548 169.75 225.859C169.263 229.892 169.081 233.955 169.204 238.015C169.267 240.064 169.406 242.139 168.953 244.142C168.623 245.594 167.752 247.873 166.203 248.567C165.028 249.092 162.691 248.567 161.438 248.475C157.846 248.217 155.06 246.167 153.681 243.06C153.027 241.53 152.641 239.899 152.538 238.239C152.473 237.395 152.66 236.751 152.763 235.954C152.884 234.943 152.233 233.901 152.033 232.927C151.719 231.398 152.177 229.833 152.628 228.338L155.962 217.354Z" fill="#F69321"/>
<path d="M161.454 248.493C159.721 248.369 159.29 246.228 159.932 244.887C160.515 243.673 161.652 242.835 162.59 241.865C164.566 239.824 165.733 237.094 166.254 234.303C166.775 231.513 166.723 228.641 166.533 225.805C166.456 224.683 166.36 223.544 166.185 222.422C166.005 221.254 165.569 220.336 165.093 219.258C164.912 218.843 164.741 218.32 165.033 217.972C165.257 217.709 165.648 217.68 165.991 217.702C168.387 217.848 170.529 219.362 172.922 219.541C173.16 219.543 173.396 219.58 173.623 219.651C173.752 219.712 173.866 219.802 173.955 219.913C174.045 220.024 174.108 220.154 174.139 220.293C173.528 220.243 172.913 220.232 172.3 220.26C172.018 220.247 171.735 220.27 171.458 220.329C171.222 220.41 171.006 220.541 170.825 220.713C169.772 221.694 169.927 224.566 169.766 225.877C169.279 229.91 169.096 233.973 169.22 238.033C169.283 240.082 169.422 242.157 168.969 244.16C168.639 245.612 167.767 247.891 166.218 248.585C165.044 249.11 162.707 248.585 161.454 248.493Z" fill="#E58D51"/>
<path d="M122.139 273.497C122.52 271.831 122.929 270.173 123.364 268.522C126.595 256.295 131.481 245.805 140.028 236.697C142.469 234.097 145.289 232.206 147.828 229.838C149.507 228.266 150.363 224.728 152.803 224.09C154.476 223.641 156.115 224.811 157.482 225.904L164.667 231.656C167.361 233.809 170.136 236.079 171.6 239.245C179.815 257.016 179.907 275.078 179.15 294.299C179.15 302.056 178.829 309.681 179.947 317.393C180.417 320.633 180.379 328.554 184.243 329.548C184.853 329.705 185.493 329.755 186.077 329.997C187.105 330.435 187.824 331.416 188.488 332.355C189.31 333.516 192.442 336.38 190.569 337.743C189.02 338.866 187.114 339.292 185.266 339.683C178.369 341.142 171.467 342.602 164.514 343.724C159.114 344.598 153.665 345.269 148.391 346.771C144.35 347.925 140.441 349.555 136.557 351.219C133.07 352.712 129.597 354.236 126.263 356.095C123.726 357.442 121.425 358.98 120.621 361.915C120.437 362.588 120.237 364.182 119.613 364.609C117.922 365.774 115.347 363.769 114.357 362.588C110.515 357.918 112.291 354.005 113.443 348.864C113.529 348.401 113.564 347.931 113.546 347.46C113.508 322.956 116.658 297.388 122.139 273.497Z" fill="#C0C0C5"/>
<path d="M122.139 273.497C122.52 271.831 122.929 270.173 123.365 268.522C126.595 256.295 131.481 245.805 140.028 236.697C142.469 234.097 145.289 232.206 147.828 229.838C149.507 228.266 150.363 224.728 152.803 224.09C163.239 221.358 158.998 263.706 158.587 269.47C157.379 286.425 156.637 303.407 156.362 320.415C156.31 323.643 156.277 326.886 156.714 330.083C157.388 334.928 158.827 341.441 154.101 344.901C152.155 346.329 149.124 346.531 146.878 347.231C143.353 348.331 139.943 349.773 136.551 351.226C133.064 352.719 129.59 354.243 126.256 356.102C123.719 357.449 121.418 358.987 120.614 361.922C120.43 362.595 120.23 364.189 119.606 364.616C117.916 365.781 115.34 363.776 114.35 362.595C110.509 357.925 112.285 354.012 113.436 348.87C113.522 348.408 113.557 347.937 113.54 347.467C113.508 322.956 116.658 297.388 122.139 273.497Z" fill="#C0C0C5"/>
<path d="M236.427 328.428C238.284 329.51 240.543 329.62 242.676 329.346C244.809 329.073 246.89 328.448 249.016 328.121C251.192 327.795 253.405 327.802 255.579 328.141C257.085 328.377 259.07 328.529 259.71 327.079C259.879 326.614 259.94 326.116 259.887 325.624C259.757 322.803 258.968 320.052 257.584 317.591C257.328 317.062 256.952 316.601 256.486 316.244C255.835 315.808 255.004 315.795 254.267 315.525C253.444 315.233 252.723 314.627 251.861 314.499C250.942 314.351 250.024 314.744 249.166 315.128L240.581 318.965C238.336 319.966 236.315 321.726 235.538 324.129C235.365 324.622 235.274 325.141 235.269 325.664C235.289 326.695 235.567 327.927 236.427 328.428Z" fill="#FFCA8C"/>
<path d="M236.427 328.428C238.284 329.51 240.543 329.62 242.676 329.346C243.408 329.252 244.499 329.232 245.166 328.918C245.772 328.635 245.978 328.004 246.207 327.368C246.744 325.873 246.845 324.25 246.818 322.674C246.796 321.441 246.688 320.168 246.109 319.081C245.839 318.581 245.499 318.123 245.098 317.721C244.573 317.195 244.584 317.202 243.893 317.496C242.77 317.963 241.683 318.484 240.579 318.976C238.333 319.977 236.313 321.737 235.536 324.14C235.363 324.634 235.272 325.152 235.267 325.676C235.289 326.695 235.567 327.927 236.427 328.428Z" fill="#E58D51"/>
<path d="M182.88 265.846C194.236 289.137 215.81 302.921 237.932 314.093C239.867 315.069 242.047 316.338 242.368 318.563C242.516 319.591 242.218 320.635 241.919 321.636C240.895 325.098 239.521 328.98 236.306 330.393C233.935 331.441 231.243 330.812 228.787 330.105C196.746 320.88 162.17 300.467 150.72 266.47C148.461 259.764 146.31 248.616 149.373 241.712C152.615 234.409 162.969 234.364 167.437 239.319C174.027 246.643 178.297 256.445 182.88 265.846Z" fill="#C0C0C5"/>
<path d="M183.248 265.655C185.738 270.442 188.401 275.127 191.717 279.398C203.993 295.204 220.325 305.199 237.932 314.093C239.867 315.069 242.047 316.338 242.368 318.563C243.601 327.094 233.143 324.016 229.009 321.807C211.634 312.528 195.046 300.725 181.564 286.068C176.432 280.489 144.876 241.216 157.765 235.855C160.74 234.618 165.482 237.179 167.419 239.319C174.346 246.993 178.486 256.506 183.248 265.655Z" fill="#C0C0C5"/>
<path d="M180.143 201.245L180.212 201.27C180.437 201.36 180.781 201.627 180.646 201.905C180.545 202.114 180.244 202.204 180.035 202.242C179.723 202.298 179.409 202.319 179.094 202.357C178.795 202.426 178.49 202.469 178.183 202.485C178.117 202.484 178.052 202.466 177.996 202.431C177.937 202.385 177.896 202.319 177.884 202.244C177.87 202.08 177.905 201.916 177.985 201.772C178.065 201.628 178.186 201.511 178.333 201.436C178.888 201.137 179.538 201.069 180.143 201.245Z" fill="#1A1333"/>
<path d="M178.25 202.824H178.163C178.035 202.821 177.912 202.782 177.806 202.711C177.672 202.615 177.582 202.47 177.554 202.307C177.524 202.076 177.566 201.842 177.672 201.635C177.779 201.428 177.946 201.258 178.151 201.149C178.469 200.973 178.818 200.863 179.178 200.825C179.539 200.786 179.903 200.82 180.251 200.924V200.924L180.336 200.956C180.613 201.059 180.839 201.266 180.967 201.533C181 201.615 181.016 201.704 181.013 201.793C181.01 201.882 180.988 201.969 180.949 202.049C180.821 202.316 180.533 202.498 180.096 202.57C179.871 202.613 179.647 202.635 179.422 202.658L179.132 202.689C179.031 202.7 178.93 202.723 178.827 202.743C178.638 202.789 178.445 202.816 178.25 202.824V202.824ZM178.212 202.15C178.374 202.15 178.536 202.129 178.692 202.087C178.809 202.065 178.93 202.038 179.054 202.024L179.357 201.991C179.581 201.971 179.775 201.95 179.974 201.912C180.105 201.902 180.23 201.853 180.334 201.773C180.272 201.689 180.188 201.625 180.091 201.587L180.035 201.566C179.518 201.418 178.964 201.477 178.49 201.73C178.413 201.771 178.347 201.831 178.298 201.904C178.249 201.977 178.22 202.061 178.212 202.148V202.15Z" fill="#1A1333"/>
<path d="M179.26 204.249C179.176 204.44 179.168 204.656 179.241 204.852C179.313 205.048 179.458 205.208 179.646 205.298C180.235 205.574 180.666 204.903 180.594 204.373C180.571 204.253 180.518 204.14 180.438 204.048C180.358 203.955 180.255 203.885 180.139 203.845C180.024 203.805 179.9 203.796 179.78 203.819C179.66 203.843 179.548 203.897 179.456 203.978C179.373 204.054 179.306 204.147 179.26 204.249V204.249Z" fill="#1A1333"/>
<path d="M179.907 205.698C179.765 205.697 179.625 205.664 179.496 205.603C179.227 205.476 179.019 205.248 178.916 204.969C178.812 204.69 178.823 204.382 178.944 204.11V204.11C179.009 203.967 179.102 203.838 179.218 203.731C179.357 203.606 179.528 203.521 179.712 203.487C179.897 203.452 180.087 203.469 180.262 203.535C180.434 203.595 180.586 203.7 180.702 203.84C180.819 203.981 180.894 204.15 180.92 204.33C180.949 204.554 180.919 204.781 180.835 204.99C180.75 205.199 180.613 205.382 180.437 205.522C180.283 205.636 180.098 205.697 179.907 205.698ZM179.559 204.389C179.511 204.499 179.508 204.623 179.55 204.736C179.592 204.848 179.675 204.94 179.784 204.993C179.823 205.017 179.869 205.029 179.915 205.027C179.961 205.024 180.005 205.008 180.042 204.979C180.12 204.909 180.18 204.822 180.217 204.724C180.254 204.627 180.267 204.522 180.255 204.418C180.244 204.36 180.217 204.306 180.177 204.262C180.138 204.218 180.087 204.186 180.031 204.169C179.971 204.145 179.906 204.138 179.843 204.149C179.78 204.159 179.72 204.186 179.671 204.227C179.622 204.272 179.583 204.327 179.557 204.389H179.559Z" fill="#1A1333"/>
<path d="M174.77 212.956C176.944 212.956 178.706 211.194 178.706 209.02C178.706 206.847 176.944 205.085 174.77 205.085C172.596 205.085 170.834 206.847 170.834 209.02C170.834 211.194 172.596 212.956 174.77 212.956Z" fill="#E58D51"/>
<path d="M168.477 205.767C168.526 206.063 168.476 206.366 168.333 206.629C168.086 207.018 167.563 207.13 167.103 207.105C166.797 207.097 166.497 207.016 166.229 206.867C166.097 206.791 165.983 206.687 165.895 206.563C165.806 206.438 165.746 206.296 165.718 206.147C165.623 205.489 166.167 205.318 166.674 205.201C167.285 205.062 167.374 204.808 167.408 204.227C167.435 203.749 167.514 203.744 167.857 204.162C168.212 204.627 168.427 205.184 168.477 205.767Z" fill="#E58D51"/>
<path d="M344.535 507.349C369.538 507.349 389.807 503.383 389.807 498.491C389.807 493.6 369.538 489.634 344.535 489.634C319.532 489.634 299.263 493.6 299.263 498.491C299.263 503.383 319.532 507.349 344.535 507.349Z" fill="#F69321"/>
<path d="M371.583 395.5C376.356 394.798 380.997 394.113 381.933 393.888C387.842 392.47 392.438 388.096 392.485 381.681L393.181 285.204C393.181 283.924 393.347 282.633 393.424 281.353C393.54 279.447 393.61 277.375 392.526 275.81C391.3 274.056 388.965 273.47 386.825 273.426C380.251 273.289 373.792 276.082 369.212 280.767C360.352 289.838 361.378 305.572 360.574 317.305C359.227 336.874 360.287 356.372 360.146 375.95L359.991 397.335C359.984 397.202 365.878 396.34 371.583 395.5Z" fill="#DB8F35"/>
<path d="M345.368 488.206L347.658 488.222C350.448 488.242 352.726 485.996 352.746 483.207L353.283 408.163C353.303 405.373 351.058 403.096 348.268 403.076L345.978 403.059C343.188 403.039 340.91 405.285 340.89 408.075L340.353 483.118C340.333 485.908 342.579 488.186 345.368 488.206Z" fill="#12123A"/>
<path d="M345.726 438.483L348.016 438.499C350.805 438.519 353.083 436.274 353.103 433.484L353.284 408.165C353.304 405.375 351.059 403.098 348.269 403.078L345.979 403.061C343.189 403.041 340.911 405.287 340.891 408.077L340.71 433.395C340.69 436.185 342.936 438.463 345.726 438.483Z" fill="#03030F"/>
<path d="M311.703 407.682L384.96 408.206C386.633 408.218 388 406.871 388.012 405.197L388.021 403.96C388.033 402.286 386.686 400.919 385.012 400.907L311.756 400.383C310.082 400.371 308.715 401.719 308.703 403.392L308.694 404.63C308.682 406.303 310.03 407.67 311.703 407.682Z" fill="#4B495E"/>
<path d="M311.706 407.68L339.491 407.878C341.165 407.89 342.532 406.543 342.544 404.869L342.553 403.632C342.565 401.958 341.217 400.592 339.544 400.58L311.758 400.381C310.084 400.369 308.717 401.716 308.705 403.39L308.696 404.627C308.684 406.301 310.032 407.668 311.706 407.68Z" fill="#413F54"/>
<path d="M328.472 488.084L364.546 488.342C366.22 488.354 367.587 487.007 367.599 485.333L367.608 484.096C367.62 482.422 366.273 481.055 364.599 481.043L328.524 480.785C326.85 480.773 325.483 482.121 325.471 483.795L325.463 485.032C325.451 486.705 326.798 488.072 328.472 488.084Z" fill="#413F54"/>
<path d="M313.053 500.139L377.311 500.599C380.1 500.619 382.378 498.374 382.398 495.584L382.413 493.523C382.433 490.733 380.187 488.455 377.398 488.435L313.14 487.975C310.35 487.955 308.072 490.201 308.052 492.991L308.038 495.052C308.018 497.842 310.263 500.119 313.053 500.139Z" fill="#353147"/>
<path d="M376.17 401.221L379.14 401.242C384.977 401.284 389.789 396.06 391.39 390.876C392.609 386.922 392.663 382.726 392.708 378.597C393.061 345.482 393.332 312.371 393.523 279.263C393.565 273.242 390.04 272.635 386.944 276.937C379.198 287.696 379.715 301.764 379.443 314.337C379.055 332.213 379.219 350.108 378.217 367.963C378.008 371.702 377.71 375.597 375.747 378.801C365.137 396.03 328.062 388.08 311.138 392.768C309.71 393.163 308.237 393.651 307.189 394.683C305.359 396.48 305.631 398.451 307.68 399.883C309.73 401.316 312.395 400.761 314.827 400.781L333.729 400.916L368.172 401.165L376.17 401.221Z" fill="#F69321"/>
<path d="M454.762 477.825C475.416 477.825 492.16 473.859 492.16 468.967C492.16 464.076 475.416 460.11 454.762 460.11C434.108 460.11 417.364 464.076 417.364 468.967C417.364 473.859 434.108 477.825 454.762 477.825Z" fill="#F69321"/>
<path d="M478.224 370.541C482.789 369.867 487.225 369.214 488.121 369.001C493.77 367.654 498.166 363.462 498.211 357.326L498.884 265.078C498.884 263.854 499.044 262.608 499.109 261.396C499.219 259.573 499.286 257.593 498.24 256.095C497.07 254.418 494.834 253.85 492.789 253.816C486.502 253.686 480.328 256.356 475.95 260.837C467.477 269.508 468.458 284.553 467.69 295.772C466.41 314.483 467.414 333.125 467.279 351.845L467.133 372.294C467.133 372.169 472.771 371.336 478.224 370.541Z" fill="#DB8F35"/>
<path d="M453.381 459.189L455.128 459.202C457.918 459.222 460.195 456.976 460.215 454.187L460.726 382.877C460.746 380.087 458.5 377.809 455.71 377.789L453.964 377.777C451.174 377.757 448.896 380.002 448.876 382.792L448.366 454.102C448.346 456.892 450.591 459.169 453.381 459.189Z" fill="#12123A"/>
<path d="M421.102 382.195L490.88 382.694C492.554 382.706 493.921 381.359 493.933 379.685L493.94 378.769C493.952 377.095 492.604 375.729 490.93 375.717L421.152 375.217C419.478 375.205 418.111 376.553 418.099 378.227L418.093 379.143C418.081 380.816 419.428 382.183 421.102 382.195Z" fill="#4B495E"/>
<path d="M437.136 459.075L471.365 459.32C473.039 459.332 474.406 457.984 474.418 456.311L474.424 455.395C474.436 453.721 473.089 452.354 471.415 452.342L437.186 452.097C435.512 452.085 434.145 453.432 434.133 455.106L434.127 456.022C434.115 457.696 435.462 459.063 437.136 459.075Z" fill="#353147"/>
<path d="M422.48 470.6L483.478 471.037C486.268 471.057 488.545 468.811 488.565 466.021L488.576 464.495C488.596 461.705 486.351 459.427 483.561 459.407L422.563 458.97C419.773 458.95 417.496 461.196 417.476 463.986L417.465 465.512C417.445 468.302 419.69 470.58 422.48 470.6Z" fill="#353147"/>
<path d="M482.609 376.01L485.449 376.03C491.04 376.071 495.633 371.075 497.162 366.12C498.33 362.339 498.381 358.327 498.424 354.378C498.761 322.716 499.02 291.059 499.201 259.407C499.244 253.65 495.874 253.069 492.914 257.184C485.505 267.469 486.001 280.922 485.741 292.945C485.373 310.036 485.517 327.144 484.571 344.218C484.371 347.793 484.084 351.52 482.198 354.582C472.054 371.055 436.605 363.453 420.424 367.934C419.057 368.314 417.651 368.781 416.648 369.766C414.899 371.486 415.157 373.359 417.117 374.739C419.077 376.12 421.623 375.577 423.949 375.595L442.025 375.725L474.955 375.963L482.609 376.01Z" fill="#F69321"/>
<path d="M405.527 493.22C402.123 493.33 398.727 493.604 395.332 493.88C390.882 494.239 382.64 494.271 383.657 501.118C383.725 501.738 383.958 502.329 384.33 502.829C385.051 503.727 386.268 504.001 387.395 504.205C395.648 505.703 404.546 506.338 412.665 504.161C425.058 500.833 439.396 507.358 450.579 501.062C452.6 497.196 435.406 496.507 432.231 495.797C423.47 493.84 414.501 492.975 405.527 493.22V493.22Z" fill="#F69321"/>
<path d="M398.504 363.004C398.372 378.774 398.361 394.993 400.114 410.516C402.744 433.803 406.248 456.948 410.626 479.951C410.819 480.972 411.012 482.068 410.662 483.033C410.247 484.185 409.183 484.83 408.37 485.683C407.557 486.536 406.973 488.02 407.696 488.967L420.218 489.398C421.048 489.428 421.991 489.398 422.553 488.725C423.002 488.197 423.065 487.416 423.103 486.704C423.184 485.191 423.204 483.673 423.226 482.156L423.781 442.64L423.972 428.945C424.028 424.98 424.084 421.006 423.819 417.045C422.934 403.88 427.202 389.564 430.503 376.98C434.025 363.554 437.892 350.038 438.559 335.952C438.891 328.909 436.933 321.459 437.741 314.654C438.28 310.121 438.819 305.547 438.451 300.987C438.177 297.62 437.467 291.25 433.96 290.188C430.703 289.202 425.047 290.83 421.673 291.086C420.339 291.183 418.978 291.286 417.721 291.76C405.664 296.183 403.397 305.231 401.515 316.708C399.398 329.629 398.666 342.752 398.558 355.821C398.546 358.192 398.528 360.586 398.504 363.004Z" fill="#ED987E"/>
<path d="M400.114 410.516C401.086 419.121 402.178 427.713 403.39 436.291C404.233 442.244 405.131 448.187 406.084 454.122C406.563 457.089 407.056 460.052 407.562 463.013C407.816 464.493 408.074 465.973 408.334 467.452C408.511 468.46 408.59 469.54 408.673 470.503C409.232 470.341 409.439 469.904 409.45 469.304C409.45 457.804 409.87 446.289 410.081 434.789C410.276 424.057 408.758 411.554 411.504 401.188C414.569 389.618 424.894 383.368 430.92 373.713C433.812 369.079 434.427 362.124 435.599 356.746C437.092 349.894 438.233 342.952 438.565 335.94C438.898 328.929 436.94 321.448 437.748 314.643C438.287 310.11 438.826 305.536 438.458 300.976C438.184 297.608 437.474 291.239 433.967 290.177C430.709 289.191 425.054 290.819 421.679 291.075C420.346 291.171 418.985 291.275 417.728 291.749C405.671 296.172 403.404 305.22 401.522 316.697C399.405 329.618 398.673 342.741 398.565 355.81C398.544 358.205 398.523 360.608 398.5 363.019C398.363 378.774 398.363 394.993 400.114 410.516Z" fill="#DD8773"/>
<path d="M422.467 482.414L419.697 484.883C419.349 485.195 418.981 485.519 418.534 485.629C418.013 485.759 417.472 485.582 416.978 485.368C415.049 484.533 413.332 483.123 411.282 482.703C409.645 482.376 407.941 482.73 406.394 483.377C404.847 484.023 403.422 484.948 401.978 485.826C399.059 487.593 387.526 490.508 391.65 496.053C393.161 498.085 395.999 497.849 398.107 497.688L417.342 496.289C419.259 496.15 423.238 496.657 424.921 495.615C427.342 494.127 425.581 488.671 425.485 486.41C425.438 485.288 425.826 482.892 425.238 481.94C424.517 480.795 423.186 481.772 422.467 482.414Z" fill="#0B163F"/>
<path d="M431.725 159.82C430.345 159.989 428.945 159.769 427.683 159.184C425.982 158.403 424.139 157.981 422.268 157.943C418.963 157.929 415.981 159.447 413.711 161.793C408.83 166.838 406.989 174.894 407.901 181.71C408.844 188.758 416.902 190.132 419.8 195.882C424.053 204.315 416.675 215.19 413.671 222.918C408.918 235.161 408.058 248.587 408.66 261.706C408.909 267.11 409.405 272.548 410.961 277.73C412.149 281.677 413.979 285.485 416.619 288.67C419.293 291.897 423.116 293.61 427.142 294.663C430.927 295.655 434.892 295.662 438.817 295.662C444.192 295.662 449.747 295.628 454.672 293.477C465.802 288.617 474.127 275.844 475.261 264.005C476.779 248.174 468.153 232.37 463.68 217.586C458.516 200.522 451.5 184.052 446.482 166.919C445.045 162.015 439.684 158.612 434.632 159.379C433.523 159.548 432.6 159.732 431.725 159.82Z" fill="#FFCA8C"/>
<path d="M432.041 164.281C430.968 164.355 429.886 164.433 428.857 164.252C426.181 163.778 424.174 161.613 421.801 160.289C411.134 154.33 407.039 175.197 407.91 181.71C408.853 188.758 416.911 190.132 419.809 195.882C424.062 204.315 416.684 215.19 413.68 222.918C408.927 235.161 408.067 248.587 408.669 261.706C408.918 267.11 409.414 272.548 410.97 277.73C412.158 281.677 413.987 285.485 416.628 288.67C419.302 291.897 423.125 293.61 427.151 294.663C430.936 295.655 434.901 295.662 438.826 295.662C444.201 295.662 449.755 295.628 454.681 293.477C457.344 292.314 461.441 290.417 462.833 287.665C464.349 284.667 463.673 279.678 463.7 276.439C463.778 267.352 462.991 258.279 461.349 249.342C460.451 244.499 459.329 239.708 458.184 234.919C455.427 223.311 452.651 211.711 449.856 200.118C447.162 188.987 444.356 177.725 438.875 167.666C438.318 166.647 437.701 165.603 436.731 164.972C435.352 164.052 433.707 164.162 432.041 164.281Z" fill="#2B1614"/>
<path d="M354.984 163.284C354.679 163.631 354.422 164.018 354.221 164.433C352.951 166.831 351.983 169.377 351.34 172.013L352.276 168.163L352.746 166.239C352.86 165.76 353.239 164.959 353.087 164.472C353.029 164.327 352.928 164.203 352.797 164.119C352.094 163.607 351.068 163.618 350.258 163.982C349.468 164.375 348.8 164.975 348.325 165.718C346.529 168.3 346.217 171.533 346.145 174.606C346.076 176.52 346.148 178.437 346.358 180.34C346.498 181.786 346.868 183.199 347.454 184.528C347.963 185.61 348.776 186.854 349.867 187.491C350.833 188.055 352.918 186.854 354.054 186.578C355.653 186.187 357.986 186.427 359.113 185.23C360.702 183.524 361.403 181.037 362.366 178.993C363.289 177.038 364.56 175.278 365.72 173.452C366.046 172.94 366.365 172.422 366.661 171.894C366.832 171.643 366.933 171.351 366.953 171.048C366.94 170.448 366.279 170.01 365.646 170.006C365.013 170.001 364.423 170.314 363.897 170.653C362.678 171.441 361.609 172.441 360.741 173.605C360.516 173.908 360.146 174.265 359.807 174.088C359.744 174.054 361.398 169.802 361.52 169.438C362.032 167.911 362.544 166.375 362.746 164.788C362.896 163.609 362.146 162.633 360.781 162.732C359.149 162.851 358.195 164.202 357.597 165.491C356.538 167.779 355.72 170.154 354.903 172.525L356.63 167.81L357.501 165.453C357.777 164.694 358.433 163.021 357.2 162.66C356.837 162.569 356.457 162.568 356.094 162.657C355.73 162.746 355.394 162.923 355.114 163.172L354.984 163.284Z" fill="#ED987E"/>
<path d="M375.664 227.143C372.626 226.726 369.749 225.523 367.317 223.654C362.685 220.112 361.282 215.208 360.94 209.788C360.516 202.997 360.393 196.317 361.248 189.519C361.488 187.622 361.771 185.621 360.999 183.872C359.724 180.985 354.726 180.875 351.821 180.931C348.051 181.005 345.902 182.799 344.78 186.23C341.071 197.556 339.553 210.186 341.358 221.899C344.007 239.079 357.074 252.595 376.091 252.716C392.813 252.822 409.214 247.415 421.893 236.443C426.264 232.66 430.97 227.056 428.422 221.149C426.401 216.486 421.284 215.792 416.522 216.468C404.492 218.178 388.709 229.034 375.664 227.143Z" fill="#C0C0C5"/>
<path d="M375.664 227.143C372.626 226.726 369.749 225.523 367.317 223.654C362.685 220.112 361.282 215.208 360.941 209.788C360.516 202.997 360.393 196.317 361.248 189.519C361.488 187.622 361.771 185.623 360.999 183.872C359.876 181.304 357.496 180.59 355.247 182.301C352.588 184.321 351.83 188.122 351.354 191.227C350.033 199.939 350.191 208.81 351.821 217.469C353.455 225.897 357.474 235.538 365.853 239.09C373.487 242.325 382.243 239.88 390.027 237.051C398.735 233.89 407.274 230.279 415.608 226.234C417.643 225.246 419.719 224.193 421.221 222.5C425.802 217.337 421.358 215.776 416.522 216.463C404.492 218.178 388.709 229.034 375.664 227.143Z" fill="#C0C0C5"/>
<path d="M439.632 190.486C439.692 190.397 439.756 190.311 439.825 190.228C440.207 189.759 440.689 189.344 441.008 188.847C441.772 187.66 442.513 186.416 442.827 185.017C443.141 183.618 442.962 182.022 442.05 180.947C441.139 179.871 439.596 179.496 438.233 179.793C434.991 180.5 431.877 178.172 429.614 175.976C428.087 174.457 426.693 172.808 425.449 171.05C424.497 169.725 423.604 167.907 421.857 167.682C419.064 167.345 417.328 173.071 416.628 175.174C414.547 181.438 413.339 189.624 415.977 195.891C416.592 197.352 417.49 198.758 418.693 199.748C419.74 200.608 420.883 200.783 422.183 200.918C426.123 201.326 423.622 209.499 423.081 211.553C421.855 216.133 418.848 221.207 420.11 226.057C420.285 226.73 420.633 227.453 421.275 227.628C421.566 227.69 421.867 227.69 422.158 227.628L424.531 227.276C425.92 227.102 427.296 226.834 428.649 226.474C432.383 225.353 435.592 222.931 437.694 219.647C439.491 216.858 441.121 212.44 440.342 209.009C439.497 205.298 439.594 201.441 439.457 197.606C439.394 195.81 439.33 194.02 439.266 192.238C439.241 191.497 439.262 191.048 439.632 190.486Z" fill="#FFB294"/>
<path d="M431.605 198.834L431.48 198.872C430.065 199.348 428.66 199.86 427.203 200.195C425.779 200.52 424.178 200.311 422.802 200.794C422.847 201.546 423.99 202.072 424.205 202.869C424.461 203.812 424.398 204.833 424.306 205.787C424.12 207.752 423.592 209.651 423.083 211.551C421.857 216.131 418.851 221.205 420.112 226.055C420.287 226.728 420.635 227.451 421.278 227.626C421.568 227.688 421.869 227.688 422.16 227.626L424.533 227.274C425.922 227.1 427.298 226.832 428.651 226.472C430.653 225.891 433.815 224.963 433.756 222.361C433.716 220.79 432.683 219.791 431.758 218.621C430.799 217.408 429.836 216.18 429.167 214.777C427.209 210.659 428.494 206.504 430.514 202.714C430.842 202.098 432.818 199.656 432.409 198.991C432.265 198.744 431.908 198.755 431.605 198.834Z" fill="#E5846A"/>
<path d="M441.419 182.723C440.813 182.691 440.173 182.667 439.636 182.965C438.738 183.475 438.446 184.716 438.455 185.805C438.455 186.438 438.635 187.206 439.212 187.377C439.789 187.548 440.492 187.114 440.837 186.609C441.041 186.338 441.135 185.999 441.1 185.662C441.031 185.255 440.62 185.073 440.285 184.925C439.708 184.669 438.967 184.716 438.538 185.199" fill="#E29076"/>
<path d="M456.484 398.359C455.041 403.684 453.581 409.005 452.856 414.495C451.509 424.753 453.451 435.101 453.44 445.456C453.422 459.895 452.944 474.323 452.007 488.738C451.805 491.852 451.275 495.487 448.671 496.958C447.548 497.598 446.201 497.685 444.93 497.737C438.281 498.003 431.622 497.666 425.034 496.731C425.961 493.518 429.445 492.138 432.472 491.118C435.498 490.099 438.956 488.469 439.578 485.175C440.429 480.669 438.597 475.171 437.849 470.732C436.897 465.058 435.918 459.389 434.91 453.725C432.34 439.252 428.779 424.807 427.432 410.168C426.071 395.391 424.984 380.58 424.169 365.736C423.819 360.175 417.78 299.485 421.251 299.007C430.973 297.665 440.766 296.897 450.579 296.708C454.998 296.623 460.939 296.428 463.527 300.907C464.969 303.401 465.323 306.396 465.609 309.295C467.086 324.733 466.576 340.278 464.643 355.653C463.357 365.88 461.275 375.846 459.466 385.945C458.705 390.139 457.598 394.25 456.484 398.359Z" fill="#FFB294"/>
<path d="M437.849 470.728C436.897 465.053 435.918 459.384 434.91 453.72C432.34 439.248 428.779 424.802 427.432 410.164C426.071 395.386 424.984 380.575 424.169 365.732C423.819 360.17 417.78 299.481 421.251 299.003C430.973 297.66 440.766 296.893 450.579 296.704C454.998 296.618 460.939 296.423 463.527 300.902C464.969 303.397 465.323 306.392 465.609 309.29C466.864 322.406 468.842 340.173 464.544 352.802C460.856 363.635 453.754 372.8 448.929 383.091C440.359 401.372 436.132 419.998 437.757 440.229C438.231 446.078 438.206 451.949 438.381 457.811C438.473 460.817 438.606 463.826 438.902 466.821C439.158 469.441 440.146 472.4 439.852 475.027C438.357 475.593 437.997 471.601 437.849 470.728Z" fill="#E5846A"/>
<path d="M451.504 487.73L448.428 489.751C448.04 490.007 447.631 490.27 447.173 490.312C446.641 490.362 446.129 490.103 445.669 489.816C443.873 488.694 442.366 487.034 440.395 486.316C438.823 485.743 437.086 485.838 435.456 486.244C433.826 486.65 432.301 487.353 430.754 488C426.978 489.571 419.261 489.976 419.281 495.831C419.281 496.689 419.531 497.573 420.101 498.186C421.21 499.378 423.844 499.033 425.312 499.149L444.537 500.683C446.452 500.835 450.321 501.94 452.128 501.17C454.726 500.063 453.725 494.396 453.924 492.153C454.028 491.031 454.737 488.723 454.284 487.69C453.752 486.439 452.301 487.205 451.504 487.73Z" fill="#838386"/>
<path d="M438.026 383.273C447.252 383.17 456.527 382.44 465.534 380.355C473.57 378.498 470.772 370.168 469.722 364.034C468.738 358.302 467.701 352.584 466.529 346.879C464.178 335.525 461.235 324.261 456.967 313.464C454.295 306.701 450.114 297.135 442.73 294.34C437.959 292.543 432.658 294.593 427.537 294.845C421.385 295.148 412.514 291.654 407.106 295.604C403.082 298.538 403.089 308.426 402.045 313.033C398.408 329.086 394.51 344.914 393.064 361.324L391.742 376.401C391.618 377.793 391.535 379.32 392.366 380.442C392.772 380.964 393.317 381.362 393.938 381.589C394.794 381.892 395.688 382.078 396.594 382.142C410.341 383.581 424.203 383.428 438.026 383.273Z" fill="#838386"/>
<path d="M422.66 376.65C426.446 367.591 428.754 358.094 432.961 349.142C435.874 342.948 439.195 336.954 442.901 331.199C445.99 326.407 449.333 322.011 451.282 316.605C454.614 307.357 452.609 298.091 442.73 294.353C437.959 292.557 432.658 294.607 427.537 294.858C421.385 295.161 412.514 291.668 407.106 295.617C403.082 298.551 403.089 308.439 402.045 313.046C398.408 329.099 394.51 344.928 393.064 361.338L391.742 376.414C391.618 377.806 391.535 379.333 392.366 380.456C393.455 381.919 395.429 382.005 397.081 382.027C401.448 382.063 405.795 382.555 410.152 382.775C412.348 382.885 414.582 383.273 416.778 382.941C419.697 382.492 420.734 380.932 421.899 378.399C422.162 377.809 422.418 377.232 422.66 376.65Z" fill="#838386"/>
<path d="M413.197 303.731C411.892 303.731 410.579 303.711 409.279 303.643C408.918 303.626 408.516 303.614 408.089 303.601C405.887 303.54 403.15 303.464 401.556 302.31L401.331 302.146L401.446 301.894C401.85 301.026 401.697 299.537 401.565 298.224C401.511 297.692 401.459 297.191 401.45 296.766C401.428 295.808 401.497 294.84 402.148 294.254C402.482 293.987 402.881 293.815 403.305 293.756C406.886 293.017 410.489 293.711 413.989 294.38C415.489 294.665 417.038 294.964 418.558 295.141C421.425 295.443 424.317 295.436 427.182 295.121L427.649 295.074C428.996 294.937 430.402 294.793 431.771 295.049C432.474 295.179 434.205 295.628 435.11 296.948C435.253 297.158 435.371 297.384 435.46 297.622C435.683 298.264 435.833 298.929 435.909 299.604C435.974 300.131 436.078 300.651 436.219 301.163L436.264 301.313L436.178 301.445C435.366 302.694 433.747 302.813 432.876 302.878C427.784 303.253 422.517 303.641 417.288 303.695L416.151 303.709C415.177 303.72 414.189 303.731 413.197 303.731ZM402.166 301.908C403.637 302.806 406.208 302.876 408.107 302.927C408.54 302.941 408.947 302.952 409.313 302.97C411.583 303.089 413.9 303.062 416.143 303.035L417.279 303.022C422.485 302.968 427.741 302.573 432.824 302.207C433.819 302.132 434.919 301.982 435.518 301.201C435.395 300.707 435.299 300.207 435.233 299.703C435.166 299.078 435.031 298.462 434.829 297.867V297.867C434.756 297.677 434.663 297.497 434.551 297.328C434.021 296.558 432.934 295.952 431.643 295.711C430.352 295.471 429.019 295.61 427.712 295.745L427.245 295.792C424.331 296.112 421.391 296.118 418.475 295.81C416.931 295.628 415.37 295.33 413.859 295.04C410.431 294.384 406.886 293.693 403.437 294.416C403.131 294.454 402.841 294.572 402.595 294.757C402.146 295.159 402.099 295.954 402.117 296.751C402.128 297.15 402.177 297.649 402.229 298.154C402.366 299.438 402.514 300.877 402.166 301.908V301.908Z" fill="black"/>
<path d="M456.269 216.308L456.044 216.106C454.63 214.856 452.901 214.007 451.134 213.351C449.211 212.639 447.216 212.136 445.184 211.852C442.353 211.459 439.452 211.645 436.808 212.792C434.309 213.877 432.631 216.254 430.297 217.678C427.827 219.189 424.486 219.867 422.102 218.221C421.204 217.608 420.454 216.685 419.387 216.533C417.762 216.308 416.54 217.932 415.75 219.368C412.68 224.96 410.116 230.815 408.087 236.863C407.095 239.82 406.197 242.828 405.499 245.871C404.883 248.551 405.743 251.158 406.381 253.818C407.571 258.771 409.109 263.744 409.037 268.888C408.981 273.069 407.84 277.146 406.94 281.237C406.361 283.863 405.878 286.51 405.492 289.176C405.157 291.481 404.904 293.89 405.615 296.1C406.327 298.309 408.256 300.307 410.586 300.366C412.459 300.413 414.286 299.427 416.116 299.113C417.912 298.807 419.666 298.843 421.486 298.888L434.778 299.221C439.982 299.353 452.472 302.283 457.005 299.164C461.538 296.046 456.61 282.588 456.513 277.537C456.424 272.793 456.778 268.062 457.32 263.354C457.753 259.604 458.305 255.868 458.846 252.148C459.796 245.637 461.316 239.178 461.415 232.579C461.505 227.099 460.51 220.262 456.269 216.308Z" fill="#3594BA"/>
<path d="M426.266 230.381C426.14 230.118 426.017 229.856 425.896 229.591C424.737 227.04 423.61 224.474 422.589 221.865C421.978 220.293 421.36 217.375 419.704 216.589C418.006 215.796 416.403 218.203 415.761 219.368C412.691 224.96 410.127 230.815 408.098 236.863C407.106 239.82 406.208 242.828 405.509 245.871C404.894 248.551 405.754 251.158 406.392 253.818C407.582 258.771 409.12 263.744 409.048 268.888C408.992 273.069 407.851 277.146 406.951 281.237C406.372 283.863 405.889 286.51 405.503 289.176C405.168 291.481 404.915 293.89 405.626 296.1C406.338 298.309 408.267 300.307 410.597 300.366C412.47 300.413 414.297 299.427 416.127 299.113C417.923 298.807 419.677 298.843 421.497 298.888L434.789 299.221C439.993 299.353 452.483 302.283 457.016 299.164C461.549 296.046 456.621 282.588 456.524 277.537C456.441 273.167 456.749 269.553 454.764 265.46C453.026 261.973 450.667 258.832 447.804 256.189C439.71 248.666 431.107 240.46 426.266 230.381Z" fill="white"/>
<path d="M391.852 355.619C392.255 355.742 392.671 355.817 393.092 355.844C397.645 356.228 402.777 356.567 407.079 354.721C412.288 352.49 412.854 347.422 413.002 342.303C413.41 328.293 415.438 314.418 416.41 300.451C417.919 278.744 417.214 257.065 417.353 235.341C417.391 229.303 419.526 223.217 421.336 217.489C421.785 216.077 422.47 214.077 421.022 213.288C419.71 212.575 417.542 213.576 416.554 214.427C415.043 215.727 414.533 217.46 413.556 219.106C412.519 220.848 411.201 222.474 410.117 224.202C407.827 227.846 405.766 231.661 404.38 235.747C403.033 239.746 402.36 244.041 402.771 248.259C403.181 252.368 404.728 256.322 405.411 260.417C406.843 268.998 407.595 277.68 406.554 286.353C404.789 301.073 399.782 314.982 395.876 329.18C393.765 336.847 392.001 344.597 390.584 352.431C390.427 353.3 390.301 354.29 390.846 354.984C391.11 355.292 391.461 355.513 391.852 355.619V355.619Z" fill="#C0C0C5"/>
<path d="M462.876 225.377C463.239 227.106 463.47 228.86 463.57 230.624C464.506 245.197 460.851 259.506 462.147 274.18C463.168 285.74 466.684 296.892 468.741 308.28C470.504 318.04 471.654 327.902 472.183 337.806C472.524 344.174 472.998 352.213 466.222 355.447C463.837 356.585 461.17 356.96 458.543 357.258C451.389 358.073 444.189 358.422 436.989 358.302C432.499 358.226 426.688 358.105 426.706 352.429C426.745 338.891 426.895 325.35 426.895 311.809C426.942 302.139 427.694 292.126 426.617 282.548C425.541 273.01 424.948 263.394 425.294 253.796C425.453 248.966 425.894 244.149 426.617 239.371C427.272 235.123 428.918 230.888 430.344 226.811C431.879 222.413 433.727 218.095 436.278 214.184C437.528 212.271 439.091 210.367 441.289 209.73C448.054 207.801 458.334 214.683 461.222 220.545C461.966 222.083 462.522 223.705 462.876 225.377V225.377Z" fill="#C0C0C5"/>
<path d="M442.907 224.62C442.758 224.919 442.601 225.219 442.436 225.518C441.039 228.102 439.223 230.734 436.446 231.686C435.893 231.876 435.303 231.998 434.816 232.321C434.329 232.644 433.963 233.253 434.142 233.809C434.254 234.166 434.558 234.422 434.816 234.687C437.175 237.069 436.387 240.891 435.651 243.792C432.869 254.854 425.209 263.376 422.18 274.355C421.89 275.399 421.625 276.506 421.026 277.323C418.053 281.365 419.405 269.526 419.573 268.006C420.135 262.961 421.118 257.968 422.128 252.997C424.302 242.294 426.639 231.515 430.435 221.382C431.816 217.696 432.993 213.587 435.599 210.547C437.481 208.349 440.379 206.795 443.233 207.298C444.196 207.497 445.124 207.834 445.99 208.3C446.567 208.589 447.151 208.91 447.562 209.422C448.637 210.769 448.049 212.725 447.416 214.321C446.017 217.795 444.627 221.29 442.907 224.62Z" fill="#838386"/>
<path d="M411.327 225.947C411.304 226.777 411.388 227.608 411.578 228.416C411.944 229.945 412.719 231.385 412.824 232.954C412.977 235.175 411.78 237.233 411.104 239.355C408.765 246.706 412.808 254.158 413.879 261.358C414.239 263.679 414.411 266.025 414.396 268.374C414.38 269.382 414.059 272.391 415.801 272.328C416.78 272.292 417.083 270.999 417.099 270.02C417.416 252.058 417.126 234.321 421.535 216.769C421.785 215.772 422.045 214.698 421.675 213.738C420.343 210.289 416.062 214.487 414.982 216.01C413.082 218.693 411.398 222.447 411.327 225.947Z" fill="#838386"/>
<path d="M448.053 313.298C448.449 314.393 448.801 315.767 448.042 316.627C447.479 317.265 446.549 317.301 445.723 317.301C434.073 317.133 422.444 316.448 410.835 315.244C410.162 315.175 409.457 315.092 408.893 314.697C408.188 314.205 407.833 313.327 407.519 312.499C404.054 303.428 400.59 294.357 397.128 285.285C394.189 277.588 391.23 269.815 389.932 261.629C389.876 261.272 389.834 260.871 390.043 260.588C390.267 260.271 390.716 260.244 391.089 260.244H419.34C421.616 260.244 424.933 259.571 427.095 260.453C429.012 261.243 429.477 263.396 430.191 265.264C431.37 268.339 432.54 271.415 433.7 274.494C435.996 280.568 438.273 286.651 440.53 292.743C443.062 299.582 445.57 306.434 448.053 313.298Z" fill="#A58C8B"/>
<path d="M446.816 314.604C447.214 315.7 447.564 317.074 446.816 317.934C446.253 318.572 445.321 318.608 444.497 318.594C432.848 318.428 421.218 317.742 409.609 316.538C408.936 316.468 408.231 316.387 407.665 315.992C406.962 315.5 406.607 314.622 406.291 313.794L395.893 286.58C392.954 278.884 389.995 271.111 388.698 262.923C388.641 262.568 388.599 262.166 388.808 261.883C389.032 261.567 389.481 261.54 389.854 261.54H418.103C420.379 261.54 423.698 260.866 425.858 261.748C427.777 262.536 428.242 264.692 428.956 266.558C430.132 269.632 431.302 272.709 432.465 275.79C434.761 281.862 437.037 287.945 439.293 294.039C441.828 300.885 444.336 307.74 446.816 314.604Z" fill="black"/>
<path d="M444.484 314.616C444.879 315.711 445.231 317.085 444.472 317.945C443.909 318.583 442.979 318.619 442.153 318.619C430.502 318.451 418.873 317.766 407.265 316.562C406.592 316.493 405.887 316.41 405.323 316.014C404.618 315.523 404.263 314.645 403.949 313.819C400.484 304.745 397.021 295.674 393.558 286.605C390.62 278.906 387.66 271.133 386.374 262.947C386.318 262.593 386.275 262.191 386.484 261.906C386.693 261.62 387.157 261.562 387.53 261.562H415.781C418.058 261.562 421.374 260.889 423.536 261.773C425.454 262.561 425.918 264.714 426.632 266.582C427.812 269.655 428.981 272.732 430.141 275.812C432.439 281.888 434.716 287.971 436.971 294.061C439.496 300.9 442 307.751 444.484 314.616Z" fill="#838386"/>
<path d="M443.983 315.916C444.378 317.014 444.731 318.385 443.972 319.245C443.408 319.885 442.479 319.919 441.652 319.919C430.003 319.751 418.374 319.066 406.765 317.862C406.091 317.793 405.386 317.71 404.82 317.317C404.117 316.823 403.763 315.945 403.448 315.119C399.983 306.048 396.52 296.977 393.058 287.905C390.119 280.206 387.16 272.433 385.873 264.247C385.817 263.893 385.774 263.491 385.983 263.206C386.192 262.92 386.657 262.862 387.029 262.862H405.777H415.281C417.557 262.862 420.873 262.189 423.035 263.073C424.953 263.861 425.417 266.017 426.131 267.882C427.311 270.957 428.481 274.033 429.641 277.112C431.937 283.188 434.213 289.271 436.471 295.363C438.996 302.201 441.5 309.051 443.983 315.916Z" fill="#FFCA8C"/>
<path d="M386.163 283.774C386.482 284.137 386.848 284.457 387.252 284.723C389.568 286.374 392.08 287.731 394.731 288.765L390.86 287.26L388.922 286.508C388.444 286.322 387.663 285.819 387.137 285.909C386.978 285.948 386.836 286.036 386.731 286.163C386.102 286.823 385.972 287.889 386.237 288.783C386.502 289.676 387.106 290.417 387.775 291.028C390.209 293.255 393.525 294.016 396.709 294.515C398.687 294.848 400.688 295.038 402.694 295.083C404.215 295.136 405.735 294.947 407.196 294.521C408.39 294.14 409.793 293.466 410.606 292.422C411.327 291.497 410.364 289.164 410.234 287.947C410.049 286.232 410.62 283.841 409.52 282.505C407.964 280.619 405.478 279.548 403.489 278.266C401.583 277.04 399.93 275.476 398.193 274.018C397.705 273.61 397.211 273.208 396.704 272.826C396.466 272.614 396.177 272.469 395.864 272.406C395.24 272.339 394.695 272.963 394.603 273.621C394.511 274.279 394.753 274.934 395.034 275.527C395.685 276.902 396.576 278.149 397.665 279.212C397.95 279.488 398.269 279.921 398.04 280.249C397.995 280.309 393.806 278.004 393.444 277.828C391.929 277.088 390.402 276.344 388.783 275.916C387.577 275.599 386.462 276.243 386.376 277.674C386.273 279.384 387.546 280.563 388.803 281.36C391.033 282.777 393.39 283.953 395.741 285.128L391.08 282.685L388.749 281.463C387.999 281.071 386.352 280.161 385.806 281.392C385.66 281.757 385.607 282.153 385.649 282.545C385.692 282.936 385.83 283.311 386.051 283.637L386.163 283.774Z" fill="#FFB294"/>
<path d="M455.353 271.084C454.5 274.182 452.855 277.005 450.579 279.274C446.26 283.599 440.97 284.382 435.296 283.989C428.179 283.497 421.219 282.703 414.279 280.88C412.342 280.37 410.303 279.8 408.379 280.361C405.204 281.29 404.4 286.466 404.059 289.492C403.61 293.419 405.182 295.898 408.594 297.534C419.852 302.95 432.762 306.266 445.18 306.001C463.39 305.615 479.235 293.895 481.976 274.162C484.389 256.805 481.031 239.023 471.376 224.344C468.049 219.281 462.874 213.621 456.388 215.457C451.264 216.905 449.838 222.132 449.877 227.168C450.002 239.903 459.111 257.799 455.353 271.084Z" fill="#C0C0C5"/>
<path d="M423.817 182.613C423.652 182.465 423.447 182.368 423.228 182.335C423.009 182.301 422.785 182.332 422.584 182.424C422.333 182.548 422.131 182.755 422.014 183.009C421.897 183.264 421.871 183.551 421.94 183.823C422.041 184.362 422.389 184.781 422.936 184.817C423.201 184.839 423.466 184.775 423.692 184.636C423.918 184.496 424.093 184.287 424.191 184.04C424.29 183.794 424.307 183.522 424.239 183.265C424.172 183.008 424.024 182.779 423.817 182.613V182.613Z" fill="#2B1614"/>
<path d="M423.024 185.044H422.921C422.31 185.006 421.85 184.557 421.717 183.87C421.64 183.548 421.674 183.209 421.815 182.909C421.957 182.609 422.196 182.367 422.494 182.222C422.735 182.113 423.003 182.076 423.264 182.116C423.526 182.155 423.77 182.27 423.967 182.446C424.202 182.639 424.371 182.899 424.451 183.192C424.532 183.485 424.519 183.795 424.416 184.08C424.313 184.366 424.123 184.612 423.874 184.785C423.625 184.958 423.328 185.049 423.024 185.046V185.044ZM423.067 182.545C422.931 182.547 422.798 182.576 422.674 182.631C422.47 182.735 422.308 182.906 422.215 183.115C422.121 183.324 422.102 183.559 422.16 183.78C422.232 184.153 422.476 184.561 422.95 184.593C423.165 184.613 423.382 184.563 423.567 184.451C423.752 184.339 423.896 184.171 423.978 183.971C424.061 183.766 424.076 183.539 424.02 183.325C423.965 183.11 423.841 182.92 423.669 182.781V182.781C423.502 182.629 423.285 182.545 423.06 182.545H423.067Z" fill="#2B1614"/>
<path d="M416.244 182.049C416.078 181.901 415.874 181.805 415.654 181.771C415.435 181.738 415.211 181.769 415.009 181.86C414.758 181.985 414.557 182.192 414.44 182.446C414.322 182.701 414.296 182.988 414.365 183.259C414.468 183.798 414.814 184.218 415.361 184.254C415.626 184.276 415.891 184.213 416.118 184.073C416.344 183.933 416.52 183.725 416.618 183.478C416.717 183.231 416.734 182.959 416.667 182.702C416.599 182.444 416.451 182.216 416.244 182.049V182.049Z" fill="#2B1614"/>
<path d="M415.451 184.481H415.345C414.737 184.44 414.275 183.991 414.144 183.304C414.066 182.982 414.1 182.643 414.242 182.343C414.383 182.043 414.623 181.801 414.921 181.656C415.162 181.547 415.429 181.51 415.69 181.55C415.951 181.59 416.195 181.705 416.392 181.881C416.628 182.072 416.798 182.333 416.879 182.625C416.961 182.918 416.949 183.229 416.845 183.515C416.742 183.801 416.552 184.047 416.302 184.22C416.052 184.393 415.755 184.484 415.451 184.481V184.481ZM415.491 181.982C415.356 181.983 415.222 182.012 415.099 182.067C414.895 182.172 414.733 182.343 414.639 182.553C414.546 182.762 414.526 182.997 414.584 183.219C414.656 183.589 414.901 183.998 415.375 184.029C415.59 184.049 415.806 184 415.991 183.888C416.176 183.776 416.321 183.607 416.403 183.407C416.486 183.202 416.501 182.976 416.446 182.762C416.39 182.547 416.267 182.357 416.095 182.217V182.217C415.93 182.067 415.715 181.984 415.491 181.982V181.982Z" fill="#2B1614"/>
<path d="M425.685 180.426L425.653 180.394C425 179.784 423.987 179.496 423.134 179.44C421.904 179.357 420.617 179.923 420.548 181.373C420.541 181.426 420.548 181.479 420.568 181.528C420.588 181.563 420.615 181.592 420.648 181.613C420.682 181.635 420.719 181.648 420.759 181.652C421.19 181.721 421.695 181.16 422.106 181.021C422.81 180.769 423.585 180.801 424.266 181.111C424.758 181.351 425.153 181.876 425.754 181.708C426.502 181.499 426.042 180.774 425.685 180.426Z" fill="#2B1614"/>
<path d="M425.53 181.966C425.173 181.934 424.836 181.791 424.565 181.557C424.442 181.465 424.312 181.383 424.176 181.313C423.549 181.031 422.837 181.002 422.189 181.232C422.03 181.302 421.88 181.389 421.74 181.492C421.435 181.699 421.089 181.941 420.734 181.872C420.659 181.863 420.587 181.836 420.524 181.793C420.462 181.75 420.41 181.692 420.375 181.625C420.34 181.542 420.326 181.452 420.335 181.362C420.341 181.076 420.405 180.795 420.523 180.534C420.642 180.274 420.812 180.041 421.024 179.849C421.624 179.364 422.392 179.136 423.159 179.216C424.219 179.287 425.213 179.665 425.817 180.23L425.853 180.264C425.963 180.372 426.502 180.938 426.372 181.438C426.336 181.562 426.266 181.673 426.17 181.759C426.074 181.846 425.956 181.903 425.829 181.926C425.731 181.952 425.631 181.965 425.53 181.966ZM423.114 180.619C423.55 180.616 423.981 180.712 424.374 180.899C424.531 180.981 424.681 181.075 424.823 181.18C425.169 181.425 425.398 181.569 425.701 181.483C425.838 181.445 425.914 181.389 425.925 181.317C425.968 181.158 425.797 180.839 425.528 180.576L425.501 180.549C424.969 180.053 424.077 179.719 423.119 179.651C422.471 179.579 421.822 179.765 421.311 180.17C421.144 180.322 421.009 180.507 420.916 180.714C420.824 180.921 420.775 181.144 420.772 181.371C420.772 181.384 420.772 181.396 420.772 181.409H420.797C420.977 181.438 421.246 181.259 421.482 181.099C421.654 180.972 421.841 180.868 422.039 180.787C422.384 180.677 422.745 180.623 423.107 180.628L423.114 180.619Z" fill="#2B1614"/>
<path d="M417.29 181.005C417.268 180.912 417.236 180.822 417.196 180.736C416.949 180.179 416.558 179.642 415.995 179.485C415.431 179.328 414.827 179.582 414.378 179.979C414.066 180.235 413.845 180.587 413.752 180.98C413.737 181.019 413.737 181.062 413.752 181.102C413.765 181.121 413.782 181.137 413.802 181.148C413.823 181.16 413.845 181.167 413.868 181.169C414.123 181.172 414.372 181.104 414.589 180.971C415.245 180.675 416.226 180.994 416.771 181.407C416.829 181.459 416.898 181.494 416.974 181.51C417.128 181.53 417.268 181.373 417.292 181.209C417.303 181.142 417.302 181.073 417.29 181.005V181.005Z" fill="#2B1614"/>
<path d="M416.998 181.737H416.942C416.828 181.716 416.722 181.664 416.635 181.589C416.12 181.2 415.227 180.931 414.679 181.178L414.598 181.214C414.367 181.351 414.098 181.413 413.83 181.391C413.772 181.386 413.717 181.366 413.668 181.335C413.619 181.303 413.578 181.26 413.55 181.209C413.51 181.125 413.5 181.03 413.523 180.94C413.626 180.499 413.871 180.105 414.221 179.817C414.787 179.314 415.469 179.112 416.046 179.274C416.742 179.472 417.169 180.132 417.393 180.65C417.439 180.752 417.475 180.858 417.501 180.967V180.967C417.518 181.06 417.518 181.155 417.501 181.248C417.485 181.374 417.427 181.492 417.336 181.581C417.244 181.67 417.125 181.725 416.998 181.737V181.737ZM415.182 180.632C415.804 180.651 416.405 180.859 416.906 181.227C416.934 181.253 416.966 181.274 417.001 181.288C417.019 181.275 417.034 181.258 417.045 181.239C417.057 181.219 417.065 181.198 417.068 181.176C417.074 181.134 417.074 181.092 417.068 181.05V181.05C417.049 180.973 417.023 180.898 416.989 180.825C416.798 180.394 416.459 179.849 415.932 179.703C415.503 179.582 414.975 179.748 414.524 180.152C414.272 180.362 414.086 180.64 413.988 180.953C414.138 180.931 414.284 180.882 414.419 180.81L414.502 180.772C414.722 180.675 414.961 180.627 415.202 180.632H415.182Z" fill="#2B1614"/>
<path d="M427.205 192.415C429.379 192.415 431.141 190.653 431.141 188.479C431.141 186.306 429.379 184.543 427.205 184.543C425.031 184.543 423.269 186.306 423.269 188.479C423.269 190.653 425.031 192.415 427.205 192.415Z" fill="#E5846A"/>
<path d="M416.709 187.256C416.448 187.671 416.136 188.255 416.527 188.697C416.795 188.938 417.148 189.063 417.508 189.045C418.128 189.072 418.644 188.953 418.653 188.273C418.666 187.404 418.635 186.533 418.565 185.664C418.525 185.161 418.375 184.898 417.955 185.296C417.389 185.825 417.11 186.609 416.709 187.256Z" fill="#D86E59"/>
<path d="M417.366 191.099C417.719 191.116 418.071 191.055 418.397 190.92C418.684 190.799 419.167 190.419 419.477 190.653C420.085 191.115 419.057 191.614 418.695 191.724C417.829 191.984 416.816 191.991 416.064 191.432C415.969 191.37 415.891 191.285 415.839 191.185C415.469 190.372 416.926 191.045 417.097 191.072C417.186 191.088 417.276 191.097 417.366 191.099Z" fill="#D86E59"/>
</svg>
